<svg width="22" height="22" viewBox="0 0 22 22" fill="none" xmlns="http://www.w3.org/2000/svg">
<path d="M16.6979 11.6549C16.7272 14.8268 19.4696 15.8824 19.5 15.8958C19.4768 15.9703 19.0618 17.4001 18.0552 18.877C17.185 20.1538 16.2818 21.426 14.8591 21.4523C13.4612 21.4782 13.0116 20.6201 11.4134 20.6201C9.81557 20.6201 9.31613 21.426 7.9928 21.4782C6.61951 21.5303 5.57377 20.0974 4.69635 18.8253C2.90344 16.223 1.53328 11.472 3.37305 8.2649C4.28701 6.67226 5.92033 5.66373 7.69314 5.63787C9.04167 5.61205 10.3145 6.54868 11.1389 6.54868C11.9628 6.54868 13.5095 5.4223 15.1356 5.58772C15.8164 5.61616 17.7272 5.86378 18.9542 7.66682C18.8553 7.72835 16.6742 9.00309 16.6979 11.6549V11.6549ZM14.0706 3.86611C14.7997 2.98012 15.2904 1.74674 15.1565 0.519531C14.1056 0.561935 12.8348 1.22258 12.081 2.10809C11.4054 2.89224 10.8138 4.14733 10.9734 5.35025C12.1448 5.44123 13.3414 4.75267 14.0706 3.86611" fill="#D3D5DD"/>
</svg>
