<svg width="226" height="230" viewBox="0 0 226 230" fill="none" xmlns="http://www.w3.org/2000/svg">
<g opacity="0.1" filter="url(#filter0_d)">
<path fill-rule="evenodd" clip-rule="evenodd" d="M27.3065 190.308C32.1998 194.106 37.6158 198.029 42.6628 202.379C44.4278 203.9 45.5634 205.91 48.2487 204.938C48.8005 204.738 49.6336 204.469 49.7526 204.054C51.7688 197.026 56.6484 191.6 59.9062 185.279C62.0875 181.045 63.4799 176.513 62.4448 171.61C62.2378 170.631 61.2731 169.798 60.6577 168.898C59.8026 169.515 58.653 169.946 58.1408 170.777C54.4178 176.821 50.7612 182.909 47.2227 189.064C46.1125 190.995 45.2164 190.705 43.612 189.577C39.9094 186.976 36.0073 184.665 32.2741 182.106C30.6778 181.013 29.2981 179.601 27.8331 178.319C27.7107 178.212 27.7425 177.901 27.619 177.827C26.3442 177.057 24.34 175.402 23.8995 175.741C22.6269 176.718 21.5441 178.391 21.1739 179.988C20.0301 184.922 24.3159 187.02 27.3065 190.308Z" fill="#213D70"/>
<path fill-rule="evenodd" clip-rule="evenodd" d="M73.0375 106.12C72.9207 105.861 72.8044 105.599 72.6876 105.339L80.7812 102.647C80.889 102.959 80.9954 103.271 81.1024 103.583C78.4148 104.428 75.7251 105.275 73.0375 106.12ZM116.531 66.9309C116.457 66.7205 116.384 66.5101 116.31 66.2998C120.42 64.4612 124.531 62.6233 128.642 60.7847C128.777 61.082 128.912 61.3801 129.047 61.6768C124.875 63.4284 120.703 65.1793 116.531 66.9309ZM107.778 112.749C109.675 115.278 111.622 117.772 113.452 120.349C114.584 121.94 114.136 123.171 112.526 124.297C107.482 127.823 100.519 127.46 95.4231 123.493C89.8675 119.17 89.398 113.291 89.9663 107.098C90.0103 106.614 91.3567 105.907 92.1019 105.912C98.2382 105.955 103.149 108.856 107.778 112.749ZM103.311 82.0389C114.058 69.4789 128.131 63.5553 144.277 61.4947C162.657 59.1488 180.83 60.9347 198.941 64.5189C204.426 65.6043 209.888 66.8311 215.393 67.7832C216.87 68.0399 218.713 67.9333 219.933 67.2233C220.774 66.7335 220.833 64.9202 221.24 63.6973C220.479 63.489 219.724 63.2428 218.954 63.079C216.88 62.6388 214.749 62.4019 212.731 61.7823C206.161 59.7676 199.664 57.5063 193.077 55.5595C188.636 54.2475 184.124 53.1218 179.582 52.2659C176.713 51.7258 173.712 51.9854 170.8 51.6213C166.185 51.0454 161.604 49.8062 156.991 49.6481C149.811 49.3999 142.523 49.1758 135.446 50.0952C119.801 52.1276 106.708 59.04 96.6444 71.4524C91.961 77.2283 87.1034 82.7567 84.4941 89.889C84.2092 90.6687 82.8674 91.3822 81.9179 91.5267C72.3496 92.9734 64.1363 97.1971 57.2788 103.766C52.1466 108.681 46.8058 113.642 42.8968 119.486C39.617 124.389 37.8083 130.464 36.2067 136.267C34.7843 141.427 34.2067 146.9 33.8515 152.282C33.347 159.949 35.1009 167.351 38.4789 174.291C38.9638 175.287 40.8399 176.067 42.1032 176.131C43.5074 176.204 43.9991 174.903 44.5035 173.37C46.0818 168.572 44.1409 164.251 43.0669 159.86C41.0305 151.542 42.5473 143.678 46.179 136.424C52.3748 124.047 62.5206 115.398 74.6807 109.136C81.2505 105.754 81.4167 106 81.7078 113.139C82.0903 122.535 85.4327 130.615 92.8093 136.713C101.372 143.79 113.267 142.38 120.084 133.77C122.224 131.067 122.24 127.901 122.147 124.76C121.936 117.626 119.289 111.312 114.768 105.797C110.092 100.092 104.889 95.0439 97.5142 92.9158C95.7336 92.4017 95.7397 91.3253 96.8504 89.9984C99.043 87.3774 101.162 84.6953 103.311 82.0389Z" fill="#213D70"/>
</g>
<defs>
<filter id="filter0_d" x="16.9844" y="49.4297" width="208.255" height="163.764" filterUnits="userSpaceOnUse" color-interpolation-filters="sRGB">
<feFlood flood-opacity="0" result="BackgroundImageFix"/>
<feColorMatrix in="SourceAlpha" type="matrix" values="0 0 0 0 0 0 0 0 0 0 0 0 0 0 0 0 0 0 127 0"/>
<feOffset dy="4"/>
<feGaussianBlur stdDeviation="2"/>
<feColorMatrix type="matrix" values="0 0 0 0 0 0 0 0 0 0 0 0 0 0 0 0 0 0 0.25 0"/>
<feBlend mode="normal" in2="BackgroundImageFix" result="effect1_dropShadow"/>
<feBlend mode="normal" in="SourceGraphic" in2="effect1_dropShadow" result="shape"/>
</filter>
</defs>
</svg>
