<svg width="724" height="714" viewBox="0 0 724 714" fill="none" xmlns="http://www.w3.org/2000/svg">
<g opacity="0.05">
<circle r="19.5" transform="matrix(0.965926 -0.258819 -0.258819 -0.965926 108.088 480.772)" fill="#213D70"/>
<circle r="19.5" transform="matrix(0.965926 -0.258819 -0.258819 -0.965926 614.732 525.991)" fill="#213D70"/>
<circle r="9.5" transform="matrix(0.965926 -0.258819 -0.258819 -0.965926 498.353 132.912)" fill="#213D70"/>
<circle r="19.5" transform="matrix(0.965926 -0.258819 -0.258819 -0.965926 214.221 675.953)" fill="#213D70"/>
<circle r="38" transform="matrix(0.965926 -0.258819 -0.258819 -0.965926 490.463 348.809)" fill="#213D70"/>
<circle r="30.5" transform="matrix(0.965926 -0.258819 -0.258819 -0.965926 130.692 368.083)" fill="#213D70"/>
<circle r="22.0327" transform="matrix(0.965926 -0.258819 -0.258819 -0.965926 633.385 401.867)" fill="#213D70"/>
<circle r="30.5" transform="matrix(0.965926 -0.258819 -0.258819 -0.965926 532.341 221.12)" fill="#213D70"/>
<circle r="30.5" transform="matrix(0.965926 -0.258819 -0.258819 -0.965926 82.034 186.489)" fill="#213D70"/>
<circle r="24" transform="matrix(0.965926 -0.258819 -0.258819 -0.965926 469.239 53.2311)" fill="#213D70"/>
<circle r="15.5" transform="matrix(0.965926 -0.258819 -0.258819 -0.965926 192.772 568.856)" fill="#213D70"/>
<circle r="15.5" transform="matrix(0.965926 -0.258819 -0.258819 -0.965926 66.9499 284.741)" fill="#213D70"/>
<circle r="15.5" transform="matrix(0.965926 -0.258819 -0.258819 -0.965926 614.732 331.559)" fill="#213D70"/>
<circle r="22.5" transform="matrix(0.965926 -0.258819 -0.258819 -0.965926 617.806 252.039)" fill="#213D70"/>
</g>
</svg>
