<svg width="62" height="62" viewBox="0 0 62 62" fill="none" xmlns="http://www.w3.org/2000/svg">
<mask id="mask0" mask-type="alpha" maskUnits="userSpaceOnUse" x="0" y="0" width="62" height="62">
<circle cx="31" cy="31" r="31" fill="#C4C4C4"/>
</mask>
<g mask="url(#mask0)">
<circle cx="31" cy="31" r="31" fill="#BED3F4"/>
<mask id="path-3-inside-1" fill="white">
<path d="M13.0012 54.8238C12.9682 50.9541 16.2773 48.1191 20.1471 48.1191H41.077C45.1064 48.1191 48.4936 51.1817 48.352 55.2086C48.2301 58.6771 47.7557 62.7478 46.4021 65.7842C45.5401 67.7178 43.4186 68.5469 41.3015 68.5469C35.4412 68.5469 26.9027 68.5469 20.2957 68.5469C18.1787 68.5469 16.0505 67.7312 15.1068 65.8362C13.4811 62.5715 13.0312 58.3353 13.0012 54.8238Z"/>
</mask>
<path d="M13.0012 54.8238C12.9682 50.9541 16.2773 48.1191 20.1471 48.1191H41.077C45.1064 48.1191 48.4936 51.1817 48.352 55.2086C48.2301 58.6771 47.7557 62.7478 46.4021 65.7842C45.5401 67.7178 43.4186 68.5469 41.3015 68.5469C35.4412 68.5469 26.9027 68.5469 20.2957 68.5469C18.1787 68.5469 16.0505 67.7312 15.1068 65.8362C13.4811 62.5715 13.0312 58.3353 13.0012 54.8238Z" fill="#922D87"/>
<path d="M15.1068 65.8362L14.368 66.2041L15.1068 65.8362ZM46.4021 65.7842L45.6483 65.4481L46.4021 65.7842ZM48.352 55.2086L47.5272 55.1796L48.352 55.2086ZM47.5272 55.1796C47.4061 58.6244 46.9346 62.5628 45.6483 65.4481L47.156 66.1203C48.5769 62.9329 49.0541 58.7298 49.1769 55.2376L47.5272 55.1796ZM41.3015 67.7216C41.2901 67.7216 41.2786 67.7216 41.2672 67.7216C41.2557 67.7216 41.2442 67.7216 41.2327 67.7216C41.2213 67.7216 41.2098 67.7216 41.1983 67.7216C41.1868 67.7216 41.1752 67.7216 41.1637 67.7216C41.1522 67.7216 41.1406 67.7216 41.1291 67.7216C41.1175 67.7216 41.106 67.7216 41.0944 67.7216C41.0829 67.7216 41.0713 67.7216 41.0597 67.7216C41.0481 67.7216 41.0365 67.7216 41.0249 67.7216C41.0133 67.7216 41.0017 67.7216 40.99 67.7216C40.9784 67.7216 40.9668 67.7216 40.9551 67.7216C40.9435 67.7216 40.9318 67.7216 40.9202 67.7216C40.9085 67.7216 40.8968 67.7216 40.8851 67.7216C40.8735 67.7216 40.8618 67.7216 40.85 67.7216C40.8383 67.7216 40.8266 67.7216 40.8149 67.7216C40.8032 67.7216 40.7914 67.7216 40.7797 67.7216C40.768 67.7216 40.7562 67.7216 40.7444 67.7216C40.7327 67.7216 40.7209 67.7216 40.7091 67.7216C40.6973 67.7216 40.6855 67.7216 40.6737 67.7216C40.6619 67.7216 40.6501 67.7216 40.6383 67.7216C40.6265 67.7216 40.6146 67.7216 40.6028 67.7216C40.591 67.7216 40.5791 67.7216 40.5673 67.7216C40.5554 67.7216 40.5435 67.7216 40.5316 67.7216C40.5198 67.7216 40.5079 67.7216 40.496 67.7216C40.4841 67.7216 40.4722 67.7216 40.4603 67.7216C40.4483 67.7216 40.4364 67.7216 40.4245 67.7216C40.4125 67.7216 40.4006 67.7216 40.3886 67.7216C40.3767 67.7216 40.3647 67.7216 40.3528 67.7216C40.3408 67.7216 40.3288 67.7216 40.3168 67.7216C40.3048 67.7216 40.2928 67.7216 40.2808 67.7216C40.2688 67.7216 40.2568 67.7216 40.2448 67.7216C40.2327 67.7216 40.2207 67.7216 40.2086 67.7216C40.1966 67.7216 40.1845 67.7216 40.1725 67.7216C40.1604 67.7216 40.1483 67.7216 40.1363 67.7216C40.1242 67.7216 40.1121 67.7216 40.1 67.7216C40.0879 67.7216 40.0758 67.7216 40.0636 67.7216C40.0515 67.7216 40.0394 67.7216 40.0273 67.7216C40.0151 67.7216 40.003 67.7216 39.9908 67.7216C39.9787 67.7216 39.9665 67.7216 39.9543 67.7216C39.9422 67.7216 39.93 67.7216 39.9178 67.7216C39.9056 67.7216 39.8934 67.7216 39.8812 67.7216C39.869 67.7216 39.8568 67.7216 39.8445 67.7216C39.8323 67.7216 39.8201 67.7216 39.8078 67.7216C39.7956 67.7216 39.7833 67.7216 39.7711 67.7216C39.7588 67.7216 39.7465 67.7216 39.7343 67.7216C39.722 67.7216 39.7097 67.7216 39.6974 67.7216C39.6851 67.7216 39.6728 67.7216 39.6605 67.7216C39.6482 67.7216 39.6359 67.7216 39.6235 67.7216C39.6112 67.7216 39.5989 67.7216 39.5865 67.7216C39.5742 67.7216 39.5618 67.7216 39.5494 67.7216C39.5371 67.7216 39.5247 67.7216 39.5123 67.7216C39.4999 67.7216 39.4876 67.7216 39.4752 67.7216C39.4628 67.7216 39.4503 67.7216 39.4379 67.7216C39.4255 67.7216 39.4131 67.7216 39.4007 67.7216C39.3882 67.7216 39.3758 67.7216 39.3633 67.7216C39.3509 67.7216 39.3384 67.7216 39.326 67.7216C39.3135 67.7216 39.301 67.7216 39.2885 67.7216C39.2761 67.7216 39.2636 67.7216 39.2511 67.7216C39.2386 67.7216 39.2261 67.7216 39.2135 67.7216C39.201 67.7216 39.1885 67.7216 39.176 67.7216C39.1634 67.7216 39.1509 67.7216 39.1384 67.7216C39.1258 67.7216 39.1133 67.7216 39.1007 67.7216C39.0881 67.7216 39.0755 67.7216 39.063 67.7216C39.0504 67.7216 39.0378 67.7216 39.0252 67.7216C39.0126 67.7216 39 67.7216 38.9874 67.7216C38.9748 67.7216 38.9622 67.7216 38.9495 67.7216C38.9369 67.7216 38.9243 67.7216 38.9116 67.7216C38.899 67.7216 38.8863 67.7216 38.8737 67.7216C38.861 67.7216 38.8483 67.7216 38.8356 67.7216C38.823 67.7216 38.8103 67.7216 38.7976 67.7216C38.7849 67.7216 38.7722 67.7216 38.7595 67.7216C38.7468 67.7216 38.7341 67.7216 38.7213 67.7216C38.7086 67.7216 38.6959 67.7216 38.6832 67.7216C38.6704 67.7216 38.6577 67.7216 38.6449 67.7216C38.6322 67.7216 38.6194 67.7216 38.6066 67.7216C38.5939 67.7216 38.5811 67.7216 38.5683 67.7216C38.5555 67.7216 38.5427 67.7216 38.5299 67.7216C38.5171 67.7216 38.5043 67.7216 38.4915 67.7216C38.4787 67.7216 38.4659 67.7216 38.453 67.7216C38.4402 67.7216 38.4274 67.7216 38.4145 67.7216C38.4017 67.7216 38.3888 67.7216 38.3759 67.7216C38.3631 67.7216 38.3502 67.7216 38.3373 67.7216C38.3245 67.7216 38.3116 67.7216 38.2987 67.7216C38.2858 67.7216 38.2729 67.7216 38.26 67.7216C38.2471 67.7216 38.2342 67.7216 38.2213 67.7216C38.2083 67.7216 38.1954 67.7216 38.1825 67.7216C38.1695 67.7216 38.1566 67.7216 38.1437 67.7216C38.1307 67.7216 38.1177 67.7216 38.1048 67.7216C38.0918 67.7216 38.0788 67.7216 38.0659 67.7216C38.0529 67.7216 38.0399 67.7216 38.0269 67.7216C38.0139 67.7216 38.0009 67.7216 37.9879 67.7216C37.9749 67.7216 37.9619 67.7216 37.9489 67.7216C37.9359 67.7216 37.9228 67.7216 37.9098 67.7216C37.8968 67.7216 37.8837 67.7216 37.8707 67.7216C37.8576 67.7216 37.8446 67.7216 37.8315 67.7216C37.8184 67.7216 37.8054 67.7216 37.7923 67.7216C37.7792 67.7216 37.7661 67.7216 37.753 67.7216C37.7399 67.7216 37.7268 67.7216 37.7137 67.7216C37.7006 67.7216 37.6875 67.7216 37.6744 67.7216C37.6613 67.7216 37.6482 67.7216 37.635 67.7216C37.6219 67.7216 37.6088 67.7216 37.5956 67.7216C37.5825 67.7216 37.5693 67.7216 37.5562 67.7216C37.543 67.7216 37.5298 67.7216 37.5167 67.7216C37.5035 67.7216 37.4903 67.7216 37.4771 67.7216C37.4639 67.7216 37.4507 67.7216 37.4375 67.7216C37.4243 67.7216 37.4111 67.7216 37.3979 67.7216C37.3847 67.7216 37.3715 67.7216 37.3583 67.7216C37.345 67.7216 37.3318 67.7216 37.3186 67.7216C37.3053 67.7216 37.2921 67.7216 37.2788 67.7216C37.2656 67.7216 37.2523 67.7216 37.2391 67.7216C37.2258 67.7216 37.2125 67.7216 37.1992 67.7216C37.186 67.7216 37.1727 67.7216 37.1594 67.7216C37.1461 67.7216 37.1328 67.7216 37.1195 67.7216C37.1062 67.7216 37.0929 67.7216 37.0796 67.7216C37.0662 67.7216 37.0529 67.7216 37.0396 67.7216C37.0263 67.7216 37.0129 67.7216 36.9996 67.7216C36.9862 67.7216 36.9729 67.7216 36.9595 67.7216C36.9462 67.7216 36.9328 67.7216 36.9195 67.7216C36.9061 67.7216 36.8927 67.7216 36.8793 67.7216C36.866 67.7216 36.8526 67.7216 36.8392 67.7216C36.8258 67.7216 36.8124 67.7216 36.799 67.7216C36.7856 67.7216 36.7722 67.7216 36.7588 67.7216C36.7454 67.7216 36.7319 67.7216 36.7185 67.7216C36.7051 67.7216 36.6916 67.7216 36.6782 67.7216C36.6648 67.7216 36.6513 67.7216 36.6379 67.7216C36.6244 67.7216 36.611 67.7216 36.5975 67.7216C36.584 67.7216 36.5706 67.7216 36.5571 67.7216C36.5436 67.7216 36.5301 67.7216 36.5166 67.7216C36.5032 67.7216 36.4897 67.7216 36.4762 67.7216C36.4627 67.7216 36.4492 67.7216 36.4357 67.7216C36.4221 67.7216 36.4086 67.7216 36.3951 67.7216C36.3816 67.7216 36.3681 67.7216 36.3545 67.7216C36.341 67.7216 36.3274 67.7216 36.3139 67.7216C36.3004 67.7216 36.2868 67.7216 36.2733 67.7216C36.2597 67.7216 36.2461 67.7216 36.2326 67.7216C36.219 67.7216 36.2054 67.7216 36.1919 67.7216C36.1783 67.7216 36.1647 67.7216 36.1511 67.7216C36.1375 67.7216 36.1239 67.7216 36.1103 67.7216C36.0967 67.7216 36.0831 67.7216 36.0695 67.7216C36.0559 67.7216 36.0423 67.7216 36.0286 67.7216C36.015 67.7216 36.0014 67.7216 35.9878 67.7216C35.9741 67.7216 35.9605 67.7216 35.9468 67.7216C35.9332 67.7216 35.9195 67.7216 35.9059 67.7216C35.8922 67.7216 35.8786 67.7216 35.8649 67.7216C35.8512 67.7216 35.8376 67.7216 35.8239 67.7216C35.8102 67.7216 35.7965 67.7216 35.7829 67.7216C35.7692 67.7216 35.7555 67.7216 35.7418 67.7216C35.7281 67.7216 35.7144 67.7216 35.7007 67.7216C35.687 67.7216 35.6733 67.7216 35.6595 67.7216C35.6458 67.7216 35.6321 67.7216 35.6184 67.7216C35.6046 67.7216 35.5909 67.7216 35.5772 67.7216C35.5634 67.7216 35.5497 67.7216 35.5359 67.7216C35.5222 67.7216 35.5084 67.7216 35.4947 67.7216C35.4809 67.7216 35.4672 67.7216 35.4534 67.7216C35.4396 67.7216 35.4258 67.7216 35.4121 67.7216C35.3983 67.7216 35.3845 67.7216 35.3707 67.7216C35.3569 67.7216 35.3431 67.7216 35.3293 67.7216C35.3155 67.7216 35.3017 67.7216 35.2879 67.7216C35.2741 67.7216 35.2603 67.7216 35.2465 67.7216C35.2327 67.7216 35.2189 67.7216 35.205 67.7216C35.1912 67.7216 35.1774 67.7216 35.1635 67.7216C35.1497 67.7216 35.1359 67.7216 35.122 67.7216C35.1082 67.7216 35.0943 67.7216 35.0805 67.7216C35.0666 67.7216 35.0528 67.7216 35.0389 67.7216C35.025 67.7216 35.0112 67.7216 34.9973 67.7216C34.9834 67.7216 34.9695 67.7216 34.9557 67.7216C34.9418 67.7216 34.9279 67.7216 34.914 67.7216C34.9001 67.7216 34.8862 67.7216 34.8723 67.7216C34.8584 67.7216 34.8445 67.7216 34.8306 67.7216C34.8167 67.7216 34.8028 67.7216 34.7888 67.7216C34.7749 67.7216 34.761 67.7216 34.7471 67.7216C34.7332 67.7216 34.7192 67.7216 34.7053 67.7216C34.6913 67.7216 34.6774 67.7216 34.6635 67.7216C34.6495 67.7216 34.6356 67.7216 34.6216 67.7216C34.6077 67.7216 34.5937 67.7216 34.5797 67.7216C34.5658 67.7216 34.5518 67.7216 34.5379 67.7216C34.5239 67.7216 34.5099 67.7216 34.4959 67.7216C34.482 67.7216 34.468 67.7216 34.454 67.7216C34.44 67.7216 34.426 67.7216 34.412 67.7216C34.398 67.7216 34.384 67.7216 34.37 67.7216C34.356 67.7216 34.342 67.7216 34.328 67.7216C34.314 67.7216 34.3 67.7216 34.2859 67.7216C34.2719 67.7216 34.2579 67.7216 34.2439 67.7216C34.2298 67.7216 34.2158 67.7216 34.2018 67.7216C34.1877 67.7216 34.1737 67.7216 34.1597 67.7216C34.1456 67.7216 34.1316 67.7216 34.1175 67.7216C34.1035 67.7216 34.0894 67.7216 34.0754 67.7216C34.0613 67.7216 34.0472 67.7216 34.0332 67.7216C34.0191 67.7216 34.005 67.7216 33.991 67.7216C33.9769 67.7216 33.9628 67.7216 33.9487 67.7216C33.9347 67.7216 33.9206 67.7216 33.9065 67.7216C33.8924 67.7216 33.8783 67.7216 33.8642 67.7216C33.8501 67.7216 33.836 67.7216 33.8219 67.7216C33.8078 67.7216 33.7937 67.7216 33.7796 67.7216C33.7655 67.7216 33.7514 67.7216 33.7372 67.7216C33.7231 67.7216 33.709 67.7216 33.6949 67.7216C33.6808 67.7216 33.6666 67.7216 33.6525 67.7216C33.6384 67.7216 33.6242 67.7216 33.6101 67.7216C33.596 67.7216 33.5818 67.7216 33.5677 67.7216C33.5535 67.7216 33.5394 67.7216 33.5252 67.7216C33.5111 67.7216 33.4969 67.7216 33.4828 67.7216C33.4686 67.7216 33.4544 67.7216 33.4403 67.7216C33.4261 67.7216 33.4119 67.7216 33.3978 67.7216C33.3836 67.7216 33.3694 67.7216 33.3552 67.7216C33.3411 67.7216 33.3269 67.7216 33.3127 67.7216C33.2985 67.7216 33.2843 67.7216 33.2701 67.7216C33.2559 67.7216 33.2417 67.7216 33.2275 67.7216C33.2134 67.7216 33.1991 67.7216 33.1849 67.7216C33.1707 67.7216 33.1565 67.7216 33.1423 67.7216C33.1281 67.7216 33.1139 67.7216 33.0997 67.7216C33.0855 67.7216 33.0712 67.7216 33.057 67.7216C33.0428 67.7216 33.0286 67.7216 33.0144 67.7216C33.0001 67.7216 32.9859 67.7216 32.9717 67.7216C32.9574 67.7216 32.9432 67.7216 32.9289 67.7216C32.9147 67.7216 32.9005 67.7216 32.8862 67.7216C32.872 67.7216 32.8577 67.7216 32.8435 67.7216C32.8292 67.7216 32.815 67.7216 32.8007 67.7216C32.7865 67.7216 32.7722 67.7216 32.7579 67.7216C32.7437 67.7216 32.7294 67.7216 32.7151 67.7216C32.7009 67.7216 32.6866 67.7216 32.6723 67.7216C32.658 67.7216 32.6438 67.7216 32.6295 67.7216C32.6152 67.7216 32.6009 67.7216 32.5866 67.7216C32.5724 67.7216 32.5581 67.7216 32.5438 67.7216C32.5295 67.7216 32.5152 67.7216 32.5009 67.7216C32.4866 67.7216 32.4723 67.7216 32.458 67.7216C32.4437 67.7216 32.4294 67.7216 32.4151 67.7216C32.4008 67.7216 32.3865 67.7216 32.3722 67.7216C32.3579 67.7216 32.3436 67.7216 32.3293 67.7216C32.3149 67.7216 32.3006 67.7216 32.2863 67.7216C32.272 67.7216 32.2577 67.7216 32.2433 67.7216C32.229 67.7216 32.2147 67.7216 32.2004 67.7216C32.186 67.7216 32.1717 67.7216 32.1574 67.7216C32.143 67.7216 32.1287 67.7216 32.1144 67.7216C32.1 67.7216 32.0857 67.7216 32.0713 67.7216C32.057 67.7216 32.0427 67.7216 32.0283 67.7216C32.014 67.7216 31.9996 67.7216 31.9853 67.7216C31.9709 67.7216 31.9566 67.7216 31.9422 67.7216C31.9278 67.7216 31.9135 67.7216 31.8991 67.7216C31.8848 67.7216 31.8704 67.7216 31.856 67.7216C31.8417 67.7216 31.8273 67.7216 31.813 67.7216C31.7986 67.7216 31.7842 67.7216 31.7698 67.7216C31.7555 67.7216 31.7411 67.7216 31.7267 67.7216C31.7123 67.7216 31.698 67.7216 31.6836 67.7216C31.6692 67.7216 31.6548 67.7216 31.6404 67.7216C31.6261 67.7216 31.6117 67.7216 31.5973 67.7216C31.5829 67.7216 31.5685 67.7216 31.5541 67.7216C31.5397 67.7216 31.5253 67.7216 31.5109 67.7216C31.4966 67.7216 31.4822 67.7216 31.4678 67.7216C31.4534 67.7216 31.439 67.7216 31.4246 67.7216C31.4102 67.7216 31.3958 67.7216 31.3814 67.7216C31.3669 67.7216 31.3525 67.7216 31.3381 67.7216C31.3237 67.7216 31.3093 67.7216 31.2949 67.7216C31.2805 67.7216 31.2661 67.7216 31.2517 67.7216C31.2373 67.7216 31.2228 67.7216 31.2084 67.7216C31.194 67.7216 31.1796 67.7216 31.1652 67.7216C31.1507 67.7216 31.1363 67.7216 31.1219 67.7216C31.1075 67.7216 31.0931 67.7216 31.0786 67.7216C31.0642 67.7216 31.0498 67.7216 31.0353 67.7216C31.0209 67.7216 31.0065 67.7216 30.9921 67.7216C30.9776 67.7216 30.9632 67.7216 30.9488 67.7216C30.9343 67.7216 30.9199 67.7216 30.9055 67.7216C30.891 67.7216 30.8766 67.7216 30.8621 67.7216C30.8477 67.7216 30.8333 67.7216 30.8188 67.7216C30.8044 67.7216 30.7899 67.7216 30.7755 67.7216C30.761 67.7216 30.7466 67.7216 30.7322 67.7216C30.7177 67.7216 30.7033 67.7216 30.6888 67.7216C30.6744 67.7216 30.6599 67.7216 30.6455 67.7216C30.631 67.7216 30.6166 67.7216 30.6021 67.7216C30.5877 67.7216 30.5732 67.7216 30.5587 67.7216C30.5443 67.7216 30.5298 67.7216 30.5154 67.7216C30.5009 67.7216 30.4865 67.7216 30.472 67.7216C30.4575 67.7216 30.4431 67.7216 30.4286 67.7216C30.4142 67.7216 30.3997 67.7216 30.3852 67.7216C30.3708 67.7216 30.3563 67.7216 30.3418 67.7216C30.3274 67.7216 30.3129 67.7216 30.2984 67.7216C30.284 67.7216 30.2695 67.7216 30.255 67.7216C30.2406 67.7216 30.2261 67.7216 30.2116 67.7216C30.1972 67.7216 30.1827 67.7216 30.1682 67.7216C30.1538 67.7216 30.1393 67.7216 30.1248 67.7216C30.1103 67.7216 30.0959 67.7216 30.0814 67.7216C30.0669 67.7216 30.0525 67.7216 30.038 67.7216C30.0235 67.7216 30.009 67.7216 29.9946 67.7216C29.9801 67.7216 29.9656 67.7216 29.9511 67.7216C29.9366 67.7216 29.9222 67.7216 29.9077 67.7216C29.8932 67.7216 29.8787 67.7216 29.8643 67.7216C29.8498 67.7216 29.8353 67.7216 29.8208 67.7216C29.8063 67.7216 29.7919 67.7216 29.7774 67.7216C29.7629 67.7216 29.7484 67.7216 29.7339 67.7216C29.7195 67.7216 29.705 67.7216 29.6905 67.7216C29.676 67.7216 29.6615 67.7216 29.647 67.7216C29.6326 67.7216 29.6181 67.7216 29.6036 67.7216C29.5891 67.7216 29.5746 67.7216 29.5601 67.7216C29.5457 67.7216 29.5312 67.7216 29.5167 67.7216C29.5022 67.7216 29.4877 67.7216 29.4732 67.7216C29.4588 67.7216 29.4443 67.7216 29.4298 67.7216C29.4153 67.7216 29.4008 67.7216 29.3863 67.7216C29.3718 67.7216 29.3574 67.7216 29.3429 67.7216C29.3284 67.7216 29.3139 67.7216 29.2994 67.7216C29.2849 67.7216 29.2705 67.7216 29.256 67.7216C29.2415 67.7216 29.227 67.7216 29.2125 67.7216C29.198 67.7216 29.1835 67.7216 29.1691 67.7216C29.1546 67.7216 29.1401 67.7216 29.1256 67.7216C29.1111 67.7216 29.0966 67.7216 29.0822 67.7216C29.0677 67.7216 29.0532 67.7216 29.0387 67.7216C29.0242 67.7216 29.0097 67.7216 28.9952 67.7216C28.9808 67.7216 28.9663 67.7216 28.9518 67.7216C28.9373 67.7216 28.9228 67.7216 28.9084 67.7216C28.8939 67.7216 28.8794 67.7216 28.8649 67.7216C28.8504 67.7216 28.8359 67.7216 28.8215 67.7216C28.807 67.7216 28.7925 67.7216 28.778 67.7216C28.7635 67.7216 28.7491 67.7216 28.7346 67.7216C28.7201 67.7216 28.7056 67.7216 28.6911 67.7216C28.6767 67.7216 28.6622 67.7216 28.6477 67.7216C28.6332 67.7216 28.6188 67.7216 28.6043 67.7216C28.5898 67.7216 28.5753 67.7216 28.5608 67.7216C28.5464 67.7216 28.5319 67.7216 28.5174 67.7216C28.5029 67.7216 28.4885 67.7216 28.474 67.7216C28.4595 67.7216 28.4451 67.7216 28.4306 67.7216C28.4161 67.7216 28.4016 67.7216 28.3872 67.7216C28.3727 67.7216 28.3582 67.7216 28.3438 67.7216C28.3293 67.7216 28.3148 67.7216 28.3004 67.7216C28.2859 67.7216 28.2714 67.7216 28.257 67.7216C28.2425 67.7216 28.228 67.7216 28.2136 67.7216C28.1991 67.7216 28.1846 67.7216 28.1702 67.7216C28.1557 67.7216 28.1412 67.7216 28.1268 67.7216C28.1123 67.7216 28.0979 67.7216 28.0834 67.7216C28.0689 67.7216 28.0545 67.7216 28.04 67.7216C28.0256 67.7216 28.0111 67.7216 27.9967 67.7216C27.9822 67.7216 27.9678 67.7216 27.9533 67.7216C27.9388 67.7216 27.9244 67.7216 27.9099 67.7216C27.8955 67.7216 27.881 67.7216 27.8666 67.7216C27.8521 67.7216 27.8377 67.7216 27.8233 67.7216C27.8088 67.7216 27.7944 67.7216 27.7799 67.7216C27.7655 67.7216 27.751 67.7216 27.7366 67.7216C27.7221 67.7216 27.7077 67.7216 27.6933 67.7216C27.6788 67.7216 27.6644 67.7216 27.65 67.7216C27.6355 67.7216 27.6211 67.7216 27.6066 67.7216C27.5922 67.7216 27.5778 67.7216 27.5633 67.7216C27.5489 67.7216 27.5345 67.7216 27.5201 67.7216C27.5056 67.7216 27.4912 67.7216 27.4768 67.7216C27.4624 67.7216 27.4479 67.7216 27.4335 67.7216C27.3566 67.7216 27.4239 67.7216 27.347 67.7216C27.3326 67.7216 27.3182 67.7216 27.3037 67.7216C27.2893 67.7216 27.2749 67.7216 27.2605 67.7216C27.2461 67.7216 27.2317 67.7216 27.2173 67.7216C27.2029 67.7216 27.1885 67.7216 27.1741 67.7216C27.1597 67.7216 27.1453 67.7216 27.1309 67.7216C27.1165 67.7216 27.1021 67.7216 27.0877 67.7216C27.0733 67.7216 27.0589 67.7216 27.0445 67.7216C27.0301 67.7216 27.0157 67.7216 27.0013 67.7216C26.9869 67.7216 26.9725 67.7216 26.9581 67.7216C26.9437 67.7216 26.9294 67.7216 26.915 67.7216C26.9006 67.7216 26.8862 67.7216 26.8718 67.7216C26.8575 67.7216 26.8431 67.7216 26.8287 67.7216C26.8143 67.7216 26.7999 67.7216 26.7856 67.7216C26.7712 67.7216 26.7568 67.7216 26.7425 67.7216C26.7281 67.7216 26.7137 67.7216 26.6994 67.7216C26.685 67.7216 26.6707 67.7216 26.6563 67.7216C26.6419 67.7216 26.6276 67.7216 26.6132 67.7216C26.5989 67.7216 26.5845 67.7216 26.5702 67.7216C26.5558 67.7216 26.5415 67.7216 26.5271 67.7216C26.5128 67.7216 26.4984 67.7216 26.4841 67.7216C26.4697 67.7216 26.4554 67.7216 26.4411 67.7216C26.4267 67.7216 26.4124 67.7216 26.3981 67.7216C26.3837 67.7216 26.3694 67.7216 26.3551 67.7216C26.3407 67.7216 26.3264 67.7216 26.3121 67.7216C26.2978 67.7216 26.2834 67.7216 26.2691 67.7216C26.2548 67.7216 26.2405 67.7216 26.2262 67.7216C26.2119 67.7216 26.1975 67.7216 26.1832 67.7216C26.1689 67.7216 26.1546 67.7216 26.1403 67.7216C26.126 67.7216 26.1117 67.7216 26.0974 67.7216C26.0831 67.7216 26.0688 67.7216 26.0545 67.7216C26.0402 67.7216 26.0259 67.7216 26.0117 67.7216C25.9974 67.7216 25.9831 67.7216 25.9688 67.7216C25.9545 67.7216 25.9402 67.7216 25.9259 67.7216C25.9117 67.7216 25.8974 67.7216 25.8831 67.7216C25.8688 67.7216 25.8546 67.7216 25.8403 67.7216C25.826 67.7216 25.8118 67.7216 25.7975 67.7216C25.7833 67.7216 25.769 67.7216 25.7547 67.7216C25.7405 67.7216 25.7262 67.7216 25.712 67.7216C25.6977 67.7216 25.6835 67.7216 25.6692 67.7216C25.655 67.7216 25.6407 67.7216 25.6265 67.7216C25.6123 67.7216 25.598 67.7216 25.5838 67.7216C25.5696 67.7216 25.5553 67.7216 25.5411 67.7216C25.5269 67.7216 25.5126 67.7216 25.4984 67.7216C25.4842 67.7216 25.47 67.7216 25.4558 67.7216C25.4416 67.7216 25.4273 67.7216 25.4131 67.7216C25.3989 67.7216 25.3847 67.7216 25.3705 67.7216C25.3563 67.7216 25.3421 67.7216 25.3279 67.7216C25.3137 67.7216 25.2995 67.7216 25.2853 67.7216C25.2711 67.7216 25.2569 67.7216 25.2428 67.7216C25.2286 67.7216 25.2144 67.7216 25.2002 67.7216C25.186 67.7216 25.1719 67.7216 25.1577 67.7216C25.1435 67.7216 25.1294 67.7216 25.1152 67.7216C25.101 67.7216 25.0869 67.7216 25.0727 67.7216C25.0585 67.7216 25.0444 67.7216 25.0302 67.7216C25.0161 67.7216 25.0019 67.7216 24.9878 67.7216C24.9737 67.7216 24.9595 67.7216 24.9454 67.7216C24.9312 67.7216 24.9171 67.7216 24.903 67.7216C24.8888 67.7216 24.8747 67.7216 24.8606 67.7216C24.8465 67.7216 24.8323 67.7216 24.8182 67.7216C24.8041 67.7216 24.79 67.7216 24.7759 67.7216C24.7618 67.7216 24.7477 67.7216 24.7336 67.7216C24.7195 67.7216 24.7054 67.7216 24.6913 67.7216C24.6772 67.7216 24.6631 67.7216 24.649 67.7216C24.6349 67.7216 24.6208 67.7216 24.6067 67.7216C24.5927 67.7216 24.5786 67.7216 24.5645 67.7216C24.5504 67.7216 24.5364 67.7216 24.5223 67.7216C24.5082 67.7216 24.4942 67.7216 24.4801 67.7216C24.4661 67.7216 24.452 67.7216 24.438 67.7216C24.4239 67.7216 24.4099 67.7216 24.3958 67.7216C24.3818 67.7216 24.3677 67.7216 24.3537 67.7216C24.3397 67.7216 24.3256 67.7216 24.3116 67.7216C24.2976 67.7216 24.2836 67.7216 24.2695 67.7216C24.2555 67.7216 24.2415 67.7216 24.2275 67.7216C24.2135 67.7216 24.1995 67.7216 24.1855 67.7216C24.1715 67.7216 24.1575 67.7216 24.1435 67.7216C24.1295 67.7216 24.1155 67.7216 24.1015 67.7216C24.0875 67.7216 24.0736 67.7216 24.0596 67.7216C24.0456 67.7216 24.0316 67.7216 24.0177 67.7216C24.0037 67.7216 23.9897 67.7216 23.9758 67.7216C23.9618 67.7216 23.9478 67.7216 23.9339 67.7216C23.9199 67.7216 23.906 67.7216 23.892 67.7216C23.8781 67.7216 23.8642 67.7216 23.8502 67.7216C23.8363 67.7216 23.8224 67.7216 23.8084 67.7216C23.7945 67.7216 23.7806 67.7216 23.7667 67.7216C23.7528 67.7216 23.7388 67.7216 23.7249 67.7216C23.711 67.7216 23.6971 67.7216 23.6832 67.7216C23.6693 67.7216 23.6554 67.7216 23.6415 67.7216C23.6276 67.7216 23.6138 67.7216 23.5999 67.7216C23.586 67.7216 23.5721 67.7216 23.5582 67.7216C23.5444 67.7216 23.5305 67.7216 23.5166 67.7216C23.5028 67.7216 23.4889 67.7216 23.4751 67.7216C23.4612 67.7216 23.4474 67.7216 23.4335 67.7216C23.4197 67.7216 23.4058 67.7216 23.392 67.7216C23.3782 67.7216 23.3643 67.7216 23.3505 67.7216C23.3367 67.7216 23.3229 67.7216 23.309 67.7216C23.2952 67.7216 23.2814 67.7216 23.2676 67.7216C23.2538 67.7216 23.24 67.7216 23.2262 67.7216C23.2124 67.7216 23.1986 67.7216 23.1848 67.7216C23.171 67.7216 23.1573 67.7216 23.1435 67.7216C23.1297 67.7216 23.1159 67.7216 23.1022 67.7216C23.0884 67.7216 23.0746 67.7216 23.0609 67.7216C23.0471 67.7216 23.0334 67.7216 23.0196 67.7216C23.0059 67.7216 22.9921 67.7216 22.9784 67.7216C22.9646 67.7216 22.9509 67.7216 22.9372 67.7216C22.9235 67.7216 22.9097 67.7216 22.896 67.7216C22.8823 67.7216 22.8686 67.7216 22.8549 67.7216C22.8412 67.7216 22.8275 67.7216 22.8138 67.7216C22.8001 67.7216 22.7864 67.7216 22.7727 67.7216C22.759 67.7216 22.7453 67.7216 22.7317 67.7216C22.718 67.7216 22.7043 67.7216 22.6907 67.7216C22.677 67.7216 22.6633 67.7216 22.6497 67.7216C22.636 67.7216 22.6224 67.7216 22.6087 67.7216C22.5951 67.7216 22.5814 67.7216 22.5678 67.7216C22.5542 67.7216 22.5406 67.7216 22.5269 67.7216C22.5133 67.7216 22.4997 67.7216 22.4861 67.7216C22.4725 67.7216 22.4589 67.7216 22.4453 67.7216C22.4317 67.7216 22.4181 67.7216 22.4045 67.7216C22.3909 67.7216 22.3773 67.7216 22.3637 67.7216C22.3502 67.7216 22.3366 67.7216 22.323 67.7216C22.3095 67.7216 22.2959 67.7216 22.2823 67.7216C22.2688 67.7216 22.2552 67.7216 22.2417 67.7216C22.2281 67.7216 22.2146 67.7216 22.2011 67.7216C22.1875 67.7216 22.174 67.7216 22.1605 67.7216C22.147 67.7216 22.1335 67.7216 22.1199 67.7216C22.1064 67.7216 22.0929 67.7216 22.0794 67.7216C22.0659 67.7216 22.0524 67.7216 22.039 67.7216C22.0255 67.7216 22.012 67.7216 21.9985 67.7216C21.985 67.7216 21.9716 67.7216 21.9581 67.7216C21.9447 67.7216 21.9312 67.7216 21.9177 67.7216C21.9043 67.7216 21.8909 67.7216 21.8774 67.7216C21.864 67.7216 21.8505 67.7216 21.8371 67.7216C21.8237 67.7216 21.8103 67.7216 21.7969 67.7216C21.7834 67.7216 21.77 67.7216 21.7566 67.7216C21.7432 67.7216 21.7298 67.7216 21.7164 67.7216C21.703 67.7216 21.6897 67.7216 21.6763 67.7216C21.6629 67.7216 21.6495 67.7216 21.6362 67.7216C21.6228 67.7216 21.6094 67.7216 21.5961 67.7216C21.5827 67.7216 21.5694 67.7216 21.5561 67.7216C21.5427 67.7216 21.5294 67.7216 21.516 67.7216C21.5027 67.7216 21.4894 67.7216 21.4761 67.7216C21.4628 67.7216 21.4495 67.7216 21.4362 67.7216C21.4229 67.7216 21.4096 67.7216 21.3963 67.7216C21.383 67.7216 21.3697 67.7216 21.3564 67.7216C21.3431 67.7216 21.3299 67.7216 21.3166 67.7216C21.3033 67.7216 21.2901 67.7216 21.2768 67.7216C21.2636 67.7216 21.2503 67.7216 21.2371 67.7216C21.2239 67.7216 21.2106 67.7216 21.1974 67.7216C21.1842 67.7216 21.171 67.7216 21.1577 67.7216C21.1445 67.7216 21.1313 67.7216 21.1181 67.7216C21.1049 67.7216 21.0917 67.7216 21.0786 67.7216C21.0654 67.7216 21.0522 67.7216 21.039 67.7216C21.0258 67.7216 21.0127 67.7216 20.9995 67.7216C20.9864 67.7216 20.9732 67.7216 20.9601 67.7216C20.9469 67.7216 20.9338 67.7216 20.9207 67.7216C20.9075 67.7216 20.8944 67.7216 20.8813 67.7216C20.8682 67.7216 20.8551 67.7216 20.8419 67.7216C20.8288 67.7216 20.8157 67.7216 20.8027 67.7216C20.7896 67.7216 20.7765 67.7216 20.7634 67.7216C20.7503 67.7216 20.7373 67.7216 20.7242 67.7216C20.7111 67.7216 20.6981 67.7216 20.685 67.7216C20.672 67.7216 20.6589 67.7216 20.6459 67.7216C20.6329 67.7216 20.6199 67.7216 20.6068 67.7216C20.5938 67.7216 20.5808 67.7216 20.5678 67.7216C20.5548 67.7216 20.5418 67.7216 20.5288 67.7216C20.5158 67.7216 20.5028 67.7216 20.4898 67.7216C20.4769 67.7216 20.4639 67.7216 20.4509 67.7216C20.438 67.7216 20.425 67.7216 20.4121 67.7216C20.3991 67.7216 20.3862 67.7216 20.3732 67.7216C20.3603 67.7216 20.3474 67.7216 20.3345 67.7216C20.3215 67.7216 20.3086 67.7216 20.2957 67.7216V69.3723C20.3086 69.3723 20.3215 69.3723 20.3345 69.3723C20.3474 69.3723 20.3603 69.3723 20.3732 69.3723C20.3862 69.3723 20.3991 69.3723 20.4121 69.3723C20.425 69.3723 20.438 69.3723 20.4509 69.3723C20.4639 69.3723 20.4769 69.3723 20.4898 69.3723C20.5028 69.3723 20.5158 69.3723 20.5288 69.3723C20.5418 69.3723 20.5548 69.3723 20.5678 69.3723C20.5808 69.3723 20.5938 69.3723 20.6068 69.3723C20.6199 69.3723 20.6329 69.3723 20.6459 69.3723C20.6589 69.3723 20.672 69.3723 20.685 69.3723C20.6981 69.3723 20.7111 69.3723 20.7242 69.3723C20.7373 69.3723 20.7503 69.3723 20.7634 69.3723C20.7765 69.3723 20.7896 69.3723 20.8027 69.3723C20.8157 69.3723 20.8288 69.3723 20.8419 69.3723C20.8551 69.3723 20.8682 69.3723 20.8813 69.3723C20.8944 69.3723 20.9075 69.3723 20.9207 69.3723C20.9338 69.3723 20.9469 69.3723 20.9601 69.3723C20.9732 69.3723 20.9864 69.3723 20.9995 69.3723C21.0127 69.3723 21.0258 69.3723 21.039 69.3723C21.0522 69.3723 21.0654 69.3723 21.0786 69.3723C21.0917 69.3723 21.1049 69.3723 21.1181 69.3723C21.1313 69.3723 21.1445 69.3723 21.1577 69.3723C21.171 69.3723 21.1842 69.3723 21.1974 69.3723C21.2106 69.3723 21.2239 69.3723 21.2371 69.3723C21.2503 69.3723 21.2636 69.3723 21.2768 69.3723C21.2901 69.3723 21.3033 69.3723 21.3166 69.3723C21.3299 69.3723 21.3431 69.3723 21.3564 69.3723C21.3697 69.3723 21.383 69.3723 21.3963 69.3723C21.4096 69.3723 21.4229 69.3723 21.4362 69.3723C21.4495 69.3723 21.4628 69.3723 21.4761 69.3723C21.4894 69.3723 21.5027 69.3723 21.516 69.3723C21.5294 69.3723 21.5427 69.3723 21.5561 69.3723C21.5694 69.3723 21.5827 69.3723 21.5961 69.3723C21.6094 69.3723 21.6228 69.3723 21.6362 69.3723C21.6495 69.3723 21.6629 69.3723 21.6763 69.3723C21.6897 69.3723 21.703 69.3723 21.7164 69.3723C21.7298 69.3723 21.7432 69.3723 21.7566 69.3723C21.77 69.3723 21.7834 69.3723 21.7969 69.3723C21.8103 69.3723 21.8237 69.3723 21.8371 69.3723C21.8505 69.3723 21.864 69.3723 21.8774 69.3723C21.8909 69.3723 21.9043 69.3723 21.9177 69.3723C21.9312 69.3723 21.9447 69.3723 21.9581 69.3723C21.9716 69.3723 21.985 69.3723 21.9985 69.3723C22.012 69.3723 22.0255 69.3723 22.039 69.3723C22.0524 69.3723 22.0659 69.3723 22.0794 69.3723C22.0929 69.3723 22.1064 69.3723 22.1199 69.3723C22.1335 69.3723 22.147 69.3723 22.1605 69.3723C22.174 69.3723 22.1875 69.3723 22.2011 69.3723C22.2146 69.3723 22.2281 69.3723 22.2417 69.3723C22.2552 69.3723 22.2688 69.3723 22.2823 69.3723C22.2959 69.3723 22.3095 69.3723 22.323 69.3723C22.3366 69.3723 22.3502 69.3723 22.3637 69.3723C22.3773 69.3723 22.3909 69.3723 22.4045 69.3723C22.4181 69.3723 22.4317 69.3723 22.4453 69.3723C22.4589 69.3723 22.4725 69.3723 22.4861 69.3723C22.4997 69.3723 22.5133 69.3723 22.5269 69.3723C22.5406 69.3723 22.5542 69.3723 22.5678 69.3723C22.5814 69.3723 22.5951 69.3723 22.6087 69.3723C22.6224 69.3723 22.636 69.3723 22.6497 69.3723C22.6633 69.3723 22.677 69.3723 22.6907 69.3723C22.7043 69.3723 22.718 69.3723 22.7317 69.3723C22.7453 69.3723 22.759 69.3723 22.7727 69.3723C22.7864 69.3723 22.8001 69.3723 22.8138 69.3723C22.8275 69.3723 22.8412 69.3723 22.8549 69.3723C22.8686 69.3723 22.8823 69.3723 22.896 69.3723C22.9097 69.3723 22.9235 69.3723 22.9372 69.3723C22.9509 69.3723 22.9646 69.3723 22.9784 69.3723C22.9921 69.3723 23.0059 69.3723 23.0196 69.3723C23.0334 69.3723 23.0471 69.3723 23.0609 69.3723C23.0746 69.3723 23.0884 69.3723 23.1022 69.3723C23.1159 69.3723 23.1297 69.3723 23.1435 69.3723C23.1573 69.3723 23.171 69.3723 23.1848 69.3723C23.1986 69.3723 23.2124 69.3723 23.2262 69.3723C23.24 69.3723 23.2538 69.3723 23.2676 69.3723C23.2814 69.3723 23.2952 69.3723 23.309 69.3723C23.3229 69.3723 23.3367 69.3723 23.3505 69.3723C23.3643 69.3723 23.3782 69.3723 23.392 69.3723C23.4058 69.3723 23.4197 69.3723 23.4335 69.3723C23.4474 69.3723 23.4612 69.3723 23.4751 69.3723C23.4889 69.3723 23.5028 69.3723 23.5166 69.3723C23.5305 69.3723 23.5444 69.3723 23.5582 69.3723C23.5721 69.3723 23.586 69.3723 23.5999 69.3723C23.6138 69.3723 23.6276 69.3723 23.6415 69.3723C23.6554 69.3723 23.6693 69.3723 23.6832 69.3723C23.6971 69.3723 23.711 69.3723 23.7249 69.3723C23.7388 69.3723 23.7528 69.3723 23.7667 69.3723C23.7806 69.3723 23.7945 69.3723 23.8084 69.3723C23.8224 69.3723 23.8363 69.3723 23.8502 69.3723C23.8642 69.3723 23.8781 69.3723 23.892 69.3723C23.906 69.3723 23.9199 69.3723 23.9339 69.3723C23.9478 69.3723 23.9618 69.3723 23.9758 69.3723C23.9897 69.3723 24.0037 69.3723 24.0177 69.3723C24.0316 69.3723 24.0456 69.3723 24.0596 69.3723C24.0736 69.3723 24.0875 69.3723 24.1015 69.3723C24.1155 69.3723 24.1295 69.3723 24.1435 69.3723C24.1575 69.3723 24.1715 69.3723 24.1855 69.3723C24.1995 69.3723 24.2135 69.3723 24.2275 69.3723C24.2415 69.3723 24.2555 69.3723 24.2695 69.3723C24.2836 69.3723 24.2976 69.3723 24.3116 69.3723C24.3256 69.3723 24.3397 69.3723 24.3537 69.3723C24.3677 69.3723 24.3818 69.3723 24.3958 69.3723C24.4099 69.3723 24.4239 69.3723 24.438 69.3723C24.452 69.3723 24.4661 69.3723 24.4801 69.3723C24.4942 69.3723 24.5082 69.3723 24.5223 69.3723C24.5364 69.3723 24.5504 69.3723 24.5645 69.3723C24.5786 69.3723 24.5927 69.3723 24.6067 69.3723C24.6208 69.3723 24.6349 69.3723 24.649 69.3723C24.6631 69.3723 24.6772 69.3723 24.6913 69.3723C24.7054 69.3723 24.7195 69.3723 24.7336 69.3723C24.7477 69.3723 24.7618 69.3723 24.7759 69.3723C24.79 69.3723 24.8041 69.3723 24.8182 69.3723C24.8323 69.3723 24.8465 69.3723 24.8606 69.3723C24.8747 69.3723 24.8888 69.3723 24.903 69.3723C24.9171 69.3723 24.9312 69.3723 24.9454 69.3723C24.9595 69.3723 24.9737 69.3723 24.9878 69.3723C25.0019 69.3723 25.0161 69.3723 25.0302 69.3723C25.0444 69.3723 25.0585 69.3723 25.0727 69.3723C25.0869 69.3723 25.101 69.3723 25.1152 69.3723C25.1294 69.3723 25.1435 69.3723 25.1577 69.3723C25.1719 69.3723 25.186 69.3723 25.2002 69.3723C25.2144 69.3723 25.2286 69.3723 25.2428 69.3723C25.2569 69.3723 25.2711 69.3723 25.2853 69.3723C25.2995 69.3723 25.3137 69.3723 25.3279 69.3723C25.3421 69.3723 25.3563 69.3723 25.3705 69.3723C25.3847 69.3723 25.3989 69.3723 25.4131 69.3723C25.4273 69.3723 25.4416 69.3723 25.4558 69.3723C25.47 69.3723 25.4842 69.3723 25.4984 69.3723C25.5126 69.3723 25.5269 69.3723 25.5411 69.3723C25.5553 69.3723 25.5696 69.3723 25.5838 69.3723C25.598 69.3723 25.6123 69.3723 25.6265 69.3723C25.6407 69.3723 25.655 69.3723 25.6692 69.3723C25.6835 69.3723 25.6977 69.3723 25.712 69.3723C25.7262 69.3723 25.7405 69.3723 25.7547 69.3723C25.769 69.3723 25.7833 69.3723 25.7975 69.3723C25.8118 69.3723 25.826 69.3723 25.8403 69.3723C25.8546 69.3723 25.8688 69.3723 25.8831 69.3723C25.8974 69.3723 25.9117 69.3723 25.9259 69.3723C25.9402 69.3723 25.9545 69.3723 25.9688 69.3723C25.9831 69.3723 25.9974 69.3723 26.0117 69.3723C26.0259 69.3723 26.0402 69.3723 26.0545 69.3723C26.0688 69.3723 26.0831 69.3723 26.0974 69.3723C26.1117 69.3723 26.126 69.3723 26.1403 69.3723C26.1546 69.3723 26.1689 69.3723 26.1832 69.3723C26.1975 69.3723 26.2119 69.3723 26.2262 69.3723C26.2405 69.3723 26.2548 69.3723 26.2691 69.3723C26.2834 69.3723 26.2978 69.3723 26.3121 69.3723C26.3264 69.3723 26.3407 69.3723 26.3551 69.3723C26.3694 69.3723 26.3837 69.3723 26.3981 69.3723C26.4124 69.3723 26.4267 69.3723 26.4411 69.3723C26.4554 69.3723 26.4697 69.3723 26.4841 69.3723C26.4984 69.3723 26.5128 69.3723 26.5271 69.3723C26.5415 69.3723 26.5558 69.3723 26.5702 69.3723C26.5845 69.3723 26.5989 69.3723 26.6132 69.3723C26.6276 69.3723 26.6419 69.3723 26.6563 69.3723C26.6707 69.3723 26.685 69.3723 26.6994 69.3723C26.7137 69.3723 26.7281 69.3723 26.7425 69.3723C26.7568 69.3723 26.7712 69.3723 26.7856 69.3723C26.7999 69.3723 26.8143 69.3723 26.8287 69.3723C26.8431 69.3723 26.8575 69.3723 26.8718 69.3723C26.8862 69.3723 26.9006 69.3723 26.915 69.3723C26.9294 69.3723 26.9437 69.3723 26.9581 69.3723C26.9725 69.3723 26.9869 69.3723 27.0013 69.3723C27.0157 69.3723 27.0301 69.3723 27.0445 69.3723C27.0589 69.3723 27.0733 69.3723 27.0877 69.3723C27.1021 69.3723 27.1165 69.3723 27.1309 69.3723C27.1453 69.3723 27.1597 69.3723 27.1741 69.3723C27.1885 69.3723 27.2029 69.3723 27.2173 69.3723C27.2317 69.3723 27.2461 69.3723 27.2605 69.3723C27.2749 69.3723 27.2893 69.3723 27.3037 69.3723C27.3182 69.3723 27.3326 69.3723 27.347 69.3723C27.3614 69.3723 27.3758 69.3723 27.3902 69.3723C27.4047 69.3723 27.4191 69.3723 27.4335 69.3723C27.4479 69.3723 27.4624 69.3723 27.4768 69.3723C27.4912 69.3723 27.5056 69.3723 27.5201 69.3723C27.5345 69.3723 27.5489 69.3723 27.5633 69.3723C27.5778 69.3723 27.5922 69.3723 27.6066 69.3723C27.6211 69.3723 27.6355 69.3723 27.65 69.3723C27.6644 69.3723 27.6788 69.3723 27.6933 69.3723C27.7077 69.3723 27.7221 69.3723 27.7366 69.3723C27.751 69.3723 27.7655 69.3723 27.7799 69.3723C27.7944 69.3723 27.8088 69.3723 27.8233 69.3723C27.8377 69.3723 27.8521 69.3723 27.8666 69.3723C27.881 69.3723 27.8955 69.3723 27.9099 69.3723C27.9244 69.3723 27.9388 69.3723 27.9533 69.3723C27.9678 69.3723 27.9822 69.3723 27.9967 69.3723C28.0111 69.3723 28.0256 69.3723 28.04 69.3723C28.0545 69.3723 28.0689 69.3723 28.0834 69.3723C28.0979 69.3723 28.1123 69.3723 28.1268 69.3723C28.1412 69.3723 28.1557 69.3723 28.1702 69.3723C28.1846 69.3723 28.1991 69.3723 28.2136 69.3723C28.228 69.3723 28.2425 69.3723 28.257 69.3723C28.2714 69.3723 28.2859 69.3723 28.3004 69.3723C28.3148 69.3723 28.3293 69.3723 28.3438 69.3723C28.3582 69.3723 28.3727 69.3723 28.3872 69.3723C28.4016 69.3723 28.4161 69.3723 28.4306 69.3723C28.4451 69.3723 28.4595 69.3723 28.474 69.3723C28.4885 69.3723 28.5029 69.3723 28.5174 69.3723C28.5319 69.3723 28.5464 69.3723 28.5608 69.3723C28.5753 69.3723 28.5898 69.3723 28.6043 69.3723C28.6188 69.3723 28.6332 69.3723 28.6477 69.3723C28.6622 69.3723 28.6767 69.3723 28.6911 69.3723C28.7056 69.3723 28.7201 69.3723 28.7346 69.3723C28.7491 69.3723 28.7635 69.3723 28.778 69.3723C28.7925 69.3723 28.807 69.3723 28.8215 69.3723C28.8359 69.3723 28.8504 69.3723 28.8649 69.3723C28.8794 69.3723 28.8939 69.3723 28.9084 69.3723C28.9228 69.3723 28.9373 69.3723 28.9518 69.3723C28.9663 69.3723 28.9808 69.3723 28.9952 69.3723C29.0097 69.3723 29.0242 69.3723 29.0387 69.3723C29.0532 69.3723 29.0677 69.3723 29.0822 69.3723C29.0966 69.3723 29.1111 69.3723 29.1256 69.3723C29.1401 69.3723 29.1546 69.3723 29.1691 69.3723C29.1835 69.3723 29.198 69.3723 29.2125 69.3723C29.227 69.3723 29.2415 69.3723 29.256 69.3723C29.2705 69.3723 29.2849 69.3723 29.2994 69.3723C29.3139 69.3723 29.3284 69.3723 29.3429 69.3723C29.3574 69.3723 29.3718 69.3723 29.3863 69.3723C29.4008 69.3723 29.4153 69.3723 29.4298 69.3723C29.4443 69.3723 29.4588 69.3723 29.4732 69.3723C29.4877 69.3723 29.5022 69.3723 29.5167 69.3723C29.5312 69.3723 29.5457 69.3723 29.5601 69.3723C29.5746 69.3723 29.5891 69.3723 29.6036 69.3723C29.6181 69.3723 29.6326 69.3723 29.647 69.3723C29.6615 69.3723 29.676 69.3723 29.6905 69.3723C29.705 69.3723 29.7195 69.3723 29.7339 69.3723C29.7484 69.3723 29.7629 69.3723 29.7774 69.3723C29.7919 69.3723 29.8063 69.3723 29.8208 69.3723C29.8353 69.3723 29.8498 69.3723 29.8643 69.3723C29.8787 69.3723 29.8932 69.3723 29.9077 69.3723C29.9222 69.3723 29.9366 69.3723 29.9511 69.3723C29.9656 69.3723 29.9801 69.3723 29.9946 69.3723C30.009 69.3723 30.0235 69.3723 30.038 69.3723C30.0525 69.3723 30.0669 69.3723 30.0814 69.3723C30.0959 69.3723 30.1103 69.3723 30.1248 69.3723C30.1393 69.3723 30.1538 69.3723 30.1682 69.3723C30.1827 69.3723 30.1972 69.3723 30.2116 69.3723C30.2261 69.3723 30.2406 69.3723 30.255 69.3723C30.2695 69.3723 30.284 69.3723 30.2984 69.3723C30.3129 69.3723 30.3274 69.3723 30.3418 69.3723C30.3563 69.3723 30.3708 69.3723 30.3852 69.3723C30.3997 69.3723 30.4142 69.3723 30.4286 69.3723C30.4431 69.3723 30.4575 69.3723 30.472 69.3723C30.4865 69.3723 30.5009 69.3723 30.5154 69.3723C30.5298 69.3723 30.5443 69.3723 30.5587 69.3723C30.5732 69.3723 30.5877 69.3723 30.6021 69.3723C30.6166 69.3723 30.631 69.3723 30.6455 69.3723C30.6599 69.3723 30.6744 69.3723 30.6888 69.3723C30.7033 69.3723 30.7177 69.3723 30.7322 69.3723C30.7466 69.3723 30.761 69.3723 30.7755 69.3723C30.7899 69.3723 30.8044 69.3723 30.8188 69.3723C30.8333 69.3723 30.8477 69.3723 30.8621 69.3723C30.8766 69.3723 30.891 69.3723 30.9055 69.3723C30.9199 69.3723 30.9343 69.3723 30.9488 69.3723C30.9632 69.3723 30.9776 69.3723 30.9921 69.3723C31.0065 69.3723 31.0209 69.3723 31.0353 69.3723C31.0498 69.3723 31.0642 69.3723 31.0786 69.3723C31.0931 69.3723 31.1075 69.3723 31.1219 69.3723C31.1363 69.3723 31.1507 69.3723 31.1652 69.3723C31.1796 69.3723 31.194 69.3723 31.2084 69.3723C31.2228 69.3723 31.2373 69.3723 31.2517 69.3723C31.2661 69.3723 31.2805 69.3723 31.2949 69.3723C31.3093 69.3723 31.3237 69.3723 31.3381 69.3723C31.3525 69.3723 31.3669 69.3723 31.3814 69.3723C31.3958 69.3723 31.4102 69.3723 31.4246 69.3723C31.439 69.3723 31.4534 69.3723 31.4678 69.3723C31.4822 69.3723 31.4966 69.3723 31.5109 69.3723C31.5253 69.3723 31.5397 69.3723 31.5541 69.3723C31.5685 69.3723 31.5829 69.3723 31.5973 69.3723C31.6117 69.3723 31.6261 69.3723 31.6404 69.3723C31.6548 69.3723 31.6692 69.3723 31.6836 69.3723C31.698 69.3723 31.7123 69.3723 31.7267 69.3723C31.7411 69.3723 31.7555 69.3723 31.7698 69.3723C31.7842 69.3723 31.7986 69.3723 31.813 69.3723C31.8273 69.3723 31.8417 69.3723 31.856 69.3723C31.8704 69.3723 31.8848 69.3723 31.8991 69.3723C31.9135 69.3723 31.9278 69.3723 31.9422 69.3723C31.9566 69.3723 31.9709 69.3723 31.9853 69.3723C31.9996 69.3723 32.014 69.3723 32.0283 69.3723C32.0427 69.3723 32.057 69.3723 32.0713 69.3723C32.0857 69.3723 32.1 69.3723 32.1144 69.3723C32.1287 69.3723 32.143 69.3723 32.1574 69.3723C32.1717 69.3723 32.186 69.3723 32.2004 69.3723C32.2147 69.3723 32.229 69.3723 32.2433 69.3723C32.2577 69.3723 32.272 69.3723 32.2863 69.3723C32.3006 69.3723 32.3149 69.3723 32.3293 69.3723C32.3436 69.3723 32.3579 69.3723 32.3722 69.3723C32.3865 69.3723 32.4008 69.3723 32.4151 69.3723C32.4294 69.3723 32.4437 69.3723 32.458 69.3723C32.4723 69.3723 32.4866 69.3723 32.5009 69.3723C32.5152 69.3723 32.5295 69.3723 32.5438 69.3723C32.5581 69.3723 32.5724 69.3723 32.5866 69.3723C32.6009 69.3723 32.6152 69.3723 32.6295 69.3723C32.6438 69.3723 32.658 69.3723 32.6723 69.3723C32.6866 69.3723 32.7009 69.3723 32.7151 69.3723C32.7294 69.3723 32.7437 69.3723 32.7579 69.3723C32.7722 69.3723 32.7865 69.3723 32.8007 69.3723C32.815 69.3723 32.8292 69.3723 32.8435 69.3723C32.8577 69.3723 32.872 69.3723 32.8862 69.3723C32.9005 69.3723 32.9147 69.3723 32.9289 69.3723C32.9432 69.3723 32.9574 69.3723 32.9717 69.3723C32.9859 69.3723 33.0001 69.3723 33.0144 69.3723C33.0286 69.3723 33.0428 69.3723 33.057 69.3723C33.0712 69.3723 33.0855 69.3723 33.0997 69.3723C33.1139 69.3723 33.1281 69.3723 33.1423 69.3723C33.1565 69.3723 33.1707 69.3723 33.1849 69.3723C33.1991 69.3723 33.2134 69.3723 33.2275 69.3723C33.2417 69.3723 33.2559 69.3723 33.2701 69.3723C33.2843 69.3723 33.2985 69.3723 33.3127 69.3723C33.3269 69.3723 33.3411 69.3723 33.3552 69.3723C33.3694 69.3723 33.3836 69.3723 33.3978 69.3723C33.4119 69.3723 33.4261 69.3723 33.4403 69.3723C33.4544 69.3723 33.4686 69.3723 33.4828 69.3723C33.4969 69.3723 33.5111 69.3723 33.5252 69.3723C33.5394 69.3723 33.5535 69.3723 33.5677 69.3723C33.5818 69.3723 33.596 69.3723 33.6101 69.3723C33.6242 69.3723 33.6384 69.3723 33.6525 69.3723C33.6666 69.3723 33.6808 69.3723 33.6949 69.3723C33.709 69.3723 33.7231 69.3723 33.7372 69.3723C33.7514 69.3723 33.7655 69.3723 33.7796 69.3723C33.7937 69.3723 33.8078 69.3723 33.8219 69.3723C33.836 69.3723 33.8501 69.3723 33.8642 69.3723C33.8783 69.3723 33.8924 69.3723 33.9065 69.3723C33.9206 69.3723 33.9347 69.3723 33.9487 69.3723C33.9628 69.3723 33.9769 69.3723 33.991 69.3723C34.005 69.3723 34.0191 69.3723 34.0332 69.3723C34.0472 69.3723 34.0613 69.3723 34.0754 69.3723C34.0894 69.3723 34.1035 69.3723 34.1175 69.3723C34.1316 69.3723 34.1456 69.3723 34.1597 69.3723C34.1737 69.3723 34.1877 69.3723 34.2018 69.3723C34.2158 69.3723 34.2298 69.3723 34.2439 69.3723C34.2579 69.3723 34.2719 69.3723 34.2859 69.3723C34.3 69.3723 34.314 69.3723 34.328 69.3723C34.342 69.3723 34.356 69.3723 34.37 69.3723C34.384 69.3723 34.398 69.3723 34.412 69.3723C34.426 69.3723 34.44 69.3723 34.454 69.3723C34.468 69.3723 34.482 69.3723 34.4959 69.3723C34.5099 69.3723 34.5239 69.3723 34.5379 69.3723C34.5518 69.3723 34.5658 69.3723 34.5797 69.3723C34.5937 69.3723 34.6077 69.3723 34.6216 69.3723C34.6356 69.3723 34.6495 69.3723 34.6635 69.3723C34.6774 69.3723 34.6913 69.3723 34.7053 69.3723C34.7192 69.3723 34.7332 69.3723 34.7471 69.3723C34.761 69.3723 34.7749 69.3723 34.7888 69.3723C34.8028 69.3723 34.8167 69.3723 34.8306 69.3723C34.8445 69.3723 34.8584 69.3723 34.8723 69.3723C34.8862 69.3723 34.9001 69.3723 34.914 69.3723C34.9279 69.3723 34.9418 69.3723 34.9557 69.3723C34.9695 69.3723 34.9834 69.3723 34.9973 69.3723C35.0112 69.3723 35.025 69.3723 35.0389 69.3723C35.0528 69.3723 35.0666 69.3723 35.0805 69.3723C35.0943 69.3723 35.1082 69.3723 35.122 69.3723C35.1359 69.3723 35.1497 69.3723 35.1635 69.3723C35.1774 69.3723 35.1912 69.3723 35.205 69.3723C35.2189 69.3723 35.2327 69.3723 35.2465 69.3723C35.2603 69.3723 35.2741 69.3723 35.2879 69.3723C35.3017 69.3723 35.3155 69.3723 35.3293 69.3723C35.3431 69.3723 35.3569 69.3723 35.3707 69.3723C35.3845 69.3723 35.3983 69.3723 35.4121 69.3723C35.4258 69.3723 35.4396 69.3723 35.4534 69.3723C35.4672 69.3723 35.4809 69.3723 35.4947 69.3723C35.5084 69.3723 35.5222 69.3723 35.5359 69.3723C35.5497 69.3723 35.5634 69.3723 35.5772 69.3723C35.5909 69.3723 35.6046 69.3723 35.6184 69.3723C35.6321 69.3723 35.6458 69.3723 35.6595 69.3723C35.6733 69.3723 35.687 69.3723 35.7007 69.3723C35.7144 69.3723 35.7281 69.3723 35.7418 69.3723C35.7555 69.3723 35.7692 69.3723 35.7829 69.3723C35.7965 69.3723 35.8102 69.3723 35.8239 69.3723C35.8376 69.3723 35.8512 69.3723 35.8649 69.3723C35.8786 69.3723 35.8922 69.3723 35.9059 69.3723C35.9195 69.3723 35.9332 69.3723 35.9468 69.3723C35.9605 69.3723 35.9741 69.3723 35.9878 69.3723C36.0014 69.3723 36.015 69.3723 36.0286 69.3723C36.0423 69.3723 36.0559 69.3723 36.0695 69.3723C36.0831 69.3723 36.0967 69.3723 36.1103 69.3723C36.1239 69.3723 36.1375 69.3723 36.1511 69.3723C36.1647 69.3723 36.1783 69.3723 36.1919 69.3723C36.2054 69.3723 36.219 69.3723 36.2326 69.3723C36.2461 69.3723 36.2597 69.3723 36.2733 69.3723C36.2868 69.3723 36.3004 69.3723 36.3139 69.3723C36.3274 69.3723 36.341 69.3723 36.3545 69.3723C36.3681 69.3723 36.3816 69.3723 36.3951 69.3723C36.4086 69.3723 36.4221 69.3723 36.4357 69.3723C36.4492 69.3723 36.4627 69.3723 36.4762 69.3723C36.4897 69.3723 36.5032 69.3723 36.5166 69.3723C36.5301 69.3723 36.5436 69.3723 36.5571 69.3723C36.5706 69.3723 36.584 69.3723 36.5975 69.3723C36.611 69.3723 36.6244 69.3723 36.6379 69.3723C36.6513 69.3723 36.6648 69.3723 36.6782 69.3723C36.6916 69.3723 36.7051 69.3723 36.7185 69.3723C36.7319 69.3723 36.7454 69.3723 36.7588 69.3723C36.7722 69.3723 36.7856 69.3723 36.799 69.3723C36.8124 69.3723 36.8258 69.3723 36.8392 69.3723C36.8526 69.3723 36.866 69.3723 36.8793 69.3723C36.8927 69.3723 36.9061 69.3723 36.9195 69.3723C36.9328 69.3723 36.9462 69.3723 36.9595 69.3723C36.9729 69.3723 36.9862 69.3723 36.9996 69.3723C37.0129 69.3723 37.0263 69.3723 37.0396 69.3723C37.0529 69.3723 37.0662 69.3723 37.0796 69.3723C37.0929 69.3723 37.1062 69.3723 37.1195 69.3723C37.1328 69.3723 37.1461 69.3723 37.1594 69.3723C37.1727 69.3723 37.186 69.3723 37.1992 69.3723C37.2125 69.3723 37.2258 69.3723 37.2391 69.3723C37.2523 69.3723 37.2656 69.3723 37.2788 69.3723C37.2921 69.3723 37.3053 69.3723 37.3186 69.3723C37.3318 69.3723 37.345 69.3723 37.3583 69.3723C37.3715 69.3723 37.3847 69.3723 37.3979 69.3723C37.4111 69.3723 37.4243 69.3723 37.4375 69.3723C37.4507 69.3723 37.4639 69.3723 37.4771 69.3723C37.4903 69.3723 37.5035 69.3723 37.5167 69.3723C37.5298 69.3723 37.543 69.3723 37.5562 69.3723C37.5693 69.3723 37.5825 69.3723 37.5956 69.3723C37.6088 69.3723 37.6219 69.3723 37.635 69.3723C37.6482 69.3723 37.6613 69.3723 37.6744 69.3723C37.6875 69.3723 37.7006 69.3723 37.7137 69.3723C37.7268 69.3723 37.7399 69.3723 37.753 69.3723C37.7661 69.3723 37.7792 69.3723 37.7923 69.3723C37.8054 69.3723 37.8184 69.3723 37.8315 69.3723C37.8446 69.3723 37.8576 69.3723 37.8707 69.3723C37.8837 69.3723 37.8968 69.3723 37.9098 69.3723C37.9228 69.3723 37.9359 69.3723 37.9489 69.3723C37.9619 69.3723 37.9749 69.3723 37.9879 69.3723C38.0009 69.3723 38.0139 69.3723 38.0269 69.3723C38.0399 69.3723 38.0529 69.3723 38.0659 69.3723C38.0788 69.3723 38.0918 69.3723 38.1048 69.3723C38.1177 69.3723 38.1307 69.3723 38.1437 69.3723C38.1566 69.3723 38.1695 69.3723 38.1825 69.3723C38.1954 69.3723 38.2083 69.3723 38.2213 69.3723C38.2342 69.3723 38.2471 69.3723 38.26 69.3723C38.2729 69.3723 38.2858 69.3723 38.2987 69.3723C38.3116 69.3723 38.3245 69.3723 38.3373 69.3723C38.3502 69.3723 38.3631 69.3723 38.3759 69.3723C38.3888 69.3723 38.4017 69.3723 38.4145 69.3723C38.4274 69.3723 38.4402 69.3723 38.453 69.3723C38.4659 69.3723 38.4787 69.3723 38.4915 69.3723C38.5043 69.3723 38.5171 69.3723 38.5299 69.3723C38.5427 69.3723 38.5555 69.3723 38.5683 69.3723C38.5811 69.3723 38.5939 69.3723 38.6066 69.3723C38.6194 69.3723 38.6322 69.3723 38.6449 69.3723C38.6577 69.3723 38.6704 69.3723 38.6832 69.3723C38.6959 69.3723 38.7086 69.3723 38.7213 69.3723C38.7341 69.3723 38.7468 69.3723 38.7595 69.3723C38.7722 69.3723 38.7849 69.3723 38.7976 69.3723C38.8103 69.3723 38.823 69.3723 38.8356 69.3723C38.8483 69.3723 38.861 69.3723 38.8737 69.3723C38.8863 69.3723 38.899 69.3723 38.9116 69.3723C38.9243 69.3723 38.9369 69.3723 38.9495 69.3723C38.9622 69.3723 38.9748 69.3723 38.9874 69.3723C39 69.3723 39.0126 69.3723 39.0252 69.3723C39.0378 69.3723 39.0504 69.3723 39.063 69.3723C39.0755 69.3723 39.0881 69.3723 39.1007 69.3723C39.1133 69.3723 39.1258 69.3723 39.1384 69.3723C39.1509 69.3723 39.1634 69.3723 39.176 69.3723C39.1885 69.3723 39.201 69.3723 39.2135 69.3723C39.2261 69.3723 39.2386 69.3723 39.2511 69.3723C39.2636 69.3723 39.2761 69.3723 39.2885 69.3723C39.301 69.3723 39.3135 69.3723 39.326 69.3723C39.3384 69.3723 39.3509 69.3723 39.3633 69.3723C39.3758 69.3723 39.3882 69.3723 39.4007 69.3723C39.4131 69.3723 39.4255 69.3723 39.4379 69.3723C39.4503 69.3723 39.4628 69.3723 39.4752 69.3723C39.4876 69.3723 39.4999 69.3723 39.5123 69.3723C39.5247 69.3723 39.5371 69.3723 39.5494 69.3723C39.5618 69.3723 39.5742 69.3723 39.5865 69.3723C39.5989 69.3723 39.6112 69.3723 39.6235 69.3723C39.6359 69.3723 39.6482 69.3723 39.6605 69.3723C39.6728 69.3723 39.6851 69.3723 39.6974 69.3723C39.7097 69.3723 39.722 69.3723 39.7343 69.3723C39.7996 69.3723 39.7425 69.3723 39.8078 69.3723C39.8201 69.3723 39.8323 69.3723 39.8445 69.3723C39.8568 69.3723 39.869 69.3723 39.8812 69.3723C39.8934 69.3723 39.9056 69.3723 39.9178 69.3723C39.93 69.3723 39.9422 69.3723 39.9543 69.3723C39.9665 69.3723 39.9787 69.3723 39.9908 69.3723C40.003 69.3723 40.0151 69.3723 40.0273 69.3723C40.0394 69.3723 40.0515 69.3723 40.0636 69.3723C40.0758 69.3723 40.0879 69.3723 40.1 69.3723C40.1121 69.3723 40.1242 69.3723 40.1363 69.3723C40.1483 69.3723 40.1604 69.3723 40.1725 69.3723C40.1845 69.3723 40.1966 69.3723 40.2086 69.3723C40.2207 69.3723 40.2327 69.3723 40.2448 69.3723C40.2568 69.3723 40.2688 69.3723 40.2808 69.3723C40.2928 69.3723 40.3048 69.3723 40.3168 69.3723C40.3288 69.3723 40.3408 69.3723 40.3528 69.3723C40.3647 69.3723 40.3767 69.3723 40.3886 69.3723C40.4006 69.3723 40.4125 69.3723 40.4245 69.3723C40.4364 69.3723 40.4483 69.3723 40.4603 69.3723C40.4722 69.3723 40.4841 69.3723 40.496 69.3723C40.5079 69.3723 40.5198 69.3723 40.5316 69.3723C40.5435 69.3723 40.5554 69.3723 40.5673 69.3723C40.5791 69.3723 40.591 69.3723 40.6028 69.3723C40.6146 69.3723 40.6265 69.3723 40.6383 69.3723C40.6501 69.3723 40.6619 69.3723 40.6737 69.3723C40.6855 69.3723 40.6973 69.3723 40.7091 69.3723C40.7209 69.3723 40.7327 69.3723 40.7444 69.3723C40.7562 69.3723 40.768 69.3723 40.7797 69.3723C40.7914 69.3723 40.8032 69.3723 40.8149 69.3723C40.8266 69.3723 40.8383 69.3723 40.85 69.3723C40.8618 69.3723 40.8735 69.3723 40.8851 69.3723C40.8968 69.3723 40.9085 69.3723 40.9202 69.3723C40.9318 69.3723 40.9435 69.3723 40.9551 69.3723C40.9668 69.3723 40.9784 69.3723 40.99 69.3723C41.0017 69.3723 41.0133 69.3723 41.0249 69.3723C41.0365 69.3723 41.0481 69.3723 41.0597 69.3723C41.0713 69.3723 41.0829 69.3723 41.0944 69.3723C41.106 69.3723 41.1175 69.3723 41.1291 69.3723C41.1406 69.3723 41.1522 69.3723 41.1637 69.3723C41.1752 69.3723 41.1868 69.3723 41.1983 69.3723C41.2098 69.3723 41.2213 69.3723 41.2327 69.3723C41.2442 69.3723 41.2557 69.3723 41.2672 69.3723C41.2786 69.3723 41.2901 69.3723 41.3015 69.3723V67.7216ZM15.8456 65.4683C14.3054 62.3752 13.8563 58.2928 13.8266 54.8167L12.1759 54.8308C12.2062 58.3777 12.6568 62.7678 14.368 66.2041L15.8456 65.4683ZM20.1471 48.9445H41.077V47.2938H20.1471V48.9445ZM20.2957 67.7216C18.3442 67.7216 16.5943 66.9716 15.8456 65.4683L14.368 66.2041C15.5067 68.4908 18.0132 69.3723 20.2957 69.3723V67.7216ZM45.6483 65.4481C44.9745 66.9596 43.2554 67.7216 41.3015 67.7216V69.3723C43.5817 69.3723 46.1058 68.476 47.156 66.1203L45.6483 65.4481ZM49.1769 55.2376C49.3371 50.6785 45.5056 47.2938 41.077 47.2938V48.9445C44.7072 48.9445 47.65 51.6848 47.5272 55.1796L49.1769 55.2376ZM13.8266 54.8167C13.7981 51.4818 16.6558 48.9445 20.1471 48.9445V47.2938C15.8988 47.2938 12.1383 50.4263 12.1759 54.8308L13.8266 54.8167Z" fill="#150C0C" mask="url(#path-3-inside-1)"/>
<mask id="path-5-inside-2" fill="white">
<path fill-rule="evenodd" clip-rule="evenodd" d="M25.938 48.1229H26.3358C26.9133 44.9952 26.9133 41.0039 26.9133 41.0039H34.7837C34.7837 41.0039 34.7837 44.9952 35.3612 48.1229H37.8232C36.189 49.4137 34.1248 50.1842 31.8806 50.1842C29.6364 50.1842 27.5722 49.4137 25.938 48.1229Z"/>
</mask>
<path fill-rule="evenodd" clip-rule="evenodd" d="M25.938 48.1229H26.3358C26.9133 44.9952 26.9133 41.0039 26.9133 41.0039H34.7837C34.7837 41.0039 34.7837 44.9952 35.3612 48.1229H37.8232C36.189 49.4137 34.1248 50.1842 31.8806 50.1842C29.6364 50.1842 27.5722 49.4137 25.938 48.1229Z" fill="#C89583"/>
<path d="M25.938 48.1229V47.2975H23.5615L25.4264 48.7705L25.938 48.1229ZM26.3358 48.1229V48.9482H27.0228L27.1475 48.2727L26.3358 48.1229ZM26.9133 41.0039V40.1785H26.0879L26.0879 41.0039L26.9133 41.0039ZM34.7837 41.0039L35.6091 41.0039V40.1785H34.7837V41.0039ZM35.3612 48.1229L34.5496 48.2727L34.6743 48.9482H35.3612V48.1229ZM37.8232 48.1229L38.3348 48.7705L40.1996 47.2975H37.8232V48.1229ZM25.938 48.9482H26.3358V47.2975H25.938V48.9482ZM27.1475 48.2727C27.4458 46.6568 27.5925 44.8357 27.6654 43.4333C27.702 42.729 27.7203 42.1237 27.7294 41.694C27.734 41.479 27.7363 41.3077 27.7375 41.1896C27.7381 41.1305 27.7384 41.0847 27.7385 41.0534C27.7386 41.0377 27.7386 41.0256 27.7386 41.0174C27.7386 41.0132 27.7387 41.01 27.7387 41.0078C27.7387 41.0066 27.7387 41.0057 27.7387 41.0051C27.7387 41.0048 27.7387 41.0045 27.7387 41.0043C27.7387 41.0042 27.7387 41.0041 27.7387 41.0041C27.7387 41.004 27.7387 41.0039 26.9133 41.0039C26.0879 41.0039 26.0879 41.0039 26.0879 41.0038C26.0879 41.0038 26.0879 41.0038 26.0879 41.0039C26.0879 41.0039 26.0879 41.004 26.0879 41.0042C26.0879 41.0045 26.0879 41.0051 26.0879 41.0059C26.0879 41.0075 26.0879 41.01 26.0879 41.0135C26.0879 41.0205 26.0879 41.0313 26.0878 41.0456C26.0877 41.0743 26.0874 41.1173 26.0868 41.1734C26.0857 41.2858 26.0835 41.4507 26.0791 41.6588C26.0702 42.0752 26.0524 42.6632 26.0169 43.3477C25.9454 44.7228 25.8033 46.4612 25.5242 47.973L27.1475 48.2727ZM26.9133 41.8293H34.7837V40.1785H26.9133V41.8293ZM34.7837 41.0039C33.9584 41.0039 33.9584 41.004 33.9584 41.0041C33.9584 41.0041 33.9584 41.0042 33.9584 41.0043C33.9584 41.0045 33.9584 41.0048 33.9584 41.0051C33.9584 41.0057 33.9584 41.0066 33.9584 41.0078C33.9584 41.01 33.9584 41.0132 33.9584 41.0174C33.9584 41.0256 33.9585 41.0377 33.9585 41.0534C33.9587 41.0847 33.959 41.1305 33.9595 41.1896C33.9607 41.3077 33.963 41.479 33.9676 41.694C33.9768 42.1237 33.9951 42.729 34.0317 43.4333C34.1046 44.8357 34.2512 46.6568 34.5496 48.2727L36.1729 47.973C35.8937 46.4612 35.7517 44.7228 35.6802 43.3477C35.6446 42.6632 35.6268 42.0752 35.6179 41.6588C35.6135 41.4507 35.6113 41.2858 35.6102 41.1734C35.6096 41.1173 35.6094 41.0743 35.6092 41.0456C35.6092 41.0313 35.6091 41.0206 35.6091 41.0135C35.6091 41.01 35.6091 41.0075 35.6091 41.0059C35.6091 41.0051 35.6091 41.0045 35.6091 41.0042C35.6091 41.004 35.6091 41.0039 35.6091 41.0039C35.6091 41.0038 35.6091 41.0038 35.6091 41.0038C35.6091 41.0039 35.6091 41.0039 34.7837 41.0039ZM35.3612 48.9482H37.8232V47.2975H35.3612V48.9482ZM37.3116 47.4752C35.8179 48.6551 33.9325 49.3588 31.8806 49.3588V51.0095C34.317 51.0095 36.5601 50.1723 38.3348 48.7705L37.3116 47.4752ZM31.8806 49.3588C29.8286 49.3588 27.9433 48.6551 26.4496 47.4752L25.4264 48.7705C27.2011 50.1723 29.4442 51.0095 31.8806 51.0095V49.3588Z" fill="#150C0C" mask="url(#path-5-inside-2)"/>
<path d="M34.6008 45.45C34.6233 45.6709 34.6531 45.9535 34.6887 46.2701C34.7728 47.0181 34.8899 47.9634 35.0212 48.7348C35.0777 49.0664 34.9596 49.3652 34.7331 49.5186C33.9149 50.0726 32.4198 50.9058 30.8898 50.9058C29.3598 50.9058 27.8648 50.0726 27.0465 49.5186C26.8201 49.3652 26.702 49.0664 26.7585 48.7348C26.8898 47.9634 27.0069 47.0181 27.091 46.2701C27.1266 45.9535 27.1564 45.6709 27.1789 45.45C27.4122 45.5107 27.7186 45.5857 28.0706 45.6608C28.8678 45.8308 29.9189 46.0052 30.8898 46.0052C31.8608 46.0052 32.9119 45.8308 33.7091 45.6608C34.0611 45.5857 34.3675 45.5107 34.6008 45.45Z" fill="#611558" stroke="#150C0C" stroke-width="0.825365"/>
<path d="M45.7922 30.5562C45.7922 31.1593 45.6083 31.6894 45.3308 32.0594C45.0534 32.4293 44.7016 32.6196 44.3478 32.6196C43.994 32.6196 43.6422 32.4293 43.3648 32.0594C43.0873 31.6894 42.9034 31.1593 42.9034 30.5562C42.9034 29.9531 43.0873 29.423 43.3648 29.0529C43.6422 28.683 43.994 28.4928 44.3478 28.4928C44.7016 28.4928 45.0534 28.683 45.3308 29.0529C45.6083 29.423 45.7922 29.9531 45.7922 30.5562Z" fill="#EDC9BC" stroke="#150C0C" stroke-width="0.825365"/>
<path d="M18.4519 30.5562C18.4519 31.1593 18.268 31.6894 17.9905 32.0594C17.713 32.4293 17.3613 32.6196 17.0075 32.6196C16.6537 32.6196 16.3019 32.4293 16.0245 32.0594C15.7469 31.6894 15.5631 31.1593 15.5631 30.5562C15.5631 29.9531 15.7469 29.423 16.0245 29.0529C16.3019 28.683 16.6537 28.4928 17.0075 28.4928C17.3613 28.4928 17.713 28.683 17.9905 29.0529C18.268 29.423 18.4519 29.9531 18.4519 30.5562Z" fill="#EDC9BC" stroke="#150C0C" stroke-width="0.825365"/>
<path d="M30.7287 14.2545L30.7296 14.2545L30.7469 14.2545C37.9458 14.2692 43.6799 18.67 43.6799 24.2099C43.6799 25.5009 43.7597 26.5 43.8519 27.6554C43.8719 27.9061 43.8926 28.1643 43.9131 28.4343C44.0282 29.9505 44.1413 31.443 44.1413 32.9424C44.1413 36.097 42.2046 38.8926 39.5168 40.9233C36.8296 42.9537 33.4656 44.1601 30.7579 44.1738L30.7579 44.1738L30.7519 44.1739L30.7473 44.174L30.7301 44.1739L30.7282 44.1739L30.7111 44.174L30.7064 44.1739L30.7064 44.1739L30.7005 44.1738C27.9927 44.1601 24.6287 42.9537 21.9415 40.9233C19.2537 38.8926 17.317 36.097 17.317 32.9424C17.317 31.443 17.4301 29.9505 17.5453 28.4343C17.5658 28.1643 17.5864 27.9061 17.6064 27.6553C17.6986 26.5 17.7784 25.5009 17.7784 24.2099C17.7784 18.6698 23.5128 14.269 30.7119 14.2545L30.7287 14.2545Z" fill="#EDC9BC" stroke="#150C0C" stroke-width="0.825365"/>
<mask id="path-11-outside-3" maskUnits="userSpaceOnUse" x="6" y="5" width="50" height="49" fill="black">
<rect fill="white" x="6" y="5" width="50" height="49"/>
<path fill-rule="evenodd" clip-rule="evenodd" d="M36.3983 8.61738L30.5107 6.524C26.5281 5.10798 22.0957 6.63665 19.8328 10.2067C18.4459 12.3945 16.5218 14.1905 14.2437 15.4235L11.6973 16.8017C9.32353 18.0865 8.05587 20.7612 8.56439 23.4119L9.47235 28.1449C9.90184 30.3838 9.57772 32.7018 8.55062 34.737L8.00794 35.8123C6.00194 39.7872 7.06231 44.6243 10.5471 47.3955C10.9781 47.7382 11.3565 48.1422 11.6703 48.5946L12.776 50.1889C13.1442 50.7197 13.5878 51.1824 14.087 51.5665C15.3129 49.3297 17.8235 47.8894 20.6176 47.8894H26.1589C26.1054 47.7016 26.0987 47.4983 26.1373 47.2991C26.3765 46.0657 26.5221 44.6802 26.6108 43.4503C21.8967 41.8174 17.1602 37.7949 17.0488 32.7752C16.2011 32.5458 15.5631 31.5465 15.5631 30.3486C15.5631 29.0395 16.325 27.9677 17.2898 27.8785C17.306 27.6691 17.3222 27.4671 17.3379 27.2701V27.2701C17.43 26.1162 17.5083 25.1352 17.5083 23.8619C17.5083 17.9986 23.5361 13.5086 30.8536 13.4939L30.8717 13.4938L30.8898 13.4938C38.2073 13.5086 44.2351 17.9986 44.2351 23.8619C44.2351 25.1352 44.3134 26.1162 44.4055 27.2701C44.4212 27.4666 44.4373 27.6681 44.4534 27.8769C44.4868 27.8745 44.5204 27.8733 44.5542 27.8733C45.5799 27.8733 46.4113 28.9819 46.4113 30.3494C46.4113 31.6545 45.6541 32.7237 44.6935 32.8186C44.5522 37.9481 39.5844 42.0297 34.766 43.5725C34.8554 44.7714 34.9992 46.1064 35.2305 47.2991C35.2692 47.4983 35.2624 47.7016 35.2089 47.8894H41.1837C44.4239 47.8894 47.2611 49.82 48.2609 52.6435C49.2222 52.388 50.1157 51.9024 50.8597 51.2187L51.7011 50.4454C55.46 46.9908 56.0867 41.2895 53.168 37.1009C52.0994 35.5674 51.7922 33.6224 52.33 31.8324C53.3702 28.3701 52.5202 24.6013 50.0842 21.9302L48.9391 20.6747C48.2221 19.8885 47.7198 18.9307 47.4808 17.8939L46.6724 14.387C46.1026 11.9156 44.0829 10.0417 41.5758 9.65844L38.9217 9.25273C38.0623 9.12136 37.2174 8.90862 36.3983 8.61738Z"/>
</mask>
<path fill-rule="evenodd" clip-rule="evenodd" d="M36.3983 8.61738L30.5107 6.524C26.5281 5.10798 22.0957 6.63665 19.8328 10.2067C18.4459 12.3945 16.5218 14.1905 14.2437 15.4235L11.6973 16.8017C9.32353 18.0865 8.05587 20.7612 8.56439 23.4119L9.47235 28.1449C9.90184 30.3838 9.57772 32.7018 8.55062 34.737L8.00794 35.8123C6.00194 39.7872 7.06231 44.6243 10.5471 47.3955C10.9781 47.7382 11.3565 48.1422 11.6703 48.5946L12.776 50.1889C13.1442 50.7197 13.5878 51.1824 14.087 51.5665C15.3129 49.3297 17.8235 47.8894 20.6176 47.8894H26.1589C26.1054 47.7016 26.0987 47.4983 26.1373 47.2991C26.3765 46.0657 26.5221 44.6802 26.6108 43.4503C21.8967 41.8174 17.1602 37.7949 17.0488 32.7752C16.2011 32.5458 15.5631 31.5465 15.5631 30.3486C15.5631 29.0395 16.325 27.9677 17.2898 27.8785C17.306 27.6691 17.3222 27.4671 17.3379 27.2701V27.2701C17.43 26.1162 17.5083 25.1352 17.5083 23.8619C17.5083 17.9986 23.5361 13.5086 30.8536 13.4939L30.8717 13.4938L30.8898 13.4938C38.2073 13.5086 44.2351 17.9986 44.2351 23.8619C44.2351 25.1352 44.3134 26.1162 44.4055 27.2701C44.4212 27.4666 44.4373 27.6681 44.4534 27.8769C44.4868 27.8745 44.5204 27.8733 44.5542 27.8733C45.5799 27.8733 46.4113 28.9819 46.4113 30.3494C46.4113 31.6545 45.6541 32.7237 44.6935 32.8186C44.5522 37.9481 39.5844 42.0297 34.766 43.5725C34.8554 44.7714 34.9992 46.1064 35.2305 47.2991C35.2692 47.4983 35.2624 47.7016 35.2089 47.8894H41.1837C44.4239 47.8894 47.2611 49.82 48.2609 52.6435C49.2222 52.388 50.1157 51.9024 50.8597 51.2187L51.7011 50.4454C55.46 46.9908 56.0867 41.2895 53.168 37.1009C52.0994 35.5674 51.7922 33.6224 52.33 31.8324C53.3702 28.3701 52.5202 24.6013 50.0842 21.9302L48.9391 20.6747C48.2221 19.8885 47.7198 18.9307 47.4808 17.8939L46.6724 14.387C46.1026 11.9156 44.0829 10.0417 41.5758 9.65844L38.9217 9.25273C38.0623 9.12136 37.2174 8.90862 36.3983 8.61738Z" fill="#E3E0D9"/>
<path d="M30.5107 6.524L30.7872 5.74633V5.74633L30.5107 6.524ZM36.3983 8.61738L36.6748 7.83971L36.3983 8.61738ZM19.8328 10.2067L20.5299 10.6485L19.8328 10.2067ZM14.2437 15.4235L14.6366 16.1493H14.6366L14.2437 15.4235ZM11.6973 16.8017L11.3044 16.0758H11.3044L11.6973 16.8017ZM8.56439 23.4119L7.75381 23.5674L8.56439 23.4119ZM9.47235 28.1449L8.66176 28.3004L9.47235 28.1449ZM8.55062 34.737L9.28747 35.1089L8.55062 34.737ZM8.00794 35.8123L8.74479 36.1842L8.00794 35.8123ZM10.5471 47.3955L11.0609 46.7495L11.0609 46.7495L10.5471 47.3955ZM11.6703 48.5946L12.3485 48.1242H12.3485L11.6703 48.5946ZM12.776 50.1889L13.4542 49.7185V49.7185L12.776 50.1889ZM14.087 51.5665L13.5836 52.2206L14.3475 52.8085L14.8108 51.9632L14.087 51.5665ZM26.1589 47.8894V48.7147H27.252L26.9527 47.6633L26.1589 47.8894ZM26.1373 47.2991L25.327 47.142V47.142L26.1373 47.2991ZM26.6108 43.4503L27.434 43.5097L27.4796 42.8778L26.8809 42.6704L26.6108 43.4503ZM17.0488 32.7752L17.874 32.7568L17.8603 32.1397L17.2644 31.9784L17.0488 32.7752ZM17.2898 27.8785L17.3658 28.7003L18.059 28.6363L18.1127 27.9422L17.2898 27.8785ZM17.3379 27.2701L18.1606 27.3358L18.1632 27.303V27.2701H17.3379ZM17.3379 27.2701L16.5151 27.2045L16.5125 27.2372V27.2701H17.3379ZM30.8536 13.4939L30.8523 12.6685L30.8519 12.6685L30.8536 13.4939ZM30.8717 13.4938L30.8713 12.6685L30.8704 12.6685L30.8717 13.4938ZM30.8898 13.4938L30.8915 12.6685L30.8894 12.6685L30.8898 13.4938ZM44.4055 27.2701L45.2282 27.2045V27.2045L44.4055 27.2701ZM44.4534 27.8769L43.6305 27.9406L43.6938 28.7585L44.5121 28.7002L44.4534 27.8769ZM44.6935 32.8186L44.6123 31.9973L43.8884 32.0688L43.8684 32.7959L44.6935 32.8186ZM34.766 43.5725L34.5143 42.7865L33.8945 42.9849L33.9429 43.6339L34.766 43.5725ZM35.2305 47.2991L34.4203 47.4563V47.4563L35.2305 47.2991ZM35.2089 47.8894L34.4151 47.6634L34.1158 48.7147H35.2089V47.8894ZM48.2609 52.6435L47.4829 52.919L47.737 53.6368L48.4729 53.4412L48.2609 52.6435ZM50.8597 51.2187L51.4182 51.8264L51.4182 51.8264L50.8597 51.2187ZM51.7011 50.4454L51.1426 49.8377H51.1426L51.7011 50.4454ZM53.168 37.1009L53.8451 36.629L53.168 37.1009ZM52.33 31.8324L53.1205 32.0699V32.0699L52.33 31.8324ZM50.0842 21.9302L50.694 21.374V21.374L50.0842 21.9302ZM48.9391 20.6747L48.3293 21.2309V21.2309L48.9391 20.6747ZM47.4808 17.8939L48.2851 17.7085V17.7085L47.4808 17.8939ZM46.6724 14.387L45.8681 14.5724V14.5724L46.6724 14.387ZM41.5758 9.65844L41.451 10.4743L41.5758 9.65844ZM38.9217 9.25273L39.0464 8.43684L39.0464 8.43684L38.9217 9.25273ZM30.2342 7.30168L36.1218 9.39505L36.6748 7.83971L30.7872 5.74633L30.2342 7.30168ZM20.5299 10.6485C22.5865 7.40405 26.6147 6.01476 30.2342 7.30168L30.7872 5.74633C26.4415 4.20119 21.6049 5.86924 19.1356 9.76478L20.5299 10.6485ZM14.6366 16.1493C17.0386 14.8493 19.0676 12.9554 20.5299 10.6485L19.1356 9.76478C17.8243 11.8335 16.0049 13.5318 13.8508 14.6976L14.6366 16.1493ZM12.0901 17.5276L14.6366 16.1493L13.8508 14.6976L11.3044 16.0758L12.0901 17.5276ZM9.37498 23.2564C8.93426 20.9591 10.0329 18.641 12.0901 17.5276L11.3044 16.0758C8.61416 17.5319 7.17748 20.5632 7.75381 23.5674L9.37498 23.2564ZM10.2829 27.9894L9.37498 23.2564L7.75381 23.5674L8.66176 28.3004L10.2829 27.9894ZM9.28747 35.1089C10.3967 32.9109 10.7468 30.4074 10.2829 27.9894L8.66176 28.3004C9.0569 30.3601 8.75871 32.4928 7.81378 34.3651L9.28747 35.1089ZM8.74479 36.1842L9.28747 35.1089L7.81378 34.3651L7.2711 35.4404L8.74479 36.1842ZM11.0609 46.7495C7.88225 44.2218 6.91506 39.8097 8.74479 36.1842L7.2711 35.4404C5.08881 39.7646 6.24236 45.0268 10.0334 48.0415L11.0609 46.7495ZM12.3485 48.1242C11.9887 47.6055 11.5549 47.1424 11.0609 46.7495L10.0334 48.0415C10.4013 48.334 10.7242 48.6788 10.992 49.065L12.3485 48.1242ZM13.4542 49.7185L12.3485 48.1242L10.992 49.065L12.0978 50.6593L13.4542 49.7185ZM14.5903 50.9124C14.1578 50.5796 13.7734 50.1787 13.4542 49.7185L12.0978 50.6593C12.5151 51.2608 13.0179 51.7853 13.5836 52.2206L14.5903 50.9124ZM14.8108 51.9632C15.8799 50.0124 18.0994 48.7147 20.6176 48.7147V47.064C17.5477 47.064 14.7459 48.647 13.3632 51.1698L14.8108 51.9632ZM20.6176 48.7147H26.1589V47.064H20.6176V48.7147ZM26.9527 47.6633C26.9369 47.6079 26.932 47.5363 26.9476 47.4563L25.327 47.142C25.2653 47.4603 25.2739 47.7952 25.3651 48.1154L26.9527 47.6633ZM26.9476 47.4563C27.1957 46.1772 27.3442 44.7551 27.434 43.5097L25.7876 43.391C25.7 44.6052 25.5574 45.9543 25.327 47.142L26.9476 47.4563ZM16.2237 32.7935C16.2852 35.5688 17.6247 38.0181 19.5122 39.9583C21.399 41.8979 23.876 43.3765 26.3406 44.2302L26.8809 42.6704C24.6315 41.8913 22.3831 40.5422 20.6954 38.8073C19.0083 37.0731 17.9238 35.0012 17.874 32.7568L16.2237 32.7935ZM14.7377 30.3486C14.7377 31.7746 15.5028 33.2119 16.8332 33.5719L17.2644 31.9784C16.8995 31.8797 16.3885 31.3185 16.3885 30.3486H14.7377ZM17.2139 27.0566C15.6499 27.2012 14.7377 28.8146 14.7377 30.3486H16.3885C16.3885 29.2644 17.0001 28.7342 17.3658 28.7003L17.2139 27.0566ZM16.5151 27.2045C16.4994 27.4013 16.4832 27.6043 16.4669 27.8148L18.1127 27.9422C18.1288 27.7339 18.1449 27.5329 18.1606 27.3358L16.5151 27.2045ZM16.5125 27.2701V27.2701H18.1632V27.2701H16.5125ZM16.6829 23.8619C16.6829 25.0987 16.6072 26.0501 16.5151 27.2045L18.1606 27.3358C18.2527 26.1823 18.3336 25.1717 18.3336 23.8619H16.6829ZM30.8519 12.6685C23.2977 12.6837 16.6829 17.3522 16.6829 23.8619H18.3336C18.3336 18.6451 23.7745 14.3335 30.8553 14.3192L30.8519 12.6685ZM30.8704 12.6685L30.8523 12.6685L30.8548 14.3192L30.8729 14.3192L30.8704 12.6685ZM30.8894 12.6685L30.8713 12.6685L30.8721 14.3192L30.8902 14.3192L30.8894 12.6685ZM45.0605 23.8619C45.0605 17.3522 38.4457 12.6837 30.8915 12.6685L30.8881 14.3192C37.9689 14.3335 43.4098 18.6451 43.4098 23.8619H45.0605ZM45.2282 27.2045C45.1361 26.0501 45.0605 25.0987 45.0605 23.8619H43.4098C43.4098 25.1717 43.4907 26.1824 43.5827 27.3358L45.2282 27.2045ZM45.2763 27.8132C45.2601 27.6033 45.2439 27.4008 45.2282 27.2045L43.5827 27.3358C43.5984 27.5324 43.6144 27.7329 43.6305 27.9406L45.2763 27.8132ZM44.5542 27.0479C44.5008 27.0479 44.4476 27.0498 44.3947 27.0536L44.5121 28.7002C44.526 28.6992 44.54 28.6987 44.5542 28.6987V27.0479ZM47.2367 30.3494C47.2367 29.5043 46.9808 28.7075 46.5277 28.1033C46.0743 27.4989 45.3851 27.0479 44.5542 27.0479V28.6987C44.749 28.6987 44.9883 28.802 45.2071 29.0938C45.4261 29.3857 45.5859 29.827 45.5859 30.3494H47.2367ZM44.7746 33.64C46.3301 33.4863 47.2367 31.8796 47.2367 30.3494H45.5859C45.5859 31.4293 44.9781 31.9611 44.6123 31.9973L44.7746 33.64ZM35.0177 44.3586C37.5393 43.5512 40.1028 42.0808 42.0661 40.1254C44.0296 38.1697 45.4404 35.6772 45.5185 32.8414L43.8684 32.7959C43.8053 35.0896 42.6615 37.2026 40.9012 38.9558C39.1407 40.7092 36.8111 42.0511 34.5143 42.7865L35.0177 44.3586ZM33.9429 43.6339C34.0335 44.8485 34.1803 46.2191 34.4203 47.4563L36.0408 47.142C35.8181 45.9937 35.6773 44.6943 35.5891 43.5112L33.9429 43.6339ZM34.4203 47.4563C34.4358 47.5363 34.4309 47.6079 34.4151 47.6634L36.0028 48.1154C36.0939 47.7952 36.1025 47.4603 36.0408 47.1419L34.4203 47.4563ZM35.2089 48.7147H41.1837V47.064H35.2089V48.7147ZM41.1837 48.7147C44.1044 48.7147 46.6095 50.4525 47.4829 52.919L49.0389 52.368C47.9127 49.1874 44.7434 47.064 41.1837 47.064V48.7147ZM50.3012 50.611C49.6564 51.2036 48.8821 51.6244 48.0489 51.8458L48.4729 53.4412C49.5623 53.1516 50.575 52.6013 51.4182 51.8264L50.3012 50.611ZM51.1426 49.8377L50.3012 50.611L51.4182 51.8264L52.2596 51.0531L51.1426 49.8377ZM52.4908 37.5727C55.1734 41.4225 54.5974 46.6626 51.1426 49.8377L52.2596 51.0531C56.3226 47.319 57 41.1565 53.8451 36.629L52.4908 37.5727ZM51.5396 31.5949C50.9296 33.6251 51.2775 35.8316 52.4908 37.5727L53.8451 36.629C52.9213 35.3032 52.6549 33.6196 53.1205 32.0699L51.5396 31.5949ZM49.4743 22.4864C51.714 24.942 52.4967 28.4093 51.5396 31.5949L53.1205 32.0699C54.2438 28.331 53.3265 24.2605 50.694 21.374L49.4743 22.4864ZM48.3293 21.2309L49.4743 22.4864L50.694 21.374L49.5489 20.1185L48.3293 21.2309ZM46.6765 18.0793C46.9474 19.2544 47.5167 20.3398 48.3293 21.2309L49.5489 20.1185C48.9275 19.4371 48.4922 18.6071 48.2851 17.7085L46.6765 18.0793ZM45.8681 14.5724L46.6765 18.0793L48.2851 17.7085L47.4766 14.2016L45.8681 14.5724ZM41.451 10.4743C43.6239 10.8065 45.3743 12.4305 45.8681 14.5724L47.4766 14.2016C46.8309 11.4006 44.5419 9.27691 41.7005 8.84255L41.451 10.4743ZM38.797 10.0686L41.451 10.4743L41.7005 8.84255L39.0464 8.43684L38.797 10.0686ZM36.1218 9.39505C36.9902 9.70381 37.8859 9.92934 38.797 10.0686L39.0464 8.43684C38.2388 8.31337 37.4447 8.11343 36.6748 7.83971L36.1218 9.39505Z" fill="#150C0C" mask="url(#path-11-outside-3)"/>
<path d="M28.5496 19.9501H30.9875C35.1403 19.9501 38.5067 16.5837 38.5067 12.4309C38.5067 12.2727 38.3841 12.1415 38.2262 12.1309L24.85 11.2285C24.7935 11.2247 24.7369 11.2365 24.6866 11.2626L14.8413 16.3715C14.7387 16.4247 14.6743 16.5307 14.6743 16.6462V27.2154C14.6743 27.3585 14.7903 27.4745 14.9334 27.4745C16.5882 27.4745 18.1803 26.8412 19.3829 25.7046L23.2347 22.0643C24.6712 20.7066 26.5729 19.9501 28.5496 19.9501Z" fill="#E3E0D9"/>
<path d="M14.6743 27.4751V27.4751C16.4955 27.4751 18.2477 26.7782 19.5713 25.5272L23.2347 22.0649C24.6712 20.7072 26.5729 19.9507 28.5496 19.9507H30.7689C35.0424 19.9507 38.5067 16.4239 38.5067 12.1504V12.1504" stroke="#150C0C" stroke-width="0.825365"/>
<path d="M34.8889 25.2522C34.3975 24.9503 34.4001 24.3291 34.9924 24.0702C37.4282 23.4548 39.2287 24.1819 40.5687 25.4384C40.6902 25.5523 40.8262 25.6707 40.9541 25.7828C41.1359 26.0576 40.9136 26.2453 40.6554 26.2227C39.1433 25.1583 37.6909 25.1866 36.8597 25.2175C36.4123 25.2341 35.9173 25.4005 35.5994 25.4179C35.2352 25.4378 34.9791 25.3076 34.8889 25.2522Z" fill="#BF8C7E"/>
<path d="M26.5949 25.2522C27.0863 24.9503 27.0838 24.3291 26.4915 24.0702C24.0557 23.4548 22.2551 24.1819 20.9152 25.4384C20.7937 25.5523 20.6576 25.6707 20.5298 25.7828C20.348 26.0576 20.5702 26.2453 20.8284 26.2227C22.3406 25.1583 23.793 25.1866 24.6242 25.2175C25.0716 25.2341 25.5665 25.4005 25.8845 25.4179C26.2487 25.4378 26.5047 25.3076 26.5949 25.2522Z" fill="#BF8C7E"/>
<ellipse cx="38.57" cy="29.4718" rx="1.54756" ry="1.70232" fill="#150C0C"/>
<ellipse cx="23.301" cy="29.4718" rx="1.54756" ry="1.70232" fill="#150C0C"/>
<ellipse cx="23.7133" cy="29.1119" rx="0.309512" ry="0.412683" fill="white" fill-opacity="0.9"/>
<ellipse cx="39.2924" cy="29.1119" rx="0.309512" ry="0.412683" fill="white" fill-opacity="0.9"/>
<circle cx="23.7649" cy="37.2088" r="0.361097" fill="#9C6458" fill-opacity="0.5" style="mix-blend-mode:multiply"/>
<circle cx="24.4876" cy="38.3435" r="0.361097" fill="#9C6458" fill-opacity="0.5" style="mix-blend-mode:multiply"/>
<circle cx="25.7254" cy="37.2088" r="0.361097" fill="#9C6458" fill-opacity="0.5" style="mix-blend-mode:multiply"/>
<circle r="0.361097" transform="matrix(-1 0 0 1 37.8996 37.2088)" fill="#9C6458" fill-opacity="0.5" style="mix-blend-mode:multiply"/>
<circle r="0.361097" transform="matrix(-1 0 0 1 37.1775 38.3435)" fill="#9C6458" fill-opacity="0.5" style="mix-blend-mode:multiply"/>
<circle r="0.361097" transform="matrix(-1 0 0 1 35.9392 37.2088)" fill="#9C6458" fill-opacity="0.5" style="mix-blend-mode:multiply"/>
<circle r="0.361097" transform="matrix(1 0 0 -1 22.8367 35.8694)" fill="#9C6458" fill-opacity="0.5" style="mix-blend-mode:multiply"/>
<circle r="0.361097" transform="matrix(1 0 0 -1 23.5589 34.7346)" fill="#9C6458" fill-opacity="0.5" style="mix-blend-mode:multiply"/>
<circle r="0.361097" transform="matrix(1 0 0 -1 24.7966 35.8694)" fill="#9C6458" fill-opacity="0.5" style="mix-blend-mode:multiply"/>
<circle cx="38.6218" cy="35.8694" r="0.361097" transform="rotate(-180 38.6218 35.8694)" fill="#9C6458" fill-opacity="0.5" style="mix-blend-mode:multiply"/>
<circle cx="37.8996" cy="34.7346" r="0.361097" transform="rotate(-180 37.8996 34.7346)" fill="#9C6458" fill-opacity="0.5" style="mix-blend-mode:multiply"/>
<circle cx="36.6619" cy="35.8694" r="0.361097" transform="rotate(-180 36.6619 35.8694)" fill="#9C6458" fill-opacity="0.5" style="mix-blend-mode:multiply"/>
<ellipse cx="31.0389" cy="36.3846" rx="2.68244" ry="1.49597" fill="#901A3E"/>
<path d="M27.1182 35.7988C29.1816 36.44 32.8957 36.44 34.9591 35.7988" stroke="#150C0C" stroke-width="0.619024" stroke-linecap="round"/>
<path d="M34.8966 26.4448C36.8689 25.6537 39.1008 25.6911 41.0964 26.4094C42.0789 26.763 42.8222 27.5962 43.09 28.6145C43.5958 30.5382 43.4072 32.2217 42.5519 33.3672C41.7066 34.4993 40.1378 35.2003 37.6661 35.0133C35.3926 34.7104 34.2235 33.6272 33.6494 32.3699C33.0617 31.0829 33.0762 29.5635 33.2852 28.3951C33.4432 27.5124 34.0547 26.7825 34.8966 26.4448Z" stroke="black" stroke-width="0.722194"/>
<path d="M26.5619 26.4448C24.5896 25.6537 22.3577 25.6911 20.3621 26.4094C19.3796 26.763 18.6363 27.5962 18.3685 28.6145C17.8627 30.5382 18.0513 32.2217 18.9066 33.3672C19.7519 34.4993 21.3207 35.2003 23.7924 35.0133C26.0659 34.7104 27.235 33.6272 27.8091 32.3699C28.3968 31.0829 28.3823 29.5635 28.1733 28.3951C28.0153 27.5124 27.4037 26.7825 26.5619 26.4448Z" stroke="black" stroke-width="0.722194"/>
<path d="M27.7373 27.4563C30.1715 26.5862 31.4401 26.6256 33.7212 27.6672" stroke="black" stroke-width="0.722194"/>
</g>
</svg>
