<svg width="62" height="62" viewBox="0 0 62 62" fill="none" xmlns="http://www.w3.org/2000/svg">
<mask id="mask0" mask-type="alpha" maskUnits="userSpaceOnUse" x="0" y="0" width="62" height="62">
<circle cx="31" cy="31" r="31" fill="#C4C4C4"/>
</mask>
<g mask="url(#mask0)">
<circle cx="31" cy="31" r="31" fill="#BED3F4"/>
<g clip-path="url(#clip0)">
<mask id="path-3-inside-1" fill="white">
<path d="M10 59.2878C9.99668 54.8325 13.7975 51.5625 18.2529 51.5625H43.9788C48.615 51.5625 52.5045 55.09 52.3752 59.7244C52.2533 64.0946 51.6912 69.3526 49.9577 73.1937C48.9473 75.4325 46.4931 76.4035 44.0369 76.4035C36.9757 76.4035 26.6006 76.4035 18.6205 76.4035C16.1643 76.4035 13.7007 75.446 12.5969 73.2518C10.5235 69.1303 10.0033 63.6891 10 59.2878Z"/>
</mask>
<path d="M10 59.2878C9.99668 54.8325 13.7975 51.5625 18.2529 51.5625H43.9788C48.615 51.5625 52.5045 55.09 52.3752 59.7244C52.2533 64.0946 51.6912 69.3526 49.9577 73.1937C48.9473 75.4325 46.4931 76.4035 44.0369 76.4035C36.9757 76.4035 26.6006 76.4035 18.6205 76.4035C16.1643 76.4035 13.7007 75.446 12.5969 73.2518C10.5235 69.1303 10.0033 63.6891 10 59.2878Z" fill="#F8E17D"/>
<path d="M10 59.2878L10.9243 59.2871L10 59.2878ZM52.3752 59.7244L53.2992 59.7502L52.3752 59.7244ZM49.9577 73.1937L50.8002 73.5739L49.9577 73.1937ZM12.5969 73.2518L13.4226 72.8364L12.5969 73.2518ZM10.9243 59.2871C10.9214 55.4213 14.2258 52.4868 18.2529 52.4868V50.6382C13.3693 50.6382 9.07192 54.2436 9.07569 59.2885L10.9243 59.2871ZM18.2529 52.4868H43.9788V50.6382H18.2529V52.4868ZM43.9788 52.4868C48.1644 52.4868 51.5642 55.6519 51.4513 59.6987L53.2992 59.7502C53.4448 54.5281 49.0657 50.6382 43.9788 50.6382V52.4868ZM51.4513 59.6987C51.33 64.0465 50.7691 69.1488 49.1152 72.8135L50.8002 73.5739C52.6132 69.5565 53.1766 64.1427 53.2992 59.7502L51.4513 59.6987ZM49.1152 72.8135C48.3151 74.5863 46.3053 75.4791 44.0369 75.4791V77.3278C46.681 77.3278 49.5796 76.2787 50.8002 73.5739L49.1152 72.8135ZM44.0369 75.4791C44.0231 75.4791 44.0093 75.4791 43.9955 75.4791C43.9817 75.4791 43.9678 75.4791 43.954 75.4791C43.9402 75.4791 43.9263 75.4791 43.9124 75.4791C43.8986 75.4791 43.8847 75.4791 43.8708 75.4791C43.8569 75.4791 43.843 75.4791 43.8291 75.4791C43.8152 75.4791 43.8012 75.4791 43.7873 75.4791C43.7734 75.4791 43.7594 75.4791 43.7454 75.4791C43.7315 75.4791 43.7175 75.4791 43.7035 75.4791C43.6895 75.4791 43.6755 75.4791 43.6615 75.4791C43.6475 75.4791 43.6334 75.4791 43.6194 75.4791C43.6054 75.4791 43.5913 75.4791 43.5772 75.4791C43.5632 75.4791 43.5491 75.4791 43.535 75.4791C43.5209 75.4791 43.5068 75.4791 43.4927 75.4791C43.4786 75.4791 43.4645 75.4791 43.4503 75.4791C43.4362 75.4791 43.4221 75.4791 43.4079 75.4791C43.3937 75.4791 43.3796 75.4791 43.3654 75.4791C43.3512 75.4791 43.337 75.4791 43.3228 75.4791C43.3086 75.4791 43.2944 75.4791 43.2801 75.4791C43.2659 75.4791 43.2516 75.4791 43.2374 75.4791C43.2231 75.4791 43.2089 75.4791 43.1946 75.4791C43.1803 75.4791 43.166 75.4791 43.1517 75.4791C43.1374 75.4791 43.1231 75.4791 43.1088 75.4791C43.0944 75.4791 43.0801 75.4791 43.0657 75.4791C43.0514 75.4791 43.037 75.4791 43.0227 75.4791C43.0083 75.4791 42.9939 75.4791 42.9795 75.4791C42.9651 75.4791 42.9507 75.4791 42.9363 75.4791C42.9219 75.4791 42.9074 75.4791 42.893 75.4791C42.8785 75.4791 42.8641 75.4791 42.8496 75.4791C42.8352 75.4791 42.8207 75.4791 42.8062 75.4791C42.7917 75.4791 42.7772 75.4791 42.7627 75.4791C42.7482 75.4791 42.7337 75.4791 42.7191 75.4791C42.7046 75.4791 42.69 75.4791 42.6755 75.4791C42.6609 75.4791 42.6464 75.4791 42.6318 75.4791C42.6172 75.4791 42.6026 75.4791 42.588 75.4791C42.5734 75.4791 42.5588 75.4791 42.5442 75.4791C42.5295 75.4791 42.5149 75.4791 42.5003 75.4791C42.4856 75.4791 42.471 75.4791 42.4563 75.4791C42.4416 75.4791 42.4269 75.4791 42.4122 75.4791C42.3976 75.4791 42.3829 75.4791 42.3681 75.4791C42.3534 75.4791 42.3387 75.4791 42.324 75.4791C42.3092 75.4791 42.2945 75.4791 42.2797 75.4791C42.265 75.4791 42.2502 75.4791 42.2354 75.4791C42.2207 75.4791 42.2059 75.4791 42.1911 75.4791C42.1763 75.4791 42.1615 75.4791 42.1466 75.4791C42.1318 75.4791 42.117 75.4791 42.1021 75.4791C42.0873 75.4791 42.0724 75.4791 42.0576 75.4791C42.0427 75.4791 42.0278 75.4791 42.013 75.4791C41.9981 75.4791 41.9832 75.4791 41.9683 75.4791C41.9534 75.4791 41.9384 75.4791 41.9235 75.4791C41.9086 75.4791 41.8936 75.4791 41.8787 75.4791C41.8637 75.4791 41.8488 75.4791 41.8338 75.4791C41.8188 75.4791 41.8039 75.4791 41.7889 75.4791C41.7739 75.4791 41.7589 75.4791 41.7439 75.4791C41.7289 75.4791 41.7138 75.4791 41.6988 75.4791C41.6838 75.4791 41.6687 75.4791 41.6537 75.4791C41.6386 75.4791 41.6236 75.4791 41.6085 75.4791C41.5934 75.4791 41.5783 75.4791 41.5632 75.4791C41.5481 75.4791 41.533 75.4791 41.5179 75.4791C41.5028 75.4791 41.4877 75.4791 41.4725 75.4791C41.4574 75.4791 41.4423 75.4791 41.4271 75.4791C41.4119 75.4791 41.3968 75.4791 41.3816 75.4791C41.3664 75.4791 41.3512 75.4791 41.3361 75.4791C41.3209 75.4791 41.3057 75.4791 41.2904 75.4791C41.2752 75.4791 41.26 75.4791 41.2448 75.4791C41.2295 75.4791 41.2143 75.4791 41.199 75.4791C41.1838 75.4791 41.1685 75.4791 41.1532 75.4791C41.138 75.4791 41.1227 75.4791 41.1074 75.4791C41.0921 75.4791 41.0768 75.4791 41.0615 75.4791C41.0461 75.4791 41.0308 75.4791 41.0155 75.4791C41.0002 75.4791 40.9848 75.4791 40.9695 75.4791C40.9541 75.4791 40.9387 75.4791 40.9234 75.4791C40.908 75.4791 40.8926 75.4791 40.8772 75.4791C40.8618 75.4791 40.8464 75.4791 40.831 75.4791C40.8156 75.4791 40.8002 75.4791 40.7848 75.4791C40.7693 75.4791 40.7539 75.4791 40.7385 75.4791C40.723 75.4791 40.7075 75.4791 40.6921 75.4791C40.6766 75.4791 40.6611 75.4791 40.6456 75.4791C40.6302 75.4791 40.6147 75.4791 40.5992 75.4791C40.5837 75.4791 40.5681 75.4791 40.5526 75.4791C40.5371 75.4791 40.5216 75.4791 40.506 75.4791C40.4905 75.4791 40.4749 75.4791 40.4594 75.4791C40.4438 75.4791 40.4282 75.4791 40.4127 75.4791C40.3971 75.4791 40.3815 75.4791 40.3659 75.4791C40.3503 75.4791 40.3347 75.4791 40.3191 75.4791C40.3035 75.4791 40.2878 75.4791 40.2722 75.4791C40.2566 75.4791 40.2409 75.4791 40.2253 75.4791C40.2096 75.4791 40.194 75.4791 40.1783 75.4791C40.1626 75.4791 40.147 75.4791 40.1313 75.4791C40.1156 75.4791 40.0999 75.4791 40.0842 75.4791C40.0685 75.4791 40.0528 75.4791 40.037 75.4791C40.0213 75.4791 40.0056 75.4791 39.9898 75.4791C39.9741 75.4791 39.9584 75.4791 39.9426 75.4791C39.9268 75.4791 39.9111 75.4791 39.8953 75.4791C39.8795 75.4791 39.8637 75.4791 39.8479 75.4791C39.8322 75.4791 39.8164 75.4791 39.8005 75.4791C39.7847 75.4791 39.7689 75.4791 39.7531 75.4791C39.7373 75.4791 39.7214 75.4791 39.7056 75.4791C39.6897 75.4791 39.6739 75.4791 39.658 75.4791C39.6422 75.4791 39.6263 75.4791 39.6104 75.4791C39.5945 75.4791 39.5787 75.4791 39.5628 75.4791C39.5469 75.4791 39.531 75.4791 39.5151 75.4791C39.4991 75.4791 39.4832 75.4791 39.4673 75.4791C39.4514 75.4791 39.4354 75.4791 39.4195 75.4791C39.4035 75.4791 39.3876 75.4791 39.3716 75.4791C39.3557 75.4791 39.3397 75.4791 39.3237 75.4791C39.3078 75.4791 39.2918 75.4791 39.2758 75.4791C39.2598 75.4791 39.2438 75.4791 39.2278 75.4791C39.2118 75.4791 39.1957 75.4791 39.1797 75.4791C39.1637 75.4791 39.1477 75.4791 39.1316 75.4791C39.1156 75.4791 39.0995 75.4791 39.0835 75.4791C39.0674 75.4791 39.0513 75.4791 39.0353 75.4791C39.0192 75.4791 39.0031 75.4791 38.987 75.4791C38.9709 75.4791 38.9548 75.4791 38.9387 75.4791C38.9226 75.4791 38.9065 75.4791 38.8904 75.4791C38.8743 75.4791 38.8581 75.4791 38.842 75.4791C38.8259 75.4791 38.8097 75.4791 38.7936 75.4791C38.7774 75.4791 38.7613 75.4791 38.7451 75.4791C38.7289 75.4791 38.7127 75.4791 38.6966 75.4791C38.6804 75.4791 38.6642 75.4791 38.648 75.4791C38.6318 75.4791 38.6156 75.4791 38.5994 75.4791C38.5832 75.4791 38.5669 75.4791 38.5507 75.4791C38.5345 75.4791 38.5183 75.4791 38.502 75.4791C38.4858 75.4791 38.4695 75.4791 38.4533 75.4791C38.437 75.4791 38.4207 75.4791 38.4045 75.4791C38.3882 75.4791 38.3719 75.4791 38.3556 75.4791C38.3393 75.4791 38.323 75.4791 38.3067 75.4791C38.2904 75.4791 38.2741 75.4791 38.2578 75.4791C38.2415 75.4791 38.2252 75.4791 38.2088 75.4791C38.1925 75.4791 38.1762 75.4791 38.1598 75.4791C38.1435 75.4791 38.1271 75.4791 38.1108 75.4791C38.0944 75.4791 38.0781 75.4791 38.0617 75.4791C38.0453 75.4791 38.0289 75.4791 38.0125 75.4791C37.9961 75.4791 37.9798 75.4791 37.9634 75.4791C37.9469 75.4791 37.9305 75.4791 37.9141 75.4791C37.8977 75.4791 37.8813 75.4791 37.8649 75.4791C37.8484 75.4791 37.832 75.4791 37.8155 75.4791C37.7991 75.4791 37.7827 75.4791 37.7662 75.4791C37.7497 75.4791 37.7333 75.4791 37.7168 75.4791C37.7003 75.4791 37.6839 75.4791 37.6674 75.4791C37.6509 75.4791 37.6344 75.4791 37.6179 75.4791C37.6014 75.4791 37.5849 75.4791 37.5684 75.4791C37.5519 75.4791 37.5354 75.4791 37.5188 75.4791C37.5023 75.4791 37.4858 75.4791 37.4692 75.4791C37.4527 75.4791 37.4362 75.4791 37.4196 75.4791C37.4031 75.4791 37.3865 75.4791 37.3699 75.4791C37.3534 75.4791 37.3368 75.4791 37.3202 75.4791C37.3037 75.4791 37.2871 75.4791 37.2705 75.4791C37.2539 75.4791 37.2373 75.4791 37.2207 75.4791C37.2041 75.4791 37.1875 75.4791 37.1709 75.4791C37.1543 75.4791 37.1376 75.4791 37.121 75.4791C37.1044 75.4791 37.0878 75.4791 37.0711 75.4791C37.0545 75.4791 37.0378 75.4791 37.0212 75.4791C37.0045 75.4791 36.9879 75.4791 36.9712 75.4791C36.9545 75.4791 36.9379 75.4791 36.9212 75.4791C36.9045 75.4791 36.8878 75.4791 36.8712 75.4791C36.8545 75.4791 36.8378 75.4791 36.8211 75.4791C36.8044 75.4791 36.7877 75.4791 36.771 75.4791C36.7542 75.4791 36.7375 75.4791 36.7208 75.4791C36.7041 75.4791 36.6873 75.4791 36.6706 75.4791C36.6539 75.4791 36.6371 75.4791 36.6204 75.4791C36.6036 75.4791 36.5869 75.4791 36.5701 75.4791C36.5534 75.4791 36.5366 75.4791 36.5198 75.4791C36.5031 75.4791 36.4863 75.4791 36.4695 75.4791C36.4527 75.4791 36.4359 75.4791 36.4191 75.4791C36.4023 75.4791 36.3855 75.4791 36.3687 75.4791C36.3519 75.4791 36.3351 75.4791 36.3183 75.4791C36.3015 75.4791 36.2847 75.4791 36.2678 75.4791C36.251 75.4791 36.2342 75.4791 36.2173 75.4791C36.2005 75.4791 36.1837 75.4791 36.1668 75.4791C36.15 75.4791 36.1331 75.4791 36.1162 75.4791C36.0994 75.4791 36.0825 75.4791 36.0656 75.4791C36.0488 75.4791 36.0319 75.4791 36.015 75.4791C35.9981 75.4791 35.9812 75.4791 35.9644 75.4791C35.9475 75.4791 35.9306 75.4791 35.9137 75.4791C35.8968 75.4791 35.8798 75.4791 35.8629 75.4791C35.846 75.4791 35.8291 75.4791 35.8122 75.4791C35.7953 75.4791 35.7783 75.4791 35.7614 75.4791C35.7445 75.4791 35.7275 75.4791 35.7106 75.4791C35.6936 75.4791 35.6767 75.4791 35.6597 75.4791C35.6428 75.4791 35.6258 75.4791 35.6089 75.4791C35.5919 75.4791 35.5749 75.4791 35.5579 75.4791C35.541 75.4791 35.524 75.4791 35.507 75.4791C35.49 75.4791 35.473 75.4791 35.456 75.4791C35.439 75.4791 35.422 75.4791 35.405 75.4791C35.388 75.4791 35.371 75.4791 35.354 75.4791C35.337 75.4791 35.32 75.4791 35.303 75.4791C35.2859 75.4791 35.2689 75.4791 35.2519 75.4791C35.2349 75.4791 35.2178 75.4791 35.2008 75.4791C35.1837 75.4791 35.1667 75.4791 35.1496 75.4791C35.1326 75.4791 35.1155 75.4791 35.0985 75.4791C35.0814 75.4791 35.0643 75.4791 35.0473 75.4791C35.0302 75.4791 35.0131 75.4791 34.9961 75.4791C34.979 75.4791 34.9619 75.4791 34.9448 75.4791C34.9277 75.4791 34.9106 75.4791 34.8935 75.4791C34.8764 75.4791 34.8593 75.4791 34.8422 75.4791C34.8251 75.4791 34.808 75.4791 34.7909 75.4791C34.7738 75.4791 34.7567 75.4791 34.7396 75.4791C34.7224 75.4791 34.7053 75.4791 34.6882 75.4791C34.6711 75.4791 34.6539 75.4791 34.6368 75.4791C34.6196 75.4791 34.6025 75.4791 34.5854 75.4791C34.5682 75.4791 34.5511 75.4791 34.5339 75.4791C34.5168 75.4791 34.4996 75.4791 34.4824 75.4791C34.4653 75.4791 34.4481 75.4791 34.4309 75.4791C34.4138 75.4791 34.3966 75.4791 34.3794 75.4791C34.3622 75.4791 34.345 75.4791 34.3279 75.4791C34.3107 75.4791 34.2935 75.4791 34.2763 75.4791C34.2591 75.4791 34.2419 75.4791 34.2247 75.4791C34.2075 75.4791 34.1903 75.4791 34.1731 75.4791C34.1559 75.4791 34.1386 75.4791 34.1214 75.4791C34.1042 75.4791 34.087 75.4791 34.0698 75.4791C34.0525 75.4791 34.0353 75.4791 34.0181 75.4791C34.0008 75.4791 33.9836 75.4791 33.9664 75.4791C33.9491 75.4791 33.9319 75.4791 33.9146 75.4791C33.8974 75.4791 33.8801 75.4791 33.8629 75.4791C33.8456 75.4791 33.8284 75.4791 33.8111 75.4791C33.7939 75.4791 33.7766 75.4791 33.7593 75.4791C33.7421 75.4791 33.7248 75.4791 33.7075 75.4791C33.6902 75.4791 33.673 75.4791 33.6557 75.4791C33.6384 75.4791 33.6211 75.4791 33.6038 75.4791C33.5865 75.4791 33.5692 75.4791 33.5519 75.4791C33.5346 75.4791 33.5173 75.4791 33.5 75.4791C33.4827 75.4791 33.4654 75.4791 33.4481 75.4791C33.4308 75.4791 33.4135 75.4791 33.3962 75.4791C33.3789 75.4791 33.3616 75.4791 33.3442 75.4791C33.3269 75.4791 33.3096 75.4791 33.2923 75.4791C33.2749 75.4791 33.2576 75.4791 33.2403 75.4791C33.223 75.4791 33.2056 75.4791 33.1883 75.4791C33.1709 75.4791 33.1536 75.4791 33.1363 75.4791C33.1189 75.4791 33.1016 75.4791 33.0842 75.4791C33.0669 75.4791 33.0495 75.4791 33.0321 75.4791C33.0148 75.4791 32.9974 75.4791 32.9801 75.4791C32.9627 75.4791 32.9453 75.4791 32.928 75.4791C32.9106 75.4791 32.8932 75.4791 32.8759 75.4791C32.8585 75.4791 32.8411 75.4791 32.8237 75.4791C32.8064 75.4791 32.789 75.4791 32.7716 75.4791C32.7542 75.4791 32.7368 75.4791 32.7194 75.4791C32.702 75.4791 32.6847 75.4791 32.6673 75.4791C32.6499 75.4791 32.6325 75.4791 32.6151 75.4791C32.5977 75.4791 32.5803 75.4791 32.5629 75.4791C32.5455 75.4791 32.5281 75.4791 32.5106 75.4791C32.4932 75.4791 32.4758 75.4791 32.4584 75.4791C32.441 75.4791 32.4236 75.4791 32.4062 75.4791C32.3887 75.4791 32.3713 75.4791 32.3539 75.4791C32.3365 75.4791 32.319 75.4791 32.3016 75.4791C32.2842 75.4791 32.2668 75.4791 32.2493 75.4791C32.2319 75.4791 32.2145 75.4791 32.197 75.4791C32.1796 75.4791 32.1621 75.4791 32.1447 75.4791C32.1273 75.4791 32.1098 75.4791 32.0924 75.4791C32.0749 75.4791 32.0575 75.4791 32.04 75.4791C32.0226 75.4791 32.0051 75.4791 31.9877 75.4791C31.9702 75.4791 31.9528 75.4791 31.9353 75.4791C31.9179 75.4791 31.9004 75.4791 31.8829 75.4791C31.8655 75.4791 31.848 75.4791 31.8305 75.4791C31.8131 75.4791 31.7956 75.4791 31.7781 75.4791C31.7607 75.4791 31.7432 75.4791 31.7257 75.4791C31.7083 75.4791 31.6908 75.4791 31.6733 75.4791C31.6558 75.4791 31.6383 75.4791 31.6209 75.4791C31.6034 75.4791 31.5859 75.4791 31.5684 75.4791C31.5509 75.4791 31.5335 75.4791 31.516 75.4791C31.4985 75.4791 31.481 75.4791 31.4635 75.4791C31.446 75.4791 31.4285 75.4791 31.411 75.4791C31.3935 75.4791 31.376 75.4791 31.3585 75.4791C31.3411 75.4791 31.3236 75.4791 31.3061 75.4791C31.2886 75.4791 31.2711 75.4791 31.2536 75.4791C31.2361 75.4791 31.2186 75.4791 31.201 75.4791C31.1835 75.4791 31.166 75.4791 31.1485 75.4791C31.131 75.4791 31.1135 75.4791 31.096 75.4791C31.0785 75.4791 31.061 75.4791 31.0435 75.4791C31.026 75.4791 31.0084 75.4791 30.9909 75.4791C30.9734 75.4791 30.9559 75.4791 30.9384 75.4791C30.9209 75.4791 30.9033 75.4791 30.8858 75.4791C30.8683 75.4791 30.8508 75.4791 30.8333 75.4791C30.8157 75.4791 30.7982 75.4791 30.7807 75.4791C30.7632 75.4791 30.7457 75.4791 30.7281 75.4791C30.7106 75.4791 30.6931 75.4791 30.6755 75.4791C30.658 75.4791 30.6405 75.4791 30.623 75.4791C30.6054 75.4791 30.5879 75.4791 30.5704 75.4791C30.5528 75.4791 30.5353 75.4791 30.5178 75.4791C30.5002 75.4791 30.4827 75.4791 30.4652 75.4791C30.4476 75.4791 30.4301 75.4791 30.4126 75.4791C30.395 75.4791 30.3775 75.4791 30.36 75.4791C30.3424 75.4791 30.3249 75.4791 30.3073 75.4791C30.2898 75.4791 30.2723 75.4791 30.2547 75.4791C30.2372 75.4791 30.2196 75.4791 30.2021 75.4791C30.1846 75.4791 30.167 75.4791 30.1495 75.4791C30.1319 75.4791 30.1144 75.4791 30.0969 75.4791C30.0793 75.4791 30.0618 75.4791 30.0442 75.4791C30.0267 75.4791 30.0091 75.4791 29.9916 75.4791C29.974 75.4791 29.9565 75.4791 29.939 75.4791C29.9214 75.4791 29.9039 75.4791 29.8863 75.4791C29.8688 75.4791 29.8512 75.4791 29.8337 75.4791C29.8161 75.4791 29.7986 75.4791 29.781 75.4791C29.7635 75.4791 29.7459 75.4791 29.7284 75.4791C29.7108 75.4791 29.6933 75.4791 29.6757 75.4791C29.6582 75.4791 29.6407 75.4791 29.6231 75.4791C29.6056 75.4791 29.588 75.4791 29.5705 75.4791C29.5529 75.4791 29.5354 75.4791 29.5178 75.4791C29.5003 75.4791 29.4827 75.4791 29.4652 75.4791C29.4476 75.4791 29.4301 75.4791 29.4125 75.4791C29.395 75.4791 29.3774 75.4791 29.3599 75.4791C29.3423 75.4791 29.3248 75.4791 29.3072 75.4791C29.2897 75.4791 29.2721 75.4791 29.2546 75.4791C29.237 75.4791 29.2195 75.4791 29.2019 75.4791C29.1844 75.4791 29.1669 75.4791 29.1493 75.4791C29.1318 75.4791 29.1142 75.4791 29.0967 75.4791C29.0791 75.4791 29.0616 75.4791 29.044 75.4791C29.0265 75.4791 29.0089 75.4791 28.9914 75.4791C28.9739 75.4791 28.9563 75.4791 28.9388 75.4791C28.9212 75.4791 28.9037 75.4791 28.8861 75.4791C28.8686 75.4791 28.8511 75.4791 28.8335 75.4791C28.816 75.4791 28.7984 75.4791 28.7809 75.4791C28.7633 75.4791 28.7458 75.4791 28.7283 75.4791C28.7107 75.4791 28.6932 75.4791 28.6757 75.4791C28.6581 75.4791 28.6406 75.4791 28.623 75.4791C28.6055 75.4791 28.588 75.4791 28.5704 75.4791C28.5529 75.4791 28.5354 75.4791 28.5178 75.4791C28.5003 75.4791 28.4828 75.4791 28.4652 75.4791C28.4477 75.4791 28.4302 75.4791 28.4126 75.4791C28.3951 75.4791 28.3776 75.4791 28.3601 75.4791C28.3425 75.4791 28.325 75.4791 28.3075 75.4791C28.2899 75.4791 28.2724 75.4791 28.2549 75.4791C28.2374 75.4791 28.2198 75.4791 28.2023 75.4791C28.1848 75.4791 28.1673 75.4791 28.1498 75.4791C28.1322 75.4791 28.1147 75.4791 28.0972 75.4791C28.0797 75.4791 28.0622 75.4791 28.0447 75.4791C28.0271 75.4791 28.0096 75.4791 27.9921 75.4791C27.9746 75.4791 27.9571 75.4791 27.9396 75.4791C27.9221 75.4791 27.9046 75.4791 27.887 75.4791C27.8695 75.4791 27.852 75.4791 27.8345 75.4791C27.817 75.4791 27.7995 75.4791 27.782 75.4791C27.7645 75.4791 27.747 75.4791 27.7295 75.4791C27.712 75.4791 27.6945 75.4791 27.677 75.4791C27.6595 75.4791 27.642 75.4791 27.6245 75.4791C27.607 75.4791 27.5895 75.4791 27.572 75.4791C27.5546 75.4791 27.5371 75.4791 27.5196 75.4791C27.5021 75.4791 27.4846 75.4791 27.4671 75.4791C27.4496 75.4791 27.4322 75.4791 27.4147 75.4791C27.3972 75.4791 27.3797 75.4791 27.3622 75.4791C27.3448 75.4791 27.3273 75.4791 27.3098 75.4791C27.2923 75.4791 27.2749 75.4791 27.2574 75.4791C27.2399 75.4791 27.2225 75.4791 27.205 75.4791C27.1875 75.4791 27.1701 75.4791 27.1526 75.4791C27.1351 75.4791 27.1177 75.4791 27.1002 75.4791C27.0827 75.4791 27.0653 75.4791 27.0478 75.4791C27.0304 75.4791 27.0129 75.4791 26.9955 75.4791C26.978 75.4791 26.9606 75.4791 26.9431 75.4791C26.9257 75.4791 26.9082 75.4791 26.8908 75.4791C26.8733 75.4791 26.8559 75.4791 26.8385 75.4791C26.821 75.4791 26.8036 75.4791 26.7862 75.4791C26.7687 75.4791 26.7513 75.4791 26.7339 75.4791C26.7164 75.4791 26.699 75.4791 26.6816 75.4791C26.6642 75.4791 26.6467 75.4791 26.6293 75.4791C26.6119 75.4791 26.5945 75.4791 26.5771 75.4791C26.5596 75.4791 26.5422 75.4791 26.5248 75.4791C26.5074 75.4791 26.49 75.4791 26.4726 75.4791C26.4552 75.4791 26.4378 75.4791 26.4204 75.4791C26.403 75.4791 26.3856 75.4791 26.3682 75.4791C26.3508 75.4791 26.3334 75.4791 26.316 75.4791C26.2986 75.4791 26.2812 75.4791 26.2638 75.4791C26.2464 75.4791 26.2291 75.4791 26.2117 75.4791C26.1943 75.4791 26.1769 75.4791 26.1595 75.4791C26.1422 75.4791 26.1248 75.4791 26.1074 75.4791C26.0901 75.4791 26.0727 75.4791 26.0553 75.4791C26.038 75.4791 26.0206 75.4791 26.0032 75.4791C25.9859 75.4791 25.9685 75.4791 25.9512 75.4791C25.9338 75.4791 25.9165 75.4791 25.8991 75.4791C25.8818 75.4791 25.8644 75.4791 25.8471 75.4791C25.8297 75.4791 25.8124 75.4791 25.7951 75.4791C25.7777 75.4791 25.7604 75.4791 25.7431 75.4791C25.7257 75.4791 25.7084 75.4791 25.6911 75.4791C25.6738 75.4791 25.6565 75.4791 25.6391 75.4791C25.6218 75.4791 25.6045 75.4791 25.5872 75.4791C25.5699 75.4791 25.5526 75.4791 25.5353 75.4791C25.518 75.4791 25.5007 75.4791 25.4834 75.4791C25.4661 75.4791 25.4488 75.4791 25.4315 75.4791C25.4142 75.4791 25.3969 75.4791 25.3796 75.4791C25.3623 75.4791 25.3451 75.4791 25.3278 75.4791C25.3105 75.4791 25.2932 75.4791 25.276 75.4791C25.2587 75.4791 25.2414 75.4791 25.2242 75.4791C25.2069 75.4791 25.1896 75.4791 25.1724 75.4791C25.1551 75.4791 25.1379 75.4791 25.1206 75.4791C25.1034 75.4791 25.0861 75.4791 25.0689 75.4791C25.0516 75.4791 25.0344 75.4791 25.0172 75.4791C24.9999 75.4791 24.9827 75.4791 24.9655 75.4791C24.9482 75.4791 24.931 75.4791 24.9138 75.4791C24.8966 75.4791 24.8794 75.4791 24.8621 75.4791C24.8449 75.4791 24.8277 75.4791 24.8105 75.4791C24.7933 75.4791 24.7761 75.4791 24.7589 75.4791C24.7417 75.4791 24.7245 75.4791 24.7073 75.4791C24.6901 75.4791 24.673 75.4791 24.6558 75.4791C24.6386 75.4791 24.6214 75.4791 24.6042 75.4791C24.5871 75.4791 24.5699 75.4791 24.5527 75.4791C24.5356 75.4791 24.5184 75.4791 24.5012 75.4791C24.4841 75.4791 24.4669 75.4791 24.4498 75.4791C24.4326 75.4791 24.4155 75.4791 24.3983 75.4791C24.3812 75.4791 24.3641 75.4791 24.3469 75.4791C24.3298 75.4791 24.3127 75.4791 24.2955 75.4791C24.2784 75.4791 24.2613 75.4791 24.2442 75.4791C24.2271 75.4791 24.2099 75.4791 24.1928 75.4791C24.1757 75.4791 24.1586 75.4791 24.1415 75.4791C24.1244 75.4791 24.1073 75.4791 24.0902 75.4791C24.0732 75.4791 24.0561 75.4791 24.039 75.4791C24.0219 75.4791 24.0048 75.4791 23.9878 75.4791C23.9707 75.4791 23.9536 75.4791 23.9366 75.4791C23.9195 75.4791 23.9024 75.4791 23.8854 75.4791C23.8683 75.4791 23.8513 75.4791 23.8342 75.4791C23.8172 75.4791 23.8001 75.4791 23.7831 75.4791C23.7661 75.4791 23.749 75.4791 23.732 75.4791C23.715 75.4791 23.698 75.4791 23.6809 75.4791C23.6639 75.4791 23.6469 75.4791 23.6299 75.4791C23.6129 75.4791 23.5959 75.4791 23.5789 75.4791C23.5619 75.4791 23.5449 75.4791 23.5279 75.4791C23.5109 75.4791 23.494 75.4791 23.477 75.4791C23.46 75.4791 23.443 75.4791 23.4261 75.4791C23.4091 75.4791 23.3921 75.4791 23.3752 75.4791C23.3582 75.4791 23.3413 75.4791 23.3243 75.4791C23.3074 75.4791 23.2904 75.4791 23.2735 75.4791C23.2565 75.4791 23.2396 75.4791 23.2227 75.4791C23.2057 75.4791 23.1888 75.4791 23.1719 75.4791C23.155 75.4791 23.1381 75.4791 23.1212 75.4791C23.1043 75.4791 23.0874 75.4791 23.0705 75.4791C23.0536 75.4791 23.0367 75.4791 23.0198 75.4791C23.0029 75.4791 22.986 75.4791 22.9691 75.4791C22.9523 75.4791 22.9354 75.4791 22.9185 75.4791C22.9017 75.4791 22.8848 75.4791 22.868 75.4791C22.8511 75.4791 22.8343 75.4791 22.8174 75.4791C22.8006 75.4791 22.7837 75.4791 22.7669 75.4791C22.7501 75.4791 22.7332 75.4791 22.7164 75.4791C22.6996 75.4791 22.6828 75.4791 22.666 75.4791C22.6492 75.4791 22.6324 75.4791 22.6156 75.4791C22.5988 75.4791 22.582 75.4791 22.5652 75.4791C22.5484 75.4791 22.5316 75.4791 22.5148 75.4791C22.4981 75.4791 22.4813 75.4791 22.4645 75.4791C22.4478 75.4791 22.431 75.4791 22.4143 75.4791C22.3975 75.4791 22.3808 75.4791 22.364 75.4791C22.3473 75.4791 22.3305 75.4791 22.3138 75.4791C22.2971 75.4791 22.2804 75.4791 22.2636 75.4791C22.2469 75.4791 22.2302 75.4791 22.2135 75.4791C22.1968 75.4791 22.1801 75.4791 22.1634 75.4791C22.1467 75.4791 22.13 75.4791 22.1134 75.4791C22.0967 75.4791 22.08 75.4791 22.0633 75.4791C22.0467 75.4791 22.03 75.4791 22.0133 75.4791C21.9967 75.4791 21.98 75.4791 21.9634 75.4791C21.9467 75.4791 21.9301 75.4791 21.9135 75.4791C21.8968 75.4791 21.8802 75.4791 21.8636 75.4791C21.847 75.4791 21.8304 75.4791 21.8138 75.4791C21.7971 75.4791 21.7805 75.4791 21.764 75.4791C21.7474 75.4791 21.7308 75.4791 21.7142 75.4791C21.6976 75.4791 21.681 75.4791 21.6645 75.4791C21.6479 75.4791 21.6313 75.4791 21.6148 75.4791C21.5982 75.4791 21.5817 75.4791 21.5651 75.4791C21.5486 75.4791 21.5321 75.4791 21.5155 75.4791C21.499 75.4791 21.4825 75.4791 21.466 75.4791C21.4494 75.4791 21.4329 75.4791 21.4164 75.4791C21.3999 75.4791 21.3834 75.4791 21.3669 75.4791C21.3505 75.4791 21.334 75.4791 21.3175 75.4791C21.301 75.4791 21.2845 75.4791 21.2681 75.4791C21.2516 75.4791 21.2352 75.4791 21.2187 75.4791C21.2023 75.4791 21.1858 75.4791 21.1694 75.4791C21.153 75.4791 21.1365 75.4791 21.1201 75.4791C21.1037 75.4791 21.0873 75.4791 21.0709 75.4791C21.0545 75.4791 21.0381 75.4791 21.0217 75.4791C21.0053 75.4791 20.9889 75.4791 20.9725 75.4791C20.9561 75.4791 20.9398 75.4791 20.9234 75.4791C20.907 75.4791 20.8907 75.4791 20.8743 75.4791C20.858 75.4791 20.8416 75.4791 20.8253 75.4791C20.8089 75.4791 20.7926 75.4791 20.7763 75.4791C20.76 75.4791 20.7437 75.4791 20.7273 75.4791C20.711 75.4791 20.6947 75.4791 20.6784 75.4791C20.6622 75.4791 20.6459 75.4791 20.6296 75.4791C20.6133 75.4791 20.597 75.4791 20.5808 75.4791C20.5645 75.4791 20.5483 75.4791 20.532 75.4791C20.5158 75.4791 20.4995 75.4791 20.4833 75.4791C20.467 75.4791 20.4508 75.4791 20.4346 75.4791C20.4184 75.4791 20.4022 75.4791 20.386 75.4791C20.3698 75.4791 20.3536 75.4791 20.3374 75.4791C20.3212 75.4791 20.305 75.4791 20.2888 75.4791C20.2727 75.4791 20.2565 75.4791 20.2403 75.4791C20.2242 75.4791 20.208 75.4791 20.1919 75.4791C20.1757 75.4791 20.1596 75.4791 20.1435 75.4791C20.1274 75.4791 20.1112 75.4791 20.0951 75.4791C20.079 75.4791 20.0629 75.4791 20.0468 75.4791C20.0307 75.4791 20.0146 75.4791 19.9985 75.4791C19.9825 75.4791 19.9664 75.4791 19.9503 75.4791C19.9343 75.4791 19.9182 75.4791 19.9022 75.4791C19.8861 75.4791 19.8701 75.4791 19.854 75.4791C19.838 75.4791 19.822 75.4791 19.806 75.4791C19.79 75.4791 19.7739 75.4791 19.7579 75.4791C19.7419 75.4791 19.7259 75.4791 19.71 75.4791C19.694 75.4791 19.678 75.4791 19.662 75.4791C19.6461 75.4791 19.6301 75.4791 19.6142 75.4791C19.5982 75.4791 19.5823 75.4791 19.5663 75.4791C19.5504 75.4791 19.5345 75.4791 19.5186 75.4791C19.5026 75.4791 19.4867 75.4791 19.4708 75.4791C19.4549 75.4791 19.439 75.4791 19.4231 75.4791C19.4073 75.4791 19.3914 75.4791 19.3755 75.4791C19.3597 75.4791 19.3438 75.4791 19.3279 75.4791C19.3121 75.4791 19.2962 75.4791 19.2804 75.4791C19.2646 75.4791 19.2488 75.4791 19.2329 75.4791C19.2171 75.4791 19.2013 75.4791 19.1855 75.4791C19.1697 75.4791 19.1539 75.4791 19.1381 75.4791C19.1224 75.4791 19.1066 75.4791 19.0908 75.4791C19.0751 75.4791 19.0593 75.4791 19.0436 75.4791C19.0278 75.4791 19.0121 75.4791 18.9963 75.4791C18.9806 75.4791 18.9649 75.4791 18.9492 75.4791C18.9335 75.4791 18.9178 75.4791 18.9021 75.4791C18.8864 75.4791 18.8707 75.4791 18.855 75.4791C18.8393 75.4791 18.8237 75.4791 18.808 75.4791C18.7924 75.4791 18.7767 75.4791 18.7611 75.4791C18.7454 75.4791 18.7298 75.4791 18.7142 75.4791C18.6985 75.4791 18.6829 75.4791 18.6673 75.4791C18.6517 75.4791 18.6361 75.4791 18.6205 75.4791V77.3278C18.6361 77.3278 18.6517 77.3278 18.6673 77.3278C18.6829 77.3278 18.6985 77.3278 18.7142 77.3278C18.7298 77.3278 18.7454 77.3278 18.7611 77.3278C18.7767 77.3278 18.7924 77.3278 18.808 77.3278C18.8237 77.3278 18.8393 77.3278 18.855 77.3278C18.8707 77.3278 18.8864 77.3278 18.9021 77.3278C18.9178 77.3278 18.9335 77.3278 18.9492 77.3278C18.9649 77.3278 18.9806 77.3278 18.9963 77.3278C19.0121 77.3278 19.0278 77.3278 19.0436 77.3278C19.0593 77.3278 19.0751 77.3278 19.0908 77.3278C19.1066 77.3278 19.1224 77.3278 19.1381 77.3278C19.1539 77.3278 19.1697 77.3278 19.1855 77.3278C19.2013 77.3278 19.2171 77.3278 19.2329 77.3278C19.2488 77.3278 19.2646 77.3278 19.2804 77.3278C19.2962 77.3278 19.3121 77.3278 19.3279 77.3278C19.3438 77.3278 19.3597 77.3278 19.3755 77.3278C19.3914 77.3278 19.4073 77.3278 19.4231 77.3278C19.439 77.3278 19.4549 77.3278 19.4708 77.3278C19.4867 77.3278 19.5026 77.3278 19.5186 77.3278C19.5345 77.3278 19.5504 77.3278 19.5663 77.3278C19.5823 77.3278 19.5982 77.3278 19.6142 77.3278C19.6301 77.3278 19.6461 77.3278 19.662 77.3278C19.678 77.3278 19.694 77.3278 19.71 77.3278C19.7259 77.3278 19.7419 77.3278 19.7579 77.3278C19.7739 77.3278 19.79 77.3278 19.806 77.3278C19.822 77.3278 19.838 77.3278 19.854 77.3278C19.8701 77.3278 19.8861 77.3278 19.9022 77.3278C19.9182 77.3278 19.9343 77.3278 19.9503 77.3278C19.9664 77.3278 19.9825 77.3278 19.9985 77.3278C20.0146 77.3278 20.0307 77.3278 20.0468 77.3278C20.0629 77.3278 20.079 77.3278 20.0951 77.3278C20.1112 77.3278 20.1274 77.3278 20.1435 77.3278C20.1596 77.3278 20.1757 77.3278 20.1919 77.3278C20.208 77.3278 20.2242 77.3278 20.2403 77.3278C20.2565 77.3278 20.2727 77.3278 20.2888 77.3278C20.305 77.3278 20.3212 77.3278 20.3374 77.3278C20.3536 77.3278 20.3698 77.3278 20.386 77.3278C20.4022 77.3278 20.4184 77.3278 20.4346 77.3278C20.4508 77.3278 20.467 77.3278 20.4833 77.3278C20.4995 77.3278 20.5158 77.3278 20.532 77.3278C20.5483 77.3278 20.5645 77.3278 20.5808 77.3278C20.597 77.3278 20.6133 77.3278 20.6296 77.3278C20.6459 77.3278 20.6622 77.3278 20.6784 77.3278C20.6947 77.3278 20.711 77.3278 20.7273 77.3278C20.7437 77.3278 20.76 77.3278 20.7763 77.3278C20.7926 77.3278 20.8089 77.3278 20.8253 77.3278C20.8416 77.3278 20.858 77.3278 20.8743 77.3278C20.8907 77.3278 20.907 77.3278 20.9234 77.3278C20.9398 77.3278 20.9561 77.3278 20.9725 77.3278C20.9889 77.3278 21.0053 77.3278 21.0217 77.3278C21.0381 77.3278 21.0545 77.3278 21.0709 77.3278C21.0873 77.3278 21.1037 77.3278 21.1201 77.3278C21.1365 77.3278 21.153 77.3278 21.1694 77.3278C21.1858 77.3278 21.2023 77.3278 21.2187 77.3278C21.2352 77.3278 21.2516 77.3278 21.2681 77.3278C21.2845 77.3278 21.301 77.3278 21.3175 77.3278C21.334 77.3278 21.3505 77.3278 21.3669 77.3278C21.3834 77.3278 21.3999 77.3278 21.4164 77.3278C21.4329 77.3278 21.4494 77.3278 21.466 77.3278C21.4825 77.3278 21.499 77.3278 21.5155 77.3278C21.5321 77.3278 21.5486 77.3278 21.5651 77.3278C21.5817 77.3278 21.5982 77.3278 21.6148 77.3278C21.6313 77.3278 21.6479 77.3278 21.6645 77.3278C21.681 77.3278 21.6976 77.3278 21.7142 77.3278C21.7308 77.3278 21.7474 77.3278 21.764 77.3278C21.7805 77.3278 21.7971 77.3278 21.8138 77.3278C21.8304 77.3278 21.847 77.3278 21.8636 77.3278C21.8802 77.3278 21.8968 77.3278 21.9135 77.3278C21.9301 77.3278 21.9467 77.3278 21.9634 77.3278C21.98 77.3278 21.9967 77.3278 22.0133 77.3278C22.03 77.3278 22.0467 77.3278 22.0633 77.3278C22.08 77.3278 22.0967 77.3278 22.1134 77.3278C22.13 77.3278 22.1467 77.3278 22.1634 77.3278C22.1801 77.3278 22.1968 77.3278 22.2135 77.3278C22.2302 77.3278 22.2469 77.3278 22.2636 77.3278C22.2804 77.3278 22.2971 77.3278 22.3138 77.3278C22.3305 77.3278 22.3473 77.3278 22.364 77.3278C22.3808 77.3278 22.3975 77.3278 22.4143 77.3278C22.431 77.3278 22.4478 77.3278 22.4645 77.3278C22.4813 77.3278 22.4981 77.3278 22.5148 77.3278C22.5316 77.3278 22.5484 77.3278 22.5652 77.3278C22.582 77.3278 22.5988 77.3278 22.6156 77.3278C22.6324 77.3278 22.6492 77.3278 22.666 77.3278C22.6828 77.3278 22.6996 77.3278 22.7164 77.3278C22.7332 77.3278 22.7501 77.3278 22.7669 77.3278C22.7837 77.3278 22.8006 77.3278 22.8174 77.3278C22.8343 77.3278 22.8511 77.3278 22.868 77.3278C22.8848 77.3278 22.9017 77.3278 22.9185 77.3278C22.9354 77.3278 22.9523 77.3278 22.9691 77.3278C22.986 77.3278 23.0029 77.3278 23.0198 77.3278C23.0367 77.3278 23.0536 77.3278 23.0705 77.3278C23.0874 77.3278 23.1043 77.3278 23.1212 77.3278C23.1381 77.3278 23.155 77.3278 23.1719 77.3278C23.1888 77.3278 23.2057 77.3278 23.2227 77.3278C23.2396 77.3278 23.2565 77.3278 23.2735 77.3278C23.2904 77.3278 23.3074 77.3278 23.3243 77.3278C23.3413 77.3278 23.3582 77.3278 23.3752 77.3278C23.3921 77.3278 23.4091 77.3278 23.4261 77.3278C23.443 77.3278 23.46 77.3278 23.477 77.3278C23.494 77.3278 23.5109 77.3278 23.5279 77.3278C23.5449 77.3278 23.5619 77.3278 23.5789 77.3278C23.5959 77.3278 23.6129 77.3278 23.6299 77.3278C23.6469 77.3278 23.6639 77.3278 23.6809 77.3278C23.698 77.3278 23.715 77.3278 23.732 77.3278C23.749 77.3278 23.7661 77.3278 23.7831 77.3278C23.8001 77.3278 23.8172 77.3278 23.8342 77.3278C23.8513 77.3278 23.8683 77.3278 23.8854 77.3278C23.9024 77.3278 23.9195 77.3278 23.9366 77.3278C23.9536 77.3278 23.9707 77.3278 23.9878 77.3278C24.0048 77.3278 24.0219 77.3278 24.039 77.3278C24.0561 77.3278 24.0732 77.3278 24.0902 77.3278C24.1073 77.3278 24.1244 77.3278 24.1415 77.3278C24.1586 77.3278 24.1757 77.3278 24.1928 77.3278C24.2099 77.3278 24.2271 77.3278 24.2442 77.3278C24.2613 77.3278 24.2784 77.3278 24.2955 77.3278C24.3127 77.3278 24.3298 77.3278 24.3469 77.3278C24.3641 77.3278 24.3812 77.3278 24.3983 77.3278C24.4155 77.3278 24.4326 77.3278 24.4498 77.3278C24.4669 77.3278 24.4841 77.3278 24.5012 77.3278C24.5184 77.3278 24.5356 77.3278 24.5527 77.3278C24.5699 77.3278 24.5871 77.3278 24.6042 77.3278C24.6214 77.3278 24.6386 77.3278 24.6558 77.3278C24.673 77.3278 24.6901 77.3278 24.7073 77.3278C24.7245 77.3278 24.7417 77.3278 24.7589 77.3278C24.7761 77.3278 24.7933 77.3278 24.8105 77.3278C24.8277 77.3278 24.8449 77.3278 24.8621 77.3278C24.8794 77.3278 24.8966 77.3278 24.9138 77.3278C24.931 77.3278 24.9482 77.3278 24.9655 77.3278C24.9827 77.3278 24.9999 77.3278 25.0172 77.3278C25.0344 77.3278 25.0516 77.3278 25.0689 77.3278C25.0861 77.3278 25.1034 77.3278 25.1206 77.3278C25.1379 77.3278 25.1551 77.3278 25.1724 77.3278C25.1896 77.3278 25.2069 77.3278 25.2242 77.3278C25.2414 77.3278 25.2587 77.3278 25.276 77.3278C25.2932 77.3278 25.3105 77.3278 25.3278 77.3278C25.3451 77.3278 25.3623 77.3278 25.3796 77.3278C25.3969 77.3278 25.4142 77.3278 25.4315 77.3278C25.4488 77.3278 25.4661 77.3278 25.4834 77.3278C25.5007 77.3278 25.518 77.3278 25.5353 77.3278C25.5526 77.3278 25.5699 77.3278 25.5872 77.3278C25.6045 77.3278 25.6218 77.3278 25.6391 77.3278C25.6565 77.3278 25.6738 77.3278 25.6911 77.3278C25.7084 77.3278 25.7257 77.3278 25.7431 77.3278C25.7604 77.3278 25.7777 77.3278 25.7951 77.3278C25.8124 77.3278 25.8297 77.3278 25.8471 77.3278C25.8644 77.3278 25.8818 77.3278 25.8991 77.3278C25.9165 77.3278 25.9338 77.3278 25.9512 77.3278C25.9685 77.3278 25.9859 77.3278 26.0032 77.3278C26.0206 77.3278 26.038 77.3278 26.0553 77.3278C26.0727 77.3278 26.0901 77.3278 26.1074 77.3278C26.1248 77.3278 26.1422 77.3278 26.1595 77.3278C26.1769 77.3278 26.1943 77.3278 26.2117 77.3278C26.2291 77.3278 26.2464 77.3278 26.2638 77.3278C26.2812 77.3278 26.2986 77.3278 26.316 77.3278C26.3334 77.3278 26.3508 77.3278 26.3682 77.3278C26.3856 77.3278 26.403 77.3278 26.4204 77.3278C26.4378 77.3278 26.4552 77.3278 26.4726 77.3278C26.49 77.3278 26.5074 77.3278 26.5248 77.3278C26.5422 77.3278 26.5596 77.3278 26.5771 77.3278C26.5945 77.3278 26.6119 77.3278 26.6293 77.3278C26.6467 77.3278 26.6642 77.3278 26.6816 77.3278C26.699 77.3278 26.7164 77.3278 26.7339 77.3278C26.7513 77.3278 26.7687 77.3278 26.7862 77.3278C26.8036 77.3278 26.821 77.3278 26.8385 77.3278C26.8559 77.3278 26.8733 77.3278 26.8908 77.3278C26.9082 77.3278 26.9257 77.3278 26.9431 77.3278C26.9606 77.3278 26.978 77.3278 26.9955 77.3278C27.0129 77.3278 27.0304 77.3278 27.0478 77.3278C27.0653 77.3278 27.0827 77.3278 27.1002 77.3278C27.1177 77.3278 27.1351 77.3278 27.1526 77.3278C27.1701 77.3278 27.1875 77.3278 27.205 77.3278C27.2225 77.3278 27.2399 77.3278 27.2574 77.3278C27.2749 77.3278 27.2923 77.3278 27.3098 77.3278C27.3273 77.3278 27.3448 77.3278 27.3622 77.3278C27.3797 77.3278 27.3972 77.3278 27.4147 77.3278C27.4322 77.3278 27.4496 77.3278 27.4671 77.3278C27.4846 77.3278 27.5021 77.3278 27.5196 77.3278C27.5371 77.3278 27.5546 77.3278 27.572 77.3278C27.5895 77.3278 27.607 77.3278 27.6245 77.3278C27.642 77.3278 27.6595 77.3278 27.677 77.3278C27.6945 77.3278 27.712 77.3278 27.7295 77.3278C27.747 77.3278 27.7645 77.3278 27.782 77.3278C27.7995 77.3278 27.817 77.3278 27.8345 77.3278C27.852 77.3278 27.8695 77.3278 27.887 77.3278C27.9046 77.3278 27.9221 77.3278 27.9396 77.3278C27.9571 77.3278 27.9746 77.3278 27.9921 77.3278C28.0096 77.3278 28.0271 77.3278 28.0447 77.3278C28.0622 77.3278 28.0797 77.3278 28.0972 77.3278C28.1147 77.3278 28.1322 77.3278 28.1498 77.3278C28.1673 77.3278 28.1848 77.3278 28.2023 77.3278C28.2198 77.3278 28.2374 77.3278 28.2549 77.3278C28.2724 77.3278 28.2899 77.3278 28.3075 77.3278C28.325 77.3278 28.3425 77.3278 28.3601 77.3278C28.3776 77.3278 28.3951 77.3278 28.4126 77.3278C28.4302 77.3278 28.4477 77.3278 28.4652 77.3278C28.4828 77.3278 28.5003 77.3278 28.5178 77.3278C28.5354 77.3278 28.5529 77.3278 28.5704 77.3278C28.588 77.3278 28.6055 77.3278 28.623 77.3278C28.6406 77.3278 28.6581 77.3278 28.6757 77.3278C28.6932 77.3278 28.7107 77.3278 28.7283 77.3278C28.7458 77.3278 28.7633 77.3278 28.7809 77.3278C28.7984 77.3278 28.816 77.3278 28.8335 77.3278C28.8511 77.3278 28.8686 77.3278 28.8861 77.3278C28.9037 77.3278 28.9212 77.3278 28.9388 77.3278C28.9563 77.3278 28.9739 77.3278 28.9914 77.3278C29.0089 77.3278 29.0265 77.3278 29.044 77.3278C29.0616 77.3278 29.0791 77.3278 29.0967 77.3278C29.1142 77.3278 29.1318 77.3278 29.1493 77.3278C29.1669 77.3278 29.1844 77.3278 29.2019 77.3278C29.2195 77.3278 29.237 77.3278 29.2546 77.3278C29.2721 77.3278 29.2897 77.3278 29.3072 77.3278C29.3248 77.3278 29.3423 77.3278 29.3599 77.3278C29.3774 77.3278 29.395 77.3278 29.4125 77.3278C29.4301 77.3278 29.4476 77.3278 29.4652 77.3278C29.4827 77.3278 29.5003 77.3278 29.5178 77.3278C29.5354 77.3278 29.5529 77.3278 29.5705 77.3278C29.588 77.3278 29.6056 77.3278 29.6231 77.3278C29.6407 77.3278 29.6582 77.3278 29.6757 77.3278C29.6933 77.3278 29.7108 77.3278 29.7284 77.3278C29.7459 77.3278 29.7635 77.3278 29.781 77.3278C29.7986 77.3278 29.8161 77.3278 29.8337 77.3278C29.8512 77.3278 29.8688 77.3278 29.8863 77.3278C29.9039 77.3278 29.9214 77.3278 29.939 77.3278C29.9565 77.3278 29.974 77.3278 29.9916 77.3278C30.0091 77.3278 30.0267 77.3278 30.0442 77.3278C30.0618 77.3278 30.0793 77.3278 30.0969 77.3278C30.1144 77.3278 30.1319 77.3278 30.1495 77.3278C30.167 77.3278 30.1846 77.3278 30.2021 77.3278C30.2196 77.3278 30.2372 77.3278 30.2547 77.3278C30.2723 77.3278 30.2898 77.3278 30.3073 77.3278C30.3249 77.3278 30.3424 77.3278 30.36 77.3278C30.3775 77.3278 30.395 77.3278 30.4126 77.3278C30.4301 77.3278 30.4476 77.3278 30.4652 77.3278C30.4827 77.3278 30.5002 77.3278 30.5178 77.3278C30.5353 77.3278 30.5528 77.3278 30.5704 77.3278C30.5879 77.3278 30.6054 77.3278 30.623 77.3278C30.6405 77.3278 30.658 77.3278 30.6755 77.3278C30.6931 77.3278 30.7106 77.3278 30.7281 77.3278C30.7457 77.3278 30.7632 77.3278 30.7807 77.3278C30.7982 77.3278 30.8157 77.3278 30.8333 77.3278C30.8508 77.3278 30.8683 77.3278 30.8858 77.3278C30.9033 77.3278 30.9209 77.3278 30.9384 77.3278C30.9559 77.3278 30.9734 77.3278 30.9909 77.3278C31.0084 77.3278 31.026 77.3278 31.0435 77.3278C31.061 77.3278 31.0785 77.3278 31.096 77.3278C31.1135 77.3278 31.131 77.3278 31.1485 77.3278C31.166 77.3278 31.1835 77.3278 31.201 77.3278C31.2186 77.3278 31.2361 77.3278 31.2536 77.3278C31.2711 77.3278 31.2886 77.3278 31.3061 77.3278C31.3236 77.3278 31.3411 77.3278 31.3585 77.3278C31.376 77.3278 31.3935 77.3278 31.411 77.3278C31.4285 77.3278 31.446 77.3278 31.4635 77.3278C31.481 77.3278 31.4985 77.3278 31.516 77.3278C31.5335 77.3278 31.5509 77.3278 31.5684 77.3278C31.5859 77.3278 31.6034 77.3278 31.6209 77.3278C31.6383 77.3278 31.6558 77.3278 31.6733 77.3278C31.6908 77.3278 31.7083 77.3278 31.7257 77.3278C31.7432 77.3278 31.7607 77.3278 31.7781 77.3278C31.7956 77.3278 31.8131 77.3278 31.8305 77.3278C31.848 77.3278 31.8655 77.3278 31.8829 77.3278C31.9004 77.3278 31.9179 77.3278 31.9353 77.3278C31.9528 77.3278 31.9702 77.3278 31.9877 77.3278C32.0051 77.3278 32.0226 77.3278 32.04 77.3278C32.0575 77.3278 32.0749 77.3278 32.0924 77.3278C32.1098 77.3278 32.1273 77.3278 32.1447 77.3278C32.1621 77.3278 32.1796 77.3278 32.197 77.3278C32.2145 77.3278 32.2319 77.3278 32.2493 77.3278C32.2668 77.3278 32.2842 77.3278 32.3016 77.3278C32.319 77.3278 32.3365 77.3278 32.3539 77.3278C32.3713 77.3278 32.3887 77.3278 32.4062 77.3278C32.4236 77.3278 32.441 77.3278 32.4584 77.3278C32.4758 77.3278 32.4932 77.3278 32.5106 77.3278C32.5281 77.3278 32.5455 77.3278 32.5629 77.3278C32.5803 77.3278 32.5977 77.3278 32.6151 77.3278C32.6325 77.3278 32.6499 77.3278 32.6673 77.3278C32.6847 77.3278 32.702 77.3278 32.7194 77.3278C32.7368 77.3278 32.7542 77.3278 32.7716 77.3278C32.789 77.3278 32.8064 77.3278 32.8237 77.3278C32.8411 77.3278 32.8585 77.3278 32.8759 77.3278C32.8932 77.3278 32.9106 77.3278 32.928 77.3278C32.9453 77.3278 32.9627 77.3278 32.9801 77.3278C32.9974 77.3278 33.0148 77.3278 33.0321 77.3278C33.0495 77.3278 33.0669 77.3278 33.0842 77.3278C33.1016 77.3278 33.1189 77.3278 33.1363 77.3278C33.1536 77.3278 33.1709 77.3278 33.1883 77.3278C33.2056 77.3278 33.223 77.3278 33.2403 77.3278C33.2576 77.3278 33.2749 77.3278 33.2923 77.3278C33.3096 77.3278 33.3269 77.3278 33.3442 77.3278C33.3616 77.3278 33.3789 77.3278 33.3962 77.3278C33.4135 77.3278 33.4308 77.3278 33.4481 77.3278C33.4654 77.3278 33.4827 77.3278 33.5 77.3278C33.5173 77.3278 33.5346 77.3278 33.5519 77.3278C33.5692 77.3278 33.5865 77.3278 33.6038 77.3278C33.6211 77.3278 33.6384 77.3278 33.6557 77.3278C33.673 77.3278 33.6902 77.3278 33.7075 77.3278C33.7248 77.3278 33.7421 77.3278 33.7593 77.3278C33.7766 77.3278 33.7939 77.3278 33.8111 77.3278C33.8284 77.3278 33.8456 77.3278 33.8629 77.3278C33.8801 77.3278 33.8974 77.3278 33.9146 77.3278C33.9319 77.3278 33.9491 77.3278 33.9664 77.3278C33.9836 77.3278 34.0008 77.3278 34.0181 77.3278C34.0353 77.3278 34.0525 77.3278 34.0698 77.3278C34.087 77.3278 34.1042 77.3278 34.1214 77.3278C34.1386 77.3278 34.1559 77.3278 34.1731 77.3278C34.1903 77.3278 34.2075 77.3278 34.2247 77.3278C34.2419 77.3278 34.2591 77.3278 34.2763 77.3278C34.2935 77.3278 34.3107 77.3278 34.3279 77.3278C34.345 77.3278 34.3622 77.3278 34.3794 77.3278C34.3966 77.3278 34.4138 77.3278 34.4309 77.3278C34.4481 77.3278 34.4653 77.3278 34.4824 77.3278C34.4996 77.3278 34.5168 77.3278 34.5339 77.3278C34.5511 77.3278 34.5682 77.3278 34.5854 77.3278C34.6025 77.3278 34.6196 77.3278 34.6368 77.3278C34.6539 77.3278 34.6711 77.3278 34.6882 77.3278C34.7053 77.3278 34.7224 77.3278 34.7396 77.3278C34.7567 77.3278 34.7738 77.3278 34.7909 77.3278C34.808 77.3278 34.8251 77.3278 34.8422 77.3278C34.8593 77.3278 34.8764 77.3278 34.8935 77.3278C34.9106 77.3278 34.9277 77.3278 34.9448 77.3278C34.9619 77.3278 34.979 77.3278 34.9961 77.3278C35.0131 77.3278 35.0302 77.3278 35.0473 77.3278C35.0643 77.3278 35.0814 77.3278 35.0985 77.3278C35.1155 77.3278 35.1326 77.3278 35.1496 77.3278C35.1667 77.3278 35.1837 77.3278 35.2008 77.3278C35.2178 77.3278 35.2349 77.3278 35.2519 77.3278C35.2689 77.3278 35.2859 77.3278 35.303 77.3278C35.32 77.3278 35.337 77.3278 35.354 77.3278C35.371 77.3278 35.388 77.3278 35.405 77.3278C35.422 77.3278 35.439 77.3278 35.456 77.3278C35.473 77.3278 35.49 77.3278 35.507 77.3278C35.524 77.3278 35.541 77.3278 35.5579 77.3278C35.5749 77.3278 35.5919 77.3278 35.6089 77.3278C35.6258 77.3278 35.6428 77.3278 35.6597 77.3278C35.6767 77.3278 35.6936 77.3278 35.7106 77.3278C35.7275 77.3278 35.7445 77.3278 35.7614 77.3278C35.7783 77.3278 35.7953 77.3278 35.8122 77.3278C35.8291 77.3278 35.846 77.3278 35.8629 77.3278C35.8798 77.3278 35.8968 77.3278 35.9137 77.3278C35.9306 77.3278 35.9475 77.3278 35.9644 77.3278C35.9812 77.3278 35.9981 77.3278 36.015 77.3278C36.0319 77.3278 36.0488 77.3278 36.0656 77.3278C36.0825 77.3278 36.0994 77.3278 36.1162 77.3278C36.1331 77.3278 36.15 77.3278 36.1668 77.3278C36.1837 77.3278 36.2005 77.3278 36.2173 77.3278C36.2342 77.3278 36.251 77.3278 36.2678 77.3278C36.2847 77.3278 36.3015 77.3278 36.3183 77.3278C36.3351 77.3278 36.3519 77.3278 36.3687 77.3278C36.3855 77.3278 36.4023 77.3278 36.4191 77.3278C36.4359 77.3278 36.4527 77.3278 36.4695 77.3278C36.4863 77.3278 36.5031 77.3278 36.5198 77.3278C36.5366 77.3278 36.5534 77.3278 36.5701 77.3278C36.5869 77.3278 36.6036 77.3278 36.6204 77.3278C36.6371 77.3278 36.6539 77.3278 36.6706 77.3278C36.6873 77.3278 36.7041 77.3278 36.7208 77.3278C36.7375 77.3278 36.7542 77.3278 36.771 77.3278C36.7877 77.3278 36.8044 77.3278 36.8211 77.3278C36.8378 77.3278 36.8545 77.3278 36.8712 77.3278C36.8878 77.3278 36.9045 77.3278 36.9212 77.3278C36.9379 77.3278 36.9545 77.3278 36.9712 77.3278C36.9879 77.3278 37.0045 77.3278 37.0212 77.3278C37.0378 77.3278 37.0545 77.3278 37.0711 77.3278C37.0878 77.3278 37.1044 77.3278 37.121 77.3278C37.1376 77.3278 37.1543 77.3278 37.1709 77.3278C37.1875 77.3278 37.2041 77.3278 37.2207 77.3278C37.2373 77.3278 37.2539 77.3278 37.2705 77.3278C37.2871 77.3278 37.3037 77.3278 37.3202 77.3278C37.3368 77.3278 37.3534 77.3278 37.3699 77.3278C37.3865 77.3278 37.4031 77.3278 37.4196 77.3278C37.4362 77.3278 37.4527 77.3278 37.4692 77.3278C37.4858 77.3278 37.5023 77.3278 37.5188 77.3278C37.5354 77.3278 37.5519 77.3278 37.5684 77.3278C37.5849 77.3278 37.6014 77.3278 37.6179 77.3278C37.6344 77.3278 37.6509 77.3278 37.6674 77.3278C37.6839 77.3278 37.7003 77.3278 37.7168 77.3278C37.7333 77.3278 37.7497 77.3278 37.7662 77.3278C37.7827 77.3278 37.7991 77.3278 37.8155 77.3278C37.832 77.3278 37.8484 77.3278 37.8649 77.3278C37.8813 77.3278 37.8977 77.3278 37.9141 77.3278C37.9305 77.3278 37.9469 77.3278 37.9634 77.3278C37.9798 77.3278 37.9961 77.3278 38.0125 77.3278C38.0289 77.3278 38.0453 77.3278 38.0617 77.3278C38.0781 77.3278 38.0944 77.3278 38.1108 77.3278C38.1271 77.3278 38.1435 77.3278 38.1598 77.3278C38.1762 77.3278 38.1925 77.3278 38.2088 77.3278C38.2252 77.3278 38.2415 77.3278 38.2578 77.3278C38.2741 77.3278 38.2904 77.3278 38.3067 77.3278C38.323 77.3278 38.3393 77.3278 38.3556 77.3278C38.3719 77.3278 38.3882 77.3278 38.4045 77.3278C38.4207 77.3278 38.437 77.3278 38.4533 77.3278C38.4695 77.3278 38.4858 77.3278 38.502 77.3278C38.5183 77.3278 38.5345 77.3278 38.5507 77.3278C38.5669 77.3278 38.5832 77.3278 38.5994 77.3278C38.6156 77.3278 38.6318 77.3278 38.648 77.3278C38.6642 77.3278 38.6804 77.3278 38.6966 77.3278C38.7127 77.3278 38.7289 77.3278 38.7451 77.3278C38.7613 77.3278 38.7774 77.3278 38.7936 77.3278C38.8097 77.3278 38.8259 77.3278 38.842 77.3278C38.8581 77.3278 38.8743 77.3278 38.8904 77.3278C38.9065 77.3278 38.9226 77.3278 38.9387 77.3278C38.9548 77.3278 38.9709 77.3278 38.987 77.3278C39.0031 77.3278 39.0192 77.3278 39.0353 77.3278C39.0513 77.3278 39.0674 77.3278 39.0835 77.3278C39.0995 77.3278 39.1156 77.3278 39.1316 77.3278C39.1477 77.3278 39.1637 77.3278 39.1797 77.3278C39.1957 77.3278 39.2118 77.3278 39.2278 77.3278C39.2438 77.3278 39.2598 77.3278 39.2758 77.3278C39.2918 77.3278 39.3078 77.3278 39.3237 77.3278C39.3397 77.3278 39.3557 77.3278 39.3716 77.3278C39.3876 77.3278 39.4035 77.3278 39.4195 77.3278C39.4354 77.3278 39.4514 77.3278 39.4673 77.3278C39.4832 77.3278 39.4991 77.3278 39.5151 77.3278C39.531 77.3278 39.5469 77.3278 39.5628 77.3278C39.5787 77.3278 39.5945 77.3278 39.6104 77.3278C39.6263 77.3278 39.6422 77.3278 39.658 77.3278C39.6739 77.3278 39.6897 77.3278 39.7056 77.3278C39.7214 77.3278 39.7373 77.3278 39.7531 77.3278C39.7689 77.3278 39.7847 77.3278 39.8005 77.3278C39.8164 77.3278 39.8322 77.3278 39.8479 77.3278C39.8637 77.3278 39.8795 77.3278 39.8953 77.3278C39.9111 77.3278 39.9268 77.3278 39.9426 77.3278C39.9584 77.3278 39.9741 77.3278 39.9898 77.3278C40.0056 77.3278 40.0213 77.3278 40.037 77.3278C40.0528 77.3278 40.0685 77.3278 40.0842 77.3278C40.0999 77.3278 40.1156 77.3278 40.1313 77.3278C40.147 77.3278 40.1626 77.3278 40.1783 77.3278C40.194 77.3278 40.2096 77.3278 40.2253 77.3278C40.2409 77.3278 40.2566 77.3278 40.2722 77.3278C40.2878 77.3278 40.3035 77.3278 40.3191 77.3278C40.3347 77.3278 40.3503 77.3278 40.3659 77.3278C40.3815 77.3278 40.3971 77.3278 40.4127 77.3278C40.4282 77.3278 40.4438 77.3278 40.4594 77.3278C40.4749 77.3278 40.4905 77.3278 40.506 77.3278C40.5216 77.3278 40.5371 77.3278 40.5526 77.3278C40.5681 77.3278 40.5837 77.3278 40.5992 77.3278C40.6147 77.3278 40.6302 77.3278 40.6456 77.3278C40.6611 77.3278 40.6766 77.3278 40.6921 77.3278C40.7075 77.3278 40.723 77.3278 40.7385 77.3278C40.7539 77.3278 40.7693 77.3278 40.7848 77.3278C40.8002 77.3278 40.8156 77.3278 40.831 77.3278C40.8464 77.3278 40.8618 77.3278 40.8772 77.3278C40.8926 77.3278 40.908 77.3278 40.9234 77.3278C40.9387 77.3278 40.9541 77.3278 40.9695 77.3278C40.9848 77.3278 41.0002 77.3278 41.0155 77.3278C41.0308 77.3278 41.0461 77.3278 41.0615 77.3278C41.0768 77.3278 41.0921 77.3278 41.1074 77.3278C41.1227 77.3278 41.138 77.3278 41.1532 77.3278C41.1685 77.3278 41.1838 77.3278 41.199 77.3278C41.2143 77.3278 41.2295 77.3278 41.2448 77.3278C41.26 77.3278 41.2752 77.3278 41.2904 77.3278C41.3057 77.3278 41.3209 77.3278 41.3361 77.3278C41.3512 77.3278 41.3664 77.3278 41.3816 77.3278C41.3968 77.3278 41.4119 77.3278 41.4271 77.3278C41.4423 77.3278 41.4574 77.3278 41.4725 77.3278C41.4877 77.3278 41.5028 77.3278 41.5179 77.3278C41.533 77.3278 41.5481 77.3278 41.5632 77.3278C41.5783 77.3278 41.5934 77.3278 41.6085 77.3278C41.6236 77.3278 41.6386 77.3278 41.6537 77.3278C41.6687 77.3278 41.6838 77.3278 41.6988 77.3278C41.7138 77.3278 41.7289 77.3278 41.7439 77.3278C41.7589 77.3278 41.7739 77.3278 41.7889 77.3278C41.8039 77.3278 41.8188 77.3278 41.8338 77.3278C41.8488 77.3278 41.8637 77.3278 41.8787 77.3278C41.8936 77.3278 41.9086 77.3278 41.9235 77.3278C41.9384 77.3278 41.9534 77.3278 41.9683 77.3278C41.9832 77.3278 41.9981 77.3278 42.013 77.3278C42.0278 77.3278 42.0427 77.3278 42.0576 77.3278C42.0724 77.3278 42.0873 77.3278 42.1021 77.3278C42.117 77.3278 42.1318 77.3278 42.1466 77.3278C42.1615 77.3278 42.1763 77.3278 42.1911 77.3278C42.2059 77.3278 42.2207 77.3278 42.2354 77.3278C42.2502 77.3278 42.265 77.3278 42.2797 77.3278C42.2945 77.3278 42.3092 77.3278 42.324 77.3278C42.3387 77.3278 42.3534 77.3278 42.3681 77.3278C42.3829 77.3278 42.3976 77.3278 42.4122 77.3278C42.4269 77.3278 42.4416 77.3278 42.4563 77.3278C42.471 77.3278 42.4856 77.3278 42.5003 77.3278C42.5149 77.3278 42.5295 77.3278 42.5442 77.3278C42.5588 77.3278 42.5734 77.3278 42.588 77.3278C42.6026 77.3278 42.6172 77.3278 42.6318 77.3278C42.6464 77.3278 42.6609 77.3278 42.6755 77.3278C42.69 77.3278 42.7046 77.3278 42.7191 77.3278C42.7337 77.3278 42.7482 77.3278 42.7627 77.3278C42.7772 77.3278 42.7917 77.3278 42.8062 77.3278C42.8207 77.3278 42.8352 77.3278 42.8496 77.3278C42.8641 77.3278 42.8785 77.3278 42.893 77.3278C42.9074 77.3278 42.9219 77.3278 42.9363 77.3278C42.9507 77.3278 42.9651 77.3278 42.9795 77.3278C42.9939 77.3278 43.0083 77.3278 43.0227 77.3278C43.037 77.3278 43.0514 77.3278 43.0657 77.3278C43.0801 77.3278 43.0944 77.3278 43.1088 77.3278C43.1231 77.3278 43.1374 77.3278 43.1517 77.3278C43.166 77.3278 43.1803 77.3278 43.1946 77.3278C43.2089 77.3278 43.2231 77.3278 43.2374 77.3278C43.2516 77.3278 43.2659 77.3278 43.2801 77.3278C43.2944 77.3278 43.3086 77.3278 43.3228 77.3278C43.337 77.3278 43.3512 77.3278 43.3654 77.3278C43.3796 77.3278 43.3937 77.3278 43.4079 77.3278C43.4221 77.3278 43.4362 77.3278 43.4503 77.3278C43.4645 77.3278 43.4786 77.3278 43.4927 77.3278C43.5068 77.3278 43.5209 77.3278 43.535 77.3278C43.5491 77.3278 43.5632 77.3278 43.5772 77.3278C43.5913 77.3278 43.6054 77.3278 43.6194 77.3278C43.6334 77.3278 43.6475 77.3278 43.6615 77.3278C43.6755 77.3278 43.6895 77.3278 43.7035 77.3278C43.7175 77.3278 43.7315 77.3278 43.7454 77.3278C43.7594 77.3278 43.7734 77.3278 43.7873 77.3278C43.8012 77.3278 43.8152 77.3278 43.8291 77.3278C43.843 77.3278 43.8569 77.3278 43.8708 77.3278C43.8847 77.3278 43.8986 77.3278 43.9124 77.3278C43.9263 77.3278 43.9402 77.3278 43.954 77.3278C43.9678 77.3278 43.9817 77.3278 43.9955 77.3278C44.0093 77.3278 44.0231 77.3278 44.0369 77.3278V75.4791ZM18.6205 75.4791C16.3549 75.4791 14.309 74.5984 13.4226 72.8364L11.7711 73.6672C13.0924 76.2936 15.9737 77.3278 18.6205 77.3278V75.4791ZM13.4226 72.8364C11.4495 68.9143 10.9276 63.653 10.9243 59.2871L9.07569 59.2885C9.079 63.7253 9.59747 69.3463 11.7711 73.6672L13.4226 72.8364Z" fill="#150C0C" mask="url(#path-3-inside-1)"/>
<mask id="path-5-inside-2" fill="white">
<path fill-rule="evenodd" clip-rule="evenodd" d="M26.062 51.9874C26.0651 51.9126 26.0738 51.8376 26.0883 51.763C26.773 48.233 26.773 43.5898 26.773 43.5898H35.587C35.587 43.5898 35.587 48.233 36.2717 51.763C36.3191 52.0076 36.3055 52.2576 36.2288 52.4843C34.8287 53.1525 33.2613 53.5265 31.6065 53.5265C29.578 53.5265 27.6807 52.9644 26.062 51.9874Z"/>
</mask>
<path fill-rule="evenodd" clip-rule="evenodd" d="M26.062 51.9874C26.0651 51.9126 26.0738 51.8376 26.0883 51.763C26.773 48.233 26.773 43.5898 26.773 43.5898H35.587C35.587 43.5898 35.587 48.233 36.2717 51.763C36.3191 52.0076 36.3055 52.2576 36.2288 52.4843C34.8287 53.1525 33.2613 53.5265 31.6065 53.5265C29.578 53.5265 27.6807 52.9644 26.062 51.9874Z" fill="#DEB3A3"/>
<path d="M26.0883 51.763L26.9957 51.939L26.9957 51.939L26.0883 51.763ZM26.062 51.9874L25.1385 51.9497L25.1162 52.4961L25.5844 52.7787L26.062 51.9874ZM26.773 43.5898V42.6655H25.8487L25.8487 43.5898L26.773 43.5898ZM35.587 43.5898L36.5113 43.5898V42.6655H35.587V43.5898ZM36.2717 51.763L37.1791 51.587V51.587L36.2717 51.763ZM36.2288 52.4843L36.6269 53.3185L36.9792 53.1503L37.1043 52.7805L36.2288 52.4843ZM25.1809 51.587C25.1577 51.7067 25.1434 51.828 25.1385 51.9497L26.9856 52.0251C26.9867 51.9973 26.99 51.9685 26.9957 51.939L25.1809 51.587ZM26.773 43.5898C25.8487 43.5898 25.8487 43.5898 25.8487 43.5898C25.8487 43.5898 25.8487 43.5898 25.8487 43.5898C25.8487 43.5898 25.8487 43.59 25.8487 43.5902C25.8487 43.5905 25.8487 43.5912 25.8487 43.5921C25.8487 43.594 25.8487 43.597 25.8487 43.6011C25.8486 43.6093 25.8486 43.6218 25.8485 43.6384C25.8484 43.6718 25.848 43.7218 25.8474 43.787C25.8461 43.9176 25.8435 44.1091 25.8382 44.3503C25.8277 44.8331 25.8066 45.5139 25.7644 46.3034C25.6796 47.8903 25.5112 49.8842 25.1809 51.587L26.9957 51.939C27.3501 50.1119 27.524 48.0191 27.6104 46.402C27.6538 45.5894 27.6755 44.8888 27.6864 44.3907C27.6918 44.1415 27.6946 43.9427 27.6959 43.8055C27.6966 43.7369 27.697 43.6837 27.6971 43.6473C27.6972 43.6291 27.6973 43.6151 27.6973 43.6054C27.6973 43.6006 27.6973 43.5969 27.6973 43.5943C27.6973 43.593 27.6973 43.592 27.6973 43.5912C27.6973 43.5909 27.6973 43.5906 27.6973 43.5903C27.6973 43.5902 27.6973 43.5901 27.6973 43.59C27.6973 43.5899 27.6973 43.5898 26.773 43.5898ZM35.587 42.6655H26.773V44.5142H35.587V42.6655ZM37.1791 51.587C36.8488 49.8842 36.6804 47.8903 36.5956 46.3034C36.5534 45.5139 36.5323 44.8331 36.5218 44.3503C36.5165 44.1091 36.5139 43.9176 36.5126 43.787C36.512 43.7218 36.5116 43.6718 36.5115 43.6384C36.5114 43.6218 36.5114 43.6093 36.5113 43.6011C36.5113 43.597 36.5113 43.594 36.5113 43.5921C36.5113 43.5912 36.5113 43.5905 36.5113 43.5902C36.5113 43.59 36.5113 43.5898 36.5113 43.5898C36.5113 43.5898 36.5113 43.5898 36.5113 43.5898C36.5113 43.5898 36.5113 43.5898 35.587 43.5898C34.6627 43.5898 34.6627 43.5899 34.6627 43.59C34.6627 43.5901 34.6627 43.5902 34.6627 43.5903C34.6627 43.5906 34.6627 43.5909 34.6627 43.5912C34.6627 43.592 34.6627 43.593 34.6627 43.5943C34.6627 43.5969 34.6627 43.6006 34.6627 43.6054C34.6627 43.6151 34.6628 43.6291 34.6629 43.6473C34.663 43.6837 34.6634 43.7369 34.6641 43.8055C34.6654 43.9427 34.6682 44.1415 34.6736 44.3906C34.6845 44.8888 34.7062 45.5894 34.7496 46.402C34.836 48.0191 35.0099 50.1119 35.3643 51.939L37.1791 51.587ZM37.1043 52.7805C37.2361 52.391 37.2548 51.9774 37.1791 51.587L35.3643 51.939C35.3834 52.0377 35.3748 52.1242 35.3532 52.188L37.1043 52.7805ZM35.8307 51.6501C34.5522 52.2602 33.1206 52.6022 31.6065 52.6022V54.4508C33.4019 54.4508 35.1051 54.0447 36.6269 53.3185L35.8307 51.6501ZM31.6065 52.6022C29.751 52.6022 28.0183 52.0885 26.5396 51.1961L25.5844 52.7787C27.3432 53.8403 29.4049 54.4508 31.6065 54.4508V52.6022Z" fill="#150C0C" mask="url(#path-5-inside-2)"/>
<path d="M31.1539 53.513C31.1981 53.3848 31.123 53.2462 30.9915 53.2133L26.2626 52.0311C26.2443 52.0265 26.2255 52.0242 26.2066 52.0242L23.6567 52.0242C23.4515 52.0242 23.3481 52.2717 23.4923 52.4177L29.1873 58.1844C29.3076 58.3063 29.5142 58.2595 29.5701 58.0975L31.1539 53.513Z" fill="#F8E17D" stroke="#150C0C" stroke-width="0.924314"/>
<path d="M32.1665 53.513C32.1222 53.3848 32.1973 53.2462 32.3288 53.2133L37.0577 52.0311C37.076 52.0265 37.0949 52.0242 37.1137 52.0242L39.6636 52.0242C39.8688 52.0242 39.9722 52.2717 39.828 52.4177L34.1331 58.1844C34.0127 58.3063 33.8062 58.2595 33.7502 58.0975L32.1665 53.513Z" fill="#F8E17D" stroke="#150C0C" stroke-width="0.924314"/>
<circle cx="31.6055" cy="57.8004" r="0.577697" fill="#150C0C"/>
<path d="M38.8847 62.1934C38.8847 61.5553 39.402 61.038 40.0401 61.038H45.4704C46.1086 61.038 46.6258 61.5553 46.6258 62.1934V62.6985V68.0859C46.6258 68.724 46.1086 69.2413 45.4704 69.2413H40.0401C39.402 69.2413 38.8847 68.724 38.8847 68.0859V62.6985V62.1934Z" stroke="#150C0C" stroke-width="0.693236"/>
</g>
<path d="M48.4746 28.8022C48.4746 29.4776 48.2687 30.0713 47.9579 30.4857C47.6472 30.9 47.2533 31.113 46.8571 31.113C46.4608 31.113 46.0669 30.9 45.7562 30.4857C45.4454 30.0713 45.2395 29.4776 45.2395 28.8022C45.2395 28.1268 45.4454 27.5332 45.7562 27.1188C46.0669 26.7045 46.4608 26.4915 46.8571 26.4915C47.2533 26.4915 47.6472 26.7045 47.9579 27.1188C48.2687 27.5332 48.4746 28.1268 48.4746 28.8022Z" fill="#DEB3A3" stroke="#150C0C" stroke-width="0.924314"/>
<path d="M17.6255 28.8003C17.6255 29.4757 17.4196 30.0694 17.1088 30.4838C16.7981 30.898 16.4041 31.1111 16.0079 31.1111C15.6117 31.1111 15.2178 30.898 14.9071 30.4838C14.5963 30.0694 14.3904 29.4757 14.3904 28.8003C14.3904 28.1249 14.5963 27.5312 14.9071 27.1168C15.2178 26.7026 15.6117 26.4895 16.0079 26.4895C16.4041 26.4895 16.7981 26.7026 17.1088 27.1168C17.4196 27.5312 17.6255 28.1249 17.6255 28.8003Z" fill="#DEB3A3" stroke="#150C0C" stroke-width="0.924314"/>
<path d="M31.2587 13.6653L31.2596 13.6653L31.279 13.6653C39.3409 13.6818 45.7625 18.6101 45.7625 24.8142C45.7625 26.26 45.8518 27.3789 45.9551 28.6727C45.9775 28.9536 46.0006 29.2426 46.0236 29.5451C46.1525 31.243 46.2792 32.9145 46.2792 34.5937C46.2792 38.1264 44.1103 41.2572 41.1003 43.5314C38.0909 45.8051 34.3236 47.1561 31.2913 47.1715L31.2847 47.1716L31.2794 47.1717L31.2602 47.1717L31.2581 47.1717L31.2389 47.1717L31.2336 47.1716L31.2336 47.1716L31.227 47.1716C28.1946 47.1561 24.4273 45.8051 21.418 43.5314C18.408 41.2572 16.239 38.1264 16.239 34.5937C16.239 32.9145 16.3657 31.243 16.4947 29.5451C16.5176 29.2426 16.5407 28.9536 16.5631 28.6727C16.6664 27.3789 16.7558 26.26 16.7558 24.8142C16.7558 18.61 23.1776 13.6816 31.2398 13.6653L31.2587 13.6653Z" fill="#D9A392" stroke="#150C0C" stroke-width="0.924314"/>
<mask id="path-14-inside-3" fill="white">
<path fill-rule="evenodd" clip-rule="evenodd" d="M46.5384 10.2664C52.243 7.79303 38.1543 2.34358 28.4813 6.53751C26.3454 7.46354 24.5006 8.6045 23.0274 9.82745C22.9684 9.82556 22.9092 9.82461 22.8499 9.82461C18.3692 9.82461 14.7368 15.2426 14.7368 21.926C14.7368 25.1189 15.5658 28.023 16.9203 30.1855C16.9609 29.6418 17.0093 29.0981 17.0578 28.5537C17.0796 28.3083 17.1015 28.0747 17.1226 27.8485C17.2196 26.8121 17.3021 25.9308 17.3021 24.7871C17.3021 19.5204 23.6495 15.4872 31.355 15.474L31.3741 15.474L31.3932 15.474C39.0987 15.4872 45.4462 19.5204 45.4462 24.7871C45.4462 25.9308 45.5286 26.8121 45.6256 27.8485C45.6467 28.0747 45.6686 28.3083 45.6904 28.5537L45.6904 28.5537C45.7928 29.7034 45.8948 30.8497 45.9239 32.0006C47.2052 29.6756 48.0122 26.2892 48.0122 22.5187C48.0122 17.7137 46.7016 13.5322 44.7688 11.3767C45.2629 10.9456 45.8411 10.5687 46.5384 10.2664Z"/>
</mask>
<path fill-rule="evenodd" clip-rule="evenodd" d="M46.5384 10.2664C52.243 7.79303 38.1543 2.34358 28.4813 6.53751C26.3454 7.46354 24.5006 8.6045 23.0274 9.82745C22.9684 9.82556 22.9092 9.82461 22.8499 9.82461C18.3692 9.82461 14.7368 15.2426 14.7368 21.926C14.7368 25.1189 15.5658 28.023 16.9203 30.1855C16.9609 29.6418 17.0093 29.0981 17.0578 28.5537C17.0796 28.3083 17.1015 28.0747 17.1226 27.8485C17.2196 26.8121 17.3021 25.9308 17.3021 24.7871C17.3021 19.5204 23.6495 15.4872 31.355 15.474L31.3741 15.474L31.3932 15.474C39.0987 15.4872 45.4462 19.5204 45.4462 24.7871C45.4462 25.9308 45.5286 26.8121 45.6256 27.8485C45.6467 28.0747 45.6686 28.3083 45.6904 28.5537L45.6904 28.5537C45.7928 29.7034 45.8948 30.8497 45.9239 32.0006C47.2052 29.6756 48.0122 26.2892 48.0122 22.5187C48.0122 17.7137 46.7016 13.5322 44.7688 11.3767C45.2629 10.9456 45.8411 10.5687 46.5384 10.2664Z" fill="#4B301C"/>
<path d="M28.4813 6.53751L28.8489 7.38555L28.4813 6.53751ZM46.5384 10.2664L46.1707 9.41834L46.5384 10.2664ZM23.0274 9.82745L22.9978 10.7513L23.3481 10.7625L23.6178 10.5387L23.0274 9.82745ZM16.9203 30.1855L16.137 30.6762L17.6322 33.0635L17.842 30.2544L16.9203 30.1855ZM17.0578 28.5537L16.1371 28.4717H16.1371L17.0578 28.5537ZM17.1226 27.8485L18.0429 27.9346L17.1226 27.8485ZM31.355 15.474L31.3539 14.5497L31.3535 14.5497L31.355 15.474ZM31.3741 15.474L31.3737 14.5496L31.373 14.5497L31.3741 15.474ZM31.3932 15.474L31.3948 14.5496L31.3928 14.5496L31.3932 15.474ZM45.6256 27.8485L46.5459 27.7624V27.7624L45.6256 27.8485ZM45.6904 28.5537L44.7698 28.6356L44.7729 28.6708L44.7787 28.7056L45.6904 28.5537ZM45.6904 28.5537L46.6111 28.4717L46.608 28.4366L46.6022 28.4017L45.6904 28.5537ZM45.9239 32.0006L44.9999 32.0239L45.086 35.436L46.7334 32.4468L45.9239 32.0006ZM44.7688 11.3767L44.1611 10.6802L43.4552 11.2962L44.0806 11.9937L44.7688 11.3767ZM28.8489 7.38555C33.4335 5.39784 39.1428 5.68273 43.0227 6.79051C43.9834 7.06482 44.8096 7.38361 45.4619 7.71689C46.1274 8.05697 46.5553 8.3835 46.7777 8.64685C46.8852 8.77423 46.919 8.85662 46.9281 8.88995C46.9322 8.90468 46.9312 8.90848 46.9314 8.90425C46.9315 8.89949 46.9327 8.89666 46.9318 8.89896C46.9235 8.92121 46.8079 9.14207 46.1707 9.41834L46.9061 11.1144C47.695 10.7723 48.3871 10.2819 48.6624 9.54906C48.9669 8.73843 48.6432 7.99083 48.1901 7.4542C47.7427 6.92439 47.0714 6.46333 46.303 6.0707C45.5213 5.67128 44.5786 5.31226 43.5302 5.01292C39.3736 3.82612 33.2021 3.48325 28.1136 5.68948L28.8489 7.38555ZM23.6178 10.5387C25.0186 9.37581 26.7872 8.27945 28.8489 7.38555L28.1136 5.68948C25.9036 6.64764 23.9827 7.83319 22.437 9.11625L23.6178 10.5387ZM22.8499 10.7489C22.8993 10.7489 22.9486 10.7497 22.9978 10.7513L23.057 8.90361C22.9882 8.9014 22.9191 8.90029 22.8499 8.90029V10.7489ZM15.6611 21.926C15.6611 18.7424 16.5279 15.9017 17.8808 13.8837C19.2377 11.8598 21.0123 10.7489 22.8499 10.7489V8.90029C20.2067 8.90029 17.9248 10.4985 16.3453 12.8543C14.7619 15.2162 13.8125 18.4262 13.8125 21.926H15.6611ZM17.7036 29.6949C16.452 27.6966 15.6611 24.9668 15.6611 21.926H13.8125C13.8125 25.2711 14.6796 28.3495 16.137 30.6762L17.7036 29.6949ZM17.842 30.2544C17.8821 29.7183 17.9299 29.1812 17.9785 28.6356L16.1371 28.4717C16.0887 29.0151 16.0397 29.5653 15.9986 30.1167L17.842 30.2544ZM17.9785 28.6356C18.0001 28.3927 18.0217 28.1611 18.0429 27.9346L16.2023 27.7624C16.1812 27.9884 16.1592 28.224 16.1371 28.4717L17.9785 28.6356ZM18.0429 27.9346C18.1398 26.8988 18.2264 25.9787 18.2264 24.7871H16.3777C16.3777 25.8829 16.2994 26.7253 16.2023 27.7624L18.0429 27.9346ZM18.2264 24.7871C18.2264 22.5611 19.5644 20.4914 21.945 18.934C24.3225 17.3786 27.654 16.4047 31.3566 16.3983L31.3535 14.5497C27.3506 14.5566 23.6556 15.6058 20.933 17.387C18.2134 19.1662 16.3777 21.7464 16.3777 24.7871H18.2264ZM31.3562 16.3983L31.3753 16.3983L31.373 14.5497L31.3539 14.5497L31.3562 16.3983ZM31.3745 16.3983L31.3936 16.3983L31.3928 14.5496L31.3737 14.5496L31.3745 16.3983ZM31.3916 16.3983C35.0942 16.4046 38.4257 17.3786 40.8032 18.934C43.1838 20.4914 44.5219 22.5611 44.5219 24.7871H46.3705C46.3705 21.7464 44.5348 19.1662 41.8153 17.387C39.0926 15.6058 35.3977 14.5565 31.3948 14.5496L31.3916 16.3983ZM44.5219 24.7871C44.5219 25.9787 44.6084 26.8988 44.7053 27.9346L46.5459 27.7624C46.4488 26.7253 46.3705 25.8829 46.3705 24.7871H44.5219ZM44.7053 27.9346C44.7265 28.1611 44.7481 28.3927 44.7698 28.6356L46.6111 28.4717C46.5891 28.224 46.567 27.9884 46.5459 27.7624L44.7053 27.9346ZM44.7787 28.7056L44.7787 28.7056L46.6022 28.4017L46.6022 28.4017L44.7787 28.7056ZM44.7698 28.6357C44.8726 29.7903 44.9717 30.9073 44.9999 32.0239L46.8479 31.9773C46.818 30.7921 46.713 29.6166 46.6111 28.4717L44.7698 28.6357ZM47.0879 22.5187C47.0879 26.1743 46.3027 29.3982 45.1144 31.5545L46.7334 32.4468C48.1077 29.9531 48.9365 26.404 48.9365 22.5187H47.0879ZM44.0806 11.9937C45.8007 13.912 47.0879 17.8304 47.0879 22.5187H48.9365C48.9365 17.597 47.6025 13.1524 45.457 10.7596L44.0806 11.9937ZM46.1707 9.41834C45.3845 9.75919 44.7256 10.1877 44.1611 10.6802L45.3765 12.0731C45.8001 11.7035 46.2977 11.3782 46.9061 11.1144L46.1707 9.41834Z" fill="black" mask="url(#path-14-inside-3)"/>
<path d="M37.7674 23.2703C40.5034 22.6781 42.5116 23.3954 44.0123 24.1093C44.7321 24.4517 45.1458 25.3145 44.1094 24.9876C42.6409 24.5245 40.3301 24.2956 38.4472 24.7796C37.7674 24.9543 36.6329 23.5159 37.7674 23.2703Z" fill="#4B301C"/>
<path d="M25.2947 23.2703C22.5586 22.6781 20.5504 23.3954 19.0498 24.1093C18.3299 24.4517 17.9162 25.3145 18.9526 24.9876C20.4211 24.5245 22.7319 24.2956 24.6148 24.7796C25.2947 24.9543 26.4292 23.5159 25.2947 23.2703Z" fill="#4B301C"/>
<path d="M24.3269 29.9561C24.3269 30.7129 23.3958 31.8047 22.2472 31.8047C21.0986 31.8047 20.1675 30.977 20.1675 29.9561C20.1675 28.9351 21.0986 28.1074 22.2472 28.1074C23.3958 28.1074 24.3269 29.1992 24.3269 29.9561Z" fill="#150C0C"/>
<path d="M38.0754 29.9561C38.0754 30.7129 39.0066 31.8047 40.1552 31.8047C41.3037 31.8047 42.2349 30.977 42.2349 29.9561C42.2349 28.9351 41.3037 28.1074 40.1552 28.1074C39.0066 28.1074 38.0754 29.1992 38.0754 29.9561Z" fill="#150C0C"/>
<ellipse cx="39.8088" cy="29.2646" rx="0.462157" ry="0.346618" fill="white" fill-opacity="0.9"/>
<ellipse cx="21.5535" cy="29.2646" rx="0.462157" ry="0.346618" fill="white" fill-opacity="0.9"/>
<g clip-path="url(#clip1)">
<ellipse cx="39.8668" cy="31.8622" rx="1.9064" ry="1.44424" fill="#C98570"/>
<ellipse cx="22.5363" cy="31.8622" rx="1.9064" ry="1.44424" fill="#C98570"/>
</g>
<mask id="path-24-inside-4" fill="white">
<path fill-rule="evenodd" clip-rule="evenodd" d="M16.1271 31.5961C15.7462 32.7179 15 35.3012 15 38.3247C15 44.5301 22.5589 49.6016 31 49.9766V50C31.1699 50 31.3395 49.9978 31.5088 49.9935C31.6723 49.9971 31.836 49.9989 32 49.9989V49.9749C39.9208 49.5776 47 44.5159 47 38.3258C47 35.3387 46.3145 32.7812 45.9523 31.6384C45.8857 31.4283 45.589 31.4325 45.5095 31.638C44.9691 33.035 43.4399 36.2404 40.7842 36.2404C39.1816 36.2404 37.8592 35.6973 36.4627 35.1238C35.1415 34.5813 33.754 34.0115 32 33.8484V33.8012C31.8204 33.8012 31.6444 33.805 31.4717 33.8125C31.3173 33.8058 31.1602 33.8023 31 33.8023V33.8419C29.1068 33.9976 27.6153 34.5741 26.1959 35.1227C24.7121 35.6962 23.3071 36.2392 21.6043 36.2392C18.7533 36.2392 17.1242 32.967 16.5662 31.594C16.4848 31.394 16.1966 31.3916 16.1271 31.5961Z"/>
</mask>
<path fill-rule="evenodd" clip-rule="evenodd" d="M16.1271 31.5961C15.7462 32.7179 15 35.3012 15 38.3247C15 44.5301 22.5589 49.6016 31 49.9766V50C31.1699 50 31.3395 49.9978 31.5088 49.9935C31.6723 49.9971 31.836 49.9989 32 49.9989V49.9749C39.9208 49.5776 47 44.5159 47 38.3258C47 35.3387 46.3145 32.7812 45.9523 31.6384C45.8857 31.4283 45.589 31.4325 45.5095 31.638C44.9691 33.035 43.4399 36.2404 40.7842 36.2404C39.1816 36.2404 37.8592 35.6973 36.4627 35.1238C35.1415 34.5813 33.754 34.0115 32 33.8484V33.8012C31.8204 33.8012 31.6444 33.805 31.4717 33.8125C31.3173 33.8058 31.1602 33.8023 31 33.8023V33.8419C29.1068 33.9976 27.6153 34.5741 26.1959 35.1227C24.7121 35.6962 23.3071 36.2392 21.6043 36.2392C18.7533 36.2392 17.1242 32.967 16.5662 31.594C16.4848 31.394 16.1966 31.3916 16.1271 31.5961Z" fill="#4B301C"/>
<path d="M31.4622 50V49.9766H30.5378V50H31.4622ZM31.4622 33.8419V33.8023H30.5378V33.8419H31.4622ZM16.1271 31.5961L17.0023 31.8933V31.8933L16.1271 31.5961ZM31 49.9766H31.9243V49.0925L31.041 49.0532L31 49.9766ZM31 50H30.0757V50.9243H31V50ZM31.5088 49.9935L31.529 49.0694L31.5071 49.0689L31.4852 49.0695L31.5088 49.9935ZM32 49.9989V50.9232H32.9243V49.9989H32ZM32 49.9749L31.9537 49.0517L31.0757 49.0958V49.9749H32ZM45.9523 31.6384L46.8334 31.3591L46.8334 31.3591L45.9523 31.6384ZM45.5095 31.638L44.6474 31.3046V31.3046L45.5095 31.638ZM36.4627 35.1238L36.1115 35.9789L36.4627 35.1238ZM32 33.8484H31.0757V34.6907L31.9144 34.7687L32 33.8484ZM32 33.8012H32.9243V32.8769H32V33.8012ZM31.4717 33.8125L31.4318 34.7359L31.4715 34.7376L31.5112 34.7359L31.4717 33.8125ZM31 33.8023V32.878H30.0757V33.8023H31ZM31 33.8419L31.0758 34.7631L31.9243 34.6933V33.8419H31ZM26.1959 35.1227L25.8627 34.2605V34.2605L26.1959 35.1227ZM16.5662 31.594L17.4224 31.246L17.4224 31.246L16.5662 31.594ZM15.9243 38.3247C15.9243 35.4413 16.6385 32.965 17.0023 31.8933L15.2519 31.2989C14.8539 32.4709 14.0757 35.1612 14.0757 38.3247H15.9243ZM31.041 49.0532C26.9819 48.8729 23.1569 47.5619 20.3696 45.5833C17.5731 43.5982 15.9243 41.027 15.9243 38.3247H14.0757C14.0757 41.8278 16.2064 44.8951 19.2996 47.0908C22.402 49.293 26.577 50.7053 30.959 50.9L31.041 49.0532ZM30.0757 49.9766V50H31.9243V49.9766H30.0757ZM31 50.9243C31.1778 50.9243 31.3553 50.922 31.5324 50.9175L31.4852 49.0695C31.3237 49.0736 31.162 49.0757 31 49.0757V50.9243ZM32 49.0746C31.8428 49.0746 31.6858 49.0728 31.529 49.0694L31.4886 50.9176C31.6588 50.9213 31.8293 50.9232 32 50.9232V49.0746ZM31.0757 49.9749V49.9989H32.9243V49.9749H31.0757ZM32.0463 50.898C36.1792 50.6908 40.1103 49.2681 43.0281 47.0597C45.9414 44.8547 47.9243 41.7954 47.9243 38.3258H46.0757C46.0757 41.0464 44.5189 43.6129 41.9125 45.5857C39.3105 47.555 35.7416 48.8618 31.9537 49.0517L32.0463 50.898ZM47.9243 38.3258C47.9243 35.2083 47.211 32.5505 46.8334 31.3591L45.0711 31.9176C45.418 33.012 46.0757 35.4691 46.0757 38.3258H47.9243ZM46.8334 31.3591C46.6618 30.8177 46.1723 30.5557 45.7309 30.5581C45.2999 30.5603 44.8386 30.8102 44.6474 31.3046L46.3715 31.9715C46.2598 32.2603 45.9867 32.4054 45.7406 32.4067C45.484 32.408 45.1762 32.249 45.0711 31.9176L46.8334 31.3591ZM44.6474 31.3046C44.3917 31.9658 43.9149 33.0161 43.2187 33.8852C42.5153 34.7633 41.7063 35.3161 40.7842 35.3161V37.1647C42.5178 37.1647 43.8013 36.1148 44.6615 35.0409C45.5289 33.9581 46.0869 32.7073 46.3715 31.9715L44.6474 31.3046ZM40.7842 35.3161C39.3899 35.3161 38.2292 34.85 36.8138 34.2688L36.1115 35.9789C37.4893 36.5446 38.9732 37.1647 40.7842 37.1647V35.3161ZM36.8138 34.2688C35.4979 33.7284 33.9934 33.1054 32.0856 32.928L31.9144 34.7687C33.5145 34.9175 34.7851 35.4341 36.1115 35.9789L36.8138 34.2688ZM31.0757 33.8012V33.8484H32.9243V33.8012H31.0757ZM31.5112 34.7359C31.6708 34.7291 31.8337 34.7255 32 34.7255V32.8769C31.8072 32.8769 31.6179 32.881 31.4321 32.889L31.5112 34.7359ZM31.5115 32.889C31.3439 32.8818 31.1735 32.878 31 32.878V34.7266C31.1468 34.7266 31.2907 34.7298 31.4318 34.7359L31.5115 32.889ZM30.0757 33.8023V33.8419H31.9243V33.8023H30.0757ZM26.5291 35.9848C27.9525 35.4347 29.3307 34.9066 31.0758 34.7631L30.9242 32.9207C28.8828 33.0886 27.2781 33.7135 25.8627 34.2605L26.5291 35.9848ZM21.6043 37.1636C23.5036 37.1636 25.0619 36.5519 26.5291 35.9848L25.8627 34.2605C24.3622 34.8405 23.1105 35.3149 21.6043 35.3149V37.1636ZM15.7099 31.9421C16.0049 32.6679 16.5952 33.9306 17.5184 35.0269C18.4381 36.1191 19.7927 37.1636 21.6043 37.1636V35.3149C20.5649 35.3149 19.6795 34.7233 18.9324 33.8361C18.1888 32.9531 17.6855 31.8931 17.4224 31.246L15.7099 31.9421ZM17.0023 31.8933C16.8941 32.2121 16.5961 32.3678 16.3419 32.3677C16.096 32.3676 15.825 32.2253 15.7099 31.9421L17.4224 31.246C17.226 30.7627 16.7702 30.5192 16.3425 30.519C15.9064 30.5189 15.4296 30.7756 15.2519 31.2989L17.0023 31.8933Z" fill="black" mask="url(#path-24-inside-4)"/>
<path d="M27.4543 38.2751C28.4031 37.5913 29.9333 37.2292 31.4904 37.2357C33.0476 37.2422 34.4841 37.6161 35.281 38.2531C35.3284 38.4533 35.3011 38.7098 35.1655 39.0186C35.0077 39.3779 34.7191 39.7662 34.3269 40.1273C33.5371 40.8544 32.4129 41.3948 31.3341 41.3948C30.2785 41.3948 29.1786 40.7797 28.3967 39.9969C28.01 39.6097 27.7259 39.2053 27.5726 38.8567C27.446 38.5687 27.4337 38.381 27.4543 38.2751Z" fill="#F9ECEC" stroke="#150C0C" stroke-width="0.924314"/>
</g>
<defs>
<clipPath id="clip0">
<rect width="42.4029" height="32.8132" fill="white" transform="translate(10 43.5898)"/>
</clipPath>
<clipPath id="clip1">
<rect width="21.1437" height="2.88848" fill="white" transform="translate(20.6299 30.418)"/>
</clipPath>
</defs>
</svg>
