<svg width="62" height="62" viewBox="0 0 62 62" fill="none" xmlns="http://www.w3.org/2000/svg">
<mask id="mask0" mask-type="alpha" maskUnits="userSpaceOnUse" x="0" y="0" width="62" height="62">
<circle cx="31" cy="31" r="31" fill="#C4C4C4"/>
</mask>
<g mask="url(#mask0)">
<circle cx="31" cy="31" r="31" fill="#BED3F4"/>
<mask id="path-3-inside-1" fill="white">
<path d="M9 56.6854C8.99655 52.0559 12.9459 48.6582 17.5753 48.6582H44.3064C49.1238 48.6582 53.1652 52.3235 53.0309 57.139C52.9042 61.68 52.3201 67.1434 50.5189 71.1346C49.4691 73.4608 46.919 74.4697 44.3668 74.4697C37.0297 74.4697 26.2492 74.4697 17.9574 74.4697C15.4052 74.4697 12.8453 73.4749 11.6983 71.1949C9.54393 66.9124 9.00341 61.2587 9 56.6854Z"/>
</mask>
<path d="M9 56.6854C8.99655 52.0559 12.9459 48.6582 17.5753 48.6582H44.3064C49.1238 48.6582 53.1652 52.3235 53.0309 57.139C52.9042 61.68 52.3201 67.1434 50.5189 71.1346C49.4691 73.4608 46.919 74.4697 44.3668 74.4697C37.0297 74.4697 26.2492 74.4697 17.9574 74.4697C15.4052 74.4697 12.8453 73.4749 11.6983 71.1949C9.54393 66.9124 9.00341 61.2587 9 56.6854Z" fill="#ECF3F7"/>
<path d="M17.9574 74.4697V75.4302V74.4697ZM11.6983 71.1949L10.8403 71.6265L11.6983 71.1949ZM52.0708 57.1122C51.9448 61.63 51.362 66.9316 49.6435 70.7395L51.3943 71.5296C53.2782 67.3553 53.8636 61.7299 53.9909 57.1658L52.0708 57.1122ZM44.3668 73.5093C44.3524 73.5093 44.3381 73.5093 44.3237 73.5093C44.3094 73.5093 44.295 73.5093 44.2806 73.5093C44.2662 73.5093 44.2519 73.5093 44.2374 73.5093C44.223 73.5093 44.2086 73.5093 44.1942 73.5093C44.1797 73.5093 44.1653 73.5093 44.1508 73.5093C44.1364 73.5093 44.1219 73.5093 44.1074 73.5093C44.0929 73.5093 44.0784 73.5093 44.0639 73.5093C44.0494 73.5093 44.0349 73.5093 44.0203 73.5093C44.0058 73.5093 43.9913 73.5093 43.9767 73.5093C43.9621 73.5093 43.9476 73.5093 43.933 73.5093C43.9184 73.5093 43.9038 73.5093 43.8892 73.5093C43.8745 73.5093 43.8599 73.5093 43.8453 73.5093C43.8306 73.5093 43.816 73.5093 43.8013 73.5093C43.7867 73.5093 43.772 73.5093 43.7573 73.5093C43.7426 73.5093 43.7279 73.5093 43.7132 73.5093C43.6985 73.5093 43.6837 73.5093 43.669 73.5093C43.6543 73.5093 43.6395 73.5093 43.6248 73.5093C43.61 73.5093 43.5952 73.5093 43.5804 73.5093C43.5656 73.5093 43.5508 73.5093 43.536 73.5093C43.5212 73.5093 43.5064 73.5093 43.4915 73.5093C43.4767 73.5093 43.4619 73.5093 43.447 73.5093C43.4321 73.5093 43.4173 73.5093 43.4024 73.5093C43.3875 73.5093 43.3726 73.5093 43.3577 73.5093C43.3428 73.5093 43.3278 73.5093 43.3129 73.5093C43.298 73.5093 43.283 73.5093 43.2681 73.5093C43.2531 73.5093 43.2381 73.5093 43.2231 73.5093C43.2082 73.5093 43.1932 73.5093 43.1782 73.5093C43.1632 73.5093 43.1481 73.5093 43.1331 73.5093C43.1181 73.5093 43.103 73.5093 43.088 73.5093C43.0729 73.5093 43.0578 73.5093 43.0428 73.5093C43.0277 73.5093 43.0126 73.5093 42.9975 73.5093C42.9824 73.5093 42.9673 73.5093 42.9522 73.5093C42.937 73.5093 42.9219 73.5093 42.9067 73.5093C42.8916 73.5093 42.8764 73.5093 42.8613 73.5093C42.8461 73.5093 42.8309 73.5093 42.8157 73.5093C42.8005 73.5093 42.7853 73.5093 42.7701 73.5093C42.7549 73.5093 42.7396 73.5093 42.7244 73.5093C42.7092 73.5093 42.6939 73.5093 42.6786 73.5093C42.6634 73.5093 42.6481 73.5093 42.6328 73.5093C42.6175 73.5093 42.6022 73.5093 42.5869 73.5093C42.5716 73.5093 42.5563 73.5093 42.5409 73.5093C42.5256 73.5093 42.5103 73.5093 42.4949 73.5093C42.413 73.5093 42.4846 73.5093 42.4026 73.5093C42.3872 73.5093 42.3718 73.5093 42.3564 73.5093C42.341 73.5093 42.3256 73.5093 42.3101 73.5093C42.2947 73.5093 42.2792 73.5093 42.2637 73.5093C42.2483 73.5093 42.2328 73.5093 42.2173 73.5093C42.2018 73.5093 42.1863 73.5093 42.1708 73.5093C42.1553 73.5093 42.1398 73.5093 42.1242 73.5093C42.1087 73.5093 42.0932 73.5093 42.0776 73.5093C42.062 73.5093 42.0465 73.5093 42.0309 73.5093C42.0153 73.5093 41.9997 73.5093 41.9841 73.5093C41.9685 73.5093 41.9529 73.5093 41.9373 73.5093C41.9217 73.5093 41.9061 73.5093 41.8904 73.5093C41.8748 73.5093 41.8591 73.5093 41.8435 73.5093C41.8278 73.5093 41.8121 73.5093 41.7964 73.5093C41.7808 73.5093 41.7651 73.5093 41.7494 73.5093C41.7337 73.5093 41.7179 73.5093 41.7022 73.5093C41.6865 73.5093 41.6707 73.5093 41.655 73.5093C41.6393 73.5093 41.6235 73.5093 41.6077 73.5093C41.592 73.5093 41.5762 73.5093 41.5604 73.5093C41.5446 73.5093 41.5288 73.5093 41.513 73.5093C41.4972 73.5093 41.4814 73.5093 41.4655 73.5093C41.4497 73.5093 41.4339 73.5093 41.418 73.5093C41.4022 73.5093 41.3863 73.5093 41.3704 73.5093C41.3546 73.5093 41.3387 73.5093 41.3228 73.5093C41.3069 73.5093 41.291 73.5093 41.2751 73.5093C41.2592 73.5093 41.2432 73.5093 41.2273 73.5093C41.2114 73.5093 41.1954 73.5093 41.1795 73.5093C41.1635 73.5093 41.1476 73.5093 41.1316 73.5093C41.1156 73.5093 41.0996 73.5093 41.0836 73.5093C41.0677 73.5093 41.0517 73.5093 41.0356 73.5093C41.0196 73.5093 41.0036 73.5093 40.9876 73.5093C40.9715 73.5093 40.9555 73.5093 40.9394 73.5093C40.9234 73.5093 40.9073 73.5093 40.8913 73.5093C40.8752 73.5093 40.8591 73.5093 40.843 73.5093C40.8269 73.5093 40.8108 73.5093 40.7947 73.5093C40.7786 73.5093 40.7625 73.5093 40.7464 73.5093C40.7302 73.5093 40.7141 73.5093 40.6979 73.5093C40.6818 73.5093 40.6656 73.5093 40.6495 73.5093C40.6333 73.5093 40.6171 73.5093 40.6009 73.5093C40.5847 73.5093 40.5685 73.5093 40.5523 73.5093C40.5361 73.5093 40.5199 73.5093 40.5037 73.5093C40.4875 73.5093 40.4712 73.5093 40.455 73.5093C40.4387 73.5093 40.4225 73.5093 40.4062 73.5093C40.39 73.5093 40.3737 73.5093 40.3574 73.5093C40.3411 73.5093 40.3248 73.5093 40.3085 73.5093C40.2922 73.5093 40.2759 73.5093 40.2596 73.5093C40.2433 73.5093 40.227 73.5093 40.2106 73.5093C40.1943 73.5093 40.1779 73.5093 40.1616 73.5093C40.1452 73.5093 40.1289 73.5093 40.1125 73.5093C40.0961 73.5093 40.0797 73.5093 40.0634 73.5093C40.047 73.5093 40.0306 73.5093 40.0142 73.5093C39.9977 73.5093 39.9813 73.5093 39.9649 73.5093C39.9485 73.5093 39.932 73.5093 39.9156 73.5093C39.8991 73.5093 39.8827 73.5093 39.8662 73.5093C39.8498 73.5093 39.8333 73.5093 39.8168 73.5093C39.8003 73.5093 39.7838 73.5093 39.7673 73.5093C39.7508 73.5093 39.7343 73.5093 39.7178 73.5093C39.7013 73.5093 39.6848 73.5093 39.6683 73.5093C39.6517 73.5093 39.6352 73.5093 39.6186 73.5093C39.6021 73.5093 39.5855 73.5093 39.569 73.5093C39.5524 73.5093 39.5358 73.5093 39.5192 73.5093C39.5026 73.5093 39.486 73.5093 39.4694 73.5093C39.4528 73.5093 39.4362 73.5093 39.4196 73.5093C39.403 73.5093 39.3864 73.5093 39.3697 73.5093C39.3531 73.5093 39.3365 73.5093 39.3198 73.5093C39.3032 73.5093 39.2865 73.5093 39.2698 73.5093C39.2532 73.5093 39.2365 73.5093 39.2198 73.5093C39.2031 73.5093 39.1864 73.5093 39.1697 73.5093C39.153 73.5093 39.1363 73.5093 39.1196 73.5093C39.1029 73.5093 39.0861 73.5093 39.0694 73.5093C39.0527 73.5093 39.0359 73.5093 39.0192 73.5093C39.0024 73.5093 38.9857 73.5093 38.9689 73.5093C38.9521 73.5093 38.9354 73.5093 38.9186 73.5093C38.9018 73.5093 38.885 73.5093 38.8682 73.5093C38.8514 73.5093 38.8346 73.5093 38.8178 73.5093C38.801 73.5093 38.7841 73.5093 38.7673 73.5093C38.7505 73.5093 38.7336 73.5093 38.7168 73.5093C38.7 73.5093 38.6831 73.5093 38.6662 73.5093C38.6494 73.5093 38.6325 73.5093 38.6156 73.5093C38.5987 73.5093 38.5819 73.5093 38.565 73.5093C38.5481 73.5093 38.5312 73.5093 38.5143 73.5093C38.4974 73.5093 38.4804 73.5093 38.4635 73.5093C38.4466 73.5093 38.4297 73.5093 38.4127 73.5093C38.3958 73.5093 38.3788 73.5093 38.3619 73.5093C38.3449 73.5093 38.328 73.5093 38.311 73.5093C38.294 73.5093 38.2771 73.5093 38.2601 73.5093C38.2431 73.5093 38.2261 73.5093 38.2091 73.5093C38.1921 73.5093 38.1751 73.5093 38.1581 73.5093C38.1411 73.5093 38.1241 73.5093 38.107 73.5093C38.09 73.5093 38.073 73.5093 38.0559 73.5093C38.0389 73.5093 38.0218 73.5093 38.0048 73.5093C37.9877 73.5093 37.9706 73.5093 37.9536 73.5093C37.9365 73.5093 37.9194 73.5093 37.9023 73.5093C37.8853 73.5093 37.8682 73.5093 37.8511 73.5093C37.834 73.5093 37.8169 73.5093 37.7997 73.5093C37.7826 73.5093 37.7655 73.5093 37.7484 73.5093C37.7313 73.5093 37.7141 73.5093 37.697 73.5093C37.6798 73.5093 37.6627 73.5093 37.6455 73.5093C37.6284 73.5093 37.6112 73.5093 37.594 73.5093C37.5769 73.5093 37.5597 73.5093 37.5425 73.5093C37.5253 73.5093 37.5081 73.5093 37.4909 73.5093C37.4737 73.5093 37.4565 73.5093 37.4393 73.5093C37.4221 73.5093 37.4049 73.5093 37.3877 73.5093C37.3705 73.5093 37.3532 73.5093 37.336 73.5093C37.3188 73.5093 37.3015 73.5093 37.2843 73.5093C37.267 73.5093 37.2498 73.5093 37.2325 73.5093C37.2152 73.5093 37.198 73.5093 37.1807 73.5093C37.1634 73.5093 37.1461 73.5093 37.1288 73.5093C37.1115 73.5093 37.0942 73.5093 37.0769 73.5093C37.0596 73.5093 37.0423 73.5093 37.025 73.5093C37.0077 73.5093 36.9904 73.5093 36.9731 73.5093C36.9557 73.5093 36.9384 73.5093 36.921 73.5093C36.9037 73.5093 36.8864 73.5093 36.869 73.5093C36.8517 73.5093 36.8343 73.5093 36.8169 73.5093C36.7996 73.5093 36.7822 73.5093 36.7648 73.5093C36.7474 73.5093 36.7301 73.5093 36.7127 73.5093C36.6953 73.5093 36.6779 73.5093 36.6605 73.5093C36.6431 73.5093 36.6257 73.5093 36.6083 73.5093C36.5908 73.5093 36.5734 73.5093 36.556 73.5093C36.5386 73.5093 36.5211 73.5093 36.5037 73.5093C36.4863 73.5093 36.4688 73.5093 36.4514 73.5093C36.4339 73.5093 36.4165 73.5093 36.399 73.5093C36.3815 73.5093 36.3641 73.5093 36.3466 73.5093C36.3291 73.5093 36.3116 73.5093 36.2942 73.5093C36.2767 73.5093 36.2592 73.5093 36.2417 73.5093C36.2242 73.5093 36.2067 73.5093 36.1892 73.5093C36.1717 73.5093 36.1542 73.5093 36.1366 73.5093C36.1191 73.5093 36.1016 73.5093 36.0841 73.5093C36.0665 73.5093 36.049 73.5093 36.0315 73.5093C36.0139 73.5093 35.9964 73.5093 35.9788 73.5093C35.9613 73.5093 35.9437 73.5093 35.9261 73.5093C35.9086 73.5093 35.891 73.5093 35.8734 73.5093C35.8559 73.5093 35.8383 73.5093 35.8207 73.5093C35.8031 73.5093 35.7855 73.5093 35.7679 73.5093C35.7503 73.5093 35.7327 73.5093 35.7151 73.5093C35.6975 73.5093 35.6799 73.5093 35.6623 73.5093C35.6447 73.5093 35.6271 73.5093 35.6094 73.5093C35.5918 73.5093 35.5742 73.5093 35.5565 73.5093C35.5389 73.5093 35.5212 73.5093 35.5036 73.5093C35.486 73.5093 35.4683 73.5093 35.4506 73.5093C35.433 73.5093 35.4153 73.5093 35.3977 73.5093C35.38 73.5093 35.3623 73.5093 35.3446 73.5093C35.327 73.5093 35.3093 73.5093 35.2916 73.5093C35.2739 73.5093 35.2562 73.5093 35.2385 73.5093C35.2208 73.5093 35.2031 73.5093 35.1854 73.5093C35.1677 73.5093 35.15 73.5093 35.1323 73.5093C35.1146 73.5093 35.0968 73.5093 35.0791 73.5093C35.0614 73.5093 35.0436 73.5093 35.0259 73.5093C35.0082 73.5093 34.9904 73.5093 34.9727 73.5093C34.9549 73.5093 34.9372 73.5093 34.9194 73.5093C34.9017 73.5093 34.8839 73.5093 34.8662 73.5093C34.8484 73.5093 34.8306 73.5093 34.8129 73.5093C34.7951 73.5093 34.7773 73.5093 34.7595 73.5093C34.7417 73.5093 34.724 73.5093 34.7062 73.5093C34.6884 73.5093 34.6706 73.5093 34.6528 73.5093C34.635 73.5093 34.6172 73.5093 34.5994 73.5093C34.5816 73.5093 34.5638 73.5093 34.5459 73.5093C34.5281 73.5093 34.5103 73.5093 34.4925 73.5093C34.4747 73.5093 34.4568 73.5093 34.439 73.5093C34.4212 73.5093 34.4033 73.5093 34.3855 73.5093C34.3676 73.5093 34.3498 73.5093 34.3319 73.5093C34.3141 73.5093 34.2962 73.5093 34.2784 73.5093C34.2605 73.5093 34.2427 73.5093 34.2248 73.5093C34.2069 73.5093 34.1891 73.5093 34.1712 73.5093C34.1533 73.5093 34.1354 73.5093 34.1175 73.5093C34.0997 73.5093 34.0818 73.5093 34.0639 73.5093C34.046 73.5093 34.0281 73.5093 34.0102 73.5093C33.9923 73.5093 33.9744 73.5093 33.9565 73.5093C33.9386 73.5093 33.9207 73.5093 33.9028 73.5093C33.8849 73.5093 33.8669 73.5093 33.849 73.5093C33.8311 73.5093 33.8132 73.5093 33.7952 73.5093C33.7773 73.5093 33.7594 73.5093 33.7414 73.5093C33.7235 73.5093 33.7056 73.5093 33.6876 73.5093C33.6697 73.5093 33.6517 73.5093 33.6338 73.5093C33.6158 73.5093 33.5979 73.5093 33.5799 73.5093C33.562 73.5093 33.544 73.5093 33.5261 73.5093C33.5081 73.5093 33.4901 73.5093 33.4721 73.5093C33.4542 73.5093 33.4362 73.5093 33.4182 73.5093C33.4002 73.5093 33.3823 73.5093 33.3643 73.5093C33.3463 73.5093 33.3283 73.5093 33.3103 73.5093C33.2923 73.5093 33.2743 73.5093 33.2563 73.5093C33.2383 73.5093 33.2203 73.5093 33.2023 73.5093C33.1843 73.5093 33.1663 73.5093 33.1483 73.5093C33.1303 73.5093 33.1123 73.5093 33.0943 73.5093C33.0763 73.5093 33.0582 73.5093 33.0402 73.5093C33.0222 73.5093 33.0042 73.5093 32.9861 73.5093C32.9681 73.5093 32.9501 73.5093 32.932 73.5093C32.914 73.5093 32.896 73.5093 32.8779 73.5093C32.8599 73.5093 32.8419 73.5093 32.8238 73.5093C32.8058 73.5093 32.7877 73.5093 32.7697 73.5093C32.7516 73.5093 32.7336 73.5093 32.7155 73.5093C32.6974 73.5093 32.6794 73.5093 32.6613 73.5093C32.6432 73.5093 32.6252 73.5093 32.6071 73.5093C32.589 73.5093 32.571 73.5093 32.5529 73.5093C32.5348 73.5093 32.5168 73.5093 32.4987 73.5093C32.4806 73.5093 32.4625 73.5093 32.4444 73.5093C32.4263 73.5093 32.4083 73.5093 32.3902 73.5093C32.3721 73.5093 32.354 73.5093 32.3359 73.5093C32.3178 73.5093 32.2997 73.5093 32.2816 73.5093C32.2635 73.5093 32.2454 73.5093 32.2273 73.5093C32.2092 73.5093 32.1911 73.5093 32.173 73.5093C32.1549 73.5093 32.1368 73.5093 32.1186 73.5093C32.1005 73.5093 32.0824 73.5093 32.0643 73.5093C32.0462 73.5093 32.0281 73.5093 32.0099 73.5093C31.9918 73.5093 31.9737 73.5093 31.9556 73.5093C31.9374 73.5093 31.9193 73.5093 31.9012 73.5093C31.883 73.5093 31.8649 73.5093 31.8468 73.5093C31.8286 73.5093 31.8105 73.5093 31.7924 73.5093C31.7742 73.5093 31.7561 73.5093 31.7379 73.5093C31.7198 73.5093 31.7016 73.5093 31.6835 73.5093C31.6653 73.5093 31.6472 73.5093 31.629 73.5093C31.6109 73.5093 31.5927 73.5093 31.5746 73.5093C31.5564 73.5093 31.5383 73.5093 31.5201 73.5093C31.5019 73.5093 31.4838 73.5093 31.4656 73.5093C31.4475 73.5093 31.4293 73.5093 31.4111 73.5093C31.393 73.5093 31.3748 73.5093 31.3566 73.5093C31.3385 73.5093 31.3203 73.5093 31.3021 73.5093C31.2839 73.5093 31.2658 73.5093 31.2476 73.5093C31.2294 73.5093 31.2112 73.5093 31.1931 73.5093C31.1749 73.5093 31.1567 73.5093 31.1385 73.5093C31.1203 73.5093 31.1021 73.5093 31.084 73.5093C31.0658 73.5093 31.0476 73.5093 31.0294 73.5093C31.0112 73.5093 30.993 73.5093 30.9748 73.5093C30.9566 73.5093 30.9384 73.5093 30.9203 73.5093C30.9021 73.5093 30.8839 73.5093 30.8657 73.5093C30.8475 73.5093 30.8293 73.5093 30.8111 73.5093C30.7929 73.5093 30.7747 73.5093 30.7565 73.5093C30.7383 73.5093 30.7201 73.5093 30.7019 73.5093C30.6837 73.5093 30.6655 73.5093 30.6473 73.5093C30.629 73.5093 30.6108 73.5093 30.5926 73.5093C30.5744 73.5093 30.5562 73.5093 30.538 73.5093C30.5198 73.5093 30.5016 73.5093 30.4834 73.5093C30.4652 73.5093 30.4469 73.5093 30.4287 73.5093C30.4105 73.5093 30.3923 73.5093 30.3741 73.5093C30.3559 73.5093 30.3377 73.5093 30.3194 73.5093C30.3012 73.5093 30.283 73.5093 30.2648 73.5093C30.2466 73.5093 30.2283 73.5093 30.2101 73.5093C30.1919 73.5093 30.1737 73.5093 30.1555 73.5093C30.1372 73.5093 30.119 73.5093 30.1008 73.5093C30.0826 73.5093 30.0643 73.5093 30.0461 73.5093C30.0279 73.5093 30.0097 73.5093 29.9914 73.5093C29.9732 73.5093 29.955 73.5093 29.9367 73.5093C29.9185 73.5093 29.9003 73.5093 29.8821 73.5093C29.8638 73.5093 29.8456 73.5093 29.8274 73.5093C29.8091 73.5093 29.7909 73.5093 29.7727 73.5093C29.7545 73.5093 29.7362 73.5093 29.718 73.5093C29.6998 73.5093 29.6815 73.5093 29.6633 73.5093C29.6451 73.5093 29.6268 73.5093 29.6086 73.5093C29.5904 73.5093 29.5721 73.5093 29.5539 73.5093C29.5357 73.5093 29.5174 73.5093 29.4992 73.5093C29.481 73.5093 29.4627 73.5093 29.4445 73.5093C29.4263 73.5093 29.408 73.5093 29.3898 73.5093C29.3716 73.5093 29.3533 73.5093 29.3351 73.5093C29.3169 73.5093 29.2986 73.5093 29.2804 73.5093C29.2622 73.5093 29.2439 73.5093 29.2257 73.5093C29.2075 73.5093 29.1892 73.5093 29.171 73.5093C29.1528 73.5093 29.1345 73.5093 29.1163 73.5093C29.0981 73.5093 29.0798 73.5093 29.0616 73.5093C29.0434 73.5093 29.0251 73.5093 29.0069 73.5093C28.9887 73.5093 28.9704 73.5093 28.9522 73.5093C28.934 73.5093 28.9157 73.5093 28.8975 73.5093C28.8793 73.5093 28.861 73.5093 28.8428 73.5093C28.8246 73.5093 28.8063 73.5093 28.7881 73.5093C28.7699 73.5093 28.7516 73.5093 28.7334 73.5093C28.7152 73.5093 28.697 73.5093 28.6787 73.5093C28.6605 73.5093 28.6423 73.5093 28.624 73.5093C28.6058 73.5093 28.5876 73.5093 28.5694 73.5093C28.5511 73.5093 28.5329 73.5093 28.5147 73.5093C28.4965 73.5093 28.4782 73.5093 28.46 73.5093C28.4418 73.5093 28.4236 73.5093 28.4053 73.5093C28.3871 73.5093 28.3689 73.5093 28.3507 73.5093C28.3324 73.5093 28.3142 73.5093 28.296 73.5093C28.2778 73.5093 28.2596 73.5093 28.2413 73.5093C28.2231 73.5093 28.2049 73.5093 28.1867 73.5093C28.1685 73.5093 28.1503 73.5093 28.132 73.5093C28.1138 73.5093 28.0956 73.5093 28.0774 73.5093C28.0592 73.5093 28.041 73.5093 28.0228 73.5093C28.0046 73.5093 27.9863 73.5093 27.9681 73.5093C27.9499 73.5093 27.9317 73.5093 27.9135 73.5093C27.8953 73.5093 27.8771 73.5093 27.8589 73.5093C27.8407 73.5093 27.8225 73.5093 27.8043 73.5093C27.7861 73.5093 27.7679 73.5093 27.7497 73.5093C27.7315 73.5093 27.7133 73.5093 27.6951 73.5093C27.6769 73.5093 27.6587 73.5093 27.6405 73.5093C27.6223 73.5093 27.6041 73.5093 27.5859 73.5093C27.5677 73.5093 27.5495 73.5093 27.5313 73.5093C27.5132 73.5093 27.495 73.5093 27.4768 73.5093C27.4586 73.5093 27.4404 73.5093 27.4222 73.5093C27.404 73.5093 27.3859 73.5093 27.3677 73.5093C27.3495 73.5093 27.3313 73.5093 27.3131 73.5093C27.295 73.5093 27.2768 73.5093 27.2586 73.5093C27.2404 73.5093 27.2223 73.5093 27.2041 73.5093C27.1859 73.5093 27.1678 73.5093 27.1496 73.5093C27.1314 73.5093 27.1133 73.5093 27.0951 73.5093C27.0769 73.5093 27.0588 73.5093 27.0406 73.5093C27.0224 73.5093 27.0043 73.5093 26.9861 73.5093C26.968 73.5093 26.9498 73.5093 26.9317 73.5093C26.9135 73.5093 26.8954 73.5093 26.8772 73.5093C26.8591 73.5093 26.8409 73.5093 26.8228 73.5093C26.8046 73.5093 26.7865 73.5093 26.7683 73.5093C26.7502 73.5093 26.7321 73.5093 26.7139 73.5093C26.6958 73.5093 26.6776 73.5093 26.6595 73.5093C26.6414 73.5093 26.6232 73.5093 26.6051 73.5093C26.587 73.5093 26.5689 73.5093 26.5507 73.5093C26.5326 73.5093 26.5145 73.5093 26.4964 73.5093C26.4782 73.5093 26.4601 73.5093 26.442 73.5093C26.4239 73.5093 26.4058 73.5093 26.3877 73.5093C26.3696 73.5093 26.3515 73.5093 26.3333 73.5093C26.3152 73.5093 26.2971 73.5093 26.279 73.5093C26.2609 73.5093 26.2428 73.5093 26.2247 73.5093C26.2066 73.5093 26.1886 73.5093 26.1705 73.5093C26.1524 73.5093 26.1343 73.5093 26.1162 73.5093C26.0981 73.5093 26.08 73.5093 26.0619 73.5093C26.0439 73.5093 26.0258 73.5093 26.0077 73.5093C25.9896 73.5093 25.9716 73.5093 25.9535 73.5093C25.9354 73.5093 25.9173 73.5093 25.8993 73.5093C25.8812 73.5093 25.8632 73.5093 25.8451 73.5093C25.827 73.5093 25.809 73.5093 25.7909 73.5093C25.7729 73.5093 25.7548 73.5093 25.7368 73.5093C25.7187 73.5093 25.7007 73.5093 25.6826 73.5093C25.6646 73.5093 25.6465 73.5093 25.6285 73.5093C25.6105 73.5093 25.5924 73.5093 25.5744 73.5093C25.5564 73.5093 25.5383 73.5093 25.5203 73.5093C25.5023 73.5093 25.4843 73.5093 25.4663 73.5093C25.4482 73.5093 25.4302 73.5093 25.4122 73.5093C25.3942 73.5093 25.3762 73.5093 25.3582 73.5093C25.3402 73.5093 25.3222 73.5093 25.3042 73.5093C25.2862 73.5093 25.2682 73.5093 25.2502 73.5093C25.2322 73.5093 25.2142 73.5093 25.1962 73.5093C25.1782 73.5093 25.1602 73.5093 25.1423 73.5093C25.1243 73.5093 25.1063 73.5093 25.0883 73.5093C25.0704 73.5093 25.0524 73.5093 25.0344 73.5093C25.0165 73.5093 24.9985 73.5093 24.9805 73.5093C24.9626 73.5093 24.9446 73.5093 24.9267 73.5093C24.9087 73.5093 24.8908 73.5093 24.8728 73.5093C24.8549 73.5093 24.8369 73.5093 24.819 73.5093C24.801 73.5093 24.7831 73.5093 24.7652 73.5093C24.7473 73.5093 24.7293 73.5093 24.7114 73.5093C24.6935 73.5093 24.6756 73.5093 24.6576 73.5093C24.6397 73.5093 24.6218 73.5093 24.6039 73.5093C24.586 73.5093 24.5681 73.5093 24.5502 73.5093C24.5323 73.5093 24.5144 73.5093 24.4965 73.5093C24.4786 73.5093 24.4607 73.5093 24.4428 73.5093C24.4249 73.5093 24.4071 73.5093 24.3892 73.5093C24.3713 73.5093 24.3534 73.5093 24.3356 73.5093C24.3177 73.5093 24.2998 73.5093 24.282 73.5093C24.2641 73.5093 24.2462 73.5093 24.2284 73.5093C24.2105 73.5093 24.1927 73.5093 24.1748 73.5093C24.157 73.5093 24.1392 73.5093 24.1213 73.5093C24.1035 73.5093 24.0856 73.5093 24.0678 73.5093C24.05 73.5093 24.0322 73.5093 24.0143 73.5093C23.9965 73.5093 23.9787 73.5093 23.9609 73.5093C23.9431 73.5093 23.9253 73.5093 23.9075 73.5093C23.8897 73.5093 23.8719 73.5093 23.8541 73.5093C23.8363 73.5093 23.8185 73.5093 23.8007 73.5093C23.7829 73.5093 23.7651 73.5093 23.7474 73.5093C23.7296 73.5093 23.7118 73.5093 23.6941 73.5093C23.6763 73.5093 23.6585 73.5093 23.6408 73.5093C23.623 73.5093 23.6053 73.5093 23.5875 73.5093C23.5698 73.5093 23.552 73.5093 23.5343 73.5093C23.5165 73.5093 23.4988 73.5093 23.4811 73.5093C23.4633 73.5093 23.4456 73.5093 23.4279 73.5093C23.4102 73.5093 23.3925 73.5093 23.3747 73.5093C23.357 73.5093 23.3393 73.5093 23.3216 73.5093C23.3039 73.5093 23.2862 73.5093 23.2685 73.5093C23.2508 73.5093 23.2332 73.5093 23.2155 73.5093C23.1978 73.5093 23.1801 73.5093 23.1624 73.5093C23.1448 73.5093 23.1271 73.5093 23.1094 73.5093C23.0918 73.5093 23.0741 73.5093 23.0565 73.5093C23.0388 73.5093 23.0212 73.5093 23.0035 73.5093C22.9859 73.5093 22.9683 73.5093 22.9506 73.5093C22.933 73.5093 22.9154 73.5093 22.8978 73.5093C22.8801 73.5093 22.8625 73.5093 22.8449 73.5093C22.8273 73.5093 22.8097 73.5093 22.7921 73.5093C22.7745 73.5093 22.7569 73.5093 22.7393 73.5093C22.7217 73.5093 22.7041 73.5093 22.6866 73.5093C22.669 73.5093 22.6514 73.5093 22.6338 73.5093C22.6163 73.5093 22.5987 73.5093 22.5811 73.5093C22.5636 73.5093 22.546 73.5093 22.5285 73.5093C22.5109 73.5093 22.4934 73.5093 22.4759 73.5093C22.4583 73.5093 22.4408 73.5093 22.4233 73.5093C22.4058 73.5093 22.3882 73.5093 22.3707 73.5093C22.3532 73.5093 22.3357 73.5093 22.3182 73.5093C22.3007 73.5093 22.2832 73.5093 22.2657 73.5093C22.2482 73.5093 22.2308 73.5093 22.2133 73.5093C22.1958 73.5093 22.1783 73.5093 22.1609 73.5093C22.1434 73.5093 22.1259 73.5093 22.1085 73.5093C22.091 73.5093 22.0736 73.5093 22.0561 73.5093C22.0387 73.5093 22.0212 73.5093 22.0038 73.5093C21.9864 73.5093 21.969 73.5093 21.9515 73.5093C21.9341 73.5093 21.9167 73.5093 21.8993 73.5093C21.8819 73.5093 21.8645 73.5093 21.8471 73.5093C21.8297 73.5093 21.8123 73.5093 21.7949 73.5093C21.7775 73.5093 21.7602 73.5093 21.7428 73.5093C21.7254 73.5093 21.7081 73.5093 21.6907 73.5093C21.6734 73.5093 21.656 73.5093 21.6387 73.5093C21.6213 73.5093 21.604 73.5093 21.5866 73.5093C21.5693 73.5093 21.552 73.5093 21.5347 73.5093C21.5173 73.5093 21.5 73.5093 21.4827 73.5093C21.4654 73.5093 21.4481 73.5093 21.4308 73.5093C21.4135 73.5093 21.3962 73.5093 21.3789 73.5093C21.3617 73.5093 21.3444 73.5093 21.3271 73.5093C21.3099 73.5093 21.2926 73.5093 21.2753 73.5093C21.2581 73.5093 21.2408 73.5093 21.2236 73.5093C21.2063 73.5093 21.1891 73.5093 21.1719 73.5093C21.1547 73.5093 21.1374 73.5093 21.1202 73.5093C21.103 73.5093 21.0858 73.5093 21.0686 73.5093C21.0514 73.5093 21.0342 73.5093 21.017 73.5093C20.9998 73.5093 20.9826 73.5093 20.9655 73.5093C20.9483 73.5093 20.9311 73.5093 20.9139 73.5093C20.8968 73.5093 20.8796 73.5093 20.8625 73.5093C20.8453 73.5093 20.8282 73.5093 20.8111 73.5093C20.7939 73.5093 20.7768 73.5093 20.7597 73.5093C20.7426 73.5093 20.7254 73.5093 20.7083 73.5093C20.6912 73.5093 20.6741 73.5093 20.657 73.5093C20.64 73.5093 20.6229 73.5093 20.6058 73.5093C20.5887 73.5093 20.5716 73.5093 20.5546 73.5093C20.5375 73.5093 20.5205 73.5093 20.5034 73.5093C20.4864 73.5093 20.4693 73.5093 20.4523 73.5093C20.4353 73.5093 20.4182 73.5093 20.4012 73.5093C20.3842 73.5093 20.3672 73.5093 20.3502 73.5093C20.3332 73.5093 20.3162 73.5093 20.2992 73.5093C20.2822 73.5093 20.2652 73.5093 20.2482 73.5093C20.2313 73.5093 20.2143 73.5093 20.1973 73.5093C20.1804 73.5093 20.1634 73.5093 20.1465 73.5093C20.1295 73.5093 20.1126 73.5093 20.0957 73.5093C20.0787 73.5093 20.0618 73.5093 20.0449 73.5093C20.028 73.5093 20.0111 73.5093 19.9942 73.5093C19.9773 73.5093 19.9604 73.5093 19.9435 73.5093C19.9266 73.5093 19.9097 73.5093 19.8929 73.5093C19.876 73.5093 19.8591 73.5093 19.8423 73.5093C19.8254 73.5093 19.8086 73.5093 19.7918 73.5093C19.7749 73.5093 19.7581 73.5093 19.7413 73.5093C19.7245 73.5093 19.7076 73.5093 19.6908 73.5093C19.674 73.5093 19.6572 73.5093 19.6404 73.5093C19.6237 73.5093 19.6069 73.5093 19.5901 73.5093C19.5733 73.5093 19.5566 73.5093 19.5398 73.5093C19.523 73.5093 19.5063 73.5093 19.4896 73.5093C19.4728 73.5093 19.4561 73.5093 19.4394 73.5093C19.4226 73.5093 19.4059 73.5093 19.3892 73.5093C19.3725 73.5093 19.3558 73.5093 19.3391 73.5093C19.3224 73.5093 19.3057 73.5093 19.2891 73.5093C19.2724 73.5093 19.2557 73.5093 19.2391 73.5093C19.2224 73.5093 19.2057 73.5093 19.1891 73.5093C19.1725 73.5093 19.1558 73.5093 19.1392 73.5093C19.1226 73.5093 19.106 73.5093 19.0893 73.5093C19.0727 73.5093 19.0561 73.5093 19.0395 73.5093C19.023 73.5093 19.0064 73.5093 18.9898 73.5093C18.9732 73.5093 18.9567 73.5093 18.9401 73.5093C18.9235 73.5093 18.907 73.5093 18.8905 73.5093C18.8739 73.5093 18.8574 73.5093 18.8409 73.5093C18.8243 73.5093 18.8078 73.5093 18.7913 73.5093C18.7748 73.5093 18.7583 73.5093 18.7418 73.5093C18.7253 73.5093 18.7089 73.5093 18.6924 73.5093C18.6759 73.5093 18.6595 73.5093 18.643 73.5093C18.6266 73.5093 18.6101 73.5093 18.5937 73.5093C18.5772 73.5093 18.5608 73.5093 18.5444 73.5093C18.528 73.5093 18.5116 73.5093 18.4952 73.5093C18.4788 73.5093 18.4624 73.5093 18.446 73.5093C18.4296 73.5093 18.4133 73.5093 18.3969 73.5093C18.3805 73.5093 18.3642 73.5093 18.3478 73.5093C18.3315 73.5093 18.3152 73.5093 18.2988 73.5093C18.2825 73.5093 18.2662 73.5093 18.2499 73.5093C18.2336 73.5093 18.2173 73.5093 18.201 73.5093C18.1847 73.5093 18.1684 73.5093 18.1522 73.5093C18.1359 73.5093 18.1196 73.5093 18.1034 73.5093C18.0871 73.5093 18.0709 73.5093 18.0546 73.5093C18.0384 73.5093 18.0222 73.5093 18.006 73.5093C17.9898 73.5093 17.9736 73.5093 17.9574 73.5093V75.4302C17.9736 75.4302 17.9898 75.4302 18.006 75.4302C18.0222 75.4302 18.0384 75.4302 18.0546 75.4302C18.0709 75.4302 18.0871 75.4302 18.1034 75.4302C18.1196 75.4302 18.1359 75.4302 18.1522 75.4302C18.1684 75.4302 18.1847 75.4302 18.201 75.4302C18.2173 75.4302 18.2336 75.4302 18.2499 75.4302C18.2662 75.4302 18.2825 75.4302 18.2988 75.4302C18.3152 75.4302 18.3315 75.4302 18.3478 75.4302C18.3642 75.4302 18.3805 75.4302 18.3969 75.4302C18.4133 75.4302 18.4296 75.4302 18.446 75.4302C18.4624 75.4302 18.4788 75.4302 18.4952 75.4302C18.5116 75.4302 18.528 75.4302 18.5444 75.4302C18.5608 75.4302 18.5772 75.4302 18.5937 75.4302C18.6101 75.4302 18.6266 75.4302 18.643 75.4302C18.6595 75.4302 18.6759 75.4302 18.6924 75.4302C18.7089 75.4302 18.7253 75.4302 18.7418 75.4302C18.7583 75.4302 18.7748 75.4302 18.7913 75.4302C18.8078 75.4302 18.8243 75.4302 18.8409 75.4302C18.8574 75.4302 18.8739 75.4302 18.8905 75.4302C18.907 75.4302 18.9235 75.4302 18.9401 75.4302C18.9567 75.4302 18.9732 75.4302 18.9898 75.4302C19.0064 75.4302 19.023 75.4302 19.0395 75.4302C19.0561 75.4302 19.0727 75.4302 19.0893 75.4302C19.106 75.4302 19.1226 75.4302 19.1392 75.4302C19.1558 75.4302 19.1725 75.4302 19.1891 75.4302C19.2057 75.4302 19.2224 75.4302 19.2391 75.4302C19.2557 75.4302 19.2724 75.4302 19.2891 75.4302C19.3057 75.4302 19.3224 75.4302 19.3391 75.4302C19.3558 75.4302 19.3725 75.4302 19.3892 75.4302C19.4059 75.4302 19.4226 75.4302 19.4394 75.4302C19.4561 75.4302 19.4728 75.4302 19.4896 75.4302C19.5063 75.4302 19.523 75.4302 19.5398 75.4302C19.5566 75.4302 19.5733 75.4302 19.5901 75.4302C19.6069 75.4302 19.6237 75.4302 19.6404 75.4302C19.6572 75.4302 19.674 75.4302 19.6908 75.4302C19.7076 75.4302 19.7245 75.4302 19.7413 75.4302C19.7581 75.4302 19.7749 75.4302 19.7918 75.4302C19.8086 75.4302 19.8254 75.4302 19.8423 75.4302C19.8591 75.4302 19.876 75.4302 19.8929 75.4302C19.9097 75.4302 19.9266 75.4302 19.9435 75.4302C19.9604 75.4302 19.9773 75.4302 19.9942 75.4302C20.0111 75.4302 20.028 75.4302 20.0449 75.4302C20.0618 75.4302 20.0787 75.4302 20.0957 75.4302C20.1126 75.4302 20.1295 75.4302 20.1465 75.4302C20.1634 75.4302 20.1804 75.4302 20.1973 75.4302C20.2143 75.4302 20.2313 75.4302 20.2482 75.4302C20.2652 75.4302 20.2822 75.4302 20.2992 75.4302C20.3162 75.4302 20.3332 75.4302 20.3502 75.4302C20.3672 75.4302 20.3842 75.4302 20.4012 75.4302C20.4182 75.4302 20.4353 75.4302 20.4523 75.4302C20.4693 75.4302 20.4864 75.4302 20.5034 75.4302C20.5205 75.4302 20.5375 75.4302 20.5546 75.4302C20.5716 75.4302 20.5887 75.4302 20.6058 75.4302C20.6229 75.4302 20.64 75.4302 20.657 75.4302C20.6741 75.4302 20.6912 75.4302 20.7083 75.4302C20.7254 75.4302 20.7426 75.4302 20.7597 75.4302C20.7768 75.4302 20.7939 75.4302 20.8111 75.4302C20.8282 75.4302 20.8453 75.4302 20.8625 75.4302C20.8796 75.4302 20.8968 75.4302 20.9139 75.4302C20.9311 75.4302 20.9483 75.4302 20.9655 75.4302C20.9826 75.4302 20.9998 75.4302 21.017 75.4302C21.0342 75.4302 21.0514 75.4302 21.0686 75.4302C21.0858 75.4302 21.103 75.4302 21.1202 75.4302C21.1374 75.4302 21.1547 75.4302 21.1719 75.4302C21.1891 75.4302 21.2063 75.4302 21.2236 75.4302C21.2408 75.4302 21.2581 75.4302 21.2753 75.4302C21.2926 75.4302 21.3099 75.4302 21.3271 75.4302C21.3444 75.4302 21.3617 75.4302 21.3789 75.4302C21.3962 75.4302 21.4135 75.4302 21.4308 75.4302C21.4481 75.4302 21.4654 75.4302 21.4827 75.4302C21.5 75.4302 21.5173 75.4302 21.5347 75.4302C21.552 75.4302 21.5693 75.4302 21.5866 75.4302C21.604 75.4302 21.6213 75.4302 21.6387 75.4302C21.656 75.4302 21.6734 75.4302 21.6907 75.4302C21.7081 75.4302 21.7254 75.4302 21.7428 75.4302C21.7602 75.4302 21.7775 75.4302 21.7949 75.4302C21.8123 75.4302 21.8297 75.4302 21.8471 75.4302C21.8645 75.4302 21.8819 75.4302 21.8993 75.4302C21.9167 75.4302 21.9341 75.4302 21.9515 75.4302C21.969 75.4302 21.9864 75.4302 22.0038 75.4302C22.0212 75.4302 22.0387 75.4302 22.0561 75.4302C22.0736 75.4302 22.091 75.4302 22.1085 75.4302C22.1259 75.4302 22.1434 75.4302 22.1609 75.4302C22.1783 75.4302 22.1958 75.4302 22.2133 75.4302C22.3066 75.4302 22.2249 75.4302 22.3182 75.4302C22.3357 75.4302 22.3532 75.4302 22.3707 75.4302C22.3882 75.4302 22.4058 75.4302 22.4233 75.4302C22.4408 75.4302 22.4583 75.4302 22.4759 75.4302C22.4934 75.4302 22.5109 75.4302 22.5285 75.4302C22.546 75.4302 22.5636 75.4302 22.5811 75.4302C22.5987 75.4302 22.6163 75.4302 22.6338 75.4302C22.6514 75.4302 22.669 75.4302 22.6866 75.4302C22.7041 75.4302 22.7217 75.4302 22.7393 75.4302C22.7569 75.4302 22.7745 75.4302 22.7921 75.4302C22.8097 75.4302 22.8273 75.4302 22.8449 75.4302C22.8625 75.4302 22.8801 75.4302 22.8978 75.4302C22.9154 75.4302 22.933 75.4302 22.9506 75.4302C22.9683 75.4302 22.9859 75.4302 23.0035 75.4302C23.0212 75.4302 23.0388 75.4302 23.0565 75.4302C23.0741 75.4302 23.0918 75.4302 23.1094 75.4302C23.1271 75.4302 23.1448 75.4302 23.1624 75.4302C23.1801 75.4302 23.1978 75.4302 23.2155 75.4302C23.2332 75.4302 23.2508 75.4302 23.2685 75.4302C23.2862 75.4302 23.3039 75.4302 23.3216 75.4302C23.3393 75.4302 23.357 75.4302 23.3747 75.4302C23.3925 75.4302 23.4102 75.4302 23.4279 75.4302C23.4456 75.4302 23.4633 75.4302 23.4811 75.4302C23.4988 75.4302 23.5165 75.4302 23.5343 75.4302C23.552 75.4302 23.5698 75.4302 23.5875 75.4302C23.6053 75.4302 23.623 75.4302 23.6408 75.4302C23.6585 75.4302 23.6763 75.4302 23.6941 75.4302C23.7118 75.4302 23.7296 75.4302 23.7474 75.4302C23.7651 75.4302 23.7829 75.4302 23.8007 75.4302C23.8185 75.4302 23.8363 75.4302 23.8541 75.4302C23.8719 75.4302 23.8897 75.4302 23.9075 75.4302C23.9253 75.4302 23.9431 75.4302 23.9609 75.4302C23.9787 75.4302 23.9965 75.4302 24.0143 75.4302C24.0322 75.4302 24.05 75.4302 24.0678 75.4302C24.0856 75.4302 24.1035 75.4302 24.1213 75.4302C24.1392 75.4302 24.157 75.4302 24.1748 75.4302C24.1927 75.4302 24.2105 75.4302 24.2284 75.4302C24.2462 75.4302 24.2641 75.4302 24.282 75.4302C24.2998 75.4302 24.3177 75.4302 24.3356 75.4302C24.3534 75.4302 24.3713 75.4302 24.3892 75.4302C24.4071 75.4302 24.4249 75.4302 24.4428 75.4302C24.4607 75.4302 24.4786 75.4302 24.4965 75.4302C24.5144 75.4302 24.5323 75.4302 24.5502 75.4302C24.5681 75.4302 24.586 75.4302 24.6039 75.4302C24.6218 75.4302 24.6397 75.4302 24.6576 75.4302C24.6756 75.4302 24.6935 75.4302 24.7114 75.4302C24.7293 75.4302 24.7473 75.4302 24.7652 75.4302C24.7831 75.4302 24.801 75.4302 24.819 75.4302C24.8369 75.4302 24.8549 75.4302 24.8728 75.4302C24.8908 75.4302 24.9087 75.4302 24.9267 75.4302C24.9446 75.4302 24.9626 75.4302 24.9805 75.4302C24.9985 75.4302 25.0165 75.4302 25.0344 75.4302C25.0524 75.4302 25.0704 75.4302 25.0883 75.4302C25.1063 75.4302 25.1243 75.4302 25.1423 75.4302C25.1602 75.4302 25.1782 75.4302 25.1962 75.4302C25.2142 75.4302 25.2322 75.4302 25.2502 75.4302C25.2682 75.4302 25.2862 75.4302 25.3042 75.4302C25.3222 75.4302 25.3402 75.4302 25.3582 75.4302C25.3762 75.4302 25.3942 75.4302 25.4122 75.4302C25.4302 75.4302 25.4482 75.4302 25.4663 75.4302C25.4843 75.4302 25.5023 75.4302 25.5203 75.4302C25.5383 75.4302 25.5564 75.4302 25.5744 75.4302C25.5924 75.4302 25.6105 75.4302 25.6285 75.4302C25.6465 75.4302 25.6646 75.4302 25.6826 75.4302C25.7007 75.4302 25.7187 75.4302 25.7368 75.4302C25.7548 75.4302 25.7729 75.4302 25.7909 75.4302C25.809 75.4302 25.827 75.4302 25.8451 75.4302C25.8632 75.4302 25.8812 75.4302 25.8993 75.4302C25.9173 75.4302 25.9354 75.4302 25.9535 75.4302C25.9716 75.4302 25.9896 75.4302 26.0077 75.4302C26.0258 75.4302 26.0439 75.4302 26.0619 75.4302C26.08 75.4302 26.0981 75.4302 26.1162 75.4302C26.1343 75.4302 26.1524 75.4302 26.1705 75.4302C26.1886 75.4302 26.2066 75.4302 26.2247 75.4302C26.2428 75.4302 26.2609 75.4302 26.279 75.4302C26.2971 75.4302 26.3152 75.4302 26.3333 75.4302C26.3515 75.4302 26.3696 75.4302 26.3877 75.4302C26.4058 75.4302 26.4239 75.4302 26.442 75.4302C26.4601 75.4302 26.4782 75.4302 26.4964 75.4302C26.5145 75.4302 26.5326 75.4302 26.5507 75.4302C26.5689 75.4302 26.587 75.4302 26.6051 75.4302C26.6232 75.4302 26.6414 75.4302 26.6595 75.4302C26.6776 75.4302 26.6958 75.4302 26.7139 75.4302C26.7321 75.4302 26.7502 75.4302 26.7683 75.4302C26.7865 75.4302 26.8046 75.4302 26.8228 75.4302C26.8409 75.4302 26.8591 75.4302 26.8772 75.4302C26.8954 75.4302 26.9135 75.4302 26.9317 75.4302C26.9498 75.4302 26.968 75.4302 26.9861 75.4302C27.0043 75.4302 27.0224 75.4302 27.0406 75.4302C27.0588 75.4302 27.0769 75.4302 27.0951 75.4302C27.1133 75.4302 27.1314 75.4302 27.1496 75.4302C27.1678 75.4302 27.1859 75.4302 27.2041 75.4302C27.2223 75.4302 27.2404 75.4302 27.2586 75.4302C27.2768 75.4302 27.295 75.4302 27.3131 75.4302C27.3313 75.4302 27.3495 75.4302 27.3677 75.4302C27.3859 75.4302 27.404 75.4302 27.4222 75.4302C27.4404 75.4302 27.4586 75.4302 27.4768 75.4302C27.495 75.4302 27.5132 75.4302 27.5313 75.4302C27.5495 75.4302 27.5677 75.4302 27.5859 75.4302C27.6041 75.4302 27.6223 75.4302 27.6405 75.4302C27.6587 75.4302 27.6769 75.4302 27.6951 75.4302C27.7133 75.4302 27.7315 75.4302 27.7497 75.4302C27.7679 75.4302 27.7861 75.4302 27.8043 75.4302C27.8225 75.4302 27.8407 75.4302 27.8589 75.4302C27.8771 75.4302 27.8953 75.4302 27.9135 75.4302C27.9317 75.4302 27.9499 75.4302 27.9681 75.4302C27.9863 75.4302 28.0046 75.4302 28.0228 75.4302C28.041 75.4302 28.0592 75.4302 28.0774 75.4302C28.0956 75.4302 28.1138 75.4302 28.132 75.4302C28.1503 75.4302 28.1685 75.4302 28.1867 75.4302C28.2049 75.4302 28.2231 75.4302 28.2413 75.4302C28.2596 75.4302 28.2778 75.4302 28.296 75.4302C28.3142 75.4302 28.3324 75.4302 28.3507 75.4302C28.3689 75.4302 28.3871 75.4302 28.4053 75.4302C28.4236 75.4302 28.4418 75.4302 28.46 75.4302C28.4782 75.4302 28.4965 75.4302 28.5147 75.4302C28.5329 75.4302 28.5511 75.4302 28.5694 75.4302C28.5876 75.4302 28.6058 75.4302 28.624 75.4302C28.6423 75.4302 28.6605 75.4302 28.6787 75.4302C28.697 75.4302 28.7152 75.4302 28.7334 75.4302C28.7516 75.4302 28.7699 75.4302 28.7881 75.4302C28.8063 75.4302 28.8246 75.4302 28.8428 75.4302C28.861 75.4302 28.8793 75.4302 28.8975 75.4302C28.9157 75.4302 28.934 75.4302 28.9522 75.4302C28.9704 75.4302 28.9887 75.4302 29.0069 75.4302C29.0251 75.4302 29.0434 75.4302 29.0616 75.4302C29.0798 75.4302 29.0981 75.4302 29.1163 75.4302C29.1345 75.4302 29.1528 75.4302 29.171 75.4302C29.1892 75.4302 29.2075 75.4302 29.2257 75.4302C29.2439 75.4302 29.2622 75.4302 29.2804 75.4302C29.2986 75.4302 29.3169 75.4302 29.3351 75.4302C29.3533 75.4302 29.3716 75.4302 29.3898 75.4302C29.408 75.4302 29.4263 75.4302 29.4445 75.4302C29.4627 75.4302 29.481 75.4302 29.4992 75.4302C29.5174 75.4302 29.5357 75.4302 29.5539 75.4302C29.5721 75.4302 29.5904 75.4302 29.6086 75.4302C29.6268 75.4302 29.6451 75.4302 29.6633 75.4302C29.6815 75.4302 29.6998 75.4302 29.718 75.4302C29.7362 75.4302 29.7545 75.4302 29.7727 75.4302C29.7909 75.4302 29.8091 75.4302 29.8274 75.4302C29.8456 75.4302 29.8638 75.4302 29.8821 75.4302C29.9003 75.4302 29.9185 75.4302 29.9367 75.4302C29.955 75.4302 29.9732 75.4302 29.9914 75.4302C30.0097 75.4302 30.0279 75.4302 30.0461 75.4302C30.0643 75.4302 30.0826 75.4302 30.1008 75.4302C30.119 75.4302 30.1372 75.4302 30.1555 75.4302C30.1737 75.4302 30.1919 75.4302 30.2101 75.4302C30.2283 75.4302 30.2466 75.4302 30.2648 75.4302C30.283 75.4302 30.3012 75.4302 30.3194 75.4302C30.3377 75.4302 30.3559 75.4302 30.3741 75.4302C30.3923 75.4302 30.4105 75.4302 30.4287 75.4302C30.4469 75.4302 30.4652 75.4302 30.4834 75.4302C30.5016 75.4302 30.5198 75.4302 30.538 75.4302C30.5562 75.4302 30.5744 75.4302 30.5926 75.4302C30.6108 75.4302 30.629 75.4302 30.6473 75.4302C30.6655 75.4302 30.6837 75.4302 30.7019 75.4302C30.7201 75.4302 30.7383 75.4302 30.7565 75.4302C30.7747 75.4302 30.7929 75.4302 30.8111 75.4302C30.8293 75.4302 30.8475 75.4302 30.8657 75.4302C30.8839 75.4302 30.9021 75.4302 30.9203 75.4302C30.9384 75.4302 30.9566 75.4302 30.9748 75.4302C30.993 75.4302 31.0112 75.4302 31.0294 75.4302C31.0476 75.4302 31.0658 75.4302 31.084 75.4302C31.1021 75.4302 31.1203 75.4302 31.1385 75.4302C31.1567 75.4302 31.1749 75.4302 31.1931 75.4302C31.2112 75.4302 31.2294 75.4302 31.2476 75.4302C31.2658 75.4302 31.2839 75.4302 31.3021 75.4302C31.3203 75.4302 31.3385 75.4302 31.3566 75.4302C31.3748 75.4302 31.393 75.4302 31.4111 75.4302C31.4293 75.4302 31.4475 75.4302 31.4656 75.4302C31.4838 75.4302 31.5019 75.4302 31.5201 75.4302C31.5383 75.4302 31.5564 75.4302 31.5746 75.4302C31.5927 75.4302 31.6109 75.4302 31.629 75.4302C31.6472 75.4302 31.6653 75.4302 31.6835 75.4302C31.7016 75.4302 31.7198 75.4302 31.7379 75.4302C31.7561 75.4302 31.7742 75.4302 31.7924 75.4302C31.8105 75.4302 31.8286 75.4302 31.8468 75.4302C31.8649 75.4302 31.883 75.4302 31.9012 75.4302C31.9193 75.4302 31.9374 75.4302 31.9556 75.4302C31.9737 75.4302 31.9918 75.4302 32.0099 75.4302C32.0281 75.4302 32.0462 75.4302 32.0643 75.4302C32.0824 75.4302 32.1005 75.4302 32.1186 75.4302C32.1368 75.4302 32.1549 75.4302 32.173 75.4302C32.1911 75.4302 32.2092 75.4302 32.2273 75.4302C32.2454 75.4302 32.2635 75.4302 32.2816 75.4302C32.2997 75.4302 32.3178 75.4302 32.3359 75.4302C32.354 75.4302 32.3721 75.4302 32.3902 75.4302C32.4083 75.4302 32.4263 75.4302 32.4444 75.4302C32.4625 75.4302 32.4806 75.4302 32.4987 75.4302C32.5168 75.4302 32.5348 75.4302 32.5529 75.4302C32.571 75.4302 32.589 75.4302 32.6071 75.4302C32.6252 75.4302 32.6432 75.4302 32.6613 75.4302C32.6794 75.4302 32.6974 75.4302 32.7155 75.4302C32.7336 75.4302 32.7516 75.4302 32.7697 75.4302C32.7877 75.4302 32.8058 75.4302 32.8238 75.4302C32.8419 75.4302 32.8599 75.4302 32.8779 75.4302C32.896 75.4302 32.914 75.4302 32.932 75.4302C32.9501 75.4302 32.9681 75.4302 32.9861 75.4302C33.0042 75.4302 33.0222 75.4302 33.0402 75.4302C33.0582 75.4302 33.0763 75.4302 33.0943 75.4302C33.1123 75.4302 33.1303 75.4302 33.1483 75.4302C33.1663 75.4302 33.1843 75.4302 33.2023 75.4302C33.2203 75.4302 33.2383 75.4302 33.2563 75.4302C33.2743 75.4302 33.2923 75.4302 33.3103 75.4302C33.3283 75.4302 33.3463 75.4302 33.3643 75.4302C33.3823 75.4302 33.4002 75.4302 33.4182 75.4302C33.4362 75.4302 33.4542 75.4302 33.4721 75.4302C33.4901 75.4302 33.5081 75.4302 33.5261 75.4302C33.544 75.4302 33.562 75.4302 33.5799 75.4302C33.5979 75.4302 33.6158 75.4302 33.6338 75.4302C33.6517 75.4302 33.6697 75.4302 33.6876 75.4302C33.7056 75.4302 33.7235 75.4302 33.7414 75.4302C33.7594 75.4302 33.7773 75.4302 33.7952 75.4302C33.8132 75.4302 33.8311 75.4302 33.849 75.4302C33.8669 75.4302 33.8849 75.4302 33.9028 75.4302C33.9207 75.4302 33.9386 75.4302 33.9565 75.4302C33.9744 75.4302 33.9923 75.4302 34.0102 75.4302C34.0281 75.4302 34.046 75.4302 34.0639 75.4302C34.0818 75.4302 34.0997 75.4302 34.1175 75.4302C34.1354 75.4302 34.1533 75.4302 34.1712 75.4302C34.1891 75.4302 34.2069 75.4302 34.2248 75.4302C34.2427 75.4302 34.2605 75.4302 34.2784 75.4302C34.2962 75.4302 34.3141 75.4302 34.3319 75.4302C34.3498 75.4302 34.3676 75.4302 34.3855 75.4302C34.4033 75.4302 34.4212 75.4302 34.439 75.4302C34.4568 75.4302 34.4747 75.4302 34.4925 75.4302C34.5103 75.4302 34.5281 75.4302 34.5459 75.4302C34.5638 75.4302 34.5816 75.4302 34.5994 75.4302C34.6172 75.4302 34.635 75.4302 34.6528 75.4302C34.6706 75.4302 34.6884 75.4302 34.7062 75.4302C34.724 75.4302 34.7417 75.4302 34.7595 75.4302C34.7773 75.4302 34.7951 75.4302 34.8129 75.4302C34.8306 75.4302 34.8484 75.4302 34.8662 75.4302C34.8839 75.4302 34.9017 75.4302 34.9194 75.4302C34.9372 75.4302 34.9549 75.4302 34.9727 75.4302C34.9904 75.4302 35.0082 75.4302 35.0259 75.4302C35.0436 75.4302 35.0614 75.4302 35.0791 75.4302C35.0968 75.4302 35.1146 75.4302 35.1323 75.4302C35.15 75.4302 35.1677 75.4302 35.1854 75.4302C35.2031 75.4302 35.2208 75.4302 35.2385 75.4302C35.2562 75.4302 35.2739 75.4302 35.2916 75.4302C35.3093 75.4302 35.327 75.4302 35.3446 75.4302C35.3623 75.4302 35.38 75.4302 35.3977 75.4302C35.4153 75.4302 35.433 75.4302 35.4506 75.4302C35.4683 75.4302 35.486 75.4302 35.5036 75.4302C35.5212 75.4302 35.5389 75.4302 35.5565 75.4302C35.5742 75.4302 35.5918 75.4302 35.6094 75.4302C35.6271 75.4302 35.6447 75.4302 35.6623 75.4302C35.6799 75.4302 35.6975 75.4302 35.7151 75.4302C35.7327 75.4302 35.7503 75.4302 35.7679 75.4302C35.7855 75.4302 35.8031 75.4302 35.8207 75.4302C35.8383 75.4302 35.8559 75.4302 35.8734 75.4302C35.891 75.4302 35.9086 75.4302 35.9261 75.4302C35.9437 75.4302 35.9613 75.4302 35.9788 75.4302C35.9964 75.4302 36.0139 75.4302 36.0315 75.4302C36.049 75.4302 36.0665 75.4302 36.0841 75.4302C36.1016 75.4302 36.1191 75.4302 36.1366 75.4302C36.1542 75.4302 36.1717 75.4302 36.1892 75.4302C36.2067 75.4302 36.2242 75.4302 36.2417 75.4302C36.2592 75.4302 36.2767 75.4302 36.2942 75.4302C36.3116 75.4302 36.3291 75.4302 36.3466 75.4302C36.3641 75.4302 36.3815 75.4302 36.399 75.4302C36.4165 75.4302 36.4339 75.4302 36.4514 75.4302C36.4688 75.4302 36.4863 75.4302 36.5037 75.4302C36.5211 75.4302 36.5386 75.4302 36.556 75.4302C36.5734 75.4302 36.5908 75.4302 36.6083 75.4302C36.6257 75.4302 36.6431 75.4302 36.6605 75.4302C36.6779 75.4302 36.6953 75.4302 36.7127 75.4302C36.7301 75.4302 36.7474 75.4302 36.7648 75.4302C36.7822 75.4302 36.7996 75.4302 36.8169 75.4302C36.8343 75.4302 36.8517 75.4302 36.869 75.4302C36.8864 75.4302 36.9037 75.4302 36.921 75.4302C36.9384 75.4302 36.9557 75.4302 36.9731 75.4302C36.9904 75.4302 37.0077 75.4302 37.025 75.4302C37.0423 75.4302 37.0596 75.4302 37.0769 75.4302C37.0942 75.4302 37.1115 75.4302 37.1288 75.4302C37.1461 75.4302 37.1634 75.4302 37.1807 75.4302C37.198 75.4302 37.2152 75.4302 37.2325 75.4302C37.2498 75.4302 37.267 75.4302 37.2843 75.4302C37.3015 75.4302 37.3188 75.4302 37.336 75.4302C37.3532 75.4302 37.3705 75.4302 37.3877 75.4302C37.4049 75.4302 37.4221 75.4302 37.4393 75.4302C37.4565 75.4302 37.4737 75.4302 37.4909 75.4302C37.5081 75.4302 37.5253 75.4302 37.5425 75.4302C37.5597 75.4302 37.5769 75.4302 37.594 75.4302C37.6112 75.4302 37.6284 75.4302 37.6455 75.4302C37.6627 75.4302 37.6798 75.4302 37.697 75.4302C37.7141 75.4302 37.7313 75.4302 37.7484 75.4302C37.7655 75.4302 37.7826 75.4302 37.7997 75.4302C37.8169 75.4302 37.834 75.4302 37.8511 75.4302C37.8682 75.4302 37.8853 75.4302 37.9023 75.4302C37.9194 75.4302 37.9365 75.4302 37.9536 75.4302C37.9706 75.4302 37.9877 75.4302 38.0048 75.4302C38.0218 75.4302 38.0389 75.4302 38.0559 75.4302C38.073 75.4302 38.09 75.4302 38.107 75.4302C38.1241 75.4302 38.1411 75.4302 38.1581 75.4302C38.1751 75.4302 38.1921 75.4302 38.2091 75.4302C38.2261 75.4302 38.2431 75.4302 38.2601 75.4302C38.2771 75.4302 38.294 75.4302 38.311 75.4302C38.328 75.4302 38.3449 75.4302 38.3619 75.4302C38.3788 75.4302 38.3958 75.4302 38.4127 75.4302C38.4297 75.4302 38.4466 75.4302 38.4635 75.4302C38.4804 75.4302 38.4974 75.4302 38.5143 75.4302C38.5312 75.4302 38.5481 75.4302 38.565 75.4302C38.5819 75.4302 38.5987 75.4302 38.6156 75.4302C38.6325 75.4302 38.6494 75.4302 38.6662 75.4302C38.6831 75.4302 38.7 75.4302 38.7168 75.4302C38.7336 75.4302 38.7505 75.4302 38.7673 75.4302C38.7841 75.4302 38.801 75.4302 38.8178 75.4302C38.8346 75.4302 38.8514 75.4302 38.8682 75.4302C38.885 75.4302 38.9018 75.4302 38.9186 75.4302C38.9354 75.4302 38.9521 75.4302 38.9689 75.4302C38.9857 75.4302 39.0024 75.4302 39.0192 75.4302C39.0359 75.4302 39.0527 75.4302 39.0694 75.4302C39.0861 75.4302 39.1029 75.4302 39.1196 75.4302C39.1363 75.4302 39.153 75.4302 39.1697 75.4302C39.1864 75.4302 39.2031 75.4302 39.2198 75.4302C39.2365 75.4302 39.2532 75.4302 39.2698 75.4302C39.2865 75.4302 39.3032 75.4302 39.3198 75.4302C39.3365 75.4302 39.3531 75.4302 39.3697 75.4302C39.3864 75.4302 39.403 75.4302 39.4196 75.4302C39.4362 75.4302 39.4528 75.4302 39.4694 75.4302C39.486 75.4302 39.5026 75.4302 39.5192 75.4302C39.5358 75.4302 39.5524 75.4302 39.569 75.4302C39.5855 75.4302 39.6021 75.4302 39.6186 75.4302C39.6352 75.4302 39.6517 75.4302 39.6683 75.4302C39.6848 75.4302 39.7013 75.4302 39.7178 75.4302C39.7343 75.4302 39.7508 75.4302 39.7673 75.4302C39.7838 75.4302 39.8003 75.4302 39.8168 75.4302C39.8333 75.4302 39.8498 75.4302 39.8662 75.4302C39.8827 75.4302 39.8991 75.4302 39.9156 75.4302C39.932 75.4302 39.9485 75.4302 39.9649 75.4302C39.9813 75.4302 39.9977 75.4302 40.0142 75.4302C40.0306 75.4302 40.047 75.4302 40.0634 75.4302C40.0797 75.4302 40.0961 75.4302 40.1125 75.4302C40.1289 75.4302 40.1452 75.4302 40.1616 75.4302C40.1779 75.4302 40.1943 75.4302 40.2106 75.4302C40.227 75.4302 40.2433 75.4302 40.2596 75.4302C40.2759 75.4302 40.2922 75.4302 40.3085 75.4302C40.3248 75.4302 40.3411 75.4302 40.3574 75.4302C40.3737 75.4302 40.39 75.4302 40.4062 75.4302C40.4225 75.4302 40.4387 75.4302 40.455 75.4302C40.4712 75.4302 40.4875 75.4302 40.5037 75.4302C40.5199 75.4302 40.5361 75.4302 40.5523 75.4302C40.5685 75.4302 40.5847 75.4302 40.6009 75.4302C40.6171 75.4302 40.6333 75.4302 40.6495 75.4302C40.6656 75.4302 40.6818 75.4302 40.6979 75.4302C40.7141 75.4302 40.7302 75.4302 40.7464 75.4302C40.7625 75.4302 40.7786 75.4302 40.7947 75.4302C40.8108 75.4302 40.8269 75.4302 40.843 75.4302C40.8591 75.4302 40.8752 75.4302 40.8913 75.4302C40.9073 75.4302 40.9234 75.4302 40.9394 75.4302C40.9555 75.4302 40.9715 75.4302 40.9876 75.4302C41.0036 75.4302 41.0196 75.4302 41.0356 75.4302C41.0517 75.4302 41.0677 75.4302 41.0836 75.4302C41.0996 75.4302 41.1156 75.4302 41.1316 75.4302C41.1476 75.4302 41.1635 75.4302 41.1795 75.4302C41.1954 75.4302 41.2114 75.4302 41.2273 75.4302C41.2432 75.4302 41.2592 75.4302 41.2751 75.4302C41.291 75.4302 41.3069 75.4302 41.3228 75.4302C41.3387 75.4302 41.3546 75.4302 41.3704 75.4302C41.3863 75.4302 41.4022 75.4302 41.418 75.4302C41.4339 75.4302 41.4497 75.4302 41.4655 75.4302C41.4814 75.4302 41.4972 75.4302 41.513 75.4302C41.5288 75.4302 41.5446 75.4302 41.5604 75.4302C41.5762 75.4302 41.592 75.4302 41.6077 75.4302C41.6235 75.4302 41.6393 75.4302 41.655 75.4302C41.6707 75.4302 41.6865 75.4302 41.7022 75.4302C41.7179 75.4302 41.7337 75.4302 41.7494 75.4302C41.7651 75.4302 41.7808 75.4302 41.7964 75.4302C41.8121 75.4302 41.8278 75.4302 41.8435 75.4302C41.8591 75.4302 41.8748 75.4302 41.8904 75.4302C41.9061 75.4302 41.9217 75.4302 41.9373 75.4302C41.9529 75.4302 41.9685 75.4302 41.9841 75.4302C41.9997 75.4302 42.0153 75.4302 42.0309 75.4302C42.0465 75.4302 42.062 75.4302 42.0776 75.4302C42.0932 75.4302 42.1087 75.4302 42.1242 75.4302C42.1398 75.4302 42.1553 75.4302 42.1708 75.4302C42.1863 75.4302 42.2018 75.4302 42.2173 75.4302C42.2328 75.4302 42.2483 75.4302 42.2637 75.4302C42.2792 75.4302 42.2947 75.4302 42.3101 75.4302C42.3256 75.4302 42.341 75.4302 42.3564 75.4302C42.3718 75.4302 42.3872 75.4302 42.4026 75.4302C42.4846 75.4302 42.413 75.4302 42.4949 75.4302C42.5103 75.4302 42.5256 75.4302 42.5409 75.4302C42.5563 75.4302 42.5716 75.4302 42.5869 75.4302C42.6022 75.4302 42.6175 75.4302 42.6328 75.4302C42.6481 75.4302 42.6634 75.4302 42.6786 75.4302C42.6939 75.4302 42.7092 75.4302 42.7244 75.4302C42.7396 75.4302 42.7549 75.4302 42.7701 75.4302C42.7853 75.4302 42.8005 75.4302 42.8157 75.4302C42.8309 75.4302 42.8461 75.4302 42.8613 75.4302C42.8764 75.4302 42.8916 75.4302 42.9067 75.4302C42.9219 75.4302 42.937 75.4302 42.9522 75.4302C42.9673 75.4302 42.9824 75.4302 42.9975 75.4302C43.0126 75.4302 43.0277 75.4302 43.0428 75.4302C43.0578 75.4302 43.0729 75.4302 43.088 75.4302C43.103 75.4302 43.1181 75.4302 43.1331 75.4302C43.1481 75.4302 43.1632 75.4302 43.1782 75.4302C43.1932 75.4302 43.2082 75.4302 43.2231 75.4302C43.2381 75.4302 43.2531 75.4302 43.2681 75.4302C43.283 75.4302 43.298 75.4302 43.3129 75.4302C43.3278 75.4302 43.3428 75.4302 43.3577 75.4302C43.3726 75.4302 43.3875 75.4302 43.4024 75.4302C43.4173 75.4302 43.4321 75.4302 43.447 75.4302C43.4619 75.4302 43.4767 75.4302 43.4915 75.4302C43.5064 75.4302 43.5212 75.4302 43.536 75.4302C43.5508 75.4302 43.5656 75.4302 43.5804 75.4302C43.5952 75.4302 43.61 75.4302 43.6248 75.4302C43.6395 75.4302 43.6543 75.4302 43.669 75.4302C43.6837 75.4302 43.6985 75.4302 43.7132 75.4302C43.7279 75.4302 43.7426 75.4302 43.7573 75.4302C43.772 75.4302 43.7867 75.4302 43.8013 75.4302C43.816 75.4302 43.8306 75.4302 43.8453 75.4302C43.8599 75.4302 43.8745 75.4302 43.8892 75.4302C43.9038 75.4302 43.9184 75.4302 43.933 75.4302C43.9476 75.4302 43.9621 75.4302 43.9767 75.4302C43.9913 75.4302 44.0058 75.4302 44.0203 75.4302C44.0349 75.4302 44.0494 75.4302 44.0639 75.4302C44.0784 75.4302 44.0929 75.4302 44.1074 75.4302C44.1219 75.4302 44.1364 75.4302 44.1508 75.4302C44.1653 75.4302 44.1797 75.4302 44.1942 75.4302C44.2086 75.4302 44.223 75.4302 44.2374 75.4302C44.2519 75.4302 44.2662 75.4302 44.2806 75.4302C44.295 75.4302 44.3094 75.4302 44.3237 75.4302C44.3381 75.4302 44.3524 75.4302 44.3668 75.4302V73.5093ZM12.5563 70.7633C10.5061 66.6879 9.96382 61.221 9.96043 56.6846L8.03957 56.6861C8.04301 61.2963 8.58174 67.1369 10.8403 71.6265L12.5563 70.7633ZM17.5753 49.6186H44.3064V47.6978H17.5753V49.6186ZM17.9574 73.5093C15.6032 73.5093 13.4773 72.5941 12.5563 70.7633L10.8403 71.6265C12.2133 74.3556 15.2071 75.4302 17.9574 75.4302V73.5093ZM49.6435 70.7395C48.8122 72.5816 46.7238 73.5093 44.3668 73.5093V75.4302C47.1141 75.4302 50.126 74.3401 51.3943 71.5296L49.6435 70.7395ZM53.9909 57.1658C54.1423 51.7397 49.5921 47.6978 44.3064 47.6978V49.6186C48.6555 49.6186 52.1881 52.9074 52.0708 57.1122L53.9909 57.1658ZM9.96043 56.6846C9.95743 52.6678 13.3909 49.6186 17.5753 49.6186V47.6978C12.5009 47.6978 8.03566 51.4441 8.03957 56.6861L9.96043 56.6846Z" fill="#150C0C" mask="url(#path-3-inside-1)"/>
<mask id="path-5-inside-2" fill="white">
<path fill-rule="evenodd" clip-rule="evenodd" d="M23.5249 48.6584H25.8812C26.5531 45.0189 26.5531 40.375 26.5531 40.375H35.7115C35.7115 40.375 35.7115 45.0189 36.3833 48.6584H38.4999C36.5194 50.45 33.8933 51.5411 31.0124 51.5411C28.1315 51.5411 25.5054 50.45 23.5249 48.6584Z"/>
</mask>
<path fill-rule="evenodd" clip-rule="evenodd" d="M23.5249 48.6584H25.8812C26.5531 45.0189 26.5531 40.375 26.5531 40.375H35.7115C35.7115 40.375 35.7115 45.0189 36.3833 48.6584H38.4999C36.5194 50.45 33.8933 51.5411 31.0124 51.5411C28.1315 51.5411 25.5054 50.45 23.5249 48.6584Z" fill="#F8D9CE"/>
<path d="M23.5249 48.6584V47.698H21.0315L22.8806 49.3706L23.5249 48.6584ZM25.8812 48.6584V49.6188H26.6806L26.8257 48.8328L25.8812 48.6584ZM26.5531 40.375V39.4146H25.5927L25.5927 40.375L26.5531 40.375ZM35.7115 40.375L36.6719 40.375V39.4146H35.7115V40.375ZM36.3833 48.6584L35.4389 48.8328L35.584 49.6188H36.3833V48.6584ZM38.4999 48.6584L39.1442 49.3706L40.9933 47.698H38.4999V48.6584ZM23.5249 49.6188H25.8812V47.698H23.5249V49.6188ZM26.8257 48.8328C27.1728 46.9525 27.3434 44.8335 27.4282 43.2018C27.4708 42.3822 27.4921 41.678 27.5028 41.178C27.5081 40.9278 27.5108 40.7285 27.5122 40.5911C27.5128 40.5223 27.5132 40.469 27.5133 40.4326C27.5134 40.4143 27.5135 40.4003 27.5135 40.3906C27.5135 40.3858 27.5135 40.3821 27.5135 40.3795C27.5135 40.3782 27.5135 40.3771 27.5135 40.3764C27.5135 40.376 27.5135 40.3757 27.5135 40.3755C27.5135 40.3754 27.5135 40.3752 27.5135 40.3752C27.5135 40.3751 27.5135 40.375 26.5531 40.375C25.5927 40.375 25.5927 40.3749 25.5927 40.3749C25.5927 40.3749 25.5927 40.3749 25.5927 40.3749C25.5927 40.375 25.5927 40.3751 25.5927 40.3753C25.5927 40.3757 25.5927 40.3763 25.5927 40.3773C25.5926 40.3792 25.5926 40.3821 25.5926 40.3862C25.5926 40.3944 25.5926 40.4069 25.5925 40.4235C25.5923 40.4569 25.592 40.5069 25.5914 40.5723C25.5901 40.703 25.5875 40.8949 25.5824 41.137C25.572 41.6215 25.5514 42.3057 25.51 43.1021C25.4268 44.7021 25.2615 46.7249 24.9367 48.484L26.8257 48.8328ZM26.5531 41.3354H35.7115V39.4146H26.5531V41.3354ZM35.7115 40.375C34.751 40.375 34.751 40.3751 34.751 40.3752C34.751 40.3752 34.751 40.3754 34.751 40.3755C34.751 40.3757 34.751 40.376 34.751 40.3764C34.751 40.3771 34.751 40.3782 34.751 40.3795C34.751 40.3821 34.751 40.3858 34.7511 40.3906C34.7511 40.4003 34.7511 40.4143 34.7512 40.4326C34.7514 40.469 34.7517 40.5223 34.7524 40.5911C34.7537 40.7285 34.7564 40.9278 34.7618 41.178C34.7724 41.678 34.7937 42.3822 34.8363 43.2018C34.9211 44.8335 35.0917 46.9525 35.4389 48.8328L37.3278 48.484C37.003 46.7249 36.8377 44.7021 36.7546 43.1021C36.7132 42.3057 36.6925 41.6215 36.6822 41.137C36.677 40.8949 36.6744 40.703 36.6732 40.5723C36.6725 40.5069 36.6722 40.4569 36.672 40.4235C36.672 40.4069 36.6719 40.3944 36.6719 40.3862C36.6719 40.3821 36.6719 40.3792 36.6719 40.3773C36.6719 40.3763 36.6719 40.3757 36.6719 40.3753C36.6719 40.3751 36.6719 40.375 36.6719 40.3749C36.6719 40.3749 36.6719 40.3749 36.6719 40.3749C36.6719 40.375 36.6719 40.375 35.7115 40.375ZM36.3833 49.6188H38.4999V47.698H36.3833V49.6188ZM37.8556 47.9461C36.0448 49.5842 33.6461 50.5807 31.0124 50.5807V52.5015C34.1406 52.5015 36.994 51.3157 39.1442 49.3706L37.8556 47.9461ZM31.0124 50.5807C28.3787 50.5807 25.98 49.5842 24.1692 47.9461L22.8806 49.3706C25.0308 51.3157 27.8842 52.5015 31.0124 52.5015V50.5807Z" fill="#150C0C" mask="url(#path-5-inside-2)"/>
<mask id="path-7-inside-3" fill="white">
<path fill-rule="evenodd" clip-rule="evenodd" d="M9.00049 56.6029C9.04377 52.0668 12.8875 48.7335 17.4232 48.6604H23.527V74.4707H17.9575C15.4053 74.4707 12.8454 73.4759 11.6984 71.1959C9.57034 66.9657 9.01696 61.3974 9.00049 56.8543V56.6029ZM44.4404 48.6602C49.1985 48.7273 53.1641 52.3692 53.031 57.14C52.9043 61.681 52.3202 67.1444 50.519 71.1356C49.4692 73.4619 46.9191 74.4707 44.3669 74.4707H39.2542V48.6602H44.4404Z"/>
</mask>
<path fill-rule="evenodd" clip-rule="evenodd" d="M9.00049 56.6029C9.04377 52.0668 12.8875 48.7335 17.4232 48.6604H23.527V74.4707H17.9575C15.4053 74.4707 12.8454 73.4759 11.6984 71.1959C9.57034 66.9657 9.01696 61.3974 9.00049 56.8543V56.6029ZM44.4404 48.6602C49.1985 48.7273 53.1641 52.3692 53.031 57.14C52.9043 61.681 52.3202 67.1444 50.519 71.1356C49.4692 73.4619 46.9191 74.4707 44.3669 74.4707H39.2542V48.6602H44.4404Z" fill="#3F4680"/>
<path d="M9.00049 56.6029L8.04006 56.5937V56.6029H9.00049ZM17.4232 48.6604V47.7H17.4154L17.4077 47.7001L17.4232 48.6604ZM23.527 48.6604H24.4874V47.7H23.527V48.6604ZM23.527 74.4707V75.4312H24.4874V74.4707H23.527ZM11.6984 71.1959L10.8405 71.6276H10.8405L11.6984 71.1959ZM9.00049 56.8543H8.04005L8.04007 56.8577L9.00049 56.8543ZM44.4404 48.6602L44.4539 47.6997H44.4404V48.6602ZM53.031 57.14L53.991 57.1668L53.031 57.14ZM50.519 71.1356L49.6436 70.7405L49.6436 70.7405L50.519 71.1356ZM39.2542 74.4707H38.2938V75.4312H39.2542V74.4707ZM39.2542 48.6602V47.6997H38.2938V48.6602H39.2542ZM9.96087 56.612C9.99843 52.676 13.3408 49.6868 17.4386 49.6207L17.4077 47.7001C12.4342 47.7803 8.0891 51.4577 8.0401 56.5937L9.96087 56.612ZM23.527 47.7H17.4232V49.6209H23.527V47.7ZM24.4874 74.4707V48.6604H22.5665V74.4707H24.4874ZM23.527 73.5103H17.9575V75.4312H23.527V73.5103ZM17.9575 73.5103C15.6033 73.5103 13.4775 72.5951 12.5564 70.7643L10.8405 71.6276C12.2134 74.3566 15.2073 75.4312 17.9575 75.4312V73.5103ZM12.5564 70.7643C10.5316 66.7393 9.97725 61.356 9.96091 56.8508L8.04007 56.8577C8.05668 61.4388 8.60909 67.192 10.8405 71.6276L12.5564 70.7643ZM8.04006 56.6029V56.8543H9.96092V56.6029H8.04006ZM44.4268 49.6205C48.7211 49.6811 52.1872 52.9468 52.0709 57.1133L53.991 57.1668C54.141 51.7916 49.6759 47.7735 44.4539 47.6998L44.4268 49.6205ZM52.0709 57.1133C51.9449 61.631 51.3621 66.9326 49.6436 70.7405L51.3944 71.5306C53.2783 67.3563 53.8637 61.731 53.991 57.1668L52.0709 57.1133ZM49.6436 70.7405C48.8123 72.5826 46.7239 73.5103 44.3669 73.5103V75.4312C47.1143 75.4312 50.1261 74.3411 51.3944 71.5306L49.6436 70.7405ZM44.3669 73.5103H39.2542V75.4312H44.3669V73.5103ZM38.2938 48.6602V74.4707H40.2146V48.6602H38.2938ZM44.4404 47.6997H39.2542V49.6206H44.4404V47.6997Z" fill="black" mask="url(#path-7-inside-3)"/>
<path d="M38.9413 73.9895L38.5412 49.1384H42.9411L41.2264 73.9895H38.9413Z" fill="#3F4680" stroke="#150C0C" stroke-width="0.960429"/>
<path d="M23.2293 73.9895L23.6383 49.1384H19.1193L20.8721 73.9895H23.2293Z" fill="#3F4680" stroke="#150C0C" stroke-width="0.960429"/>
<path d="M31.15 7.48022L31.1504 7.48022L31.1711 7.48021C35.468 7.48873 39.3661 8.77168 42.1786 10.8629C44.9893 12.9527 46.6967 15.8303 46.6967 19.0552C46.6967 19.5501 46.6857 20.3145 46.673 21.1978C46.6443 23.2009 46.6069 25.8159 46.6685 27.2891H15.631C15.6926 25.8159 15.6551 23.201 15.6264 21.1979C15.6137 20.3145 15.6028 19.5501 15.6028 19.0552C15.6028 15.8303 17.3102 12.9527 20.1208 10.8629C22.9334 8.77166 26.8317 7.48871 31.1287 7.48026C31.1288 7.48026 31.1289 7.48026 31.1289 7.48026L31.15 7.48022Z" fill="#150C0C" stroke="#150C0C" stroke-width="0.960429"/>
<path d="M48.9779 29.3305C48.9779 30.0323 48.764 30.6492 48.4411 31.0798C48.1182 31.5102 47.7089 31.7316 47.2972 31.7316C46.8855 31.7316 46.4762 31.5102 46.1533 31.0798C45.8304 30.6492 45.6164 30.0323 45.6164 29.3305C45.6164 28.6287 45.8304 28.0118 46.1533 27.5813C46.4762 27.1508 46.8855 26.9294 47.2972 26.9294C47.7089 26.9294 48.1182 27.1508 48.4411 27.5813C48.764 28.0118 48.9779 28.6287 48.9779 29.3305Z" fill="#F8D9CE" stroke="#150C0C" stroke-width="0.960429"/>
<path d="M16.9233 29.3305C16.9233 30.0323 16.7093 30.6492 16.3864 31.0798C16.0635 31.5102 15.6542 31.7316 15.2425 31.7316C14.8308 31.7316 14.4215 31.5102 14.0986 31.0798C13.7757 30.6492 13.5618 30.0323 13.5618 29.3305C13.5618 28.6287 13.7757 28.0118 14.0986 27.5813C14.4215 27.1508 14.8308 26.9294 15.2425 26.9294C15.6542 26.9294 16.0635 27.1508 16.3864 27.5813C16.7093 28.0118 16.9233 28.6287 16.9233 29.3305Z" fill="#F8D9CE" stroke="#150C0C" stroke-width="0.960429"/>
<path d="M31.0891 12.4041L31.0901 12.4041L31.1103 12.404C39.4872 12.4212 46.1596 17.5421 46.1596 23.9886C46.1596 25.4908 46.2525 26.6534 46.3598 27.9978C46.3831 28.2896 46.4071 28.59 46.431 28.9043C46.5649 30.6686 46.6966 32.4053 46.6966 34.1501C46.6966 37.8209 44.4429 41.074 41.3153 43.437C38.1883 45.7996 34.2739 47.2034 31.123 47.2194L31.1161 47.2195L31.1107 47.2196L31.0907 47.2196L31.0886 47.2196L31.0686 47.2196L31.0631 47.2195V47.2195L31.0562 47.2194C27.9054 47.2034 23.9909 45.7996 20.864 43.437C17.7364 41.074 15.4827 37.8209 15.4827 34.1501C15.4827 32.4053 15.6143 30.6686 15.7483 28.9043C15.7722 28.59 15.7961 28.2897 15.8194 27.9978C15.9268 26.6535 16.0196 25.4909 16.0196 23.9886C16.0196 17.5419 22.6924 12.421 31.0695 12.4041L31.0891 12.4041Z" fill="#F8D9CE" stroke="#150C0C" stroke-width="0.960429"/>
<path d="M27.137 34.7256C28.2094 34.4868 29.7606 34.3719 31.3131 34.3748C32.8655 34.3777 34.3722 34.4984 35.3539 34.7114C35.4193 34.7256 35.4687 34.7555 35.4974 34.7845C35.523 34.8105 35.5295 34.8316 35.5302 34.8505C35.5574 35.5037 35.0861 36.4027 34.2276 37.173C33.3848 37.9293 32.2802 38.4566 31.226 38.4566C30.2051 38.4566 29.1343 37.868 28.3019 37.0561C27.8914 36.6557 27.557 36.2178 27.3302 35.8051C27.1002 35.3866 27.0026 35.0341 27.0077 34.7905C27.0092 34.7888 27.0114 34.7863 27.0146 34.7832C27.034 34.7648 27.0757 34.7392 27.137 34.7256Z" fill="#F9ECEC" stroke="#150C0C" stroke-width="0.960429"/>
<path d="M37.5525 26.0709C37.047 25.5167 37.2644 24.6736 38.0886 24.4955C41.3231 24.3734 43.3062 25.8889 44.5353 27.9884C44.6468 28.1788 44.7747 28.3795 44.8947 28.5692C45.0254 28.9958 44.6849 29.1857 44.3723 29.0793C42.8634 27.1902 41.0516 26.803 40.0097 26.6013C39.4488 26.4927 38.7773 26.5738 38.3768 26.5042C37.9181 26.4245 37.6453 26.1726 37.5525 26.0709Z" fill="#150C0C"/>
<path d="M24.8396 26.0709C25.3451 25.5167 25.1277 24.6736 24.3035 24.4955C21.069 24.3734 19.0859 25.8889 17.8568 27.9884C17.7453 28.1788 17.6174 28.3795 17.4974 28.5692C17.3666 28.9958 17.7072 29.1857 18.0197 29.0793C19.5287 27.1902 21.3405 26.803 22.3824 26.6013C22.9433 26.4927 23.6148 26.5738 24.0153 26.5042C24.474 26.4245 24.7468 26.1726 24.8396 26.0709Z" fill="#150C0C"/>
<circle cx="21.9654" cy="30.5304" r="1.68075" fill="#150C0C"/>
<circle cx="22.326" cy="30.1707" r="0.360161" fill="white" fill-opacity="0.9"/>
<circle cx="40.4542" cy="30.5323" r="1.68075" fill="#150C0C"/>
<circle cx="40.9344" cy="30.1707" r="0.360161" fill="white" fill-opacity="0.9"/>
<path d="M31.27 31.7324C39.6137 31.7324 39.6137 36.0544 39.6137 36.0544H22.9263C22.9263 36.0544 22.9263 31.7324 31.27 31.7324Z" fill="#150C0C"/>
</g>
</svg>
