<svg width="62" height="62" viewBox="0 0 62 62" fill="none" xmlns="http://www.w3.org/2000/svg">
<mask id="mask0" mask-type="alpha" maskUnits="userSpaceOnUse" x="0" y="0" width="62" height="62">
<circle cx="31" cy="31" r="31" fill="#C4C4C4"/>
</mask>
<g mask="url(#mask0)">
<circle cx="31" cy="31" r="31" fill="#BED3F4"/>
<mask id="path-3-inside-1" fill="white">
<path d="M9.0041 58.7887C8.94094 53.7473 13.2559 50.0527 18.2976 50.0527H44.4048C49.6545 50.0527 54.0708 54.0449 53.8682 59.2906C53.7017 63.602 53.1001 68.6022 51.4466 72.3758C50.3398 74.902 47.5725 75.9843 44.8144 75.9843C37.4112 75.9843 26.7007 75.9843 18.3713 75.9843C15.6131 75.9843 12.8394 74.9212 11.6258 72.4445C9.63604 68.3835 9.05894 63.1657 9.0041 58.7887Z"/>
</mask>
<path d="M9.0041 58.7887C8.94094 53.7473 13.2559 50.0527 18.2976 50.0527H44.4048C49.6545 50.0527 54.0708 54.0449 53.8682 59.2906C53.7017 63.602 53.1001 68.6022 51.4466 72.3758C50.3398 74.902 47.5725 75.9843 44.8144 75.9843C37.4112 75.9843 26.7007 75.9843 18.3713 75.9843C15.6131 75.9843 12.8394 74.9212 11.6258 72.4445C9.63604 68.3835 9.05894 63.1657 9.0041 58.7887Z" fill="#30A970"/>
<path d="M9.0041 58.7887L10.0518 58.7755L9.0041 58.7887ZM53.8682 59.2906L54.9152 59.3311L53.8682 59.2906ZM51.4466 72.3758L50.487 71.9553L51.4466 72.3758ZM11.6258 72.4445L10.685 72.9055L11.6258 72.4445ZM10.0518 58.7755C9.99717 54.4176 13.7348 51.1005 18.2976 51.1005V49.005C12.777 49.005 7.88472 53.077 7.95644 58.8018L10.0518 58.7755ZM18.2976 51.1005H44.4048V49.005H18.2976V51.1005ZM44.4048 51.1005C49.1489 51.1005 52.9976 54.6838 52.8213 59.2502L54.9152 59.3311C55.144 53.406 50.16 49.005 44.4048 49.005V51.1005ZM52.8213 59.2502C52.656 63.5295 52.0589 68.3676 50.487 71.9553L52.4063 72.7962C54.1412 68.8367 54.7474 63.6745 54.9152 59.3311L52.8213 59.2502ZM50.487 71.9553C49.6177 73.9392 47.3668 74.9366 44.8144 74.9366V77.0321C47.7782 77.0321 51.0618 75.8648 52.4063 72.7962L50.487 71.9553ZM44.8144 74.9366C44.8 74.9366 44.7855 74.9366 44.771 74.9366C44.7565 74.9366 44.742 74.9366 44.7275 74.9366C44.713 74.9366 44.6985 74.9366 44.684 74.9366C44.6694 74.9366 44.6549 74.9366 44.6403 74.9366C44.6258 74.9366 44.6112 74.9366 44.5966 74.9366C44.582 74.9366 44.5674 74.9366 44.5528 74.9366C44.5382 74.9366 44.5236 74.9366 44.509 74.9366C44.4943 74.9366 44.4797 74.9366 44.465 74.9366C44.4504 74.9366 44.4357 74.9366 44.421 74.9366C44.4063 74.9366 44.3916 74.9366 44.3769 74.9366C44.3622 74.9366 44.3475 74.9366 44.3328 74.9366C44.318 74.9366 44.3033 74.9366 44.2885 74.9366C44.2738 74.9366 44.259 74.9366 44.2442 74.9366C44.2294 74.9366 44.2146 74.9366 44.1998 74.9366C44.185 74.9366 44.1702 74.9366 44.1554 74.9366C44.1406 74.9366 44.1257 74.9366 44.1109 74.9366C44.096 74.9366 44.0812 74.9366 44.0663 74.9366C44.0514 74.9366 44.0365 74.9366 44.0216 74.9366C44.0067 74.9366 43.9918 74.9366 43.9769 74.9366C43.962 74.9366 43.947 74.9366 43.9321 74.9366C43.9171 74.9366 43.9022 74.9366 43.8872 74.9366C43.8722 74.9366 43.8572 74.9366 43.8423 74.9366C43.8273 74.9366 43.8123 74.9366 43.7972 74.9366C43.7822 74.9366 43.7672 74.9366 43.7521 74.9366C43.7371 74.9366 43.7221 74.9366 43.707 74.9366C43.6919 74.9366 43.6769 74.9366 43.6618 74.9366C43.6467 74.9366 43.6316 74.9366 43.6165 74.9366C43.6014 74.9366 43.5862 74.9366 43.5711 74.9366C43.556 74.9366 43.5408 74.9366 43.5257 74.9366C43.5105 74.9366 43.4954 74.9366 43.4802 74.9366C43.465 74.9366 43.4498 74.9366 43.4346 74.9366C43.4194 74.9366 43.4042 74.9366 43.389 74.9366C43.3737 74.9366 43.3585 74.9366 43.3433 74.9366C43.328 74.9366 43.3128 74.9366 43.2975 74.9366C43.2822 74.9366 43.2669 74.9366 43.2517 74.9366C43.2364 74.9366 43.2211 74.9366 43.2057 74.9366C43.1904 74.9366 43.1751 74.9366 43.1598 74.9366C43.1444 74.9366 43.1291 74.9366 43.1137 74.9366C43.0984 74.9366 43.083 74.9366 43.0676 74.9366C43.0523 74.9366 43.0369 74.9366 43.0215 74.9366C43.0061 74.9366 42.9907 74.9366 42.9752 74.9366C42.9598 74.9366 42.9444 74.9366 42.9289 74.9366C42.9135 74.9366 42.898 74.9366 42.8826 74.9366C42.8671 74.9366 42.8516 74.9366 42.8361 74.9366C42.8206 74.9366 42.8051 74.9366 42.7896 74.9366C42.7741 74.9366 42.7586 74.9366 42.7431 74.9366C42.7275 74.9366 42.712 74.9366 42.6965 74.9366C42.6809 74.9366 42.6653 74.9366 42.6498 74.9366C42.6342 74.9366 42.6186 74.9366 42.603 74.9366C42.5874 74.9366 42.5718 74.9366 42.5562 74.9366C42.5406 74.9366 42.525 74.9366 42.5093 74.9366C42.4937 74.9366 42.478 74.9366 42.4624 74.9366C42.4467 74.9366 42.4311 74.9366 42.4154 74.9366C42.3997 74.9366 42.384 74.9366 42.3683 74.9366C42.3526 74.9366 42.3369 74.9366 42.3212 74.9366C42.3055 74.9366 42.2897 74.9366 42.274 74.9366C42.2583 74.9366 42.2425 74.9366 42.2268 74.9366C42.211 74.9366 42.1952 74.9366 42.1794 74.9366C42.1637 74.9366 42.1479 74.9366 42.1321 74.9366C42.1163 74.9366 42.1005 74.9366 42.0846 74.9366C42.0688 74.9366 42.053 74.9366 42.0372 74.9366C42.0213 74.9366 42.0055 74.9366 41.9896 74.9366C41.9737 74.9366 41.9579 74.9366 41.942 74.9366C41.9261 74.9366 41.9102 74.9366 41.8943 74.9366C41.8784 74.9366 41.8625 74.9366 41.8466 74.9366C41.8307 74.9366 41.8147 74.9366 41.7988 74.9366C41.7829 74.9366 41.7669 74.9366 41.7509 74.9366C41.735 74.9366 41.719 74.9366 41.703 74.9366C41.6871 74.9366 41.6711 74.9366 41.6551 74.9366C41.6391 74.9366 41.6231 74.9366 41.607 74.9366C41.591 74.9366 41.575 74.9366 41.559 74.9366C41.5429 74.9366 41.5269 74.9366 41.5108 74.9366C41.4948 74.9366 41.4787 74.9366 41.4626 74.9366C41.4465 74.9366 41.4305 74.9366 41.4144 74.9366C41.3983 74.9366 41.3822 74.9366 41.3661 74.9366C41.3499 74.9366 41.3338 74.9366 41.3177 74.9366C41.3016 74.9366 41.2854 74.9366 41.2693 74.9366C41.2531 74.9366 41.2369 74.9366 41.2208 74.9366C41.2046 74.9366 41.1884 74.9366 41.1722 74.9366C41.1561 74.9366 41.1399 74.9366 41.1236 74.9366C41.1074 74.9366 41.0912 74.9366 41.075 74.9366C41.0588 74.9366 41.0425 74.9366 41.0263 74.9366C41.0101 74.9366 40.9938 74.9366 40.9775 74.9366C40.9613 74.9366 40.945 74.9366 40.9287 74.9366C40.9124 74.9366 40.8962 74.9366 40.8799 74.9366C40.8636 74.9366 40.8473 74.9366 40.8309 74.9366C40.8146 74.9366 40.7983 74.9366 40.782 74.9366C40.7656 74.9366 40.7493 74.9366 40.7329 74.9366C40.7166 74.9366 40.7002 74.9366 40.6839 74.9366C40.6675 74.9366 40.6511 74.9366 40.6347 74.9366C40.6183 74.9366 40.6019 74.9366 40.5855 74.9366C40.5691 74.9366 40.5527 74.9366 40.5363 74.9366C40.5199 74.9366 40.5034 74.9366 40.487 74.9366C40.4706 74.9366 40.4541 74.9366 40.4377 74.9366C40.4212 74.9366 40.4047 74.9366 40.3883 74.9366C40.3718 74.9366 40.3553 74.9366 40.3388 74.9366C40.3223 74.9366 40.3058 74.9366 40.2893 74.9366C40.2728 74.9366 40.2563 74.9366 40.2398 74.9366C40.2232 74.9366 40.2067 74.9366 40.1902 74.9366C40.1736 74.9366 40.1571 74.9366 40.1405 74.9366C40.1239 74.9366 40.1074 74.9366 40.0908 74.9366C40.0742 74.9366 40.0576 74.9366 40.0411 74.9366C40.0245 74.9366 40.0079 74.9366 39.9913 74.9366C39.9746 74.9366 39.958 74.9366 39.9414 74.9366C39.9248 74.9366 39.9081 74.9366 39.8915 74.9366C39.8749 74.9366 39.8582 74.9366 39.8416 74.9366C39.8249 74.9366 39.8082 74.9366 39.7916 74.9366C39.7749 74.9366 39.7582 74.9366 39.7415 74.9366C39.7248 74.9366 39.7081 74.9366 39.6914 74.9366C39.6747 74.9366 39.658 74.9366 39.6413 74.9366C39.6245 74.9366 39.6078 74.9366 39.5911 74.9366C39.5743 74.9366 39.5576 74.9366 39.5408 74.9366C39.5241 74.9366 39.5073 74.9366 39.4906 74.9366C39.4738 74.9366 39.457 74.9366 39.4402 74.9366C39.4234 74.9366 39.4066 74.9366 39.3898 74.9366C39.373 74.9366 39.3562 74.9366 39.3394 74.9366C39.3226 74.9366 39.3058 74.9366 39.2889 74.9366C39.2721 74.9366 39.2553 74.9366 39.2384 74.9366C39.2216 74.9366 39.2047 74.9366 39.1879 74.9366C39.171 74.9366 39.1541 74.9366 39.1373 74.9366C39.1204 74.9366 39.1035 74.9366 39.0866 74.9366C39.0697 74.9366 39.0528 74.9366 39.0359 74.9366C39.019 74.9366 39.0021 74.9366 38.9852 74.9366C38.9682 74.9366 38.9513 74.9366 38.9344 74.9366C38.9174 74.9366 38.9005 74.9366 38.8835 74.9366C38.8666 74.9366 38.8496 74.9366 38.8327 74.9366C38.8157 74.9366 38.7987 74.9366 38.7817 74.9366C38.7648 74.9366 38.7478 74.9366 38.7308 74.9366C38.7138 74.9366 38.6968 74.9366 38.6798 74.9366C38.6628 74.9366 38.6458 74.9366 38.6287 74.9366C38.6117 74.9366 38.5947 74.9366 38.5776 74.9366C38.5606 74.9366 38.5436 74.9366 38.5265 74.9366C38.5095 74.9366 38.4924 74.9366 38.4753 74.9366C38.4583 74.9366 38.4412 74.9366 38.4241 74.9366C38.407 74.9366 38.3899 74.9366 38.3729 74.9366C38.3558 74.9366 38.3387 74.9366 38.3216 74.9366C38.3044 74.9366 38.2873 74.9366 38.2702 74.9366C38.2531 74.9366 38.236 74.9366 38.2188 74.9366C38.2017 74.9366 38.1846 74.9366 38.1674 74.9366C38.1503 74.9366 38.1331 74.9366 38.1159 74.9366C38.0988 74.9366 38.0816 74.9366 38.0644 74.9366C38.0473 74.9366 38.0301 74.9366 38.0129 74.9366C37.9957 74.9366 37.9785 74.9366 37.9613 74.9366C37.9441 74.9366 37.9269 74.9366 37.9097 74.9366C37.8925 74.9366 37.8753 74.9366 37.858 74.9366C37.8408 74.9366 37.8236 74.9366 37.8063 74.9366C37.7891 74.9366 37.7718 74.9366 37.7546 74.9366C37.7373 74.9366 37.7201 74.9366 37.7028 74.9366C37.6855 74.9366 37.6683 74.9366 37.651 74.9366C37.6337 74.9366 37.6164 74.9366 37.5991 74.9366C37.5818 74.9366 37.5646 74.9366 37.5472 74.9366C37.5299 74.9366 37.5126 74.9366 37.4953 74.9366C37.478 74.9366 37.4607 74.9366 37.4434 74.9366C37.426 74.9366 37.4087 74.9366 37.3914 74.9366C37.374 74.9366 37.3567 74.9366 37.3393 74.9366C37.322 74.9366 37.3046 74.9366 37.2872 74.9366C37.2699 74.9366 37.2525 74.9366 37.2351 74.9366C37.2178 74.9366 37.2004 74.9366 37.183 74.9366C37.1656 74.9366 37.1482 74.9366 37.1308 74.9366C37.1134 74.9366 37.096 74.9366 37.0786 74.9366C37.0612 74.9366 37.0438 74.9366 37.0263 74.9366C37.0089 74.9366 36.9915 74.9366 36.974 74.9366C36.9566 74.9366 36.9392 74.9366 36.9217 74.9366C36.9043 74.9366 36.8868 74.9366 36.8694 74.9366C36.8519 74.9366 36.8344 74.9366 36.817 74.9366C36.7995 74.9366 36.782 74.9366 36.7645 74.9366C36.7471 74.9366 36.7296 74.9366 36.7121 74.9366C36.6946 74.9366 36.6771 74.9366 36.6596 74.9366C36.6421 74.9366 36.6246 74.9366 36.6071 74.9366C36.5896 74.9366 36.572 74.9366 36.5545 74.9366C36.537 74.9366 36.5195 74.9366 36.5019 74.9366C36.4844 74.9366 36.4669 74.9366 36.4493 74.9366C36.4318 74.9366 36.4142 74.9366 36.3967 74.9366C36.3791 74.9366 36.3615 74.9366 36.344 74.9366C36.3264 74.9366 36.3088 74.9366 36.2913 74.9366C36.2737 74.9366 36.2561 74.9366 36.2385 74.9366C36.2209 74.9366 36.2033 74.9366 36.1857 74.9366C36.1681 74.9366 36.1505 74.9366 36.1329 74.9366C36.1153 74.9366 36.0977 74.9366 36.0801 74.9366C36.0625 74.9366 36.0448 74.9366 36.0272 74.9366C36.0096 74.9366 35.992 74.9366 35.9743 74.9366C35.9567 74.9366 35.939 74.9366 35.9214 74.9366C35.9037 74.9366 35.8861 74.9366 35.8684 74.9366C35.8508 74.9366 35.8331 74.9366 35.8154 74.9366C35.7978 74.9366 35.7801 74.9366 35.7624 74.9366C35.7447 74.9366 35.7271 74.9366 35.7094 74.9366C35.6917 74.9366 35.674 74.9366 35.6563 74.9366C35.6386 74.9366 35.6209 74.9366 35.6032 74.9366C35.5855 74.9366 35.5678 74.9366 35.5501 74.9366C35.5324 74.9366 35.5146 74.9366 35.4969 74.9366C35.4792 74.9366 35.4615 74.9366 35.4437 74.9366C35.426 74.9366 35.4083 74.9366 35.3905 74.9366C35.3728 74.9366 35.355 74.9366 35.3373 74.9366C35.3195 74.9366 35.3018 74.9366 35.284 74.9366C35.2663 74.9366 35.2485 74.9366 35.2307 74.9366C35.213 74.9366 35.1952 74.9366 35.1774 74.9366C35.1596 74.9366 35.1418 74.9366 35.1241 74.9366C35.1063 74.9366 35.0885 74.9366 35.0707 74.9366C35.0529 74.9366 35.0351 74.9366 35.0173 74.9366C34.9995 74.9366 34.9817 74.9366 34.9639 74.9366C34.9461 74.9366 34.9283 74.9366 34.9104 74.9366C34.8926 74.9366 34.8748 74.9366 34.857 74.9366C34.8391 74.9366 34.8213 74.9366 34.8035 74.9366C34.7856 74.9366 34.7678 74.9366 34.75 74.9366C34.7321 74.9366 34.7143 74.9366 34.6964 74.9366C34.6786 74.9366 34.6607 74.9366 34.6428 74.9366C34.625 74.9366 34.6071 74.9366 34.5893 74.9366C34.5714 74.9366 34.5535 74.9366 34.5357 74.9366C34.5178 74.9366 34.4999 74.9366 34.482 74.9366C34.4641 74.9366 34.4462 74.9366 34.4284 74.9366C34.4105 74.9366 34.3926 74.9366 34.3747 74.9366C34.3568 74.9366 34.3389 74.9366 34.321 74.9366C34.3031 74.9366 34.2852 74.9366 34.2673 74.9366C34.2493 74.9366 34.2314 74.9366 34.2135 74.9366C34.1956 74.9366 34.1777 74.9366 34.1597 74.9366C34.1418 74.9366 34.1239 74.9366 34.106 74.9366C34.088 74.9366 34.0701 74.9366 34.0522 74.9366C34.0342 74.9366 34.0163 74.9366 33.9983 74.9366C33.9804 74.9366 33.9624 74.9366 33.9445 74.9366C33.9265 74.9366 33.9086 74.9366 33.8906 74.9366C33.8727 74.9366 33.8547 74.9366 33.8367 74.9366C33.8188 74.9366 33.8008 74.9366 33.7828 74.9366C33.7648 74.9366 33.7469 74.9366 33.7289 74.9366C33.7109 74.9366 33.6929 74.9366 33.6749 74.9366C33.657 74.9366 33.639 74.9366 33.621 74.9366C33.603 74.9366 33.585 74.9366 33.567 74.9366C33.549 74.9366 33.531 74.9366 33.513 74.9366C33.495 74.9366 33.477 74.9366 33.459 74.9366C33.441 74.9366 33.423 74.9366 33.4049 74.9366C33.3869 74.9366 33.3689 74.9366 33.3509 74.9366C33.3329 74.9366 33.3148 74.9366 33.2968 74.9366C33.2788 74.9366 33.2608 74.9366 33.2427 74.9366C33.2247 74.9366 33.2067 74.9366 33.1886 74.9366C33.1706 74.9366 33.1525 74.9366 33.1345 74.9366C33.1165 74.9366 33.0984 74.9366 33.0804 74.9366C33.0623 74.9366 33.0443 74.9366 33.0262 74.9366C33.0082 74.9366 32.9901 74.9366 32.972 74.9366C32.954 74.9366 32.9359 74.9366 32.9179 74.9366C32.8998 74.9366 32.8817 74.9366 32.8636 74.9366C32.8456 74.9366 32.8275 74.9366 32.8094 74.9366C32.7914 74.9366 32.7733 74.9366 32.7552 74.9366C32.7371 74.9366 32.719 74.9366 32.701 74.9366C32.6829 74.9366 32.6648 74.9366 32.6467 74.9366C32.6286 74.9366 32.6105 74.9366 32.5924 74.9366C32.5743 74.9366 32.5562 74.9366 32.5381 74.9366C32.52 74.9366 32.5019 74.9366 32.4838 74.9366C32.4657 74.9366 32.4476 74.9366 32.4295 74.9366C32.4114 74.9366 32.3933 74.9366 32.3752 74.9366C32.3571 74.9366 32.339 74.9366 32.3209 74.9366C32.3028 74.9366 32.2846 74.9366 32.2665 74.9366C32.2484 74.9366 32.2303 74.9366 32.2122 74.9366C32.194 74.9366 32.1759 74.9366 32.1578 74.9366C32.1397 74.9366 32.1215 74.9366 32.1034 74.9366C32.0853 74.9366 32.0671 74.9366 32.049 74.9366C32.0309 74.9366 32.0127 74.9366 31.9946 74.9366C31.9765 74.9366 31.9583 74.9366 31.9402 74.9366C31.922 74.9366 31.9039 74.9366 31.8857 74.9366C31.8676 74.9366 31.8495 74.9366 31.8313 74.9366C31.8132 74.9366 31.795 74.9366 31.7769 74.9366C31.7587 74.9366 31.7405 74.9366 31.7224 74.9366C31.7042 74.9366 31.6861 74.9366 31.6679 74.9366C31.6498 74.9366 31.6316 74.9366 31.6134 74.9366C31.5953 74.9366 31.5771 74.9366 31.559 74.9366C31.5408 74.9366 31.5226 74.9366 31.5045 74.9366C31.4863 74.9366 31.4681 74.9366 31.45 74.9366C31.4318 74.9366 31.4136 74.9366 31.3954 74.9366C31.3773 74.9366 31.3591 74.9366 31.3409 74.9366C31.3227 74.9366 31.3046 74.9366 31.2864 74.9366C31.2682 74.9366 31.25 74.9366 31.2319 74.9366C31.2137 74.9366 31.1955 74.9366 31.1773 74.9366C31.1591 74.9366 31.1409 74.9366 31.1228 74.9366C31.1046 74.9366 31.0864 74.9366 31.0682 74.9366C31.05 74.9366 31.0318 74.9366 31.0136 74.9366C30.9954 74.9366 30.9773 74.9366 30.9591 74.9366C30.9409 74.9366 30.9227 74.9366 30.9045 74.9366C30.8863 74.9366 30.8681 74.9366 30.8499 74.9366C30.8317 74.9366 30.8135 74.9366 30.7953 74.9366C30.7771 74.9366 30.7589 74.9366 30.7407 74.9366C30.7225 74.9366 30.7043 74.9366 30.6861 74.9366C30.6679 74.9366 30.6497 74.9366 30.6315 74.9366C30.6133 74.9366 30.5951 74.9366 30.5769 74.9366C30.5587 74.9366 30.5405 74.9366 30.5223 74.9366C30.5041 74.9366 30.4859 74.9366 30.4677 74.9366C30.4495 74.9366 30.4313 74.9366 30.4131 74.9366C30.3949 74.9366 30.3766 74.9366 30.3584 74.9366C30.3402 74.9366 30.322 74.9366 30.3038 74.9366C30.2856 74.9366 30.2674 74.9366 30.2492 74.9366C30.231 74.9366 30.2128 74.9366 30.1946 74.9366C30.1763 74.9366 30.1581 74.9366 30.1399 74.9366C30.1217 74.9366 30.1035 74.9366 30.0853 74.9366C30.0671 74.9366 30.0489 74.9366 30.0306 74.9366C30.0124 74.9366 29.9942 74.9366 29.976 74.9366C29.9578 74.9366 29.9396 74.9366 29.9214 74.9366C29.9031 74.9366 29.8849 74.9366 29.8667 74.9366C29.8485 74.9366 29.8303 74.9366 29.8121 74.9366C29.7939 74.9366 29.7756 74.9366 29.7574 74.9366C29.7392 74.9366 29.721 74.9366 29.7028 74.9366C29.6846 74.9366 29.6664 74.9366 29.6481 74.9366C29.6299 74.9366 29.6117 74.9366 29.5935 74.9366C29.5753 74.9366 29.5571 74.9366 29.5388 74.9366C29.5206 74.9366 29.5024 74.9366 29.4842 74.9366C29.466 74.9366 29.4478 74.9366 29.4296 74.9366C29.4113 74.9366 29.3931 74.9366 29.3749 74.9366C29.3567 74.9366 29.3385 74.9366 29.3203 74.9366C29.3021 74.9366 29.2839 74.9366 29.2656 74.9366C29.2474 74.9366 29.2292 74.9366 29.211 74.9366C29.1928 74.9366 29.1746 74.9366 29.1564 74.9366C29.1382 74.9366 29.1199 74.9366 29.1017 74.9366C29.0835 74.9366 29.0653 74.9366 29.0471 74.9366C29.0289 74.9366 29.0107 74.9366 28.9925 74.9366C28.9743 74.9366 28.9561 74.9366 28.9378 74.9366C28.9196 74.9366 28.9014 74.9366 28.8832 74.9366C28.865 74.9366 28.8468 74.9366 28.8286 74.9366C28.8104 74.9366 28.7922 74.9366 28.774 74.9366C28.7558 74.9366 28.7376 74.9366 28.7194 74.9366C28.7012 74.9366 28.683 74.9366 28.6648 74.9366C28.6466 74.9366 28.6284 74.9366 28.6102 74.9366C28.592 74.9366 28.5738 74.9366 28.5556 74.9366C28.5374 74.9366 28.5192 74.9366 28.501 74.9366C28.4828 74.9366 28.4646 74.9366 28.4464 74.9366C28.4282 74.9366 28.41 74.9366 28.3918 74.9366C28.3736 74.9366 28.3554 74.9366 28.3373 74.9366C28.3191 74.9366 28.3009 74.9366 28.2827 74.9366C28.2645 74.9366 28.2463 74.9366 28.2281 74.9366C28.2099 74.9366 28.1918 74.9366 28.1736 74.9366C28.1554 74.9366 28.1372 74.9366 28.119 74.9366C28.1009 74.9366 28.0827 74.9366 28.0645 74.9366C28.0463 74.9366 28.0281 74.9366 28.01 74.9366C27.9918 74.9366 27.9736 74.9366 27.9554 74.9366C27.9373 74.9366 27.9191 74.9366 27.9009 74.9366C27.8827 74.9366 27.8646 74.9366 27.8464 74.9366C27.8282 74.9366 27.8101 74.9366 27.7919 74.9366C27.7737 74.9366 27.7556 74.9366 27.7374 74.9366C27.7193 74.9366 27.7011 74.9366 27.6829 74.9366C27.6648 74.9366 27.6466 74.9366 27.6285 74.9366C27.6103 74.9366 27.5922 74.9366 27.574 74.9366C27.5558 74.9366 27.5377 74.9366 27.5195 74.9366C27.5014 74.9366 27.4832 74.9366 27.4651 74.9366C27.447 74.9366 27.4288 74.9366 27.4107 74.9366C27.3925 74.9366 27.3744 74.9366 27.3562 74.9366C27.3381 74.9366 27.32 74.9366 27.3018 74.9366C27.2837 74.9366 27.2656 74.9366 27.2474 74.9366C27.2293 74.9366 27.2112 74.9366 27.193 74.9366C27.1749 74.9366 27.1568 74.9366 27.1387 74.9366C27.1205 74.9366 27.1024 74.9366 27.0843 74.9366C27.0662 74.9366 27.0481 74.9366 27.0299 74.9366C27.0118 74.9366 26.9937 74.9366 26.9756 74.9366C26.9575 74.9366 26.9394 74.9366 26.9213 74.9366C26.9032 74.9366 26.8851 74.9366 26.867 74.9366C26.8489 74.9366 26.8307 74.9366 26.8127 74.9366C26.7946 74.9366 26.7765 74.9366 26.7584 74.9366C26.7403 74.9366 26.7222 74.9366 26.7041 74.9366C26.686 74.9366 26.6679 74.9366 26.6498 74.9366C26.6317 74.9366 26.6137 74.9366 26.5956 74.9366C26.5775 74.9366 26.5594 74.9366 26.5413 74.9366C26.5233 74.9366 26.5052 74.9366 26.4871 74.9366C26.469 74.9366 26.451 74.9366 26.4329 74.9366C26.4148 74.9366 26.3968 74.9366 26.3787 74.9366C26.3607 74.9366 26.3426 74.9366 26.3245 74.9366C26.3065 74.9366 26.2884 74.9366 26.2704 74.9366C26.2523 74.9366 26.2343 74.9366 26.2162 74.9366C26.1982 74.9366 26.1802 74.9366 26.1621 74.9366C26.1441 74.9366 26.126 74.9366 26.108 74.9366C26.09 74.9366 26.0719 74.9366 26.0539 74.9366C26.0359 74.9366 26.0179 74.9366 25.9998 74.9366C25.9818 74.9366 25.9638 74.9366 25.9458 74.9366C25.9278 74.9366 25.9097 74.9366 25.8917 74.9366C25.8737 74.9366 25.8557 74.9366 25.8377 74.9366C25.8197 74.9366 25.8017 74.9366 25.7837 74.9366C25.7657 74.9366 25.7477 74.9366 25.7297 74.9366C25.7117 74.9366 25.6937 74.9366 25.6757 74.9366C25.6577 74.9366 25.6398 74.9366 25.6218 74.9366C25.6038 74.9366 25.5858 74.9366 25.5678 74.9366C25.5499 74.9366 25.5319 74.9366 25.5139 74.9366C25.496 74.9366 25.478 74.9366 25.46 74.9366C25.4421 74.9366 25.4241 74.9366 25.4062 74.9366C25.3882 74.9366 25.3703 74.9366 25.3523 74.9366C25.3344 74.9366 25.3164 74.9366 25.2985 74.9366C25.2805 74.9366 25.2626 74.9366 25.2447 74.9366C25.2267 74.9366 25.2088 74.9366 25.1909 74.9366C25.1729 74.9366 25.155 74.9366 25.1371 74.9366C25.1192 74.9366 25.1012 74.9366 25.0833 74.9366C25.0654 74.9366 25.0475 74.9366 25.0296 74.9366C25.0117 74.9366 24.9938 74.9366 24.9759 74.9366C24.958 74.9366 24.9401 74.9366 24.9222 74.9366C24.9043 74.9366 24.8864 74.9366 24.8685 74.9366C24.8507 74.9366 24.8328 74.9366 24.8149 74.9366C24.797 74.9366 24.7792 74.9366 24.7613 74.9366C24.7434 74.9366 24.7255 74.9366 24.7077 74.9366C24.6898 74.9366 24.672 74.9366 24.6541 74.9366C24.6363 74.9366 24.6184 74.9366 24.6006 74.9366C24.5827 74.9366 24.5649 74.9366 24.547 74.9366C24.5292 74.9366 24.5114 74.9366 24.4935 74.9366C24.4757 74.9366 24.4579 74.9366 24.4401 74.9366C24.4222 74.9366 24.4044 74.9366 24.3866 74.9366C24.3688 74.9366 24.351 74.9366 24.3332 74.9366C24.3154 74.9366 24.2976 74.9366 24.2798 74.9366C24.262 74.9366 24.2442 74.9366 24.2264 74.9366C24.2086 74.9366 24.1908 74.9366 24.173 74.9366C24.1553 74.9366 24.1375 74.9366 24.1197 74.9366C24.1019 74.9366 24.0842 74.9366 24.0664 74.9366C24.0486 74.9366 24.0309 74.9366 24.0131 74.9366C23.9954 74.9366 23.9776 74.9366 23.9599 74.9366C23.9421 74.9366 23.9244 74.9366 23.9067 74.9366C23.8889 74.9366 23.8712 74.9366 23.8535 74.9366C23.8357 74.9366 23.818 74.9366 23.8003 74.9366C23.7826 74.9366 23.7649 74.9366 23.7472 74.9366C23.7295 74.9366 23.7118 74.9366 23.6941 74.9366C23.6764 74.9366 23.6587 74.9366 23.641 74.9366C23.6233 74.9366 23.6056 74.9366 23.5879 74.9366C23.5702 74.9366 23.5526 74.9366 23.5349 74.9366C23.5172 74.9366 23.4995 74.9366 23.4819 74.9366C23.4642 74.9366 23.4466 74.9366 23.4289 74.9366C23.4113 74.9366 23.3936 74.9366 23.376 74.9366C23.3583 74.9366 23.3407 74.9366 23.3231 74.9366C23.3054 74.9366 23.2878 74.9366 23.2702 74.9366C23.2526 74.9366 23.2349 74.9366 23.2173 74.9366C23.1997 74.9366 23.1821 74.9366 23.1645 74.9366C23.1469 74.9366 23.1293 74.9366 23.1117 74.9366C23.0941 74.9366 23.0766 74.9366 23.059 74.9366C23.0414 74.9366 23.0238 74.9366 23.0062 74.9366C22.9887 74.9366 22.9711 74.9366 22.9535 74.9366C22.936 74.9366 22.9184 74.9366 22.9009 74.9366C22.8833 74.9366 22.8658 74.9366 22.8482 74.9366C22.8307 74.9366 22.8132 74.9366 22.7956 74.9366C22.7781 74.9366 22.7606 74.9366 22.7431 74.9366C22.7256 74.9366 22.7081 74.9366 22.6905 74.9366C22.673 74.9366 22.6555 74.9366 22.638 74.9366C22.6205 74.9366 22.6031 74.9366 22.5856 74.9366C22.5681 74.9366 22.5506 74.9366 22.5331 74.9366C22.5157 74.9366 22.4982 74.9366 22.4807 74.9366C22.4633 74.9366 22.4458 74.9366 22.4284 74.9366C22.4109 74.9366 22.3935 74.9366 22.376 74.9366C22.3586 74.9366 22.3412 74.9366 22.3237 74.9366C22.3063 74.9366 22.2889 74.9366 22.2715 74.9366C22.2541 74.9366 22.2366 74.9366 22.2192 74.9366C22.2018 74.9366 22.1844 74.9366 22.167 74.9366C22.1496 74.9366 22.1323 74.9366 22.1149 74.9366C22.0975 74.9366 22.0801 74.9366 22.0628 74.9366C22.0454 74.9366 22.028 74.9366 22.0107 74.9366C21.9933 74.9366 21.976 74.9366 21.9586 74.9366C21.9413 74.9366 21.9239 74.9366 21.9066 74.9366C21.8893 74.9366 21.8719 74.9366 21.8546 74.9366C21.8373 74.9366 21.82 74.9366 21.8027 74.9366C21.7854 74.9366 21.7681 74.9366 21.7508 74.9366C21.7335 74.9366 21.7162 74.9366 21.6989 74.9366C21.6816 74.9366 21.6644 74.9366 21.6471 74.9366C21.6298 74.9366 21.6125 74.9366 21.5953 74.9366C21.578 74.9366 21.5608 74.9366 21.5435 74.9366C21.5263 74.9366 21.5091 74.9366 21.4918 74.9366C21.4746 74.9366 21.4574 74.9366 21.4401 74.9366C21.4229 74.9366 21.4057 74.9366 21.3885 74.9366C21.3713 74.9366 21.3541 74.9366 21.3369 74.9366C21.3197 74.9366 21.3025 74.9366 21.2854 74.9366C21.2682 74.9366 21.251 74.9366 21.2338 74.9366C21.2167 74.9366 21.1995 74.9366 21.1824 74.9366C21.1652 74.9366 21.1481 74.9366 21.1309 74.9366C21.1138 74.9366 21.0966 74.9366 21.0795 74.9366C21.0624 74.9366 21.0453 74.9366 21.0282 74.9366C21.011 74.9366 20.9939 74.9366 20.9768 74.9366C20.9597 74.9366 20.9427 74.9366 20.9256 74.9366C20.9085 74.9366 20.8914 74.9366 20.8743 74.9366C20.8573 74.9366 20.8402 74.9366 20.8231 74.9366C20.8061 74.9366 20.789 74.9366 20.772 74.9366C20.755 74.9366 20.7379 74.9366 20.7209 74.9366C20.7039 74.9366 20.6868 74.9366 20.6698 74.9366C20.6528 74.9366 20.6358 74.9366 20.6188 74.9366C20.6018 74.9366 20.5848 74.9366 20.5678 74.9366C20.5508 74.9366 20.5339 74.9366 20.5169 74.9366C20.4999 74.9366 20.483 74.9366 20.466 74.9366C20.449 74.9366 20.4321 74.9366 20.4151 74.9366C20.3982 74.9366 20.3813 74.9366 20.3643 74.9366C20.3474 74.9366 20.3305 74.9366 20.3136 74.9366C20.2967 74.9366 20.2798 74.9366 20.2629 74.9366C20.246 74.9366 20.2291 74.9366 20.2122 74.9366C20.1953 74.9366 20.1784 74.9366 20.1616 74.9366C20.1447 74.9366 20.1278 74.9366 20.111 74.9366C20.0941 74.9366 20.0773 74.9366 20.0605 74.9366C20.0436 74.9366 20.0268 74.9366 20.01 74.9366C19.9932 74.9366 19.9763 74.9366 19.9595 74.9366C19.9427 74.9366 19.9259 74.9366 19.9091 74.9366C19.8923 74.9366 19.8756 74.9366 19.8588 74.9366C19.842 74.9366 19.8252 74.9366 19.8085 74.9366C19.7917 74.9366 19.775 74.9366 19.7582 74.9366C19.7415 74.9366 19.7248 74.9366 19.708 74.9366C19.6913 74.9366 19.6746 74.9366 19.6579 74.9366C19.6412 74.9366 19.6244 74.9366 19.6077 74.9366C19.5911 74.9366 19.5744 74.9366 19.5577 74.9366C19.541 74.9366 19.5243 74.9366 19.5077 74.9366C19.491 74.9366 19.4744 74.9366 19.4577 74.9366C19.4411 74.9366 19.4244 74.9366 19.4078 74.9366C19.3912 74.9366 19.3745 74.9366 19.3579 74.9366C19.3413 74.9366 19.3247 74.9366 19.3081 74.9366C19.2915 74.9366 19.2749 74.9366 19.2583 74.9366C19.2417 74.9366 19.2252 74.9366 19.2086 74.9366C19.192 74.9366 19.1755 74.9366 19.1589 74.9366C19.1424 74.9366 19.1258 74.9366 19.1093 74.9366C19.0928 74.9366 19.0763 74.9366 19.0597 74.9366C19.0432 74.9366 19.0267 74.9366 19.0102 74.9366C18.9937 74.9366 18.9772 74.9366 18.9608 74.9366C18.9443 74.9366 18.9278 74.9366 18.9113 74.9366C18.8949 74.9366 18.8784 74.9366 18.862 74.9366C18.8455 74.9366 18.8291 74.9366 18.8127 74.9366C18.7962 74.9366 18.7798 74.9366 18.7634 74.9366C18.747 74.9366 18.7306 74.9366 18.7142 74.9366C18.6978 74.9366 18.6814 74.9366 18.6651 74.9366C18.6487 74.9366 18.6323 74.9366 18.616 74.9366C18.5996 74.9366 18.5832 74.9366 18.5669 74.9366C18.5506 74.9366 18.5342 74.9366 18.5179 74.9366C18.5016 74.9366 18.4853 74.9366 18.469 74.9366C18.4527 74.9366 18.4364 74.9366 18.4201 74.9366C18.4038 74.9366 18.3875 74.9366 18.3713 74.9366V77.0321C18.3875 77.0321 18.4038 77.0321 18.4201 77.0321C18.4364 77.0321 18.4527 77.0321 18.469 77.0321C18.4853 77.0321 18.5016 77.0321 18.5179 77.0321C18.5342 77.0321 18.5506 77.0321 18.5669 77.0321C18.5832 77.0321 18.5996 77.0321 18.616 77.0321C18.6323 77.0321 18.6487 77.0321 18.6651 77.0321C18.6814 77.0321 18.6978 77.0321 18.7142 77.0321C18.7306 77.0321 18.747 77.0321 18.7634 77.0321C18.7798 77.0321 18.7962 77.0321 18.8127 77.0321C18.8291 77.0321 18.8455 77.0321 18.862 77.0321C18.8784 77.0321 18.8949 77.0321 18.9113 77.0321C18.9278 77.0321 18.9443 77.0321 18.9608 77.0321C18.9772 77.0321 18.9937 77.0321 19.0102 77.0321C19.0267 77.0321 19.0432 77.0321 19.0597 77.0321C19.0763 77.0321 19.0928 77.0321 19.1093 77.0321C19.1258 77.0321 19.1424 77.0321 19.1589 77.0321C19.1755 77.0321 19.192 77.0321 19.2086 77.0321C19.2252 77.0321 19.2417 77.0321 19.2583 77.0321C19.2749 77.0321 19.2915 77.0321 19.3081 77.0321C19.3247 77.0321 19.3413 77.0321 19.3579 77.0321C19.3745 77.0321 19.3912 77.0321 19.4078 77.0321C19.4244 77.0321 19.4411 77.0321 19.4577 77.0321C19.4744 77.0321 19.491 77.0321 19.5077 77.0321C19.5243 77.0321 19.541 77.0321 19.5577 77.0321C19.5744 77.0321 19.5911 77.0321 19.6077 77.0321C19.6244 77.0321 19.6412 77.0321 19.6579 77.0321C19.6746 77.0321 19.6913 77.0321 19.708 77.0321C19.7248 77.0321 19.7415 77.0321 19.7582 77.0321C19.775 77.0321 19.7917 77.0321 19.8085 77.0321C19.8252 77.0321 19.842 77.0321 19.8588 77.0321C19.8756 77.0321 19.8923 77.0321 19.9091 77.0321C19.9259 77.0321 19.9427 77.0321 19.9595 77.0321C19.9763 77.0321 19.9932 77.0321 20.01 77.0321C20.0268 77.0321 20.0436 77.0321 20.0605 77.0321C20.0773 77.0321 20.0941 77.0321 20.111 77.0321C20.1278 77.0321 20.1447 77.0321 20.1616 77.0321C20.1784 77.0321 20.1953 77.0321 20.2122 77.0321C20.2291 77.0321 20.246 77.0321 20.2629 77.0321C20.2798 77.0321 20.2967 77.0321 20.3136 77.0321C20.3305 77.0321 20.3474 77.0321 20.3643 77.0321C20.3813 77.0321 20.3982 77.0321 20.4151 77.0321C20.4321 77.0321 20.449 77.0321 20.466 77.0321C20.483 77.0321 20.4999 77.0321 20.5169 77.0321C20.5339 77.0321 20.5508 77.0321 20.5678 77.0321C20.5848 77.0321 20.6018 77.0321 20.6188 77.0321C20.6358 77.0321 20.6528 77.0321 20.6698 77.0321C20.6868 77.0321 20.7039 77.0321 20.7209 77.0321C20.7379 77.0321 20.755 77.0321 20.772 77.0321C20.789 77.0321 20.8061 77.0321 20.8231 77.0321C20.8402 77.0321 20.8573 77.0321 20.8743 77.0321C20.8914 77.0321 20.9085 77.0321 20.9256 77.0321C20.9427 77.0321 20.9597 77.0321 20.9768 77.0321C20.9939 77.0321 21.011 77.0321 21.0282 77.0321C21.0453 77.0321 21.0624 77.0321 21.0795 77.0321C21.0966 77.0321 21.1138 77.0321 21.1309 77.0321C21.1481 77.0321 21.1652 77.0321 21.1824 77.0321C21.1995 77.0321 21.2167 77.0321 21.2338 77.0321C21.251 77.0321 21.2682 77.0321 21.2854 77.0321C21.3025 77.0321 21.3197 77.0321 21.3369 77.0321C21.3541 77.0321 21.3713 77.0321 21.3885 77.0321C21.4057 77.0321 21.4229 77.0321 21.4401 77.0321C21.4574 77.0321 21.4746 77.0321 21.4918 77.0321C21.5091 77.0321 21.5263 77.0321 21.5435 77.0321C21.5608 77.0321 21.578 77.0321 21.5953 77.0321C21.6125 77.0321 21.6298 77.0321 21.6471 77.0321C21.6644 77.0321 21.6816 77.0321 21.6989 77.0321C21.7162 77.0321 21.7335 77.0321 21.7508 77.0321C21.7681 77.0321 21.7854 77.0321 21.8027 77.0321C21.82 77.0321 21.8373 77.0321 21.8546 77.0321C21.8719 77.0321 21.8893 77.0321 21.9066 77.0321C21.9239 77.0321 21.9413 77.0321 21.9586 77.0321C21.976 77.0321 21.9933 77.0321 22.0107 77.0321C22.028 77.0321 22.0454 77.0321 22.0628 77.0321C22.0801 77.0321 22.0975 77.0321 22.1149 77.0321C22.1323 77.0321 22.1496 77.0321 22.167 77.0321C22.1844 77.0321 22.2018 77.0321 22.2192 77.0321C22.2366 77.0321 22.2541 77.0321 22.2715 77.0321C22.2889 77.0321 22.3063 77.0321 22.3237 77.0321C22.3412 77.0321 22.3586 77.0321 22.376 77.0321C22.3935 77.0321 22.4109 77.0321 22.4284 77.0321C22.4458 77.0321 22.4633 77.0321 22.4807 77.0321C22.4982 77.0321 22.5157 77.0321 22.5331 77.0321C22.5506 77.0321 22.5681 77.0321 22.5856 77.0321C22.6031 77.0321 22.6205 77.0321 22.638 77.0321C22.6555 77.0321 22.673 77.0321 22.6905 77.0321C22.7081 77.0321 22.7256 77.0321 22.7431 77.0321C22.7606 77.0321 22.7781 77.0321 22.7956 77.0321C22.8132 77.0321 22.8307 77.0321 22.8482 77.0321C22.8658 77.0321 22.8833 77.0321 22.9009 77.0321C22.9184 77.0321 22.936 77.0321 22.9535 77.0321C22.9711 77.0321 22.9887 77.0321 23.0062 77.0321C23.0238 77.0321 23.0414 77.0321 23.059 77.0321C23.0766 77.0321 23.0941 77.0321 23.1117 77.0321C23.1293 77.0321 23.1469 77.0321 23.1645 77.0321C23.1821 77.0321 23.1997 77.0321 23.2173 77.0321C23.2349 77.0321 23.2526 77.0321 23.2702 77.0321C23.2878 77.0321 23.3054 77.0321 23.3231 77.0321C23.3407 77.0321 23.3583 77.0321 23.376 77.0321C23.3936 77.0321 23.4113 77.0321 23.4289 77.0321C23.4466 77.0321 23.4642 77.0321 23.4819 77.0321C23.4995 77.0321 23.5172 77.0321 23.5349 77.0321C23.5526 77.0321 23.5702 77.0321 23.5879 77.0321C23.6056 77.0321 23.6233 77.0321 23.641 77.0321C23.6587 77.0321 23.6764 77.0321 23.6941 77.0321C23.7118 77.0321 23.7295 77.0321 23.7472 77.0321C23.7649 77.0321 23.7826 77.0321 23.8003 77.0321C23.818 77.0321 23.8357 77.0321 23.8535 77.0321C23.8712 77.0321 23.8889 77.0321 23.9067 77.0321C23.9244 77.0321 23.9421 77.0321 23.9599 77.0321C23.9776 77.0321 23.9954 77.0321 24.0131 77.0321C24.0309 77.0321 24.0486 77.0321 24.0664 77.0321C24.0842 77.0321 24.1019 77.0321 24.1197 77.0321C24.1375 77.0321 24.1553 77.0321 24.173 77.0321C24.1908 77.0321 24.2086 77.0321 24.2264 77.0321C24.2442 77.0321 24.262 77.0321 24.2798 77.0321C24.2976 77.0321 24.3154 77.0321 24.3332 77.0321C24.351 77.0321 24.3688 77.0321 24.3866 77.0321C24.4044 77.0321 24.4222 77.0321 24.4401 77.0321C24.4579 77.0321 24.4757 77.0321 24.4935 77.0321C24.5114 77.0321 24.5292 77.0321 24.547 77.0321C24.5649 77.0321 24.5827 77.0321 24.6006 77.0321C24.6184 77.0321 24.6363 77.0321 24.6541 77.0321C24.672 77.0321 24.6898 77.0321 24.7077 77.0321C24.7255 77.0321 24.7434 77.0321 24.7613 77.0321C24.7792 77.0321 24.797 77.0321 24.8149 77.0321C24.8328 77.0321 24.8507 77.0321 24.8685 77.0321C24.8864 77.0321 24.9043 77.0321 24.9222 77.0321C24.9401 77.0321 24.958 77.0321 24.9759 77.0321C24.9938 77.0321 25.0117 77.0321 25.0296 77.0321C25.0475 77.0321 25.0654 77.0321 25.0833 77.0321C25.1012 77.0321 25.1192 77.0321 25.1371 77.0321C25.155 77.0321 25.1729 77.0321 25.1909 77.0321C25.2088 77.0321 25.2267 77.0321 25.2447 77.0321C25.2626 77.0321 25.2805 77.0321 25.2985 77.0321C25.3164 77.0321 25.3344 77.0321 25.3523 77.0321C25.3703 77.0321 25.3882 77.0321 25.4062 77.0321C25.4241 77.0321 25.4421 77.0321 25.46 77.0321C25.478 77.0321 25.496 77.0321 25.5139 77.0321C25.5319 77.0321 25.5499 77.0321 25.5678 77.0321C25.5858 77.0321 25.6038 77.0321 25.6218 77.0321C25.6398 77.0321 25.6577 77.0321 25.6757 77.0321C25.6937 77.0321 25.7117 77.0321 25.7297 77.0321C25.7477 77.0321 25.7657 77.0321 25.7837 77.0321C25.8017 77.0321 25.8197 77.0321 25.8377 77.0321C25.8557 77.0321 25.8737 77.0321 25.8917 77.0321C25.9097 77.0321 25.9278 77.0321 25.9458 77.0321C25.9638 77.0321 25.9818 77.0321 25.9998 77.0321C26.0179 77.0321 26.0359 77.0321 26.0539 77.0321C26.0719 77.0321 26.09 77.0321 26.108 77.0321C26.126 77.0321 26.1441 77.0321 26.1621 77.0321C26.1802 77.0321 26.1982 77.0321 26.2162 77.0321C26.2343 77.0321 26.2523 77.0321 26.2704 77.0321C26.2884 77.0321 26.3065 77.0321 26.3245 77.0321C26.3426 77.0321 26.3607 77.0321 26.3787 77.0321C26.3968 77.0321 26.4148 77.0321 26.4329 77.0321C26.451 77.0321 26.469 77.0321 26.4871 77.0321C26.5052 77.0321 26.5233 77.0321 26.5413 77.0321C26.5594 77.0321 26.5775 77.0321 26.5956 77.0321C26.6137 77.0321 26.6317 77.0321 26.6498 77.0321C26.6679 77.0321 26.686 77.0321 26.7041 77.0321C26.7222 77.0321 26.7403 77.0321 26.7584 77.0321C26.7765 77.0321 26.7946 77.0321 26.8127 77.0321C26.8307 77.0321 26.8489 77.0321 26.867 77.0321C26.8851 77.0321 26.9032 77.0321 26.9213 77.0321C26.9394 77.0321 26.9575 77.0321 26.9756 77.0321C26.9937 77.0321 27.0118 77.0321 27.0299 77.0321C27.0481 77.0321 27.0662 77.0321 27.0843 77.0321C27.1024 77.0321 27.1205 77.0321 27.1387 77.0321C27.1568 77.0321 27.1749 77.0321 27.193 77.0321C27.2112 77.0321 27.2293 77.0321 27.2474 77.0321C27.2656 77.0321 27.2837 77.0321 27.3018 77.0321C27.32 77.0321 27.3381 77.0321 27.3562 77.0321C27.3744 77.0321 27.3925 77.0321 27.4107 77.0321C27.4288 77.0321 27.447 77.0321 27.4651 77.0321C27.4832 77.0321 27.5014 77.0321 27.5195 77.0321C27.5377 77.0321 27.5558 77.0321 27.574 77.0321C27.5922 77.0321 27.6103 77.0321 27.6285 77.0321C27.6466 77.0321 27.6648 77.0321 27.6829 77.0321C27.7011 77.0321 27.7193 77.0321 27.7374 77.0321C27.7556 77.0321 27.7737 77.0321 27.7919 77.0321C27.8101 77.0321 27.8282 77.0321 27.8464 77.0321C27.8646 77.0321 27.8827 77.0321 27.9009 77.0321C27.9191 77.0321 27.9373 77.0321 27.9554 77.0321C27.9736 77.0321 27.9918 77.0321 28.01 77.0321C28.0281 77.0321 28.0463 77.0321 28.0645 77.0321C28.0827 77.0321 28.1009 77.0321 28.119 77.0321C28.1372 77.0321 28.1554 77.0321 28.1736 77.0321C28.1918 77.0321 28.2099 77.0321 28.2281 77.0321C28.2463 77.0321 28.2645 77.0321 28.2827 77.0321C28.3009 77.0321 28.3191 77.0321 28.3373 77.0321C28.3554 77.0321 28.3736 77.0321 28.3918 77.0321C28.41 77.0321 28.4282 77.0321 28.4464 77.0321C28.4646 77.0321 28.4828 77.0321 28.501 77.0321C28.5192 77.0321 28.5374 77.0321 28.5556 77.0321C28.5738 77.0321 28.592 77.0321 28.6102 77.0321C28.6284 77.0321 28.6466 77.0321 28.6648 77.0321C28.683 77.0321 28.7012 77.0321 28.7194 77.0321C28.7376 77.0321 28.7558 77.0321 28.774 77.0321C28.7922 77.0321 28.8104 77.0321 28.8286 77.0321C28.8468 77.0321 28.865 77.0321 28.8832 77.0321C28.9014 77.0321 28.9196 77.0321 28.9378 77.0321C28.9561 77.0321 28.9743 77.0321 28.9925 77.0321C29.0107 77.0321 29.0289 77.0321 29.0471 77.0321C29.0653 77.0321 29.0835 77.0321 29.1017 77.0321C29.1199 77.0321 29.1382 77.0321 29.1564 77.0321C29.1746 77.0321 29.1928 77.0321 29.211 77.0321C29.2292 77.0321 29.2474 77.0321 29.2656 77.0321C29.2839 77.0321 29.3021 77.0321 29.3203 77.0321C29.3385 77.0321 29.3567 77.0321 29.3749 77.0321C29.3931 77.0321 29.4113 77.0321 29.4296 77.0321C29.4478 77.0321 29.466 77.0321 29.4842 77.0321C29.5024 77.0321 29.5206 77.0321 29.5388 77.0321C29.5571 77.0321 29.5753 77.0321 29.5935 77.0321C29.6117 77.0321 29.6299 77.0321 29.6481 77.0321C29.6664 77.0321 29.6846 77.0321 29.7028 77.0321C29.721 77.0321 29.7392 77.0321 29.7574 77.0321C29.7756 77.0321 29.7939 77.0321 29.8121 77.0321C29.8303 77.0321 29.8485 77.0321 29.8667 77.0321C29.8849 77.0321 29.9031 77.0321 29.9214 77.0321C29.9396 77.0321 29.9578 77.0321 29.976 77.0321C29.9942 77.0321 30.0124 77.0321 30.0306 77.0321C30.0489 77.0321 30.0671 77.0321 30.0853 77.0321C30.1035 77.0321 30.1217 77.0321 30.1399 77.0321C30.1581 77.0321 30.1763 77.0321 30.1946 77.0321C30.2128 77.0321 30.231 77.0321 30.2492 77.0321C30.2674 77.0321 30.2856 77.0321 30.3038 77.0321C30.322 77.0321 30.3402 77.0321 30.3584 77.0321C30.3766 77.0321 30.3949 77.0321 30.4131 77.0321C30.4313 77.0321 30.4495 77.0321 30.4677 77.0321C30.4859 77.0321 30.5041 77.0321 30.5223 77.0321C30.5405 77.0321 30.5587 77.0321 30.5769 77.0321C30.5951 77.0321 30.6133 77.0321 30.6315 77.0321C30.6497 77.0321 30.6679 77.0321 30.6861 77.0321C30.7043 77.0321 30.7225 77.0321 30.7407 77.0321C30.7589 77.0321 30.7771 77.0321 30.7953 77.0321C30.8135 77.0321 30.8317 77.0321 30.8499 77.0321C30.8681 77.0321 30.8863 77.0321 30.9045 77.0321C30.9227 77.0321 30.9409 77.0321 30.9591 77.0321C30.9773 77.0321 30.9954 77.0321 31.0136 77.0321C31.0318 77.0321 31.05 77.0321 31.0682 77.0321C31.0864 77.0321 31.1046 77.0321 31.1228 77.0321C31.1409 77.0321 31.1591 77.0321 31.1773 77.0321C31.1955 77.0321 31.2137 77.0321 31.2319 77.0321C31.25 77.0321 31.2682 77.0321 31.2864 77.0321C31.3046 77.0321 31.3227 77.0321 31.3409 77.0321C31.3591 77.0321 31.3773 77.0321 31.3954 77.0321C31.4136 77.0321 31.4318 77.0321 31.45 77.0321C31.4681 77.0321 31.4863 77.0321 31.5045 77.0321C31.5226 77.0321 31.5408 77.0321 31.559 77.0321C31.5771 77.0321 31.5953 77.0321 31.6134 77.0321C31.6316 77.0321 31.6498 77.0321 31.6679 77.0321C31.6861 77.0321 31.7042 77.0321 31.7224 77.0321C31.7405 77.0321 31.7587 77.0321 31.7769 77.0321C31.795 77.0321 31.8132 77.0321 31.8313 77.0321C31.8495 77.0321 31.8676 77.0321 31.8857 77.0321C31.9039 77.0321 31.922 77.0321 31.9402 77.0321C31.9583 77.0321 31.9765 77.0321 31.9946 77.0321C32.0127 77.0321 32.0309 77.0321 32.049 77.0321C32.0671 77.0321 32.0853 77.0321 32.1034 77.0321C32.1215 77.0321 32.1397 77.0321 32.1578 77.0321C32.1759 77.0321 32.194 77.0321 32.2122 77.0321C32.2303 77.0321 32.2484 77.0321 32.2665 77.0321C32.2846 77.0321 32.3028 77.0321 32.3209 77.0321C32.339 77.0321 32.3571 77.0321 32.3752 77.0321C32.3933 77.0321 32.4114 77.0321 32.4295 77.0321C32.4476 77.0321 32.4657 77.0321 32.4838 77.0321C32.5019 77.0321 32.52 77.0321 32.5381 77.0321C32.5562 77.0321 32.5743 77.0321 32.5924 77.0321C32.6105 77.0321 32.6286 77.0321 32.6467 77.0321C32.6648 77.0321 32.6829 77.0321 32.701 77.0321C32.719 77.0321 32.7371 77.0321 32.7552 77.0321C32.7733 77.0321 32.7914 77.0321 32.8094 77.0321C32.8275 77.0321 32.8456 77.0321 32.8636 77.0321C32.8817 77.0321 32.8998 77.0321 32.9179 77.0321C32.9359 77.0321 32.954 77.0321 32.972 77.0321C32.9901 77.0321 33.0082 77.0321 33.0262 77.0321C33.0443 77.0321 33.0623 77.0321 33.0804 77.0321C33.0984 77.0321 33.1165 77.0321 33.1345 77.0321C33.1525 77.0321 33.1706 77.0321 33.1886 77.0321C33.2067 77.0321 33.2247 77.0321 33.2427 77.0321C33.2608 77.0321 33.2788 77.0321 33.2968 77.0321C33.3148 77.0321 33.3329 77.0321 33.3509 77.0321C33.3689 77.0321 33.3869 77.0321 33.4049 77.0321C33.423 77.0321 33.441 77.0321 33.459 77.0321C33.477 77.0321 33.495 77.0321 33.513 77.0321C33.531 77.0321 33.549 77.0321 33.567 77.0321C33.585 77.0321 33.603 77.0321 33.621 77.0321C33.639 77.0321 33.657 77.0321 33.6749 77.0321C33.6929 77.0321 33.7109 77.0321 33.7289 77.0321C33.7469 77.0321 33.7648 77.0321 33.7828 77.0321C33.8008 77.0321 33.8188 77.0321 33.8367 77.0321C33.8547 77.0321 33.8727 77.0321 33.8906 77.0321C33.9086 77.0321 33.9265 77.0321 33.9445 77.0321C33.9624 77.0321 33.9804 77.0321 33.9983 77.0321C34.0163 77.0321 34.0342 77.0321 34.0522 77.0321C34.0701 77.0321 34.088 77.0321 34.106 77.0321C34.1239 77.0321 34.1418 77.0321 34.1597 77.0321C34.1777 77.0321 34.1956 77.0321 34.2135 77.0321C34.2314 77.0321 34.2493 77.0321 34.2673 77.0321C34.2852 77.0321 34.3031 77.0321 34.321 77.0321C34.3389 77.0321 34.3568 77.0321 34.3747 77.0321C34.3926 77.0321 34.4105 77.0321 34.4284 77.0321C34.4462 77.0321 34.4641 77.0321 34.482 77.0321C34.4999 77.0321 34.5178 77.0321 34.5357 77.0321C34.5535 77.0321 34.5714 77.0321 34.5893 77.0321C34.6071 77.0321 34.625 77.0321 34.6428 77.0321C34.6607 77.0321 34.6786 77.0321 34.6964 77.0321C34.7143 77.0321 34.7321 77.0321 34.75 77.0321C34.7678 77.0321 34.7856 77.0321 34.8035 77.0321C34.8213 77.0321 34.8391 77.0321 34.857 77.0321C34.8748 77.0321 34.8926 77.0321 34.9104 77.0321C34.9283 77.0321 34.9461 77.0321 34.9639 77.0321C34.9817 77.0321 34.9995 77.0321 35.0173 77.0321C35.0351 77.0321 35.0529 77.0321 35.0707 77.0321C35.0885 77.0321 35.1063 77.0321 35.1241 77.0321C35.1418 77.0321 35.1596 77.0321 35.1774 77.0321C35.1952 77.0321 35.213 77.0321 35.2307 77.0321C35.2485 77.0321 35.2663 77.0321 35.284 77.0321C35.3018 77.0321 35.3195 77.0321 35.3373 77.0321C35.355 77.0321 35.3728 77.0321 35.3905 77.0321C35.4083 77.0321 35.426 77.0321 35.4437 77.0321C35.4615 77.0321 35.4792 77.0321 35.4969 77.0321C35.5146 77.0321 35.5324 77.0321 35.5501 77.0321C35.5678 77.0321 35.5855 77.0321 35.6032 77.0321C35.6209 77.0321 35.6386 77.0321 35.6563 77.0321C35.674 77.0321 35.6917 77.0321 35.7094 77.0321C35.7271 77.0321 35.7447 77.0321 35.7624 77.0321C35.7801 77.0321 35.7978 77.0321 35.8154 77.0321C35.8331 77.0321 35.8508 77.0321 35.8684 77.0321C35.8861 77.0321 35.9037 77.0321 35.9214 77.0321C35.939 77.0321 35.9567 77.0321 35.9743 77.0321C35.992 77.0321 36.0096 77.0321 36.0272 77.0321C36.0448 77.0321 36.0625 77.0321 36.0801 77.0321C36.0977 77.0321 36.1153 77.0321 36.1329 77.0321C36.1505 77.0321 36.1681 77.0321 36.1857 77.0321C36.2033 77.0321 36.2209 77.0321 36.2385 77.0321C36.2561 77.0321 36.2737 77.0321 36.2913 77.0321C36.3088 77.0321 36.3264 77.0321 36.344 77.0321C36.3615 77.0321 36.3791 77.0321 36.3967 77.0321C36.4142 77.0321 36.4318 77.0321 36.4493 77.0321C36.4669 77.0321 36.4844 77.0321 36.5019 77.0321C36.5195 77.0321 36.537 77.0321 36.5545 77.0321C36.572 77.0321 36.5896 77.0321 36.6071 77.0321C36.6246 77.0321 36.6421 77.0321 36.6596 77.0321C36.6771 77.0321 36.6946 77.0321 36.7121 77.0321C36.7296 77.0321 36.7471 77.0321 36.7645 77.0321C36.782 77.0321 36.7995 77.0321 36.817 77.0321C36.8344 77.0321 36.8519 77.0321 36.8694 77.0321C36.8868 77.0321 36.9043 77.0321 36.9217 77.0321C36.9392 77.0321 36.9566 77.0321 36.974 77.0321C36.9915 77.0321 37.0089 77.0321 37.0263 77.0321C37.0438 77.0321 37.0612 77.0321 37.0786 77.0321C37.096 77.0321 37.1134 77.0321 37.1308 77.0321C37.1482 77.0321 37.1656 77.0321 37.183 77.0321C37.2004 77.0321 37.2178 77.0321 37.2351 77.0321C37.2525 77.0321 37.2699 77.0321 37.2872 77.0321C37.3046 77.0321 37.322 77.0321 37.3393 77.0321C37.3567 77.0321 37.374 77.0321 37.3914 77.0321C37.4087 77.0321 37.426 77.0321 37.4434 77.0321C37.4607 77.0321 37.478 77.0321 37.4953 77.0321C37.5126 77.0321 37.5299 77.0321 37.5472 77.0321C37.5646 77.0321 37.5818 77.0321 37.5991 77.0321C37.6164 77.0321 37.6337 77.0321 37.651 77.0321C37.6683 77.0321 37.6855 77.0321 37.7028 77.0321C37.7201 77.0321 37.7373 77.0321 37.7546 77.0321C37.7718 77.0321 37.7891 77.0321 37.8063 77.0321C37.8236 77.0321 37.8408 77.0321 37.858 77.0321C37.8753 77.0321 37.8925 77.0321 37.9097 77.0321C37.9269 77.0321 37.9441 77.0321 37.9613 77.0321C37.9785 77.0321 37.9957 77.0321 38.0129 77.0321C38.0301 77.0321 38.0473 77.0321 38.0644 77.0321C38.0816 77.0321 38.0988 77.0321 38.1159 77.0321C38.1331 77.0321 38.1503 77.0321 38.1674 77.0321C38.1846 77.0321 38.2017 77.0321 38.2188 77.0321C38.236 77.0321 38.2531 77.0321 38.2702 77.0321C38.2873 77.0321 38.3044 77.0321 38.3216 77.0321C38.3387 77.0321 38.3558 77.0321 38.3729 77.0321C38.3899 77.0321 38.407 77.0321 38.4241 77.0321C38.4412 77.0321 38.4583 77.0321 38.4753 77.0321C38.4924 77.0321 38.5095 77.0321 38.5265 77.0321C38.5436 77.0321 38.5606 77.0321 38.5776 77.0321C38.5947 77.0321 38.6117 77.0321 38.6287 77.0321C38.6458 77.0321 38.6628 77.0321 38.6798 77.0321C38.6968 77.0321 38.7138 77.0321 38.7308 77.0321C38.7478 77.0321 38.7648 77.0321 38.7817 77.0321C38.7987 77.0321 38.8157 77.0321 38.8327 77.0321C38.8496 77.0321 38.8666 77.0321 38.8835 77.0321C38.9005 77.0321 38.9174 77.0321 38.9344 77.0321C38.9513 77.0321 38.9682 77.0321 38.9852 77.0321C39.0021 77.0321 39.019 77.0321 39.0359 77.0321C39.0528 77.0321 39.0697 77.0321 39.0866 77.0321C39.1035 77.0321 39.1204 77.0321 39.1373 77.0321C39.1541 77.0321 39.171 77.0321 39.1879 77.0321C39.2047 77.0321 39.2216 77.0321 39.2384 77.0321C39.2553 77.0321 39.2721 77.0321 39.2889 77.0321C39.3058 77.0321 39.3226 77.0321 39.3394 77.0321C39.3562 77.0321 39.373 77.0321 39.3898 77.0321C39.4066 77.0321 39.4234 77.0321 39.4402 77.0321C39.457 77.0321 39.4738 77.0321 39.4906 77.0321C39.5073 77.0321 39.5241 77.0321 39.5408 77.0321C39.5576 77.0321 39.5743 77.0321 39.5911 77.0321C39.6078 77.0321 39.6245 77.0321 39.6413 77.0321C39.658 77.0321 39.6747 77.0321 39.6914 77.0321C39.7081 77.0321 39.7248 77.0321 39.7415 77.0321C39.7582 77.0321 39.7749 77.0321 39.7916 77.0321C39.8082 77.0321 39.8249 77.0321 39.8416 77.0321C39.8582 77.0321 39.8749 77.0321 39.8915 77.0321C39.9081 77.0321 39.9248 77.0321 39.9414 77.0321C39.958 77.0321 39.9746 77.0321 39.9913 77.0321C40.0079 77.0321 40.0245 77.0321 40.0411 77.0321C40.0576 77.0321 40.0742 77.0321 40.0908 77.0321C40.1074 77.0321 40.1239 77.0321 40.1405 77.0321C40.1571 77.0321 40.1736 77.0321 40.1902 77.0321C40.2067 77.0321 40.2232 77.0321 40.2398 77.0321C40.2563 77.0321 40.2728 77.0321 40.2893 77.0321C40.3058 77.0321 40.3223 77.0321 40.3388 77.0321C40.3553 77.0321 40.3718 77.0321 40.3883 77.0321C40.4047 77.0321 40.4212 77.0321 40.4377 77.0321C40.4541 77.0321 40.4706 77.0321 40.487 77.0321C40.5034 77.0321 40.5199 77.0321 40.5363 77.0321C40.5527 77.0321 40.5691 77.0321 40.5855 77.0321C40.6019 77.0321 40.6183 77.0321 40.6347 77.0321C40.6511 77.0321 40.6675 77.0321 40.6839 77.0321C40.7002 77.0321 40.7166 77.0321 40.7329 77.0321C40.7493 77.0321 40.7656 77.0321 40.782 77.0321C40.7983 77.0321 40.8146 77.0321 40.8309 77.0321C40.8473 77.0321 40.8636 77.0321 40.8799 77.0321C40.8962 77.0321 40.9124 77.0321 40.9287 77.0321C40.945 77.0321 40.9613 77.0321 40.9775 77.0321C40.9938 77.0321 41.0101 77.0321 41.0263 77.0321C41.0425 77.0321 41.0588 77.0321 41.075 77.0321C41.0912 77.0321 41.1074 77.0321 41.1236 77.0321C41.1399 77.0321 41.1561 77.0321 41.1722 77.0321C41.1884 77.0321 41.2046 77.0321 41.2208 77.0321C41.2369 77.0321 41.2531 77.0321 41.2693 77.0321C41.2854 77.0321 41.3016 77.0321 41.3177 77.0321C41.3338 77.0321 41.3499 77.0321 41.3661 77.0321C41.3822 77.0321 41.3983 77.0321 41.4144 77.0321C41.4305 77.0321 41.4465 77.0321 41.4626 77.0321C41.4787 77.0321 41.4948 77.0321 41.5108 77.0321C41.5269 77.0321 41.5429 77.0321 41.559 77.0321C41.575 77.0321 41.591 77.0321 41.607 77.0321C41.6231 77.0321 41.6391 77.0321 41.6551 77.0321C41.6711 77.0321 41.6871 77.0321 41.703 77.0321C41.719 77.0321 41.735 77.0321 41.7509 77.0321C41.7669 77.0321 41.7829 77.0321 41.7988 77.0321C41.8147 77.0321 41.8307 77.0321 41.8466 77.0321C41.8625 77.0321 41.8784 77.0321 41.8943 77.0321C41.9102 77.0321 41.9261 77.0321 41.942 77.0321C41.9579 77.0321 41.9737 77.0321 41.9896 77.0321C42.0055 77.0321 42.0213 77.0321 42.0372 77.0321C42.053 77.0321 42.0688 77.0321 42.0846 77.0321C42.1005 77.0321 42.1163 77.0321 42.1321 77.0321C42.1479 77.0321 42.1637 77.0321 42.1794 77.0321C42.1952 77.0321 42.211 77.0321 42.2268 77.0321C42.2425 77.0321 42.2583 77.0321 42.274 77.0321C42.2897 77.0321 42.3055 77.0321 42.3212 77.0321C42.3369 77.0321 42.3526 77.0321 42.3683 77.0321C42.384 77.0321 42.3997 77.0321 42.4154 77.0321C42.4311 77.0321 42.4467 77.0321 42.4624 77.0321C42.478 77.0321 42.4937 77.0321 42.5093 77.0321C42.525 77.0321 42.5406 77.0321 42.5562 77.0321C42.5718 77.0321 42.5874 77.0321 42.603 77.0321C42.6186 77.0321 42.6342 77.0321 42.6498 77.0321C42.6653 77.0321 42.6809 77.0321 42.6965 77.0321C42.712 77.0321 42.7275 77.0321 42.7431 77.0321C42.7586 77.0321 42.7741 77.0321 42.7896 77.0321C42.8051 77.0321 42.8206 77.0321 42.8361 77.0321C42.8516 77.0321 42.8671 77.0321 42.8826 77.0321C42.898 77.0321 42.9135 77.0321 42.9289 77.0321C42.9444 77.0321 42.9598 77.0321 42.9752 77.0321C42.9907 77.0321 43.0061 77.0321 43.0215 77.0321C43.0369 77.0321 43.0523 77.0321 43.0676 77.0321C43.083 77.0321 43.0984 77.0321 43.1137 77.0321C43.1291 77.0321 43.1444 77.0321 43.1598 77.0321C43.1751 77.0321 43.1904 77.0321 43.2057 77.0321C43.2211 77.0321 43.2364 77.0321 43.2517 77.0321C43.2669 77.0321 43.2822 77.0321 43.2975 77.0321C43.3128 77.0321 43.328 77.0321 43.3433 77.0321C43.3585 77.0321 43.3737 77.0321 43.389 77.0321C43.4042 77.0321 43.4194 77.0321 43.4346 77.0321C43.4498 77.0321 43.465 77.0321 43.4802 77.0321C43.4954 77.0321 43.5105 77.0321 43.5257 77.0321C43.5408 77.0321 43.556 77.0321 43.5711 77.0321C43.5862 77.0321 43.6014 77.0321 43.6165 77.0321C43.6316 77.0321 43.6467 77.0321 43.6618 77.0321C43.6769 77.0321 43.6919 77.0321 43.707 77.0321C43.7221 77.0321 43.7371 77.0321 43.7521 77.0321C43.7672 77.0321 43.7822 77.0321 43.7972 77.0321C43.8123 77.0321 43.8273 77.0321 43.8423 77.0321C43.8572 77.0321 43.8722 77.0321 43.8872 77.0321C43.9022 77.0321 43.9171 77.0321 43.9321 77.0321C43.947 77.0321 43.962 77.0321 43.9769 77.0321C43.9918 77.0321 44.0067 77.0321 44.0216 77.0321C44.0365 77.0321 44.0514 77.0321 44.0663 77.0321C44.0812 77.0321 44.096 77.0321 44.1109 77.0321C44.1257 77.0321 44.1406 77.0321 44.1554 77.0321C44.1702 77.0321 44.185 77.0321 44.1998 77.0321C44.2146 77.0321 44.2294 77.0321 44.2442 77.0321C44.259 77.0321 44.2738 77.0321 44.2885 77.0321C44.3033 77.0321 44.318 77.0321 44.3328 77.0321C44.3475 77.0321 44.3622 77.0321 44.3769 77.0321C44.3916 77.0321 44.4063 77.0321 44.421 77.0321C44.4357 77.0321 44.4504 77.0321 44.465 77.0321C44.4797 77.0321 44.4943 77.0321 44.509 77.0321C44.5236 77.0321 44.5382 77.0321 44.5528 77.0321C44.5674 77.0321 44.582 77.0321 44.5966 77.0321C44.6112 77.0321 44.6258 77.0321 44.6403 77.0321C44.6549 77.0321 44.6694 77.0321 44.684 77.0321C44.6985 77.0321 44.713 77.0321 44.7275 77.0321C44.742 77.0321 44.7565 77.0321 44.771 77.0321C44.7855 77.0321 44.8 77.0321 44.8144 77.0321V74.9366ZM18.3713 74.9366C15.8217 74.9366 13.5335 73.9566 12.5667 71.9835L10.685 72.9055C12.1453 75.8859 15.4046 77.0321 18.3713 77.0321V74.9366ZM12.5667 71.9835C10.6808 68.1346 10.106 63.1058 10.0518 58.7755L7.95644 58.8018C8.01186 63.2256 8.59126 68.6325 10.685 72.9055L12.5667 71.9835Z" fill="#211A1A" mask="url(#path-3-inside-1)"/>
<mask id="path-5-inside-2" fill="white">
<path fill-rule="evenodd" clip-rule="evenodd" d="M25.4229 50.0566H25.929C26.6621 46.0862 26.6621 41.0195 26.6621 41.0195H36.653C36.653 41.0195 36.653 46.0862 37.3861 50.0566H40.5117C38.4371 51.6955 35.8164 52.6738 32.9673 52.6738C30.1181 52.6738 27.4975 51.6955 25.4229 50.0566Z"/>
</mask>
<path fill-rule="evenodd" clip-rule="evenodd" d="M25.4229 50.0566H25.929C26.6621 46.0862 26.6621 41.0195 26.6621 41.0195H36.653C36.653 41.0195 36.653 46.0862 37.3861 50.0566H40.5117C38.4371 51.6955 35.8164 52.6738 32.9673 52.6738C30.1181 52.6738 27.4975 51.6955 25.4229 50.0566Z" fill="#F8D9CE"/>
<path d="M25.4229 50.0566V49.0088H22.4065L24.7733 50.8787L25.4229 50.0566ZM25.929 50.0566V51.1043H26.801L26.9593 50.2468L25.929 50.0566ZM26.6621 41.0195V39.9718H25.6143L25.6143 41.0195L26.6621 41.0195ZM36.653 41.0195L37.7008 41.0195V39.9718H36.653V41.0195ZM37.3861 50.0566L36.3558 50.2468L36.5141 51.1043H37.3861V50.0566ZM40.5117 50.0566L41.1612 50.8787L43.5281 49.0088H40.5117V50.0566ZM25.4229 51.1043H25.929V49.0088H25.4229V51.1043ZM26.9593 50.2468C27.3381 48.1955 27.5242 45.8838 27.6168 44.1035C27.6632 43.2094 27.6865 42.4411 27.6981 41.8956C27.7039 41.6227 27.7069 41.4052 27.7083 41.2552C27.7091 41.1803 27.7094 41.1221 27.7096 41.0823C27.7097 41.0624 27.7098 41.0471 27.7098 41.0366C27.7098 41.0313 27.7098 41.0273 27.7098 41.0244C27.7098 41.023 27.7098 41.0219 27.7098 41.0211C27.7098 41.0206 27.7098 41.0203 27.7098 41.0201C27.7098 41.0199 27.7098 41.0198 27.7098 41.0197C27.7098 41.0196 27.7098 41.0195 26.6621 41.0195C25.6143 41.0195 25.6143 41.0195 25.6143 41.0194C25.6143 41.0195 25.6143 41.0194 25.6143 41.0195C25.6143 41.0195 25.6143 41.0197 25.6143 41.0199C25.6143 41.0203 25.6143 41.021 25.6143 41.022C25.6143 41.0241 25.6143 41.0273 25.6143 41.0318C25.6143 41.0407 25.6142 41.0543 25.6142 41.0725C25.614 41.1089 25.6136 41.1634 25.6129 41.2347C25.6115 41.3774 25.6087 41.5867 25.6031 41.8509C25.5918 42.3794 25.5693 43.1259 25.5241 43.9948C25.4334 45.7404 25.253 47.9472 24.8987 49.8663L26.9593 50.2468ZM26.6621 42.0673H36.653V39.9718H26.6621V42.0673ZM36.653 41.0195C35.6053 41.0195 35.6053 41.0196 35.6053 41.0197C35.6053 41.0198 35.6053 41.0199 35.6053 41.0201C35.6053 41.0203 35.6053 41.0206 35.6053 41.0211C35.6053 41.0219 35.6053 41.023 35.6053 41.0244C35.6053 41.0273 35.6053 41.0313 35.6053 41.0366C35.6053 41.0471 35.6054 41.0624 35.6055 41.0823C35.6057 41.1221 35.606 41.1803 35.6068 41.2552C35.6082 41.4052 35.6112 41.6227 35.617 41.8956C35.6286 42.4411 35.6519 43.2094 35.6983 44.1035C35.7909 45.8838 35.977 48.1955 36.3558 50.2468L38.4164 49.8663C38.0621 47.9472 37.8817 45.7404 37.791 43.9948C37.7458 43.1259 37.7233 42.3794 37.712 41.8509C37.7064 41.5867 37.7036 41.3774 37.7022 41.2347C37.7015 41.1634 37.7011 41.1089 37.7009 41.0725C37.7009 41.0543 37.7008 41.0407 37.7008 41.0318C37.7008 41.0273 37.7008 41.0241 37.7008 41.022C37.7008 41.021 37.7008 41.0203 37.7008 41.0199C37.7008 41.0197 37.7008 41.0195 37.7008 41.0195C37.7008 41.0194 37.7008 41.0195 37.7008 41.0194C37.7008 41.0195 37.7008 41.0195 36.653 41.0195ZM37.3861 51.1043H40.5117V49.0088H37.3861V51.1043ZM39.8622 49.2344C37.9659 50.7325 35.5724 51.6261 32.9673 51.6261V53.7216C36.0605 53.7216 38.9083 52.6586 41.1612 50.8787L39.8622 49.2344ZM32.9673 51.6261C30.3621 51.6261 27.9686 50.7325 26.0724 49.2344L24.7733 50.8787C27.0263 52.6586 29.8741 53.7216 32.9673 53.7216V51.6261Z" fill="#211A1A" mask="url(#path-5-inside-2)"/>
<path d="M36.4213 46.6646C36.4499 46.945 36.4877 47.3037 36.5329 47.7056C36.6396 48.6552 36.7884 49.8551 36.955 50.8344C37.0267 51.2553 36.8767 51.6347 36.5893 51.8293C35.5506 52.5326 33.6527 53.5903 31.7105 53.5903C29.7683 53.5903 27.8705 52.5326 26.8317 51.8293C26.5443 51.6347 26.3944 51.2553 26.466 50.8344C26.6327 49.8551 26.7814 48.6552 26.8881 47.7056C26.9333 47.3037 26.9711 46.945 26.9997 46.6646C27.2959 46.7416 27.6848 46.8369 28.1317 46.9321C29.1437 47.1479 30.4779 47.3693 31.7105 47.3693C32.9431 47.3693 34.2773 47.1479 35.2894 46.9321C35.7362 46.8369 36.1251 46.7416 36.4213 46.6646Z" fill="#30A970" stroke="#211A1A" stroke-width="1.04774"/>
<path d="M50.6475 28.1823C50.6475 28.9479 50.4141 29.6208 50.0618 30.0906C49.7096 30.5601 49.2631 30.8016 48.814 30.8016C48.3648 30.8016 47.9183 30.5601 47.5661 30.0906C47.2138 29.6208 46.9804 28.9479 46.9804 28.1823C46.9804 27.4167 47.2138 26.7438 47.5661 26.274C47.9183 25.8044 48.3648 25.5629 48.814 25.5629C49.2631 25.5629 49.7096 25.8044 50.0618 26.274C50.4141 26.7438 50.6475 27.4167 50.6475 28.1823Z" fill="#F8D9CE" stroke="#150C0C" stroke-width="1.04774"/>
<path d="M15.9415 28.1823C15.9415 28.9479 15.7081 29.6208 15.3558 30.0906C15.0036 30.5601 14.557 30.8016 14.1079 30.8016C13.6588 30.8016 13.2122 30.5601 12.8601 30.0906C12.5078 29.6208 12.2744 28.9479 12.2744 28.1823C12.2744 27.4167 12.5078 26.7438 12.8601 26.274C13.2122 25.8044 13.6588 25.5629 14.1079 25.5629C14.557 25.5629 15.0036 25.8044 15.3558 26.274C15.7081 26.7438 15.9415 27.4167 15.9415 28.1823Z" fill="#F8D9CE" stroke="#150C0C" stroke-width="1.04774"/>
<path d="M31.5257 7.48873L31.5268 7.48873L31.5488 7.48871C40.6872 7.50741 47.9663 13.0939 47.9663 20.1264C47.9663 21.7653 48.0676 23.0336 48.1847 24.5003C48.2101 24.8186 48.2362 25.1462 48.2623 25.489C48.4084 27.4137 48.552 29.3083 48.552 31.2118C48.552 35.2163 46.0935 38.765 42.6815 41.3429C39.2703 43.9203 35 45.4517 31.5627 45.4692L31.5549 45.4693L31.5492 45.4694L31.5273 45.4693L31.5252 45.4693L31.5033 45.4694L31.4976 45.4693V45.4693L31.4898 45.4692C28.0525 45.4517 23.7822 43.9203 20.3709 41.3429C16.959 38.765 14.5004 35.2163 14.5004 31.2118C14.5004 29.3083 14.6441 27.4137 14.7902 25.489C14.8162 25.1462 14.8424 24.8185 14.8678 24.5002C14.9849 23.0336 15.0862 21.7653 15.0862 20.1264C15.0862 13.0937 22.3656 7.5072 31.5043 7.48876L31.5257 7.48873Z" fill="#F8D9CE" stroke="#150C0C" stroke-width="1.04774"/>
<circle cx="22.8829" cy="26.48" r="1.83355" fill="#150C0C"/>
<circle cx="23.2752" cy="26.0863" r="0.392903" fill="white" fill-opacity="0.9"/>
<circle cx="41.48" cy="26.48" r="1.83355" fill="#150C0C"/>
<circle cx="42.0037" cy="26.0863" r="0.392903" fill="white" fill-opacity="0.9"/>
<g clip-path="url(#clip0)">
<path d="M38.4493 22.3241C38.2883 22.4066 38.2248 22.6039 38.3073 22.7648C38.3898 22.9257 38.5871 22.9893 38.748 22.9068L38.4493 22.3241ZM45.2093 23.5298C45.3526 23.64 45.5582 23.6132 45.6684 23.4699C45.7787 23.3266 45.7519 23.121 45.6086 23.0108L45.2093 23.5298ZM38.748 22.9068C40.4383 22.0402 42.0473 22.1923 43.2471 22.5677C43.8477 22.7557 44.342 22.9987 44.6856 23.1946C44.8572 23.2923 44.9904 23.3779 45.0797 23.4382C45.1243 23.4684 45.1579 23.4922 45.1798 23.508C45.1907 23.5159 45.1987 23.5218 45.2036 23.5255C45.2061 23.5273 45.2078 23.5286 45.2088 23.5294C45.2092 23.5297 45.2095 23.5299 45.2096 23.53C45.2097 23.53 45.2096 23.53 45.2096 23.53C45.2096 23.53 45.2095 23.5299 45.2095 23.5299C45.2094 23.5298 45.2093 23.5298 45.409 23.2703C45.6086 23.0108 45.6085 23.0107 45.6084 23.0106C45.6083 23.0105 45.6081 23.0104 45.608 23.0103C45.6078 23.0101 45.6075 23.0099 45.6071 23.0096C45.6064 23.0091 45.6055 23.0084 45.6044 23.0076C45.6022 23.0059 45.5993 23.0037 45.5955 23.0009C45.588 22.9953 45.5774 22.9874 45.5638 22.9775C45.5365 22.9578 45.4971 22.9299 45.4463 22.8956C45.3448 22.827 45.1974 22.7325 45.0099 22.6256C44.6354 22.4122 44.0977 22.1478 43.4427 21.9428C42.1315 21.5325 40.3353 21.3571 38.4493 22.3241L38.748 22.9068Z" fill="black"/>
<path d="M25.9135 22.3241C26.0744 22.4066 26.138 22.6039 26.0555 22.7648C25.973 22.9257 25.7757 22.9893 25.6148 22.9068L25.9135 22.3241ZM19.1535 23.5298C19.0102 23.64 18.8046 23.6132 18.6943 23.4699C18.5841 23.3266 18.6109 23.121 18.7542 23.0108L19.1535 23.5298ZM25.6148 22.9068C23.9245 22.0402 22.3155 22.1923 21.1156 22.5677C20.5151 22.7557 20.0208 22.9987 19.6771 23.1946C19.5056 23.2923 19.3724 23.3779 19.2831 23.4382C19.2384 23.4684 19.2049 23.4922 19.183 23.508C19.1721 23.5159 19.1641 23.5218 19.1592 23.5255C19.1567 23.5273 19.155 23.5286 19.154 23.5294C19.1536 23.5297 19.1533 23.5299 19.1532 23.53C19.1531 23.53 19.1531 23.53 19.1532 23.53C19.1532 23.53 19.1533 23.5299 19.1533 23.5299C19.1534 23.5298 19.1535 23.5298 18.9538 23.2703C18.7542 23.0108 18.7543 23.0107 18.7544 23.0106C18.7545 23.0105 18.7546 23.0104 18.7548 23.0103C18.755 23.0101 18.7553 23.0099 18.7557 23.0096C18.7564 23.0091 18.7573 23.0084 18.7584 23.0076C18.7605 23.0059 18.7635 23.0037 18.7673 23.0009C18.7748 22.9953 18.7854 22.9874 18.799 22.9775C18.8263 22.9578 18.8657 22.9299 18.9165 22.8956C19.018 22.827 19.1654 22.7325 19.3529 22.6256C19.7274 22.4122 20.2651 22.1478 20.9201 21.9428C22.2313 21.5325 24.0275 21.3571 25.9135 22.3241L25.6148 22.9068Z" fill="black"/>
</g>
<circle r="0.458387" transform="matrix(1 0 0 -1 21.5072 34.9264)" fill="#9C6458" fill-opacity="0.5" style="mix-blend-mode:multiply"/>
<circle r="0.458387" transform="matrix(1 0 0 -1 22.4242 33.485)" fill="#9C6458" fill-opacity="0.5" style="mix-blend-mode:multiply"/>
<circle r="0.458387" transform="matrix(1 0 0 -1 23.9955 34.9264)" fill="#9C6458" fill-opacity="0.5" style="mix-blend-mode:multiply"/>
<circle cx="41.5455" cy="34.9264" r="0.458387" transform="rotate(-180 41.5455 34.9264)" fill="#9C6458" fill-opacity="0.5" style="mix-blend-mode:multiply"/>
<circle cx="40.6285" cy="33.485" r="0.458387" transform="rotate(-180 40.6285 33.485)" fill="#9C6458" fill-opacity="0.5" style="mix-blend-mode:multiply"/>
<circle cx="39.0572" cy="34.9264" r="0.458387" transform="rotate(-180 39.0572 34.9264)" fill="#9C6458" fill-opacity="0.5" style="mix-blend-mode:multiply"/>
<g clip-path="url(#clip1)">
<path d="M34.0833 26.7436C34.0181 23.7715 36.2411 21.1333 39.1788 20.6628C40.5915 20.4365 42.0101 20.4718 43.5204 20.8314C45.8286 21.3811 47.6285 23.3082 47.8012 25.6564C47.8965 26.9531 47.7693 28.2609 47.4264 29.4761C46.8673 31.4572 45.0453 32.8108 42.9776 33.097C41.6709 33.2779 40.3038 33.2779 38.8717 33.0219C36.5095 32.5997 34.6037 30.7356 34.2289 28.3735C34.1439 27.8382 34.0954 27.2959 34.0833 26.7436Z" stroke="#423636" stroke-width="0.392903"/>
<path d="M29.7556 26.7436C29.8208 23.7715 27.5977 21.1333 24.6601 20.6628C23.2474 20.4365 21.8287 20.4718 20.3185 20.8314C18.0103 21.3811 16.2103 23.3082 16.0377 25.6564C15.9424 26.9531 16.0696 28.2609 16.4125 29.4761C16.9716 31.4572 18.7935 32.8108 20.8613 33.097C22.168 33.2779 23.5351 33.2779 24.9671 33.0219C27.3294 32.5997 29.2351 30.7356 29.61 28.3735C29.6949 27.8382 29.7435 27.2959 29.7556 26.7436Z" stroke="#423636" stroke-width="0.392903"/>
<path d="M28.2524 22.616C28.2524 22.616 30.0497 21.8066 31.9086 21.8066C33.7675 21.8066 35.4557 22.8858 35.4557 22.8858" stroke="#423636" stroke-width="0.392903"/>
</g>
<path d="M27.2068 35.3152C27.2067 35.3152 27.2076 35.3144 27.2097 35.3129C27.2079 35.3145 27.2068 35.3152 27.2068 35.3152ZM27.3292 35.2568C27.3506 35.2489 27.3751 35.2405 27.4031 35.2317C27.6222 35.1628 27.9562 35.0998 28.3835 35.0475C29.2315 34.9438 30.3735 34.891 31.5237 34.891C32.6739 34.891 33.816 34.9438 34.664 35.0475C35.0912 35.0998 35.4253 35.1628 35.6444 35.2317C35.6755 35.2415 35.7023 35.2508 35.7254 35.2595C35.7188 35.2722 35.7113 35.2858 35.7027 35.3005C35.6466 35.3956 35.5569 35.5097 35.4308 35.6377C35.1788 35.8934 34.8133 36.1723 34.3825 36.4315C33.5104 36.9561 32.4564 37.3492 31.6554 37.3492C30.8503 37.3492 29.7278 36.9533 28.7862 36.4255C28.321 36.1647 27.9223 35.884 27.646 35.6262C27.5075 35.4971 27.4091 35.3823 27.3479 35.2872C27.341 35.2766 27.3348 35.2665 27.3292 35.2568ZM35.8407 35.3152C35.8406 35.3152 35.8395 35.3145 35.8378 35.3129C35.8398 35.3144 35.8407 35.3152 35.8407 35.3152Z" fill="#F9ECEC" stroke="#150C0C" stroke-width="0.785806"/>
<path d="M37.4848 36.0361C37.4848 36.0361 36.5946 35.7704 36.0677 35.1572C35.5407 34.5439 35.57 33.5508 35.57 33.5508" stroke="#150C0C" stroke-width="0.261936"/>
<path d="M25.4976 36.0361C25.4976 36.0361 26.3879 35.7704 26.9148 35.1572C27.4417 34.5439 27.4124 33.5508 27.4124 33.5508" stroke="#150C0C" stroke-width="0.261936"/>
<mask id="path-29-outside-3" maskUnits="userSpaceOnUse" x="13.9409" y="3" width="39" height="53" fill="black">
<rect fill="white" x="13.9409" y="3" width="39" height="53"/>
<path fill-rule="evenodd" clip-rule="evenodd" d="M51.0403 26.6545C51.0845 25.9516 51.1064 25.2375 51.1064 24.5142C51.1064 13.7368 43.7068 5 35.4558 5C31.7043 5 28.2001 6.05858 25.2256 7.89332C27.171 7.29749 29.2907 6.97074 31.5031 6.96628L31.5261 6.96624L31.5491 6.96623C40.8381 6.98497 48.49 12.6848 48.49 20.1278C48.49 21.7441 48.5894 22.9895 48.7063 24.4543C48.7252 24.6905 48.7445 24.9323 48.7639 25.1823C49.9666 25.3252 50.9094 26.6723 50.9094 28.313C50.9094 29.8096 50.125 31.0619 49.0745 31.3788C48.9716 37.796 42.9103 42.9386 36.892 45.0088C36.9885 46.722 37.1712 48.8374 37.5167 50.7091H44.5357C47.0262 50.7091 49.3291 51.6075 51.0403 53.1121V26.6545ZM26.6747 45.1783C22.5521 43.8796 18.3288 41.1116 15.9409 37.4543V51.0172C16.7372 50.8156 17.5724 50.7091 18.4285 50.7091H26.0597C26.3939 48.8986 26.5758 46.8603 26.6747 45.1783Z"/>
</mask>
<path fill-rule="evenodd" clip-rule="evenodd" d="M51.0403 26.6545C51.0845 25.9516 51.1064 25.2375 51.1064 24.5142C51.1064 13.7368 43.7068 5 35.4558 5C31.7043 5 28.2001 6.05858 25.2256 7.89332C27.171 7.29749 29.2907 6.97074 31.5031 6.96628L31.5261 6.96624L31.5491 6.96623C40.8381 6.98497 48.49 12.6848 48.49 20.1278C48.49 21.7441 48.5894 22.9895 48.7063 24.4543C48.7252 24.6905 48.7445 24.9323 48.7639 25.1823C49.9666 25.3252 50.9094 26.6723 50.9094 28.313C50.9094 29.8096 50.125 31.0619 49.0745 31.3788C48.9716 37.796 42.9103 42.9386 36.892 45.0088C36.9885 46.722 37.1712 48.8374 37.5167 50.7091H44.5357C47.0262 50.7091 49.3291 51.6075 51.0403 53.1121V26.6545ZM26.6747 45.1783C22.5521 43.8796 18.3288 41.1116 15.9409 37.4543V51.0172C16.7372 50.8156 17.5724 50.7091 18.4285 50.7091H26.0597C26.3939 48.8986 26.5758 46.8603 26.6747 45.1783Z" fill="#150C0C"/>
<path d="M51.0403 26.6545L49.9946 26.5887L49.9925 26.6216V26.6545H51.0403ZM25.2256 7.89332L24.6755 7.00158L25.5324 8.89513L25.2256 7.89332ZM31.5031 6.96628L31.5015 5.91854L31.501 5.91854L31.5031 6.96628ZM31.5261 6.96624L31.5256 5.9185L31.5245 5.9185L31.5261 6.96624ZM31.5491 6.96623L31.5512 5.91849L31.5486 5.91849L31.5491 6.96623ZM48.7063 24.4543L47.6619 24.5377V24.5377L48.7063 24.4543ZM48.7639 25.1823L47.7193 25.2634L47.7859 26.1213L48.6403 26.2228L48.7639 25.1823ZM49.0745 31.3788L48.7718 30.3757L48.0391 30.5968L48.0269 31.362L49.0745 31.3788ZM36.892 45.0088L36.5512 44.018L35.8013 44.2759L35.8459 45.0677L36.892 45.0088ZM37.5167 50.7091L36.4864 50.8993L36.6447 51.7568H37.5167V50.7091ZM51.0403 53.1121L50.3484 53.8989L52.088 55.4284V53.1121H51.0403ZM15.9409 37.4543L16.8182 36.8815L14.8932 33.9331V37.4543H15.9409ZM26.6747 45.1783L27.7206 45.2398L27.7686 44.4243L26.9895 44.1789L26.6747 45.1783ZM15.9409 51.0172H14.8932V52.3631L16.198 52.0329L15.9409 51.0172ZM26.0597 50.7091V51.7568H26.9317L27.09 50.8993L26.0597 50.7091ZM50.0587 24.5142C50.0587 25.2163 50.0374 25.9085 49.9946 26.5887L52.086 26.7203C52.1316 25.9947 52.1542 25.2587 52.1542 24.5142H50.0587ZM35.4558 6.04774C42.9389 6.04774 50.0587 14.1061 50.0587 24.5142H52.1542C52.1542 13.3675 44.4746 3.95226 35.4558 3.95226V6.04774ZM25.7756 8.78507C28.5896 7.04938 31.9041 6.04774 35.4558 6.04774V3.95226C31.5046 3.95226 27.8107 5.06778 24.6755 7.00158L25.7756 8.78507ZM31.501 5.91854C29.1872 5.92321 26.9648 6.26487 24.9188 6.89151L25.5324 8.89513C27.3773 8.33012 29.3941 8.01828 31.5052 8.01402L31.501 5.91854ZM31.5245 5.9185L31.5015 5.91854L31.5047 8.01402L31.5277 8.01398L31.5245 5.9185ZM31.5486 5.91849L31.5256 5.9185L31.5266 8.01398L31.5496 8.01397L31.5486 5.91849ZM49.5378 20.1278C49.5378 11.8641 41.1407 5.93784 31.5512 5.91849L31.547 8.01397C40.5355 8.03211 47.4423 13.5054 47.4423 20.1278H49.5378ZM49.7507 24.371C49.6338 22.9056 49.5378 21.6978 49.5378 20.1278H47.4423C47.4423 21.7905 47.545 23.0734 47.6619 24.5377L49.7507 24.371ZM49.8085 25.1012C49.789 24.8499 49.7696 24.607 49.7507 24.3709L47.6619 24.5377C47.6808 24.774 47.7 25.0147 47.7193 25.2634L49.8085 25.1012ZM51.9572 28.313C51.9572 26.3856 50.8284 24.3724 48.8875 24.1419L48.6403 26.2228C49.1048 26.2779 49.8617 26.9591 49.8617 28.313H51.9572ZM49.3771 32.3819C51.016 31.8875 51.9572 30.0987 51.9572 28.313H49.8617C49.8617 29.5205 49.234 30.2363 48.7718 30.3757L49.3771 32.3819ZM37.2328 45.9995C40.3795 44.9171 43.5454 43.0314 45.9529 40.5541C48.3614 38.0759 50.0652 34.944 50.1221 31.3956L48.0269 31.362C47.9809 34.2307 46.6027 36.8788 44.4502 39.0937C42.2967 41.3096 39.4228 43.0302 36.5512 44.018L37.2328 45.9995ZM38.5471 50.5188C38.2132 48.7103 38.0336 46.6451 37.938 44.9498L35.8459 45.0677C35.9434 46.799 36.1292 48.9645 36.4864 50.8993L38.5471 50.5188ZM44.5357 49.6613H37.5167V51.7568H44.5357V49.6613ZM51.7321 52.3252C49.8275 50.6506 47.2779 49.6613 44.5357 49.6613V51.7568C46.7745 51.7568 48.8307 52.5645 50.3484 53.8989L51.7321 52.3252ZM49.9925 26.6545V53.1121H52.088V26.6545H49.9925ZM15.0636 38.0271C17.6125 41.931 22.0612 44.8235 26.3599 46.1776L26.9895 44.1789C23.0429 42.9357 19.0451 40.2922 16.8182 36.8815L15.0636 38.0271ZM16.9887 51.0172V37.4543H14.8932V51.0172H16.9887ZM18.4285 49.6613C17.4855 49.6613 16.5639 49.7787 15.6838 50.0014L16.198 52.0329C16.9105 51.8525 17.6594 51.7568 18.4285 51.7568V49.6613ZM26.0597 49.6613H18.4285V51.7568H26.0597V49.6613ZM25.6288 45.1167C25.5309 46.7804 25.3522 48.7699 25.0293 50.5188L27.09 50.8993C27.4356 49.0274 27.6206 46.9401 27.7206 45.2398L25.6288 45.1167Z" fill="#150C0C" mask="url(#path-29-outside-3)"/>
<path d="M43.3099 11.4725C40.1412 16.2224 35.9998 17.4915 32.102 18.5526C31.9399 18.5967 31.7778 18.6405 31.616 18.6843C27.8355 19.7064 24.1868 20.6929 22.4749 24.9753C20.6505 29.5388 19.6083 34.8412 19.6083 40.493C19.6083 48.805 21.8631 56.3696 25.5529 61.9368C21.2872 60.5572 17.4898 57.1745 14.669 52.4263C11.5527 47.1805 9.65473 40.3061 9.65473 32.7659C9.65473 16.1179 18.8489 4.60786 29.8892 4.60786C35.2616 4.60786 40.3504 8.29562 43.3099 11.4725Z" fill="#150C0C" stroke="#150C0C" stroke-width="1.04774"/>
</g>
<defs>
<clipPath id="clip0">
<rect width="27.2413" height="3.27419" fill="white" transform="translate(18.5605 21.502)"/>
</clipPath>
<clipPath id="clip1">
<rect width="32.2181" height="13.4897" fill="white" transform="translate(15.8101 20.3223)"/>
</clipPath>
</defs>
</svg>
