<svg width="171" height="213" viewBox="0 0 171 213" fill="none" xmlns="http://www.w3.org/2000/svg">
<path fill-rule="evenodd" clip-rule="evenodd" d="M141.977 187.486C137.04 189.767 131.63 192.051 126.452 194.774C124.641 195.726 123.272 197.221 121.167 195.858C120.734 195.577 120.075 195.182 120.055 194.804C119.721 188.393 116.62 182.786 115.084 176.733C114.055 172.68 113.761 168.527 115.617 164.537C115.987 163.741 116.978 163.219 117.682 162.571C118.292 163.268 119.19 163.864 119.464 164.676C121.453 170.583 123.376 176.515 125.185 182.481C125.753 184.353 126.577 184.282 128.173 183.635C131.855 182.142 135.65 180.937 139.35 179.486C140.932 178.867 142.392 177.932 143.899 177.125C144.025 177.058 144.059 176.786 144.18 176.747C145.422 176.34 147.464 175.321 147.774 175.698C148.67 176.786 149.265 178.431 149.266 179.87C149.268 184.318 145.186 185.265 141.977 187.486Z" fill="#D8E2F1" fill-opacity="0.4"/>
<path fill-rule="evenodd" clip-rule="evenodd" d="M119.513 106.417C119.664 106.218 119.815 106.017 119.967 105.818L113.575 101.914C113.421 102.159 113.269 102.405 113.116 102.65C115.247 103.906 117.381 105.162 119.513 106.417ZM90.0589 64.2854C90.1637 64.12 90.2686 63.9547 90.3734 63.7893C87.2211 61.4032 84.0681 59.0176 80.9145 56.6312C80.7399 56.8588 80.5657 57.0871 80.3919 57.3143C83.614 59.6381 86.8368 61.9615 90.0589 64.2854ZM88.4814 105.214C86.3585 107.002 84.1993 108.751 82.1233 110.593C80.8409 111.73 80.9806 112.872 82.1347 114.154C85.7521 118.168 91.7803 119.235 96.925 116.85C102.533 114.251 104.098 109.315 104.837 103.904C104.895 103.481 103.883 102.61 103.245 102.467C97.9869 101.289 93.2118 102.799 88.4814 105.214ZM98.3792 79.8258C91.6703 66.9545 80.8033 59.1024 67.399 54.145C52.1392 48.5014 36.2394 46.4335 20.0361 45.9161C15.129 45.7593 10.2141 45.7281 5.31589 45.4534C4.00165 45.3807 2.44568 44.9248 1.54295 44.0761C0.919853 43.4906 1.22881 41.9277 1.12257 40.8011C1.81461 40.7734 2.50951 40.7123 3.20023 40.7244C5.06173 40.7582 6.93168 40.9772 8.7809 40.8465C14.7998 40.4229 20.8051 39.7738 26.8258 39.4118C30.8839 39.1679 34.9668 39.0978 39.0218 39.2643C41.583 39.3699 44.0992 40.1859 46.6622 40.4505C50.7241 40.8709 54.8887 40.7174 58.8662 41.4948C65.0579 42.7032 71.3368 43.9535 77.209 46.1403C90.1905 50.9744 100.024 59.4786 106.177 72.0884C109.041 77.9562 112.103 83.6469 112.924 90.2647C113.013 90.9881 114.02 91.864 114.803 92.1754C122.703 95.3063 128.893 100.545 133.46 107.521C136.878 112.741 140.465 118.042 142.653 123.815C144.489 128.658 144.834 134.213 145.056 139.495C145.252 144.19 144.663 148.986 143.902 153.661C142.817 160.32 139.852 166.305 135.589 171.574C134.977 172.33 133.217 172.626 132.124 172.431C130.908 172.215 130.745 171.005 130.617 169.594C130.216 165.177 132.731 161.865 134.519 158.321C137.907 151.608 138.165 144.58 136.494 137.656C133.642 125.841 126.674 116.435 117.51 108.672C112.559 104.479 112.368 104.656 110.707 110.706C108.521 118.668 104.062 124.919 96.5454 128.676C87.8202 133.036 77.9227 129.477 73.7944 120.763C72.499 118.027 73.1116 115.315 73.8123 112.646C75.4047 106.585 78.9186 101.707 83.8772 97.8838C89.0061 93.9283 94.4565 90.6393 101.186 90.2779C102.811 90.1904 103.019 89.2683 102.331 87.9134C100.974 85.2374 99.6925 82.5237 98.3792 79.8258Z" fill="#D8E2F1" fill-opacity="0.4"/>
</svg>
