<svg width="201" height="241" viewBox="0 0 201 241" fill="none" xmlns="http://www.w3.org/2000/svg">
<g opacity="0.1">
<path fill-rule="evenodd" clip-rule="evenodd" d="M31.41 209.765C36.9108 212.614 42.9481 215.49 48.7001 218.854C50.7115 220.029 52.1927 221.8 54.6573 220.357C55.1635 220.06 55.9341 219.645 55.9761 219.216C56.6849 211.938 60.5001 205.718 62.5581 198.911C63.9359 194.352 64.4838 189.643 62.577 185.008C62.196 184.083 61.0962 183.438 60.3279 182.665C59.5988 183.427 58.5464 184.059 58.1933 184.969C55.6274 191.587 53.135 198.238 50.7709 204.932C50.0291 207.032 49.0953 206.91 47.313 206.092C43.2002 204.205 38.9439 202.639 34.8087 200.799C33.0408 200.014 31.4279 198.875 29.7547 197.88C29.615 197.797 29.5899 197.485 29.455 197.435C28.0617 196.909 25.7907 195.644 25.4189 196.057C24.3446 197.249 23.583 199.091 23.5083 200.728C23.2779 205.788 27.873 207.074 31.41 209.765Z" fill="#213D70"/>
<path fill-rule="evenodd" clip-rule="evenodd" d="M61.1234 118.682C60.9614 118.448 60.7996 118.212 60.6376 117.978L68.1092 113.863C68.2718 114.15 68.433 114.438 68.5947 114.725C66.1049 116.044 63.6131 117.364 61.1234 118.682ZM96.7931 72.2583C96.6822 72.0648 96.5714 71.8713 96.4606 71.6779C100.169 69.1248 103.879 66.5722 107.589 64.0188C107.776 64.2866 107.962 64.5554 108.149 64.8227C104.364 67.3014 100.578 69.7796 96.7931 72.2583ZM96.49 118.904C98.8136 121.048 101.181 123.148 103.448 125.35C104.849 126.709 104.631 128.001 103.253 129.4C98.9312 133.782 92.0182 134.687 86.2872 131.71C80.04 128.465 78.5127 122.769 77.9489 116.576C77.9044 116.091 79.1005 115.152 79.8341 115.022C85.8766 113.952 91.2319 115.914 96.49 118.904ZM86.5304 89.5124C94.8229 75.2125 107.589 66.836 123.093 61.883C140.744 56.2443 158.939 54.7065 177.4 54.9483C182.991 55.0215 188.585 55.238 194.171 55.1764C195.67 55.1611 197.464 54.7221 198.535 53.8028C199.273 53.1686 199.002 51.3747 199.181 50.0983C198.395 50.0314 197.607 49.9262 196.821 49.9046C194.701 49.8477 192.563 50.001 190.465 49.7575C183.639 48.967 176.84 47.9208 170.009 47.2004C165.405 46.7149 160.763 46.4258 156.141 46.4074C153.222 46.3963 150.317 47.1957 147.388 47.3654C142.745 47.6355 138.015 47.2474 133.45 47.9279C126.343 48.9855 119.136 50.0861 112.343 52.273C97.3256 57.1076 85.7022 66.2788 78.0551 80.3098C74.4962 86.8389 70.7212 93.1563 69.448 100.643C69.3091 101.462 68.119 102.407 67.2113 102.721C58.0638 105.878 50.7522 111.521 45.1989 119.224C41.0427 124.988 36.6896 130.834 33.9048 137.291C31.5679 142.706 30.8904 149.009 30.3673 155.006C29.9037 160.338 30.3277 165.825 30.954 171.182C31.8476 178.814 34.9141 185.775 39.4941 191.988C40.1517 192.88 42.1381 193.307 43.3921 193.141C44.7862 192.958 45.0338 191.589 45.2521 189.99C45.9345 184.986 43.2426 181.088 41.3905 176.965C37.88 169.153 37.9461 161.145 40.2027 153.353C44.0524 140.058 52.4625 129.713 63.286 121.351C69.134 116.834 69.342 117.045 70.9223 124.013C73.0015 133.184 77.7532 140.525 86.113 145.184C95.8162 150.592 107.259 147.05 112.403 137.347C114.017 134.301 113.459 131.184 112.798 128.112C111.297 121.134 107.549 115.404 102.104 110.801C96.4715 106.037 90.4391 102.016 82.801 101.26C80.9567 101.077 80.7676 100.017 81.6194 98.5112C83.3006 95.5362 84.898 92.5145 86.5304 89.5124Z" fill="#213D70"/>
</g>
</svg>
