<svg width="60" height="61" viewBox="0 0 60 61" fill="none" xmlns="http://www.w3.org/2000/svg">
<g clip-path="url(#clip0)">
<path d="M30 8.79094C28.965 8.79094 28.125 7.95094 28.125 6.91594V2.02344C28.125 0.988437 28.965 0.148438 30 0.148438C31.035 0.148438 31.875 0.988437 31.875 2.02344V6.91594C31.875 7.95094 31.035 8.79094 30 8.79094Z" fill="white"/>
<path d="M46.4276 15.5966C45.9476 15.5966 45.4676 15.4141 45.1026 15.0466C44.3701 14.3141 44.3701 13.1266 45.1026 12.3941L48.5626 8.93414C49.2951 8.20164 50.4826 8.20164 51.2151 8.93414C51.9476 9.66664 51.9476 10.8541 51.2151 11.5866L47.7551 15.0466C47.3876 15.4116 46.9076 15.5966 46.4276 15.5966Z" fill="white"/>
<path d="M58.1249 32.0234H53.2324C52.1974 32.0234 51.3574 31.1834 51.3574 30.1484C51.3574 29.1134 52.1974 28.2734 53.2324 28.2734H58.1249C59.1599 28.2734 60 29.1134 60 30.1484C60 31.1834 59.1599 32.0234 58.1249 32.0234Z" fill="white"/>
<path d="M49.8876 51.9111C49.4076 51.9111 48.9276 51.7286 48.5626 51.3611L45.1026 47.9011C44.3701 47.1686 44.3701 45.9811 45.1026 45.2486C45.8351 44.5161 47.0226 44.5161 47.7551 45.2486L51.2151 48.7086C51.9476 49.4411 51.9476 50.6286 51.2151 51.3611C50.8476 51.7286 50.3676 51.9111 49.8876 51.9111Z" fill="white"/>
<path d="M10.1127 51.9111C9.63265 51.9111 9.15265 51.7286 8.78766 51.3611C8.05516 50.6286 8.05516 49.4411 8.78766 48.7086L12.2477 45.2486C12.9801 44.5161 14.1676 44.5161 14.9001 45.2486C15.6326 45.9811 15.6326 47.1686 14.9001 47.9011L11.4402 51.3611C11.0727 51.7286 10.5927 51.9111 10.1127 51.9111Z" fill="white"/>
<path d="M6.7675 32.0234H1.875C0.84 32.0234 0 31.1834 0 30.1484C0 29.1134 0.84 28.2734 1.875 28.2734H6.7675C7.8025 28.2734 8.6425 29.1134 8.6425 30.1484C8.6425 31.1834 7.8025 32.0234 6.7675 32.0234Z" fill="white"/>
<path d="M13.5726 15.5966C13.0926 15.5966 12.6126 15.4141 12.2477 15.0466L8.78766 11.5866C8.05516 10.8541 8.05516 9.66664 8.78766 8.93414C9.52015 8.20164 10.7077 8.20164 11.4402 8.93414L14.9001 12.3941C15.6326 13.1266 15.6326 14.3141 14.9001 15.0466C14.5301 15.4116 14.0526 15.5966 13.5726 15.5966Z" fill="white"/>
<path d="M37.5 52.6484V55.7734C37.5 58.1734 35.525 60.1484 33.125 60.1484H26.875C24.775 60.1484 22.5 58.5484 22.5 55.0484V52.6484H37.5Z" fill="white"/>
<path d="M41.025 16.547C36.925 13.222 31.525 11.922 26.25 13.047C19.625 14.422 14.25 19.822 12.875 26.447C11.475 33.247 14.025 39.997 19.475 44.122C20.95 45.222 21.975 46.922 22.325 48.897V48.922C22.375 48.897 22.45 48.897 22.5 48.897H37.5C37.55 48.897 37.575 48.897 37.625 48.922V48.897C37.975 46.997 39.1 45.247 40.825 43.897C45.05 40.547 47.5 35.547 47.5 30.147C47.5 24.847 45.15 19.897 41.025 16.547ZM39.375 31.397C38.35 31.397 37.5 30.547 37.5 29.522C37.5 25.722 34.425 22.647 30.625 22.647C29.6 22.647 28.75 21.797 28.75 20.772C28.75 19.747 29.6 18.897 30.625 18.897C36.475 18.897 41.25 23.672 41.25 29.522C41.25 30.547 40.4 31.397 39.375 31.397Z" fill="white"/>
<path d="M22.325 48.8984H22.4999C22.4499 48.8984 22.375 48.8984 22.325 48.9234V48.8984Z" fill="white"/>
<path d="M37.625 48.8984V48.9234C37.575 48.8984 37.55 48.8984 37.5 48.8984H37.625Z" fill="white"/>
</g>
<defs>
<clipPath id="clip0">
<rect width="60" height="60" fill="white" transform="translate(0 0.148438)"/>
</clipPath>
</defs>
</svg>
