<svg width="60" height="61" viewBox="0 0 60 61" fill="none" xmlns="http://www.w3.org/2000/svg">
<g clip-path="url(#clip0)">
<path d="M42 18.1484H18V42.1484H42V18.1484Z" fill="white"/>
<path d="M57 33.1484C58.8 33.1484 60 31.9484 60 30.1484C60 28.6484 58.8 27.1484 57 27.1484H54V21.1484H57C58.8 21.1484 60 19.9484 60 18.1484C60 16.6484 58.8 15.1484 57 15.1484H54V12.1484C54 8.84844 51.3 6.14844 48 6.14844H45V3.14844C45 1.64844 43.8 0.148438 42 0.148438C40.5 0.148438 39 1.34844 39 3.14844V6.14844H33V3.14844C33 1.64844 31.8 0.148438 30 0.148438C28.2 0.148438 27 1.34844 27 3.14844V6.14844H21V3.14844C21 1.64844 19.8 0.148438 18 0.148438C16.2 0.148438 15 1.34844 15 3.14844V6.14844H12C8.7 6.14844 6 8.84844 6 12.1484V15.1484H3C1.2 15.1484 0 16.3484 0 18.1484C0 19.6484 1.2 21.1484 3 21.1484H6V27.1484H3C1.2 27.1484 0 28.3484 0 30.1484C0 31.6484 1.2 33.1484 3 33.1484H6V39.1484H3C1.2 39.1484 0 40.3484 0 42.1484C0 43.6484 1.2 45.1484 3 45.1484H6V48.1484C6 51.4484 8.7 54.1484 12 54.1484H15V57.1484C15 58.6484 16.2 60.1484 18 60.1484C19.8 60.1484 21 58.9484 21 57.1484V54.1484H27V57.1484C27 58.6484 28.2 60.1484 30 60.1484C31.8 60.1484 33 58.9484 33 57.1484V54.1484H39V57.1484C39 58.6484 40.2 60.1484 42 60.1484C43.5 60.1484 45 58.9484 45 57.1484V54.1484H48C51.3 54.1484 54 51.4484 54 48.1484V45.1484H57C58.8 45.1484 60 43.9484 60 42.1484C60 40.6484 58.8 39.1484 57 39.1484H54V33.1484H57ZM48 48.1484H12V12.1484H48V48.1484Z" fill="white"/>
</g>
<defs>
<clipPath id="clip0">
<rect width="60" height="60" fill="white" transform="translate(0 0.148438)"/>
</clipPath>
</defs>
</svg>
