<svg width="60" height="61" viewBox="0 0 60 61" fill="none" xmlns="http://www.w3.org/2000/svg">
<g clip-path="url(#clip0)">
<path d="M42.7673 28.3917H45.5278C44.7166 21.1761 38.9727 15.4322 31.7571 14.6211V17.3816H28.2433V14.6211C21.0277 15.4322 15.2838 21.1761 14.4727 28.3917H17.2332V31.9056H14.4727C15.2838 39.1212 21.0277 44.8651 28.2433 45.6762V42.9157H31.7571V45.6762C38.9727 44.8651 44.7166 39.1212 45.5278 31.9056H42.7673V28.3917ZM33.7346 36.3677L28.2433 30.8764V20.8957H31.7571V29.4209L36.2193 33.8832L33.7346 36.3677Z" fill="white"/>
<path d="M60 37.1009V23.1961H55.5922C55.0022 21.0158 54.1381 18.9304 53.0115 16.9691L56.1294 13.8514L46.2972 4.0192L43.1795 7.13705C41.218 6.01039 39.1327 5.14621 36.9524 4.55623V0.148438H23.0476V4.55612C20.8673 5.1461 18.782 6.01039 16.8205 7.13694L13.7028 4.01908L3.87064 13.8514L6.9885 16.9691C5.86195 18.9304 4.99777 21.0158 4.4078 23.1961H0V37.1009H4.4078C4.99777 39.2814 5.86184 41.3663 6.9885 43.3279L3.87064 46.4456L13.7028 56.2778L16.8205 53.1601C18.782 54.2866 20.8673 55.1509 23.0476 55.7409V60.1484H36.9523V55.7409C39.1325 55.1508 41.2179 54.2866 43.1794 53.1601L46.2971 56.2778L56.1292 46.4456L53.0114 43.3279C54.1381 41.3665 55.0021 39.2816 55.5921 37.1009H60ZM30 49.2892C19.4457 49.2892 10.8593 40.7027 10.8593 30.1484C10.8593 19.5942 19.4457 11.0077 30 11.0077C40.5543 11.0077 49.1407 19.5942 49.1407 30.1484C49.1407 40.7027 40.5543 49.2892 30 49.2892Z" fill="white"/>
</g>
<defs>
<clipPath id="clip0">
<rect width="60" height="60" fill="white" transform="translate(0 0.148438)"/>
</clipPath>
</defs>
</svg>
