<svg width="65" height="64" viewBox="0 0 65 64" fill="none" xmlns="http://www.w3.org/2000/svg">
<path d="M0.640137 18H7.36014C9.5468 18 11.1868 18.5867 12.2801 19.76C13.3735 20.9333 13.9201 22.6533 13.9201 24.92V39.08C13.9201 41.3467 13.3735 43.0667 12.2801 44.24C11.1868 45.4133 9.5468 46 7.36014 46H0.640137V18ZM7.28014 42C8.00014 42 8.5468 41.7867 8.92014 41.36C9.32014 40.9333 9.52014 40.24 9.52014 39.28V24.72C9.52014 23.76 9.32014 23.0667 8.92014 22.64C8.5468 22.2133 8.00014 22 7.28014 22H5.04014V42H7.28014Z" fill="#373737"/>
<path d="M20.212 18H26.172L30.732 46H26.332L25.532 40.44V40.52H20.532L19.732 46H15.652L20.212 18ZM25.012 36.72L23.052 22.88H22.972L21.052 36.72H25.012Z" fill="#373737"/>
<path d="M32.8667 18H37.2667V46H32.8667V18Z" fill="#373737"/>
<path d="M40.562 18H44.962V42H52.202V46H40.562V18Z" fill="#373737"/>
<path d="M54.8364 34.08L49.5164 18H54.1964L57.1964 28.28H57.2764L60.2764 18H64.5564L59.2364 34.08V46H54.8364V34.08Z" fill="#373737"/>
</svg>
